<svg xmlns="http://www.w3.org/2000/svg" xmlns:xlink="http://www.w3.org/1999/xlink" preserveAspectRatio="xMidYMid" width="22" height="25.031" viewBox="0 0 22 25.031">
  <defs>
    <style>
      .cls-1 {
        fill: #3c4042;
        fill-rule: evenodd;
      }
    </style>
  </defs>
  <path d="M22.000,11.031 C22.000,11.031 21.261,14.920 17.299,20.364 C15.767,22.654 12.907,24.643 11.812,25.030 L10.237,25.030 C9.127,24.647 6.326,22.664 4.773,20.364 C0.787,15.698 -0.000,11.031 -0.000,11.031 C-0.000,11.031 0.871,9.549 2.152,8.021 C1.151,5.603 -0.518,0.743 0.167,0.046 C0.927,0.046 5.298,0.780 8.473,4.371 C9.961,4.119 11.073,4.031 11.073,4.031 C11.073,4.031 11.964,4.053 13.555,4.337 C16.728,0.749 21.075,0.015 21.833,0.015 C22.513,0.711 20.872,5.542 19.869,7.994 C21.138,9.532 22.000,11.031 22.000,11.031 ZM1.091,1.241 C1.302,2.587 2.163,5.255 2.920,7.157 C3.952,6.071 5.154,5.103 6.349,4.808 C6.656,4.732 6.962,4.663 7.261,4.601 C5.059,2.363 2.449,1.533 1.091,1.241 ZM11.096,5.028 C10.735,5.060 8.688,5.256 6.589,5.774 C4.502,6.290 2.059,9.613 1.060,11.209 C1.327,12.334 2.396,16.044 5.535,19.719 L5.572,19.762 L5.604,19.809 C7.017,21.904 9.486,23.625 10.425,24.035 L11.620,24.035 C12.585,23.610 15.088,21.873 16.466,19.812 L16.477,19.796 L16.489,19.780 C19.611,15.491 20.658,12.227 20.934,11.192 C19.955,9.594 17.569,6.288 15.510,5.774 C12.985,5.145 11.388,5.042 11.096,5.028 ZM20.909,1.218 C19.556,1.511 16.960,2.342 14.763,4.577 C15.076,4.645 15.405,4.721 15.754,4.808 C16.924,5.100 18.095,6.049 19.102,7.120 C19.853,5.208 20.700,2.560 20.909,1.218 ZM7.875,17.999 L14.174,17.999 L11.024,21.124 L7.875,17.999 Z" class="cls-1"/>
</svg>
