<svg xmlns="http://www.w3.org/2000/svg" xmlns:xlink="http://www.w3.org/1999/xlink" preserveAspectRatio="xMidYMid" width="20" height="23" viewBox="0 0 20 23">
  <defs>
    <style>
      .cls-1 {
        fill: #3c4042;
        fill-rule: evenodd;
      }
    </style>
  </defs>
  <path d="M10.007,22.999 C4.912,22.999 0.013,18.365 0.013,12.648 C0.013,6.932 4.912,-0.002 10.007,-0.002 C15.102,-0.002 20.000,6.932 20.000,12.648 C20.000,18.365 15.102,22.999 10.007,22.999 ZM9.990,1.000 C5.469,1.000 0.985,7.580 0.985,12.709 C0.985,17.838 5.469,21.997 9.990,21.997 C14.512,21.997 18.996,17.838 18.996,12.709 C18.996,7.580 14.512,1.000 9.990,1.000 ZM16.000,14.999 L15.906,14.968 C15.440,17.815 12.984,19.994 10.000,19.994 C7.015,19.994 4.559,17.815 4.093,14.968 L4.000,14.999 L4.000,14.041 C4.000,14.028 3.996,14.015 3.996,14.002 C3.996,10.692 6.684,8.009 10.000,8.009 C13.315,8.009 16.003,10.692 16.003,14.002 C16.003,14.013 16.000,14.024 16.000,14.036 L16.000,14.999 ZM9.999,18.992 C12.540,18.992 14.615,17.093 14.934,14.644 L10.000,12.999 L5.065,14.644 C5.384,17.093 7.459,18.992 9.999,18.992 ZM9.999,9.013 C7.358,9.013 5.218,11.063 5.036,13.654 L10.000,11.999 L14.963,13.653 C14.781,11.063 12.641,9.013 9.999,9.013 Z" class="cls-1"/>
</svg>
