<svg xmlns="http://www.w3.org/2000/svg" xmlns:xlink="http://www.w3.org/1999/xlink" preserveAspectRatio="xMidYMid" width="25" height="22" viewBox="0 0 25 22">
  <defs>
    <style>
      .cls-1 {
        fill: #3c4042;
        fill-rule: evenodd;
      }
    </style>
  </defs>
  <path d="M19.907,6.964 C19.881,7.138 19.851,7.317 19.812,7.506 L19.693,8.826 C18.539,14.502 17.138,19.100 15.494,21.051 C15.494,21.051 14.501,21.999 12.586,21.999 C10.709,21.999 9.679,21.051 9.679,21.051 C7.909,18.950 6.270,12.632 5.192,7.511 C5.152,7.320 5.121,7.140 5.094,6.964 C1.942,6.803 -0.000,1.856 -0.000,1.856 L-0.000,0.999 L7.285,0.999 C8.688,0.117 11.322,-0.001 12.586,-0.001 C13.821,-0.001 16.391,0.117 17.764,0.999 L25.000,0.999 L25.000,1.856 C25.000,1.856 23.058,6.802 19.907,6.964 ZM1.152,1.999 C1.801,3.381 3.264,5.744 5.006,5.951 C4.985,4.447 5.507,3.573 5.983,2.782 C6.142,2.517 6.287,2.264 6.411,1.999 L1.152,1.999 ZM7.395,2.259 C7.237,2.637 7.038,2.967 6.847,3.287 C6.264,4.256 5.719,5.160 6.170,7.305 C6.543,9.074 6.924,10.701 7.306,12.175 C7.554,10.988 7.999,9.665 8.795,8.838 C9.331,8.281 9.990,7.999 10.752,7.999 C12.914,7.999 13.621,3.114 13.739,1.032 C13.379,1.011 12.996,0.999 12.586,0.999 C9.385,0.999 7.651,1.653 7.395,2.259 ZM17.638,2.257 C17.454,1.810 16.484,1.338 14.735,1.122 C14.640,2.683 14.053,8.997 10.752,8.997 C10.266,8.997 9.861,9.171 9.516,9.529 C8.370,10.719 7.971,13.609 8.002,14.673 C8.837,17.460 9.658,19.429 10.392,20.345 C10.563,20.477 11.320,20.999 12.586,20.999 C13.876,20.999 14.609,20.482 14.778,20.348 C15.731,19.175 17.170,16.194 18.702,8.681 L18.816,7.417 L18.821,7.360 L18.833,7.305 C19.273,5.161 18.743,4.256 18.181,3.297 C17.990,2.973 17.795,2.640 17.638,2.257 ZM18.621,1.999 C18.742,2.267 18.886,2.522 19.042,2.788 C19.505,3.578 20.014,4.451 19.993,5.951 C21.735,5.745 23.198,3.382 23.848,1.999 L18.621,1.999 Z" class="cls-1"/>
</svg>
