<svg xmlns="http://www.w3.org/2000/svg" xmlns:xlink="http://www.w3.org/1999/xlink" preserveAspectRatio="xMidYMid" width="25" height="16" viewBox="0 0 25 16">
  <defs>
    <style>
      .cls-1 {
        fill: #3c4042;
        fill-rule: evenodd;
      }
    </style>
  </defs>
  <path d="M19.000,14.944 L19.000,14.992 L18.909,14.992 C18.649,15.115 18.381,15.229 18.105,15.330 C16.827,15.797 15.652,15.999 14.578,15.999 C8.995,15.999 6.104,10.552 5.318,8.607 L-0.000,13.600 L-0.000,1.599 L5.302,7.294 C6.064,5.423 9.152,-0.001 14.839,-0.001 C15.926,-0.001 17.108,0.197 18.387,0.656 C22.889,2.271 25.000,7.116 25.000,7.924 C25.000,8.691 22.922,13.024 19.000,14.944 ZM1.000,4.141 L1.000,11.289 L4.551,7.955 L1.000,4.141 ZM6.227,7.671 L6.123,7.929 L6.245,8.231 C6.702,9.362 9.249,14.999 14.578,14.999 C15.588,14.999 16.659,14.795 17.761,14.391 C17.843,14.361 17.920,14.323 18.000,14.291 L18.000,1.582 C16.912,1.197 15.848,0.999 14.839,0.999 C9.015,0.999 6.339,7.399 6.227,7.671 ZM19.000,2.017 L19.000,13.815 C22.169,12.045 23.845,8.617 23.995,7.917 C23.854,7.133 22.234,3.669 19.000,2.017 Z" class="cls-1"/>
</svg>
