<svg xmlns="http://www.w3.org/2000/svg" xmlns:xlink="http://www.w3.org/1999/xlink" preserveAspectRatio="xMidYMid" width="25" height="23" viewBox="0 0 25 23">
  <defs>
    <style>
      .cls-1 {
        fill: #3c4042;
        fill-rule: evenodd;
      }
    </style>
  </defs>
  <path d="M21.817,13.719 C21.935,14.167 22.000,14.628 22.000,15.101 C22.000,19.026 17.746,22.998 12.500,22.998 C7.253,22.998 3.000,19.026 3.000,15.101 C3.000,14.628 3.065,14.167 3.183,13.719 C1.345,13.028 -0.000,10.964 -0.000,8.494 C-0.000,5.461 2.015,3.003 4.500,3.003 C5.106,3.003 5.682,3.153 6.210,3.419 C7.547,1.362 9.862,-0.001 12.500,-0.001 C15.137,-0.001 17.452,1.362 18.789,3.419 C19.317,3.153 19.894,3.003 20.500,3.003 C22.985,3.003 25.000,5.461 25.000,8.494 C25.000,10.964 23.655,13.028 21.817,13.719 ZM4.500,4.006 C2.567,4.006 1.000,6.015 1.000,8.493 C1.000,10.536 2.071,12.240 3.527,12.784 C3.964,11.836 4.660,10.981 5.554,10.263 C5.208,9.405 5.000,8.476 5.000,7.493 C5.000,6.350 5.263,5.272 5.721,4.302 C5.340,4.119 4.931,4.006 4.500,4.006 ZM15.078,1.537 C14.184,1.588 12.500,1.907 12.500,3.598 C12.500,2.165 10.983,1.716 9.840,1.581 C7.580,2.598 6.000,4.856 6.000,7.493 C6.000,8.611 6.309,9.648 6.808,10.567 C5.087,11.677 4.000,13.277 4.000,15.063 C4.000,18.413 7.805,21.996 12.500,21.996 C17.194,21.996 21.000,18.413 21.000,15.063 C21.000,13.277 19.912,11.677 18.192,10.567 C18.691,9.648 19.000,8.611 19.000,7.493 C19.000,4.824 17.384,2.534 15.078,1.537 ZM20.500,4.006 C20.068,4.006 19.660,4.119 19.278,4.302 C19.736,5.272 20.000,6.350 20.000,7.493 C20.000,8.476 19.791,9.405 19.445,10.263 C20.339,10.981 21.035,11.836 21.473,12.784 C22.929,12.240 24.000,10.536 24.000,8.493 C24.000,6.015 22.433,4.006 20.500,4.006 ZM12.500,19.992 C8.910,19.992 6.000,17.750 6.000,14.985 L7.000,14.999 C7.000,16.842 9.706,19.012 12.301,19.012 C14.896,19.012 18.000,16.842 18.000,14.999 L19.000,14.985 C19.000,17.750 16.090,19.992 12.500,19.992 Z" class="cls-1"/>
</svg>
