<svg xmlns="http://www.w3.org/2000/svg" xmlns:xlink="http://www.w3.org/1999/xlink" preserveAspectRatio="xMidYMid" width="22" height="25" viewBox="0 0 22 25">
  <defs>
    <style>
      .cls-1 {
        fill: #3c4042;
        fill-rule: evenodd;
      }
    </style>
  </defs>
  <path d="M22.000,14.499 C22.000,20.297 17.075,24.998 11.000,24.998 C4.925,24.998 -0.000,20.297 -0.000,14.499 C-0.000,12.838 0.414,11.274 1.133,9.878 C-1.461,6.140 1.296,-0.001 1.296,-0.001 C3.991,0.983 5.937,3.200 7.015,4.720 C8.252,4.260 9.593,3.999 11.000,3.999 C12.407,3.999 13.748,4.260 14.984,4.720 C16.063,3.200 18.009,0.983 20.704,-0.001 C20.704,-0.001 23.460,6.140 20.866,9.878 C21.585,11.274 22.000,12.838 22.000,14.499 ZM1.865,1.347 C1.296,2.995 0.403,6.454 1.716,8.883 C2.778,7.286 4.277,5.985 6.056,5.128 C5.173,3.919 3.751,2.314 1.865,1.347 ZM11.000,4.999 C5.482,4.999 1.009,9.251 1.009,14.499 C1.009,19.745 5.482,23.998 11.000,23.998 C16.517,23.998 20.990,19.745 20.990,14.499 C20.990,9.251 16.517,4.999 11.000,4.999 ZM20.135,1.347 C18.249,2.314 16.826,3.919 15.944,5.128 C17.723,5.985 19.221,7.286 20.284,8.883 C21.597,6.454 20.703,2.995 20.135,1.347 ZM11.000,19.998 C7.684,19.998 4.996,18.432 4.996,16.498 C4.996,14.565 7.684,12.998 11.000,12.998 C14.316,12.998 17.004,14.565 17.004,16.498 C17.004,18.432 14.316,19.998 11.000,19.998 ZM11.000,13.998 C8.241,13.998 6.005,15.118 6.005,16.498 C6.005,17.879 8.241,18.998 11.000,18.998 C13.759,18.998 15.995,17.879 15.995,16.498 C15.995,15.118 13.759,13.998 11.000,13.998 ZM13.005,15.998 L13.991,15.998 L13.991,16.998 L13.005,16.998 L13.005,15.998 ZM8.008,15.998 L8.994,15.998 L8.994,16.998 L8.008,16.998 L8.008,15.998 Z" class="cls-1"/>
</svg>
