<svg xmlns="http://www.w3.org/2000/svg" xmlns:xlink="http://www.w3.org/1999/xlink" preserveAspectRatio="xMidYMid" width="24" height="23" viewBox="0 0 24 23">
  <defs>
    <style>
      .cls-1 {
        fill: #3c4042;
        fill-rule: evenodd;
      }
    </style>
  </defs>
  <path d="M23.875,2.157 C23.269,4.292 20.910,7.718 20.200,8.718 C20.709,10.028 21.000,11.441 21.000,12.875 C21.000,18.466 16.592,22.999 12.006,22.999 C7.421,22.999 3.013,18.466 3.013,12.875 C3.013,11.445 3.302,10.036 3.808,8.730 C3.109,7.746 0.734,4.301 0.124,2.157 C-0.111,1.330 0.076,0.033 0.074,-0.003 C3.305,1.264 7.274,2.293 9.056,2.713 C10.001,2.256 10.999,2.001 12.006,2.001 C13.012,2.001 14.009,2.255 14.953,2.710 C16.739,2.289 20.701,1.262 23.925,-0.003 C23.923,0.033 24.111,1.330 23.875,2.157 ZM1.017,1.415 C1.033,1.660 1.065,1.808 1.087,1.883 C1.551,3.516 3.192,6.065 4.133,7.445 L4.737,6.833 C5.559,5.464 6.624,4.291 7.825,3.443 C6.026,2.993 3.400,2.262 1.017,1.415 ZM12.007,3.003 C7.993,3.003 4.013,7.869 4.013,12.895 C4.013,17.922 7.993,21.997 12.007,21.997 C16.021,21.997 20.001,17.922 20.001,12.895 C20.001,7.869 16.021,3.003 12.007,3.003 ZM16.185,3.441 C17.397,4.295 18.472,5.482 19.297,6.868 L19.866,7.445 C20.808,6.065 22.449,3.516 22.913,1.883 C22.934,1.808 22.967,1.660 22.983,1.415 C20.604,2.260 17.983,2.990 16.185,3.441 ZM12.001,17.995 C10.053,17.995 9.005,14.803 9.005,14.803 C9.005,14.803 10.522,14.005 12.001,14.005 C13.517,14.005 14.997,14.803 14.997,14.803 C14.997,14.803 13.948,17.995 12.001,17.995 ZM0.074,-0.007 L0.074,-0.006 C0.074,-0.006 0.074,-0.006 0.074,-0.006 L0.074,-0.007 Z" class="cls-1"/>
</svg>
