<svg xmlns="http://www.w3.org/2000/svg" xmlns:xlink="http://www.w3.org/1999/xlink" preserveAspectRatio="xMidYMid" width="22.031" height="23" viewBox="0 0 22.031 23">
  <defs>
    <style>
      .cls-1 {
        fill: #3c4042;
        fill-rule: evenodd;
      }
    </style>
  </defs>
  <path d="M21.922,2.153 C21.258,4.532 19.689,8.516 19.513,8.961 C19.851,10.066 20.045,11.251 20.045,12.492 C20.045,18.295 16.013,22.998 11.039,22.998 C6.065,22.998 2.033,18.295 2.033,12.492 C2.033,11.260 2.225,10.083 2.559,8.985 C2.472,8.767 0.825,4.609 0.139,2.153 C-0.091,1.327 0.092,0.030 0.091,-0.006 C3.089,1.190 6.321,2.171 7.956,2.631 C8.919,2.221 9.954,1.985 11.039,1.985 C12.122,1.985 13.155,2.220 14.116,2.628 C15.754,2.167 18.979,1.187 21.971,-0.006 C21.969,0.030 22.153,1.327 21.922,2.153 ZM1.071,1.439 C1.088,1.676 1.119,1.821 1.140,1.896 C1.575,3.453 2.420,5.749 2.982,7.224 L3.520,6.717 C4.320,5.302 5.405,4.126 6.681,3.300 C5.120,2.838 3.033,2.166 1.071,1.439 ZM11.024,2.986 C6.611,2.986 3.033,7.242 3.033,12.491 C3.033,17.740 6.611,21.996 11.024,21.996 C15.437,21.996 19.015,17.740 19.015,12.491 C19.015,7.242 15.437,2.986 11.024,2.986 ZM15.393,3.297 C16.680,4.128 17.772,5.317 18.575,6.748 L19.080,7.224 C19.641,5.749 20.487,3.453 20.922,1.896 C20.943,1.821 20.974,1.676 20.991,1.439 C19.033,2.165 16.952,2.835 15.393,3.297 ZM7.015,14.988 C7.017,16.092 7.911,16.988 9.014,16.988 C10.117,16.988 11.011,16.092 11.013,14.988 L12.015,14.988 C12.017,16.092 12.911,16.988 14.014,16.988 C15.117,16.988 16.011,16.092 16.013,14.988 L17.016,14.988 C17.016,14.993 17.017,14.998 17.017,15.003 C17.017,16.654 15.675,17.992 14.018,17.992 C12.973,17.992 12.055,17.458 11.518,16.650 C10.981,17.458 10.063,17.992 9.018,17.992 C7.362,17.992 6.019,16.654 6.019,15.003 C6.019,14.998 6.021,14.993 6.021,14.988 L7.015,14.988 ZM0.091,-0.007 L0.091,-0.006 L0.090,-0.006 L0.091,-0.007 ZM21.971,-0.007 L21.971,-0.006 L21.971,-0.006 L21.971,-0.007 Z" class="cls-1"/>
</svg>
