<svg xmlns="http://www.w3.org/2000/svg" xmlns:xlink="http://www.w3.org/1999/xlink" preserveAspectRatio="xMidYMid" width="25" height="23" viewBox="0 0 25 23">
  <defs>
    <style>
      .cls-1 {
        fill: #575b5e;
        fill-rule: evenodd;
      }
    </style>
  </defs>
  <path d="M22.500,3.999 L20.000,3.999 L20.000,9.518 C23.031,10.886 25.000,13.054 25.000,15.504 C25.000,19.644 19.403,22.998 12.500,22.998 C5.596,22.998 -0.000,19.644 -0.000,15.504 C-0.000,13.054 1.969,10.886 5.000,9.518 L5.000,3.999 L2.500,3.999 C2.224,3.999 2.000,3.775 2.000,3.499 C2.000,3.223 2.224,2.999 2.500,2.999 L5.010,2.999 C5.067,1.334 6.379,-0.001 8.000,-0.001 L17.000,-0.001 C18.621,-0.001 19.933,1.334 19.989,2.999 L22.500,2.999 C22.776,2.999 23.000,3.223 23.000,3.499 C23.000,3.775 22.776,3.999 22.500,3.999 ZM19.000,2.713 C19.000,1.768 18.272,1.001 17.375,1.001 L7.625,1.001 C6.727,1.001 6.000,1.768 6.000,2.713 L6.000,9.111 C7.211,8.667 8.565,8.357 10.000,8.180 L10.000,5.499 C10.000,5.223 10.224,4.999 10.500,4.999 C10.776,4.999 11.000,5.223 11.000,5.499 L11.000,8.073 C11.493,8.037 11.990,8.009 12.500,8.009 C13.009,8.009 13.507,8.037 14.000,8.073 L14.000,5.499 C14.000,5.223 14.224,4.999 14.500,4.999 C14.776,4.999 15.000,5.223 15.000,5.499 L15.000,8.180 C16.434,8.357 17.788,8.667 19.000,9.111 L19.000,2.713 ZM12.500,9.012 C6.148,9.012 1.000,11.919 1.000,15.504 C1.000,19.090 6.148,21.996 12.500,21.996 C18.851,21.996 24.000,19.090 24.000,15.504 C24.000,11.919 18.851,9.012 12.500,9.012 ZM17.000,17.993 C15.343,17.993 14.000,16.648 14.000,14.988 C14.000,13.330 15.343,11.984 17.000,11.984 C18.657,11.984 20.000,13.330 20.000,14.988 C20.000,16.648 18.657,17.993 17.000,17.993 ZM17.000,12.982 C15.895,12.982 15.000,13.879 15.000,14.985 C15.000,16.091 15.895,16.987 17.000,16.987 C18.104,16.987 19.000,16.091 19.000,14.985 C19.000,13.879 18.104,12.982 17.000,12.982 ZM8.000,17.993 C6.343,17.993 5.000,16.648 5.000,14.988 C5.000,13.330 6.343,11.984 8.000,11.984 C9.657,11.984 11.000,13.330 11.000,14.988 C11.000,16.648 9.657,17.993 8.000,17.993 ZM8.000,12.982 C6.895,12.982 6.000,13.879 6.000,14.985 C6.000,16.091 6.895,16.987 8.000,16.987 C9.104,16.987 10.000,16.091 10.000,14.985 C10.000,13.879 9.104,12.982 8.000,12.982 Z" class="cls-1"/>
</svg>
