<svg xmlns="http://www.w3.org/2000/svg" xmlns:xlink="http://www.w3.org/1999/xlink" preserveAspectRatio="xMidYMid" width="25" height="25" viewBox="0 0 25 25">
  <defs>
    <style>
      .cls-1 {
        fill: #3c4042;
        fill-rule: evenodd;
      }
    </style>
  </defs>
  <path d="M19.895,4.999 L20.000,4.999 L20.000,5.868 L24.004,8.086 L23.587,9.009 L19.937,6.987 C19.785,7.822 19.255,9.796 17.444,11.808 C15.500,13.969 11.951,15.150 11.439,15.312 L11.442,15.337 L17.489,19.803 L22.646,14.645 L23.353,15.352 L17.944,21.055 C16.117,23.448 13.243,24.998 10.000,24.998 C4.477,24.998 -0.000,20.522 -0.000,14.998 C-0.000,9.475 4.477,4.998 10.000,4.998 L10.000,4.999 L10.000,4.999 L10.000,4.999 L10.002,4.999 L10.498,4.954 L10.502,4.999 L18.245,4.999 L24.331,-0.011 L25.008,0.791 L19.895,4.999 ZM1.000,14.998 C1.000,18.051 2.523,20.743 4.846,22.370 L9.972,15.536 L9.540,15.217 L1.128,13.535 C1.050,14.011 1.000,14.498 1.000,14.998 ZM9.590,6.019 C5.649,6.197 2.372,8.904 1.342,12.557 L10.348,14.358 L9.590,6.019 ZM5.696,22.903 C6.975,23.601 8.441,23.998 10.000,23.998 C12.806,23.998 15.294,22.699 16.944,20.684 L10.777,16.130 L5.696,22.903 ZM18.152,5.999 L10.593,5.999 L11.358,14.417 C12.596,13.964 15.127,12.888 16.658,11.187 C18.400,9.252 18.945,7.404 19.116,6.533 L18.152,5.999 Z" class="cls-1"/>
</svg>
