<svg xmlns="http://www.w3.org/2000/svg" xmlns:xlink="http://www.w3.org/1999/xlink" preserveAspectRatio="xMidYMid" width="24" height="22" viewBox="0 0 24 22">
  <defs>
    <style>
      .cls-1 {
        fill: #3c4042;
        fill-rule: evenodd;
      }
    </style>
  </defs>
  <path d="M21.155,9.955 C21.100,9.969 21.042,9.979 20.984,9.986 C20.994,10.191 21.000,10.397 21.000,10.605 C21.000,16.464 16.974,21.999 12.006,21.999 C7.039,21.999 3.013,16.464 3.013,10.605 C3.013,10.398 3.019,10.193 3.029,9.989 C2.966,9.981 2.904,9.970 2.845,9.955 C0.616,9.403 -0.545,6.729 0.251,3.981 C1.047,1.235 3.416,0.110 5.727,0.007 C5.859,0.001 5.991,-0.002 6.123,-0.002 C7.136,-0.002 8.121,0.182 8.844,0.674 C9.828,0.238 10.893,-0.002 12.006,-0.002 C13.116,-0.002 14.179,0.237 15.160,0.670 C15.884,0.181 16.866,-0.002 17.877,-0.002 C18.009,-0.002 18.140,0.001 18.272,0.007 C20.584,0.110 22.953,1.235 23.749,3.981 C24.545,6.729 23.384,9.403 21.155,9.955 ZM6.123,0.998 C6.007,0.998 5.889,1.001 5.772,1.006 C4.670,1.056 2.019,1.471 1.212,4.260 C0.848,5.517 0.954,6.784 1.504,7.738 C1.767,8.193 2.254,8.779 3.085,8.985 C3.129,8.996 3.181,9.001 3.241,9.001 C5.025,9.001 9.000,5.224 9.000,3.080 C9.000,2.511 9.000,0.998 6.123,0.998 ZM12.007,0.998 C11.162,0.998 10.349,1.156 9.584,1.447 C9.845,1.874 10.000,2.408 10.000,3.080 C10.000,5.481 6.472,9.134 4.037,9.868 C4.023,10.104 4.013,10.341 4.013,10.582 C4.013,15.874 7.592,20.998 12.007,20.998 C16.422,20.998 20.001,15.874 20.001,10.582 C20.001,10.343 19.991,10.107 19.977,9.873 C17.541,9.149 14.000,5.486 14.000,3.080 C14.000,2.406 14.156,1.870 14.418,1.443 C13.657,1.155 12.847,0.998 12.007,0.998 ZM22.788,4.260 C21.980,1.471 19.330,1.056 18.227,1.006 C18.110,1.001 17.993,0.998 17.877,0.998 C15.000,0.998 15.000,2.511 15.000,3.080 C15.000,5.224 18.974,9.001 20.759,9.001 C20.819,9.001 20.871,8.996 20.915,8.985 C21.746,8.779 22.233,8.193 22.496,7.738 C23.046,6.784 23.152,5.517 22.788,4.260 ZM12.002,16.998 C10.054,16.998 9.005,13.798 9.005,13.798 C9.005,13.798 10.523,12.998 12.002,12.998 C13.519,12.998 14.999,13.798 14.999,13.798 C14.999,13.798 13.951,16.998 12.002,16.998 Z" class="cls-1"/>
</svg>
