<svg xmlns="http://www.w3.org/2000/svg" xmlns:xlink="http://www.w3.org/1999/xlink" preserveAspectRatio="xMidYMid" width="25" height="19" viewBox="0 0 25 19">
  <defs>
    <style>
      .cls-1 {
        fill: #3c4042;
        fill-rule: evenodd;
      }
    </style>
  </defs>
  <path d="M22.966,8.260 C23.030,9.059 23.116,11.554 22.000,13.940 L22.000,13.999 C22.000,13.999 21.988,14.002 21.971,14.005 C20.743,16.578 18.100,19.003 12.500,19.003 C6.900,19.003 4.257,16.578 3.029,14.005 C3.012,14.002 3.000,13.999 3.000,13.999 L3.000,13.940 C1.884,11.554 1.970,9.059 2.033,8.260 C0.809,7.456 -0.000,6.072 -0.000,4.499 C-0.000,2.013 2.014,-0.001 4.500,-0.001 C5.456,-0.001 6.342,0.300 7.071,0.809 C8.610,0.299 10.480,-0.001 12.500,-0.001 C14.520,-0.001 16.390,0.299 17.929,0.809 C18.658,0.300 19.543,-0.001 20.500,-0.001 C22.985,-0.001 25.000,2.013 25.000,4.499 C25.000,6.072 24.190,7.456 22.966,8.260 ZM5.031,15.258 C6.626,17.079 9.139,18.001 12.500,18.001 C15.861,18.001 18.373,17.079 19.968,15.258 C20.252,14.934 20.493,14.592 20.704,14.241 C18.972,14.539 15.742,15.006 12.509,15.006 C9.270,15.006 6.031,14.539 4.295,14.241 C4.507,14.592 4.748,14.934 5.031,15.258 ZM4.500,0.987 C2.567,0.987 1.000,2.559 1.000,4.499 C1.000,6.438 2.567,8.009 4.500,8.009 C6.433,8.009 8.000,6.438 8.000,4.499 C8.000,2.559 6.433,0.987 4.500,0.987 ZM12.500,0.987 C10.800,0.987 9.219,1.194 7.893,1.549 C8.580,2.339 9.000,3.369 9.000,4.499 C9.000,6.983 6.985,8.998 4.500,8.998 C3.973,8.998 3.470,8.903 3.000,8.737 L3.000,9.998 L3.037,9.998 C3.103,10.901 3.286,12.025 3.743,13.144 C5.256,13.422 8.864,14.005 12.500,14.005 C16.107,14.005 19.737,13.420 21.257,13.142 C21.713,12.025 21.897,10.901 21.963,9.998 L22.000,9.998 L22.000,8.737 C21.530,8.903 21.027,8.998 20.500,8.998 C18.015,8.998 16.000,6.983 16.000,4.499 C16.000,3.369 16.419,2.339 17.107,1.549 C15.780,1.194 14.199,0.987 12.500,0.987 ZM20.500,0.987 C18.567,0.987 17.000,2.559 17.000,4.499 C17.000,6.438 18.567,8.009 20.500,8.009 C22.433,8.009 24.000,6.438 24.000,4.499 C24.000,2.559 22.433,0.987 20.500,0.987 Z" class="cls-1"/>
</svg>
