<svg xmlns="http://www.w3.org/2000/svg" xmlns:xlink="http://www.w3.org/1999/xlink" preserveAspectRatio="xMidYMid" width="23.875" height="25" viewBox="0 0 23.875 25">
  <defs>
    <style>
      .cls-1 {
        fill: #3c4042;
        fill-rule: evenodd;
      }
    </style>
  </defs>
  <path d="M23.875,3.999 L23.875,4.858 C23.875,4.858 22.383,8.657 19.893,9.705 C19.847,9.953 19.788,10.217 19.708,10.506 C18.933,13.298 17.568,16.170 16.709,18.713 C15.912,21.070 16.084,22.973 15.120,24.051 C15.120,24.051 14.064,24.999 12.031,24.999 C10.037,24.999 8.941,24.051 8.941,24.051 C8.029,23.032 7.947,21.020 7.152,18.633 C6.309,16.101 4.764,13.147 4.174,10.511 C4.112,10.230 4.067,9.971 4.033,9.727 C1.512,8.710 -0.000,4.858 -0.000,4.858 L-0.000,3.999 L6.392,3.999 C6.793,3.758 7.286,3.574 7.825,3.434 L6.104,0.743 C5.953,0.506 6.043,0.203 6.305,0.066 C6.568,-0.071 6.903,0.011 7.055,0.247 L8.947,3.208 C10.087,3.034 11.243,3.000 11.976,3.000 C12.705,3.000 13.884,3.035 15.041,3.218 L16.963,0.247 C17.117,0.011 17.456,-0.071 17.722,0.066 C17.988,0.203 18.079,0.506 17.925,0.743 L16.170,3.456 C16.677,3.592 17.143,3.770 17.524,3.999 L23.875,3.999 ZM19.999,8.521 C21.229,7.729 22.221,6.070 22.724,4.999 L18.437,4.999 C18.585,5.310 18.820,5.728 18.990,6.000 C19.435,6.715 19.965,7.321 19.999,8.521 ZM1.151,4.999 C1.667,6.098 2.698,7.817 3.973,8.582 C4.032,7.391 4.505,6.714 4.962,6.000 C5.134,5.731 5.336,5.312 5.478,4.999 L1.151,4.999 ZM11.976,4.000 C8.573,4.000 6.727,4.663 6.452,5.278 C6.282,5.658 6.032,6.185 5.807,6.537 L5.733,6.653 C5.155,7.552 4.698,8.263 5.152,10.293 C5.494,11.816 6.193,13.505 6.869,15.137 C7.308,16.199 7.763,17.296 8.103,18.318 C8.410,19.242 8.614,20.103 8.794,20.864 C9.046,21.928 9.265,22.854 9.640,23.328 C9.833,23.467 10.657,23.999 12.031,23.999 C13.429,23.999 14.227,23.472 14.417,23.332 C14.769,22.891 14.912,22.122 15.090,21.157 C15.241,20.342 15.412,19.420 15.760,18.393 C16.113,17.346 16.538,16.277 16.988,15.146 C17.630,13.529 18.293,11.858 18.742,10.239 C19.285,8.280 18.896,7.687 18.356,6.865 C18.283,6.754 18.210,6.643 18.139,6.528 C17.926,6.185 17.623,5.648 17.461,5.277 C17.184,4.642 15.212,4.000 11.976,4.000 Z" class="cls-1"/>
</svg>
