<svg xmlns="http://www.w3.org/2000/svg" xmlns:xlink="http://www.w3.org/1999/xlink" preserveAspectRatio="xMidYMid" width="25" height="22" viewBox="0 0 25 22">
  <defs>
    <style>
      .cls-1 {
        fill: #3c4042;
        fill-rule: evenodd;
      }
    </style>
  </defs>
  <path d="M21.970,13.659 C21.982,13.808 22.000,13.957 22.000,14.109 C22.000,18.030 17.747,21.998 12.500,21.998 C7.253,21.998 3.000,18.030 3.000,14.109 C3.000,13.957 3.018,13.809 3.030,13.659 C1.271,12.912 -0.000,10.890 -0.000,8.486 C-0.000,5.447 2.014,2.985 4.500,2.985 C5.150,2.985 5.764,3.161 6.323,3.465 C7.675,1.372 9.936,-0.001 12.500,-0.001 C15.063,-0.001 17.324,1.372 18.677,3.465 C19.235,3.161 19.849,2.985 20.500,2.985 C22.985,2.985 25.000,5.447 25.000,8.486 C25.000,10.890 23.729,12.912 21.970,13.659 ZM4.500,3.993 C2.567,3.993 1.000,6.011 1.000,8.501 C1.000,10.395 1.908,12.009 3.193,12.677 C3.509,11.522 4.201,10.468 5.169,9.592 C5.069,9.074 5.000,8.545 5.000,7.996 C5.000,6.676 5.305,5.434 5.836,4.336 C5.424,4.117 4.973,3.993 4.500,3.993 ZM15.255,1.689 C14.439,1.975 12.500,2.847 12.500,4.713 C12.500,3.096 10.662,2.219 9.508,1.827 C7.432,2.993 6.000,5.303 6.000,7.996 C6.000,8.669 6.117,9.308 6.282,9.924 C4.870,11.007 4.000,12.456 4.000,14.053 C4.000,17.405 7.805,20.988 12.500,20.988 C17.194,20.988 21.000,17.405 21.000,14.053 C21.000,12.456 20.129,11.008 18.717,9.924 C18.883,9.308 19.000,8.669 19.000,7.996 C19.000,5.200 17.462,2.806 15.255,1.689 ZM20.500,3.993 C20.026,3.993 19.576,4.117 19.164,4.336 C19.695,5.434 20.000,6.676 20.000,7.996 C20.000,8.545 19.930,9.074 19.831,9.592 C20.798,10.468 21.490,11.522 21.807,12.677 C23.091,12.009 24.000,10.395 24.000,8.501 C24.000,6.011 22.433,3.993 20.500,3.993 Z" class="cls-1"/>
</svg>
