<svg xmlns="http://www.w3.org/2000/svg" xmlns:xlink="http://www.w3.org/1999/xlink" preserveAspectRatio="xMidYMid" width="22" height="23" viewBox="0 0 22 23">
  <defs>
    <style>
      .cls-1 {
        fill: #3c4042;
        fill-rule: evenodd;
      }
    </style>
  </defs>
  <path d="M19.682,11.612 C19.879,12.456 19.994,13.339 19.994,14.254 C19.994,19.923 15.963,22.998 10.992,22.998 C6.020,22.998 1.989,19.923 1.989,14.254 C1.989,13.331 2.106,12.442 2.306,11.593 C-1.749,5.365 0.792,-0.001 0.792,-0.001 C3.637,1.139 5.577,3.899 6.460,5.394 C7.792,4.506 9.337,3.988 10.992,3.988 C12.651,3.988 14.200,4.509 15.535,5.402 C16.416,3.909 18.357,1.142 21.208,-0.001 C21.208,-0.001 23.755,5.376 19.682,11.612 ZM1.366,1.431 C0.935,3.021 0.476,6.389 2.656,10.236 L2.763,10.101 C3.398,8.468 4.397,7.064 5.641,6.012 C4.951,4.825 3.485,2.660 1.366,1.431 ZM13.025,5.306 C12.150,5.680 11.004,6.463 11.004,8.012 C11.004,6.458 9.847,5.674 8.969,5.301 C5.534,6.346 2.995,9.974 2.995,14.303 C2.995,19.446 6.575,21.996 10.991,21.996 C15.407,21.996 18.987,19.446 18.987,14.303 C18.987,9.979 16.454,6.355 13.025,5.306 ZM20.634,1.431 C18.509,2.663 17.041,4.837 16.353,6.021 C17.581,7.063 18.568,8.447 19.202,10.057 L19.344,10.236 C21.524,6.389 21.065,3.021 20.634,1.431 ZM11.003,19.006 C9.057,19.006 8.008,16.593 8.008,16.593 C8.008,16.593 9.525,15.990 11.003,15.990 C12.519,15.990 13.998,16.593 13.998,16.593 C13.998,16.593 12.950,19.006 11.003,19.006 Z" class="cls-1"/>
</svg>
