<svg xmlns="http://www.w3.org/2000/svg" xmlns:xlink="http://www.w3.org/1999/xlink" preserveAspectRatio="xMidYMid" width="24" height="23" viewBox="0 0 24 23">
  <defs>
    <style>
      .cls-1 {
        fill: #3c4042;
        fill-rule: evenodd;
      }
    </style>
  </defs>
  <path d="M23.876,2.153 C23.327,4.084 21.692,7.072 20.955,8.368 C21.617,9.774 22.000,11.312 22.000,12.875 C22.000,18.466 17.102,22.999 12.007,22.999 C6.912,22.999 2.014,18.466 2.014,12.875 C2.014,11.317 2.395,9.784 3.053,8.382 C2.320,7.094 0.674,4.091 0.124,2.153 C-0.111,1.327 0.076,0.029 0.074,-0.006 C3.188,1.216 6.988,2.216 8.851,2.663 C9.865,2.238 10.932,2.001 12.007,2.001 C13.081,2.001 14.145,2.238 15.158,2.660 C17.025,2.213 20.817,1.214 23.925,-0.006 C23.924,0.029 24.111,1.327 23.876,2.153 ZM12.008,21.997 C14.115,21.997 16.213,21.109 17.852,19.652 L12.112,16.999 L11.888,16.999 L6.158,19.648 C7.798,21.107 9.898,21.997 12.008,21.997 ZM1.049,1.421 C1.066,1.666 1.098,1.815 1.120,1.892 C1.570,3.476 2.831,5.878 3.626,7.312 C4.603,5.687 5.957,4.302 7.504,3.354 C5.732,2.903 3.289,2.214 1.049,1.421 ZM12.008,3.003 C7.492,3.003 3.014,7.869 3.014,12.895 C3.014,15.185 3.945,17.275 5.383,18.874 L11.500,16.047 L11.500,13.915 C9.876,13.440 9.005,10.803 9.005,10.803 C9.005,10.803 10.522,10.005 12.001,10.005 C13.517,10.005 14.997,10.803 14.997,10.803 C14.997,10.803 14.125,13.440 12.500,13.915 L12.500,16.047 L18.628,18.880 C20.069,17.279 21.001,15.187 21.001,12.895 C21.001,7.869 16.524,3.003 12.008,3.003 ZM16.506,3.351 C18.051,4.297 19.403,5.678 20.381,7.300 C21.176,5.864 22.431,3.471 22.880,1.892 C22.902,1.815 22.934,1.666 22.951,1.421 C20.715,2.213 18.278,2.900 16.506,3.351 ZM0.074,-0.007 L0.074,-0.006 C0.074,-0.006 0.074,-0.006 0.074,-0.006 L0.074,-0.007 Z" class="cls-1"/>
</svg>
