<svg xmlns="http://www.w3.org/2000/svg" xmlns:xlink="http://www.w3.org/1999/xlink" preserveAspectRatio="xMidYMid" width="25" height="19" viewBox="0 0 25 19">
  <defs>
    <style>
      .cls-1 {
        fill: #3c4042;
        fill-rule: evenodd;
      }
    </style>
  </defs>
  <path d="M18.705,7.738 C16.067,17.610 14.961,18.219 14.731,18.219 C14.699,18.219 14.683,18.207 14.683,18.207 C14.501,18.288 13.688,18.999 12.579,18.999 C11.525,18.999 10.668,18.291 10.481,18.210 C10.481,18.210 10.463,18.221 10.425,18.221 C10.155,18.221 8.889,17.615 6.270,7.737 C3.918,10.088 -0.000,8.353 -0.000,8.353 C-0.000,2.916 5.836,2.132 7.537,2.019 C7.559,1.974 7.586,1.931 7.607,1.885 C8.374,0.183 10.854,-0.001 12.579,-0.001 C14.266,-0.001 16.655,0.184 17.405,1.893 C17.424,1.936 17.449,1.977 17.470,2.019 C19.180,2.135 25.000,2.928 25.000,8.382 C25.000,8.382 21.054,10.138 18.705,7.738 ZM1.000,7.720 C1.000,7.720 4.337,8.815 6.033,6.595 C5.810,4.853 6.402,3.852 6.949,3.002 C6.386,3.053 1.000,3.641 1.000,7.720 ZM17.259,3.631 C17.197,3.534 17.134,3.438 17.074,3.341 C16.861,3.003 16.654,2.672 16.489,2.293 C16.107,1.423 14.828,1.000 12.579,1.000 C10.240,1.000 8.912,1.424 8.519,2.296 C8.344,2.685 8.128,3.020 7.918,3.345 L7.853,3.446 C7.239,4.397 6.659,5.294 7.191,7.313 C9.193,14.898 10.334,16.776 10.687,17.210 L10.878,17.292 C10.942,17.321 11.053,17.382 11.199,17.475 C11.486,17.658 12.020,17.999 12.579,17.999 C13.177,17.999 13.688,17.660 13.962,17.478 C14.104,17.384 14.213,17.323 14.276,17.294 L14.376,17.249 C14.693,16.819 15.755,14.935 17.785,7.306 C18.327,5.271 17.833,4.511 17.259,3.631 ZM18.047,3.007 C18.592,3.847 19.221,4.743 18.952,6.599 C20.645,8.852 24.000,7.745 24.000,7.745 C24.000,3.638 18.585,3.054 18.047,3.007 Z" class="cls-1"/>
</svg>
