<svg xmlns="http://www.w3.org/2000/svg" xmlns:xlink="http://www.w3.org/1999/xlink" preserveAspectRatio="xMidYMid" width="25" height="25" viewBox="0 0 25 25">
  <defs>
    <style>
      .cls-1 {
        fill: #3c4042;
        fill-rule: evenodd;
      }
    </style>
  </defs>
  <path d="M19.762,10.985 L19.711,11.534 C19.710,11.533 19.708,11.532 19.706,11.532 C19.567,11.532 17.473,16.878 15.357,20.269 C15.760,20.759 16.000,21.354 16.000,21.999 C16.000,23.655 14.433,24.998 12.500,24.998 C10.567,24.998 9.000,23.655 9.000,21.999 C9.000,21.278 9.297,20.617 9.791,20.100 C7.965,17.105 6.085,12.644 5.428,10.994 C2.424,10.956 -0.000,8.513 -0.000,5.499 C-0.000,2.461 2.462,-0.001 5.500,-0.001 C7.680,-0.001 9.558,1.270 10.448,3.109 C11.274,3.021 12.053,3.000 12.587,3.000 C13.083,3.000 13.795,3.018 14.558,3.096 C15.451,1.264 17.325,-0.001 19.500,-0.001 C22.537,-0.001 25.000,2.461 25.000,5.499 C25.000,8.448 22.677,10.847 19.762,10.985 ZM12.500,23.998 C13.880,23.998 15.000,23.103 15.000,21.999 C15.000,20.894 13.880,19.998 12.500,19.998 C11.119,19.998 10.000,20.894 10.000,21.999 C10.000,23.103 11.119,23.998 12.500,23.998 ZM5.500,0.998 C3.014,0.998 1.000,3.013 1.000,5.499 C1.000,7.853 2.809,9.783 5.113,9.979 C4.726,7.761 5.388,6.681 5.977,5.724 C6.161,5.424 6.335,5.141 6.468,4.832 C6.844,3.960 8.080,3.500 9.399,3.259 C8.622,1.909 7.169,0.998 5.500,0.998 ZM12.587,4.000 C9.521,4.000 7.650,4.618 7.387,5.228 C7.226,5.602 7.026,5.928 6.832,6.243 C6.260,7.172 5.723,8.046 6.152,10.093 C6.306,10.522 7.448,13.384 8.839,16.226 C9.523,17.623 10.103,18.683 10.589,19.487 C11.138,19.179 11.794,18.999 12.500,18.999 C13.286,18.999 14.010,19.224 14.594,19.599 C14.796,19.270 15.013,18.901 15.248,18.476 C16.382,16.430 17.462,14.009 18.106,12.562 C18.380,11.947 18.573,11.516 18.735,11.214 L18.824,10.257 L18.829,10.200 L18.841,10.144 C19.279,8.060 18.750,7.178 18.191,6.245 C18.001,5.929 17.804,5.602 17.646,5.225 C17.399,4.636 15.710,4.000 12.587,4.000 ZM19.500,0.998 C17.838,0.998 16.390,1.902 15.611,3.242 C16.935,3.480 18.193,3.942 18.570,4.839 C18.699,5.148 18.869,5.431 19.049,5.730 C19.622,6.686 20.267,7.765 19.890,9.979 C22.192,9.781 24.000,7.852 24.000,5.499 C24.000,3.013 21.985,0.998 19.500,0.998 ZM19.701,11.641 L19.711,11.534 C19.717,11.543 19.714,11.578 19.701,11.641 Z" class="cls-1"/>
</svg>
