<svg xmlns="http://www.w3.org/2000/svg" xmlns:xlink="http://www.w3.org/1999/xlink" preserveAspectRatio="xMidYMid" width="21" height="25" viewBox="0 0 21 25">
  <defs>
    <style>
      .cls-1 {
        fill: #3c4042;
        fill-rule: evenodd;
      }
    </style>
  </defs>
  <path d="M20.500,10.999 L0.500,10.999 C0.224,10.999 -0.000,10.776 -0.000,10.499 C-0.000,10.223 0.224,9.999 0.500,9.999 L20.500,9.999 C20.776,9.999 21.000,10.223 21.000,10.499 C21.000,10.776 20.776,10.999 20.500,10.999 ZM10.500,3.998 C8.192,3.998 6.313,5.751 6.062,7.997 L5.059,7.997 C5.299,5.366 7.375,3.288 10.000,3.046 L10.000,0.499 C10.000,0.223 10.224,-0.001 10.500,-0.001 C10.776,-0.001 11.000,0.223 11.000,0.499 L11.000,3.046 C13.625,3.288 15.700,5.366 15.941,7.997 L14.937,7.997 C14.686,5.751 12.808,3.998 10.500,3.998 ZM2.000,21.499 L2.000,13.499 C2.000,13.223 2.224,12.999 2.500,12.999 C2.776,12.999 3.000,13.223 3.000,13.499 L3.000,21.499 C3.000,21.775 2.776,21.999 2.500,21.999 C2.224,21.999 2.000,21.775 2.000,21.499 ZM4.000,21.499 L4.000,13.499 C4.000,13.223 4.224,12.999 4.500,12.999 C4.776,12.999 5.000,13.223 5.000,13.499 L5.000,21.499 C5.000,21.775 4.776,21.999 4.500,21.999 C4.224,21.999 4.000,21.775 4.000,21.499 ZM9.000,21.499 L9.000,13.499 C9.000,13.223 9.224,12.999 9.500,12.999 C9.776,12.999 10.000,13.223 10.000,13.499 L10.000,21.499 C10.000,21.775 9.776,21.999 9.500,21.999 C9.224,21.999 9.000,21.775 9.000,21.499 ZM11.000,21.499 L11.000,13.499 C11.000,13.223 11.224,12.999 11.500,12.999 C11.776,12.999 12.000,13.223 12.000,13.499 L12.000,21.499 C12.000,21.775 11.776,21.999 11.500,21.999 C11.224,21.999 11.000,21.775 11.000,21.499 ZM16.000,21.499 L16.000,13.499 C16.000,13.223 16.224,12.999 16.500,12.999 C16.776,12.999 17.000,13.223 17.000,13.499 L17.000,21.499 C17.000,21.775 16.776,21.999 16.500,21.999 C16.224,21.999 16.000,21.775 16.000,21.499 ZM18.000,21.499 L18.000,13.499 C18.000,13.223 18.224,12.999 18.500,12.999 C18.776,12.999 19.000,13.223 19.000,13.499 L19.000,21.499 C19.000,21.775 18.776,21.999 18.500,21.999 C18.224,21.999 18.000,21.775 18.000,21.499 ZM0.500,23.999 L20.500,23.999 C20.776,23.999 21.000,24.223 21.000,24.499 C21.000,24.775 20.776,24.999 20.500,24.999 L0.500,24.999 C0.224,24.999 -0.000,24.775 -0.000,24.499 C-0.000,24.223 0.224,23.999 0.500,23.999 Z" class="cls-1"/>
</svg>
