<svg xmlns="http://www.w3.org/2000/svg" xmlns:xlink="http://www.w3.org/1999/xlink" preserveAspectRatio="xMidYMid" width="24" height="25" viewBox="0 0 24 25">
  <defs>
    <style>
      .cls-1 {
        fill: #3c4042;
        fill-rule: evenodd;
      }
    </style>
  </defs>
  <path d="M-0.000,24.999 L-0.000,23.999 L3.000,23.999 L3.000,-0.002 L21.000,-0.002 L21.000,23.999 L24.000,23.999 L24.000,24.999 L-0.000,24.999 ZM10.000,23.998 L14.000,23.998 L14.000,17.997 L10.000,17.997 L10.000,23.998 ZM20.000,0.998 L4.000,0.998 L4.000,23.998 L9.000,23.998 L9.000,16.998 L15.000,16.998 L15.000,23.998 L20.000,23.998 L20.000,0.998 ZM13.000,9.997 L18.000,9.997 L18.000,14.997 L13.000,14.997 L13.000,9.997 ZM14.000,13.998 L17.000,13.998 L17.000,10.997 L14.000,10.997 L14.000,13.998 ZM13.000,2.998 L18.000,2.998 L18.000,7.997 L13.000,7.997 L13.000,2.998 ZM14.000,6.997 L17.000,6.997 L17.000,3.996 L14.000,3.996 L14.000,6.997 ZM6.000,9.997 L11.000,9.997 L11.000,14.997 L6.000,14.997 L6.000,9.997 ZM7.000,13.998 L10.000,13.998 L10.000,10.997 L7.000,10.997 L7.000,13.998 ZM6.000,2.998 L11.000,2.998 L11.000,7.997 L6.000,7.997 L6.000,2.998 ZM7.000,6.997 L10.000,6.997 L10.000,3.996 L7.000,3.996 L7.000,6.997 Z" class="cls-1"/>
</svg>
