<svg xmlns="http://www.w3.org/2000/svg" xmlns:xlink="http://www.w3.org/1999/xlink" preserveAspectRatio="xMidYMid" width="24.97" height="25" viewBox="0 0 24.97 25">
  <defs>
    <style>
      .cls-1 {
        fill: #3c4042;
        fill-rule: evenodd;
      }
    </style>
  </defs>
  <path d="M24.824,10.853 C24.638,11.039 24.337,11.039 24.152,10.853 L22.955,9.855 L22.955,23.436 C22.955,24.298 22.252,24.997 21.385,24.997 L18.964,24.997 L11.980,24.997 L3.537,24.997 C2.670,24.997 1.967,24.298 1.967,23.436 L1.967,9.870 L0.788,10.853 C0.602,11.039 0.302,11.039 0.116,10.853 C-0.070,10.667 -0.070,10.366 0.116,10.181 L1.967,8.637 L1.967,1.560 C1.967,1.560 1.967,1.559 1.967,1.558 L1.970,8.634 L12.036,0.236 C12.058,0.196 12.053,0.149 12.086,0.116 C12.192,0.010 12.332,-0.019 12.470,-0.004 C12.608,-0.019 12.748,0.010 12.853,0.116 C12.887,0.149 12.882,0.197 12.904,0.237 L24.824,10.181 C25.009,10.366 25.009,10.667 24.824,10.853 ZM12.978,23.998 L17.967,23.998 L17.967,13.997 L12.978,13.997 L12.978,23.998 ZM21.970,9.033 L12.470,1.108 L2.970,9.033 L2.970,22.999 C2.970,23.552 3.418,23.999 3.970,23.999 L11.980,23.999 L11.980,12.998 L18.964,12.998 L18.964,23.999 L20.970,23.999 C21.522,23.999 21.970,23.552 21.970,22.999 L21.970,9.033 ZM5.962,12.998 L9.981,12.998 L9.981,16.998 L5.962,16.998 L5.962,12.998 ZM6.954,15.997 L8.950,15.997 L8.950,13.996 L6.954,13.996 L6.954,15.997 Z" class="cls-1"/>
</svg>
