<svg xmlns="http://www.w3.org/2000/svg" xmlns:xlink="http://www.w3.org/1999/xlink" preserveAspectRatio="xMidYMid" width="24.97" height="25" viewBox="0 0 24.97 25">
  <defs>
    <style>
      .cls-1 {
        fill: #3c4042;
        fill-rule: evenodd;
      }
    </style>
  </defs>
  <path d="M24.824,10.853 C24.638,11.038 24.337,11.038 24.152,10.853 L22.955,9.855 L22.955,23.436 C22.955,24.298 22.252,24.998 21.385,24.998 L18.964,24.998 L11.980,24.998 L3.537,24.998 C2.670,24.998 1.967,24.298 1.967,23.436 L1.967,9.870 L0.788,10.853 C0.602,11.038 0.302,11.038 0.116,10.853 C-0.070,10.667 -0.070,10.366 0.116,10.181 L12.036,0.237 C12.058,0.196 12.053,0.149 12.086,0.116 C12.192,0.010 12.332,-0.019 12.470,-0.004 C12.608,-0.019 12.747,0.010 12.853,0.116 C12.887,0.149 12.882,0.196 12.903,0.236 L24.824,10.181 C25.009,10.366 25.009,10.667 24.824,10.853 ZM12.979,23.998 L17.967,23.998 L17.967,14.997 L12.979,14.997 L12.979,23.998 ZM21.970,9.033 L12.470,1.108 L2.970,9.033 L2.970,22.999 C2.970,23.552 3.417,23.999 3.970,23.999 L11.980,23.999 L11.980,13.997 L18.964,13.997 L18.964,23.999 L20.970,23.999 C21.522,23.999 21.970,23.552 21.970,22.999 L21.970,9.033 ZM12.470,9.997 C11.095,9.997 9.980,8.879 9.980,7.498 C9.980,6.117 11.095,4.998 12.470,4.998 C13.845,4.998 14.960,6.117 14.960,7.498 C14.960,8.879 13.845,9.997 12.470,9.997 ZM12.470,5.998 C11.646,5.998 10.979,6.669 10.979,7.497 C10.979,8.326 11.646,8.998 12.470,8.998 C13.293,8.998 13.961,8.326 13.961,7.497 C13.961,6.669 13.293,5.998 12.470,5.998 ZM9.981,14.998 L5.962,14.998 L5.962,13.997 L9.981,13.997 L9.981,14.998 ZM9.981,17.998 L5.962,17.998 L5.962,16.998 L9.981,16.998 L9.981,17.998 Z" class="cls-1"/>
</svg>
