<svg xmlns="http://www.w3.org/2000/svg" xmlns:xlink="http://www.w3.org/1999/xlink" preserveAspectRatio="xMidYMid" width="22" height="25" viewBox="0 0 22 25">
  <defs>
    <style>
      .cls-1 {
        fill: #3c4042;
        fill-rule: evenodd;
      }
    </style>
  </defs>
  <path d="M-0.000,24.999 L-0.000,23.999 L3.004,23.999 L3.004,2.998 L18.995,2.998 L18.995,23.999 L22.000,23.999 L22.000,24.999 L-0.000,24.999 ZM9.013,23.999 L12.986,23.999 L12.986,18.998 L9.013,18.998 L9.013,23.999 ZM17.993,3.998 L4.007,3.998 L4.007,23.998 L8.009,23.998 L8.009,17.998 L13.990,17.998 L13.990,23.998 L17.993,23.998 L17.993,3.998 ZM16.013,7.997 L14.011,7.997 L14.011,5.998 L16.013,5.998 L16.013,7.997 ZM16.013,11.997 L14.011,11.997 L14.011,9.998 L16.013,9.998 L16.013,11.997 ZM16.013,15.997 L14.011,15.997 L14.011,13.998 L16.013,13.998 L16.013,15.997 ZM10.011,13.998 L12.013,13.998 L12.013,15.997 L10.011,15.997 L10.011,13.998 ZM10.011,9.998 L12.013,9.998 L12.013,11.997 L10.011,11.997 L10.011,9.998 ZM10.011,5.998 L12.013,5.998 L12.013,7.997 L10.011,7.997 L10.011,5.998 ZM6.011,13.998 L8.013,13.998 L8.013,15.997 L6.011,15.997 L6.011,13.998 ZM6.011,9.998 L8.013,9.998 L8.013,11.997 L6.011,11.997 L6.011,9.998 ZM6.011,5.998 L8.013,5.998 L8.013,7.997 L6.011,7.997 L6.011,5.998 ZM2.002,-0.002 L19.998,-0.002 L19.998,0.998 L2.002,0.998 L2.002,-0.002 Z" class="cls-1"/>
</svg>
