<svg xmlns="http://www.w3.org/2000/svg" xmlns:xlink="http://www.w3.org/1999/xlink" preserveAspectRatio="xMidYMid" width="15" height="25" viewBox="0 0 15 25">
  <defs>
    <style>
      .cls-1 {
        fill: #3c4042;
        fill-rule: evenodd;
      }
    </style>
  </defs>
  <path d="M7.734,4.845 L11.306,9.998 L11.988,9.998 L11.988,9.999 L12.994,9.999 L12.994,10.998 L11.999,10.998 L12.000,10.999 L11.988,10.999 L11.988,24.998 L1.006,24.998 L1.006,10.999 L1.000,10.999 L1.000,10.998 L-0.000,10.998 L-0.000,9.999 L1.006,9.999 L1.006,9.998 L1.682,9.998 L5.996,3.672 L5.996,-0.002 L7.000,-0.002 L7.000,-0.002 L15.003,-0.002 L7.734,4.845 ZM2.014,23.998 L11.014,23.998 L11.014,10.999 L2.014,10.999 L2.014,23.998 ZM2.892,9.999 L10.090,9.999 L6.461,4.764 L2.892,9.999 ZM6.997,0.999 L7.001,3.787 L7.165,4.024 L11.700,0.999 L6.997,0.999 ZM5.996,12.999 L7.000,12.999 L7.000,19.999 L5.996,19.999 L5.996,12.999 Z" class="cls-1"/>
</svg>
