<svg xmlns="http://www.w3.org/2000/svg" xmlns:xlink="http://www.w3.org/1999/xlink" preserveAspectRatio="xMidYMid" width="25" height="25" viewBox="0 0 25 25">
  <defs>
    <style>
      .cls-1 {
        fill: #3c4042;
        fill-rule: evenodd;
      }
    </style>
  </defs>
  <path d="M24.000,3.999 C24.000,3.447 23.552,2.999 23.000,2.999 L18.000,2.999 C17.448,2.999 17.000,3.447 17.000,3.999 L17.000,21.997 L16.000,21.997 L16.000,3.530 C16.000,2.684 16.671,1.997 17.500,1.997 L23.500,1.997 C24.328,1.997 25.000,2.684 25.000,3.530 L25.000,21.997 L24.000,21.997 L24.000,3.999 ZM13.000,1.999 C13.000,1.447 12.552,0.999 12.000,0.999 L2.000,0.999 C1.448,0.999 1.000,1.447 1.000,1.999 L1.000,21.997 L-0.000,21.997 L-0.000,1.561 C-0.000,0.697 0.696,-0.003 1.555,-0.003 L12.444,-0.003 C13.303,-0.003 14.000,0.697 14.000,1.561 L14.000,21.997 L13.000,21.997 L13.000,1.999 ZM6.000,20.998 L3.000,20.998 L3.000,17.998 L6.000,17.998 L6.000,20.998 ZM5.000,18.999 L4.000,18.999 L4.000,19.999 L5.000,19.999 L5.000,18.999 ZM6.000,15.997 L3.000,15.997 L3.000,12.997 L6.000,12.997 L6.000,15.997 ZM5.000,13.999 L4.000,13.999 L4.000,14.999 L5.000,14.999 L5.000,13.999 ZM3.000,2.997 L6.000,2.997 L6.000,5.997 L3.000,5.997 L3.000,2.997 ZM4.000,4.999 L5.000,4.999 L5.000,3.999 L4.000,3.999 L4.000,4.999 ZM6.000,10.997 L3.000,10.997 L3.000,7.997 L6.000,7.997 L6.000,10.997 ZM5.000,8.999 L4.000,8.999 L4.000,9.999 L5.000,9.999 L5.000,8.999 ZM11.000,20.998 L8.000,20.998 L8.000,17.998 L11.000,17.998 L11.000,20.998 ZM10.000,18.999 L9.000,18.999 L9.000,19.999 L10.000,19.999 L10.000,18.999 ZM11.000,15.997 L8.000,15.997 L8.000,12.997 L11.000,12.997 L11.000,15.997 ZM10.000,13.999 L9.000,13.999 L9.000,14.999 L10.000,14.999 L10.000,13.999 ZM8.000,2.997 L11.000,2.997 L11.000,5.997 L8.000,5.997 L8.000,2.997 ZM9.000,4.999 L10.000,4.999 L10.000,3.999 L9.000,3.999 L9.000,4.999 ZM11.000,10.997 L8.000,10.997 L8.000,7.997 L11.000,7.997 L11.000,10.997 ZM10.000,8.999 L9.000,8.999 L9.000,9.999 L10.000,9.999 L10.000,8.999 ZM22.000,17.998 L19.000,17.998 L19.000,14.997 L22.000,14.997 L22.000,17.998 ZM21.000,15.999 L20.000,15.999 L20.000,16.999 L21.000,16.999 L21.000,15.999 ZM19.000,4.997 L22.000,4.997 L22.000,7.997 L19.000,7.997 L19.000,4.997 ZM20.000,6.999 L21.000,6.999 L21.000,5.999 L20.000,5.999 L20.000,6.999 ZM22.000,12.997 L19.000,12.997 L19.000,9.997 L22.000,9.997 L22.000,12.997 ZM21.000,10.999 L20.000,10.999 L20.000,12.000 L21.000,12.000 L21.000,10.999 ZM0.500,23.999 L18.000,23.999 L23.000,23.999 L24.500,23.999 C24.776,23.999 25.000,24.223 25.000,24.499 C25.000,24.775 24.776,24.999 24.500,24.999 L0.500,24.999 C0.224,24.999 -0.000,24.775 -0.000,24.499 C-0.000,24.223 0.224,23.999 0.500,23.999 Z" class="cls-1"/>
</svg>
