<svg xmlns="http://www.w3.org/2000/svg" xmlns:xlink="http://www.w3.org/1999/xlink" preserveAspectRatio="xMidYMid" width="25" height="25" viewBox="0 0 25 25">
  <defs>
    <style>
      .cls-1 {
        fill: #3c4042;
        fill-rule: evenodd;
      }
    </style>
  </defs>
  <path d="M3.000,9.998 L5.000,9.998 L5.000,10.998 L3.000,10.998 L3.000,9.998 ZM5.000,18.998 L3.000,18.998 L3.000,17.998 L5.000,17.998 L5.000,18.998 ZM3.000,13.998 L5.000,13.998 L5.000,14.998 L3.000,14.998 L3.000,13.998 ZM25.000,24.998 L15.000,24.998 L15.000,24.999 L10.000,24.999 L10.000,24.998 L-0.000,24.998 L-0.000,23.999 L7.000,23.999 L7.000,23.998 L7.000,5.997 L1.000,5.997 L1.000,23.998 L-0.000,23.998 L-0.000,4.997 L7.000,4.997 L7.000,-0.002 L18.000,-0.002 L18.000,4.997 L25.000,4.997 L25.000,23.998 L24.000,23.998 L24.000,5.997 L18.000,5.997 L18.000,23.998 L18.000,23.999 L25.000,23.999 L25.000,24.998 ZM11.000,23.999 L14.000,23.999 L14.000,19.999 L11.000,19.999 L11.000,23.999 ZM17.000,4.997 L17.000,0.998 L8.000,0.998 L8.000,4.997 L8.000,23.998 L10.000,23.998 L10.000,18.999 L15.000,18.999 L15.000,23.998 L17.000,23.998 L17.000,4.997 ZM10.000,12.998 L15.000,12.998 L15.000,13.998 L10.000,13.998 L10.000,12.998 ZM10.000,8.999 L15.000,8.999 L15.000,9.998 L10.000,9.998 L10.000,8.999 ZM10.000,4.999 L15.000,4.999 L15.000,5.998 L10.000,5.998 L10.000,4.999 ZM22.000,18.998 L20.000,18.998 L20.000,17.998 L22.000,17.998 L22.000,18.998 ZM20.000,9.998 L22.000,9.998 L22.000,10.998 L20.000,10.998 L20.000,9.998 ZM22.000,14.998 L20.000,14.998 L20.000,13.998 L22.000,13.998 L22.000,14.998 Z" class="cls-1"/>
</svg>
