<svg xmlns="http://www.w3.org/2000/svg" xmlns:xlink="http://www.w3.org/1999/xlink" preserveAspectRatio="xMidYMid" width="9" height="25" viewBox="0 0 9 25">
  <defs>
    <style>
      .cls-1 {
        fill: #3c4042;
        fill-rule: evenodd;
      }
    </style>
  </defs>
  <path d="M9.000,19.530 C9.000,19.530 8.583,20.553 8.221,21.123 C6.750,23.436 4.500,24.999 4.500,24.999 C4.500,24.999 2.250,23.436 0.791,21.135 C0.424,20.557 -0.000,19.530 -0.000,19.530 L-0.000,10.936 L1.498,7.987 L-0.000,-0.001 L9.000,-0.001 L7.502,7.988 L9.000,10.936 L9.000,19.530 ZM1.000,11.175 L1.000,13.557 L7.418,10.030 L6.387,7.999 L2.614,7.999 L1.000,11.175 ZM7.795,0.999 L1.205,0.999 L2.330,6.999 L6.670,6.999 L7.795,0.999 ZM8.000,11.175 L7.887,10.954 L1.000,14.738 L1.000,18.508 L8.000,14.323 L8.000,11.175 ZM8.000,15.490 L1.125,19.601 C1.277,19.935 1.466,20.332 1.635,20.600 C2.539,22.025 3.782,23.152 4.499,23.737 C5.218,23.149 6.469,22.013 7.377,20.586 C7.590,20.252 7.854,19.668 8.000,19.329 L8.000,15.490 Z" class="cls-1"/>
</svg>
