<svg xmlns="http://www.w3.org/2000/svg" xmlns:xlink="http://www.w3.org/1999/xlink" preserveAspectRatio="xMidYMid" width="25" height="25" viewBox="0 0 25 25">
  <defs>
    <style>
      .cls-1 {
        fill: #3c4042;
        fill-rule: evenodd;
      }
    </style>
  </defs>
  <path d="M21.875,24.998 L7.031,24.998 L3.125,24.998 C1.402,24.998 -0.000,23.723 -0.000,21.999 L-0.000,11.000 L6.000,11.000 L6.000,-0.002 L25.000,-0.002 L25.000,21.873 C25.000,23.596 23.598,24.998 21.875,24.998 ZM6.000,22.999 L6.000,21.000 L6.000,11.999 L1.000,11.999 L1.000,22.999 C1.000,23.860 2.138,23.999 3.000,23.999 L4.000,23.999 L4.000,23.999 L6.000,23.999 L6.000,22.999 ZM24.000,0.997 L7.000,0.999 L7.000,23.999 L22.400,23.998 C23.282,23.998 24.000,22.292 24.000,21.426 L24.000,0.997 ZM9.000,19.998 L22.000,19.998 L22.000,20.998 L9.000,20.998 L9.000,19.998 ZM9.000,16.998 L22.000,16.998 L22.000,17.998 L9.000,17.998 L9.000,16.998 ZM9.000,5.998 L22.000,5.998 L22.000,14.997 L9.000,14.997 L9.000,5.998 ZM10.006,14.002 L20.993,14.002 L20.993,6.992 L10.006,6.992 L10.006,14.002 ZM9.000,2.998 L22.000,2.998 L22.000,3.998 L9.000,3.998 L9.000,2.998 Z" class="cls-1"/>
</svg>
