<svg xmlns="http://www.w3.org/2000/svg" xmlns:xlink="http://www.w3.org/1999/xlink" preserveAspectRatio="xMidYMid" width="25" height="25" viewBox="0 0 25 25">
  <defs>
    <style>
      .cls-1 {
        fill: #3c4042;
        fill-rule: evenodd;
      }
    </style>
  </defs>
  <path d="M23.454,24.998 L9.545,24.998 C8.692,24.998 8.000,24.311 8.000,23.464 L8.000,3.531 C8.000,2.684 8.692,1.998 9.545,1.998 L11.000,1.998 L11.000,-0.003 L12.000,-0.003 L12.000,1.998 L16.000,1.998 L16.000,-0.003 L17.000,-0.003 L17.000,1.998 L21.000,1.998 L21.000,-0.003 L22.000,-0.003 L22.000,1.998 L23.454,1.998 C24.308,1.998 25.000,2.684 25.000,3.531 L25.000,23.464 C25.000,24.311 24.308,24.998 23.454,24.998 ZM24.000,3.767 C24.000,3.342 23.651,2.997 23.222,2.997 L22.000,2.997 L21.000,2.997 L17.000,2.997 L16.000,2.997 L12.000,2.997 L11.000,2.997 L9.777,2.997 C9.348,2.997 9.000,3.342 9.000,3.767 L9.000,23.228 C9.000,23.653 9.348,23.997 9.777,23.997 L23.222,23.997 C23.651,23.997 24.000,23.653 24.000,23.228 L24.000,3.767 ZM21.500,19.000 L11.500,19.000 C11.224,19.000 11.000,18.775 11.000,18.499 C11.000,18.223 11.224,17.999 11.500,17.999 L21.500,17.999 C21.776,17.999 22.000,18.223 22.000,18.499 C22.000,18.775 21.776,19.000 21.500,19.000 ZM21.500,13.999 L11.500,13.999 C11.224,13.999 11.000,13.776 11.000,13.499 C11.000,13.222 11.224,13.000 11.500,13.000 L21.500,13.000 C21.776,13.000 22.000,13.222 22.000,13.499 C22.000,13.776 21.776,13.999 21.500,13.999 ZM21.500,8.999 L11.500,8.999 C11.224,8.999 11.000,8.775 11.000,8.499 C11.000,8.223 11.224,7.999 11.500,7.999 L21.500,7.999 C21.776,7.999 22.000,8.223 22.000,8.499 C22.000,8.775 21.776,8.999 21.500,8.999 ZM4.500,24.998 L1.500,24.998 C0.671,24.998 -0.000,24.298 -0.000,23.435 L-0.000,11.997 L-0.000,10.998 L-0.000,1.559 C-0.000,0.697 0.671,-0.003 1.500,-0.003 L4.500,-0.003 C5.328,-0.003 6.000,0.697 6.000,1.559 L6.000,10.998 L6.000,11.997 L6.000,23.435 C6.000,24.298 5.328,24.998 4.500,24.998 ZM5.000,1.999 C5.000,1.447 4.552,0.999 4.000,0.999 L2.000,0.999 C1.447,0.999 1.000,1.447 1.000,1.999 L1.000,10.998 L5.000,10.998 L5.000,1.999 ZM1.000,11.997 L1.000,22.999 C1.000,23.552 1.447,23.999 2.000,23.999 L4.000,23.999 C4.552,23.999 5.000,23.552 5.000,22.999 L5.000,11.997 L1.000,11.997 Z" class="cls-1"/>
</svg>
