<svg xmlns="http://www.w3.org/2000/svg" xmlns:xlink="http://www.w3.org/1999/xlink" preserveAspectRatio="xMidYMid" width="25" height="25" viewBox="0 0 25 25">
  <defs>
    <style>
      .cls-1 {
        fill: #3c4042;
        fill-rule: evenodd;
      }
    </style>
  </defs>
  <path d="M22.000,3.999 L5.000,3.999 L5.000,5.999 L4.000,5.999 L4.000,2.999 L6.000,2.999 L6.000,0.999 L1.000,0.999 L1.000,5.999 L-0.000,5.999 L-0.000,-0.003 L7.000,-0.001 L7.000,2.999 L23.000,2.999 L23.000,5.999 L22.000,5.999 L22.000,3.999 ZM23.000,24.999 L2.000,24.999 L-0.000,7.999 L25.000,7.999 L23.000,24.999 ZM3.000,23.999 L22.000,23.999 L24.000,8.999 L1.000,8.999 L3.000,23.999 ZM6.000,12.998 L19.000,12.998 L19.000,13.998 L6.000,13.998 L6.000,12.998 Z" class="cls-1"/>
</svg>
