<svg xmlns="http://www.w3.org/2000/svg" xmlns:xlink="http://www.w3.org/1999/xlink" preserveAspectRatio="xMidYMid" width="25" height="25" viewBox="0 0 25 25">
  <defs>
    <style>
      .cls-1 {
        fill: #3c4042;
        fill-rule: evenodd;
      }
    </style>
  </defs>
  <path d="M23.437,24.997 L1.562,24.997 C0.699,24.997 -0.000,24.294 -0.000,23.425 L-0.000,23.413 L-0.000,7.581 L-0.000,4.685 L-0.000,4.569 L-0.000,1.560 C-0.000,0.697 0.699,-0.002 1.562,-0.002 L9.375,-0.002 C10.238,-0.002 10.937,0.697 10.937,1.560 L10.937,2.997 L23.437,2.997 C24.300,2.997 25.000,3.700 25.000,4.569 L25.000,7.581 L25.000,23.413 L25.000,23.425 C25.000,24.294 24.300,24.997 23.437,24.997 ZM1.000,7.797 L1.000,8.996 L1.000,23.198 C1.000,23.639 1.351,23.997 1.785,23.997 L23.214,23.997 C23.648,23.997 24.000,23.639 24.000,23.198 L24.000,8.996 L24.000,7.797 L24.000,6.996 L1.000,6.996 L1.000,7.797 ZM24.000,5.000 L23.999,5.000 C23.999,4.998 24.000,4.997 24.000,4.996 C24.000,4.445 23.664,3.997 23.250,3.997 L23.000,3.997 L21.750,3.997 L9.999,3.997 L9.999,3.247 C10.000,3.247 10.000,3.247 10.000,3.247 L10.000,1.748 C10.000,1.333 9.641,0.997 9.200,0.997 L1.800,0.997 C1.358,0.997 1.000,1.333 1.000,1.748 L1.000,2.996 L1.000,4.996 L1.000,5.997 L21.750,5.997 L22.750,5.997 L22.750,6.000 L24.000,6.000 L24.000,5.000 ZM18.000,18.919 C16.857,20.763 14.829,21.997 12.500,21.997 C9.081,21.997 6.310,19.350 6.050,15.998 L7.050,15.998 C7.307,18.798 9.634,20.997 12.500,20.997 C14.630,20.997 16.450,19.772 17.359,17.999 L15.000,17.999 L15.000,16.999 L17.766,16.999 C17.766,16.998 17.766,16.998 17.766,16.997 L18.808,16.997 C18.808,16.998 18.808,16.998 18.808,16.999 L19.000,16.999 L19.000,17.999 L19.000,20.999 L18.000,20.999 L18.000,18.919 ZM12.500,9.997 C10.368,9.997 8.546,11.224 7.638,12.999 L10.000,12.999 L10.000,13.998 L7.000,13.998 L6.000,13.998 L6.000,12.999 L6.000,9.999 L7.000,9.999 L7.000,12.068 C8.144,10.227 10.172,8.997 12.500,8.997 C15.918,8.997 18.690,11.646 18.949,14.998 L17.949,14.998 C17.694,12.198 15.366,9.997 12.500,9.997 Z" class="cls-1"/>
</svg>
