<svg xmlns="http://www.w3.org/2000/svg" xmlns:xlink="http://www.w3.org/1999/xlink" preserveAspectRatio="xMidYMid" width="25" height="25" viewBox="0 0 25 25">
  <defs>
    <style>
      .cls-1 {
        fill: #3c4042;
        fill-rule: evenodd;
      }
    </style>
  </defs>
  <path d="M25.000,15.000 L25.000,23.426 C25.000,24.295 24.300,24.997 23.437,24.997 L1.562,24.997 C0.699,24.997 -0.000,24.295 -0.000,23.426 L-0.000,15.000 L0.001,14.998 L-0.000,14.998 L-0.000,13.998 L6.000,13.998 L6.000,13.998 L7.000,13.998 L7.000,17.997 L18.000,17.997 L18.000,13.998 L19.000,13.998 L19.000,13.998 L25.000,13.998 L25.000,14.998 L24.998,14.998 L25.000,15.000 ZM24.000,15.000 L23.225,15.000 C23.223,14.999 23.221,14.998 23.218,14.998 L19.000,14.998 L19.000,18.998 L6.000,18.998 L6.000,14.998 L1.782,14.998 C1.779,14.998 1.777,14.999 1.774,15.000 L1.000,15.000 L1.000,15.797 C1.000,15.797 1.000,15.797 1.000,15.797 L1.000,23.197 C1.000,23.640 1.351,23.998 1.785,23.998 L23.214,23.998 C23.648,23.998 24.000,23.640 24.000,23.197 L24.000,16.999 L24.000,16.999 L24.000,15.000 ZM20.000,10.499 C20.000,10.775 19.776,10.999 19.500,10.999 L5.500,10.999 C5.224,10.999 5.000,10.775 5.000,10.499 C5.000,10.223 5.224,9.999 5.500,9.999 L19.500,9.999 C19.776,9.999 20.000,10.223 20.000,10.499 ZM8.500,5.000 C8.224,5.000 8.000,4.776 8.000,4.499 C8.000,4.223 8.224,3.999 8.500,3.999 L16.500,3.999 C16.776,3.999 17.000,4.223 17.000,4.499 C17.000,4.776 16.776,5.000 16.500,5.000 L8.500,5.000 ZM18.000,7.499 C18.000,7.775 17.776,7.999 17.500,7.999 L7.500,7.999 C7.224,7.999 7.000,7.775 7.000,7.499 C7.000,7.223 7.224,6.999 7.500,6.999 L17.500,6.999 C17.776,6.999 18.000,7.223 18.000,7.499 ZM21.000,0.999 L4.000,0.999 L1.000,13.998 L-0.000,13.998 L3.125,-0.002 L21.875,-0.002 L25.000,13.998 L24.000,13.998 L21.000,0.999 Z" class="cls-1"/>
</svg>
