<svg xmlns="http://www.w3.org/2000/svg" xmlns:xlink="http://www.w3.org/1999/xlink" preserveAspectRatio="xMidYMid" width="21" height="25" viewBox="0 0 21 25">
  <defs>
    <style>
      .cls-1 {
        fill: #3c4042;
        fill-rule: evenodd;
      }
    </style>
  </defs>
  <path d="M13.973,25.000 L0.768,25.000 C0.345,25.000 -0.000,24.649 -0.000,24.219 L-0.000,0.781 C-0.000,0.349 0.345,-0.001 0.768,-0.001 L20.230,-0.001 C20.655,-0.001 21.000,0.349 21.000,0.781 L21.000,17.970 L13.973,25.000 ZM14.001,23.556 L19.558,17.998 L14.001,17.998 L14.001,23.556 ZM20.000,0.999 L1.000,0.999 L1.000,24.000 L13.558,24.000 L13.561,23.998 L12.997,23.998 L12.997,17.998 L12.994,17.998 L12.994,16.998 L19.991,16.998 L19.991,17.564 L20.000,17.556 L20.000,0.999 ZM9.510,14.817 L9.331,14.996 L6.003,11.668 L6.669,11.002 L9.446,13.779 L15.303,6.994 L16.004,7.695 L9.696,15.003 L9.510,14.817 Z" class="cls-1"/>
</svg>
