<svg xmlns="http://www.w3.org/2000/svg" xmlns:xlink="http://www.w3.org/1999/xlink" preserveAspectRatio="xMidYMid" width="21" height="25" viewBox="0 0 21 25">
  <defs>
    <style>
      .cls-1 {
        fill: #3c4042;
        fill-rule: evenodd;
      }
    </style>
  </defs>
  <path d="M-0.000,24.999 L-0.000,2.999 L5.000,2.999 L5.000,1.999 L7.000,1.999 L7.000,1.664 C7.000,0.744 7.671,-0.003 8.500,-0.003 L12.500,-0.003 C13.328,-0.003 14.000,0.744 14.000,1.664 L14.000,1.999 L16.000,1.999 L16.000,2.999 L21.000,2.999 L21.000,24.999 L-0.000,24.999 ZM15.000,2.999 L13.000,2.999 L13.000,1.831 C13.000,1.370 12.664,0.997 12.250,0.997 L8.750,0.997 C8.336,0.997 8.000,1.370 8.000,1.831 L8.000,2.999 L6.000,2.999 L6.000,5.999 L15.000,5.999 L15.000,2.999 ZM20.000,3.999 L16.000,3.999 L16.000,6.999 L5.000,6.999 L5.000,3.999 L1.000,3.999 L1.000,23.999 L20.000,23.999 L20.000,3.999 ZM5.922,15.141 L9.480,18.700 L16.180,11.121 C16.366,10.924 16.668,10.924 16.855,11.121 C17.041,11.319 17.041,11.639 16.855,11.837 L9.812,19.841 C9.709,19.951 9.574,19.990 9.439,19.982 C9.296,19.984 9.152,19.932 9.043,19.822 L5.142,15.921 C4.926,15.706 4.926,15.356 5.142,15.141 C5.357,14.925 5.707,14.925 5.922,15.141 Z" class="cls-1"/>
</svg>
