<svg xmlns="http://www.w3.org/2000/svg" xmlns:xlink="http://www.w3.org/1999/xlink" preserveAspectRatio="xMidYMid" width="25" height="23" viewBox="0 0 25 23">
  <defs>
    <style>
      .cls-1 {
        fill: #3c4042;
        fill-rule: evenodd;
      }
    </style>
  </defs>
  <path d="M16.000,4.999 L22.000,4.999 L22.000,5.999 L16.000,5.999 L16.000,4.999 ZM16.000,7.999 L22.000,7.999 L22.000,8.999 L16.000,8.999 L16.000,7.999 ZM22.000,14.999 L16.000,14.999 L16.000,14.000 L22.000,14.000 L22.000,14.999 ZM16.000,10.999 L22.000,10.999 L22.000,11.999 L16.000,11.999 L16.000,10.999 ZM14.000,10.495 C14.000,13.528 11.537,15.986 8.500,15.986 C5.462,15.986 3.000,13.528 3.000,10.495 C3.000,7.462 5.462,5.003 8.500,5.003 C11.537,5.003 14.000,7.462 14.000,10.495 ZM4.010,10.513 C4.010,12.999 6.020,15.013 8.500,15.013 C10.979,15.013 12.990,12.999 12.990,10.513 C12.990,8.027 10.979,6.012 8.500,6.012 C6.020,6.012 4.010,8.027 4.010,10.513 ZM20.250,20.000 L3.000,19.992 L3.000,18.989 L20.000,18.999 C22.209,18.999 24.000,17.208 24.000,14.999 L24.000,4.999 C24.000,2.790 22.209,0.999 20.000,0.999 L5.000,0.999 C2.791,0.999 1.000,2.790 1.000,4.999 L1.000,21.984 L1.711,21.984 C1.725,21.985 1.736,21.994 1.750,21.994 L6.888,21.994 C6.888,21.996 6.886,21.997 6.886,21.999 L22.500,21.999 C22.776,21.999 23.000,22.224 23.000,22.499 C23.000,22.775 22.776,22.999 22.500,22.999 L-0.000,23.000 L-0.000,4.597 C-0.000,2.057 2.098,-0.004 4.687,-0.004 L20.312,-0.004 C22.901,-0.004 25.000,2.057 25.000,4.597 L25.000,15.330 C25.000,17.872 22.839,20.000 20.250,20.000 Z" class="cls-1"/>
</svg>
