<svg xmlns="http://www.w3.org/2000/svg" xmlns:xlink="http://www.w3.org/1999/xlink" preserveAspectRatio="xMidYMid" width="25" height="23" viewBox="0 0 25 23">
  <defs>
    <style>
      .cls-1 {
        fill: #3c4042;
        fill-rule: evenodd;
      }
    </style>
  </defs>
  <path d="M21.875,22.997 L20.000,22.997 L20.000,22.999 L19.000,22.999 L19.000,22.997 L6.000,22.997 L6.000,22.999 L5.000,22.999 L5.000,22.997 L3.125,22.997 C1.399,22.997 -0.000,21.619 -0.000,19.921 L-0.000,6.078 C-0.000,4.378 1.399,3.001 3.125,3.001 L8.000,3.001 L8.000,0.664 C8.000,0.296 8.335,-0.002 8.750,-0.002 L16.250,-0.002 C16.664,-0.002 17.000,0.296 17.000,0.664 L17.000,3.001 L21.875,3.001 C23.601,3.001 25.000,4.378 25.000,6.078 L25.000,19.921 C25.000,21.619 23.601,22.997 21.875,22.997 ZM5.000,3.998 L3.000,3.998 C1.895,3.998 1.000,4.895 1.000,5.999 L1.000,19.999 C1.000,21.104 1.895,21.999 3.000,21.999 L5.000,21.999 L5.000,3.998 ZM16.000,0.999 L9.000,0.999 L9.000,2.999 L16.000,2.999 L16.000,0.999 ZM6.000,3.998 L6.000,21.999 L19.000,21.999 L19.000,3.998 L6.000,3.998 ZM24.000,5.999 C24.000,4.895 23.104,3.998 22.000,3.998 L20.000,3.998 L20.000,21.999 L22.000,21.999 C23.104,21.999 24.000,21.104 24.000,19.999 L24.000,5.999 Z" class="cls-1"/>
</svg>
