<svg xmlns="http://www.w3.org/2000/svg" xmlns:xlink="http://www.w3.org/1999/xlink" preserveAspectRatio="xMidYMid" width="23" height="25" viewBox="0 0 23 25">
  <defs>
    <style>
      .cls-1 {
        fill: #3c4042;
        fill-rule: evenodd;
      }
    </style>
  </defs>
  <path d="M20.700,24.998 L2.300,24.998 C1.029,24.998 -0.000,23.948 -0.000,22.654 L-0.000,2.341 C-0.000,1.046 1.029,-0.003 2.300,-0.003 L20.700,-0.003 C21.970,-0.003 23.000,1.046 23.000,2.341 L23.000,22.654 C23.000,23.948 21.970,24.998 20.700,24.998 ZM22.000,2.999 C22.000,1.894 21.104,0.999 20.000,0.999 L4.000,0.999 L4.000,23.997 L3.000,23.997 L3.000,22.999 L3.000,1.999 L3.000,0.999 L2.000,0.999 L2.000,0.999 C2.000,0.999 2.000,0.999 2.000,0.999 C1.448,0.999 1.000,1.447 1.000,1.999 L1.000,22.999 C1.000,23.551 1.448,23.999 2.000,23.999 C2.000,23.999 2.000,23.999 2.000,23.999 L2.000,23.999 L3.000,23.999 L3.000,23.999 L20.000,23.999 C21.104,23.999 22.000,23.104 22.000,21.999 L22.000,2.999 ZM18.500,16.999 L7.500,16.999 C7.224,16.999 7.000,16.775 7.000,16.499 C7.000,16.223 7.224,15.999 7.500,15.999 L18.500,15.999 C18.776,15.999 19.000,16.223 19.000,16.499 C19.000,16.775 18.776,16.999 18.500,16.999 ZM18.500,11.999 L7.500,11.999 C7.224,11.999 7.000,11.775 7.000,11.499 C7.000,11.223 7.224,10.999 7.500,10.999 L18.500,10.999 C18.776,10.999 19.000,11.223 19.000,11.499 C19.000,11.775 18.776,11.999 18.500,11.999 ZM18.500,6.999 L7.500,6.999 C7.224,6.999 7.000,6.776 7.000,6.499 C7.000,6.223 7.224,6.000 7.500,6.000 L18.500,6.000 C18.776,6.000 19.000,6.223 19.000,6.499 C19.000,6.776 18.776,6.999 18.500,6.999 Z" class="cls-1"/>
</svg>
