<svg xmlns="http://www.w3.org/2000/svg" xmlns:xlink="http://www.w3.org/1999/xlink" preserveAspectRatio="xMidYMid" width="25" height="25" viewBox="0 0 25 25">
  <defs>
    <style>
      .cls-1 {
        fill: #3c4042;
        fill-rule: evenodd;
      }
    </style>
  </defs>
  <path d="M23.437,24.997 L1.562,24.997 C0.699,24.997 -0.000,24.294 -0.000,23.425 L-0.000,23.413 L-0.000,7.581 L-0.000,4.685 L-0.000,4.569 L-0.000,1.560 C-0.000,0.697 0.699,-0.002 1.562,-0.002 L9.375,-0.002 C10.238,-0.002 10.937,0.697 10.937,1.560 L10.937,2.997 L23.437,2.997 C24.300,2.997 25.000,3.700 25.000,4.569 L25.000,7.581 L25.000,23.413 L25.000,23.425 C25.000,24.294 24.300,24.997 23.437,24.997 ZM1.000,7.797 L1.000,8.996 L1.000,23.198 C1.000,23.639 1.351,23.997 1.785,23.997 L23.214,23.997 C23.648,23.997 24.000,23.639 24.000,23.198 L24.000,7.797 L24.000,7.797 L24.000,6.996 L1.000,6.996 L1.000,7.797 ZM24.000,4.750 L23.974,4.750 C23.891,4.318 23.600,3.997 23.250,3.997 L23.000,3.997 L21.750,3.997 L10.000,3.997 L10.000,3.247 L10.000,2.996 L10.000,1.748 C10.000,1.333 9.641,0.997 9.200,0.997 L1.800,0.997 C1.358,0.997 1.000,1.333 1.000,1.748 L1.000,2.996 L1.000,4.996 L1.000,5.997 L21.750,5.997 L22.000,5.997 L22.000,6.000 L24.000,6.000 L24.000,4.750 ZM16.243,19.991 L12.500,16.248 L8.756,19.991 L8.008,19.243 L11.751,15.499 L8.008,11.756 L8.756,11.006 L12.500,14.750 L16.243,11.006 L16.992,11.756 L13.249,15.499 L16.992,19.243 L16.243,19.991 Z" class="cls-1"/>
</svg>
