<svg xmlns="http://www.w3.org/2000/svg" xmlns:xlink="http://www.w3.org/1999/xlink" preserveAspectRatio="xMidYMid" width="25" height="25" viewBox="0 0 25 25">
  <defs>
    <style>
      .cls-1 {
        fill: #3c4042;
        fill-rule: evenodd;
      }
    </style>
  </defs>
  <path d="M23.437,24.998 L1.562,24.998 C0.699,24.998 -0.000,24.298 -0.000,23.435 L-0.000,1.561 C-0.000,0.697 0.699,-0.002 1.562,-0.002 L14.013,-0.002 L14.013,0.998 L1.000,0.998 L1.000,23.998 L24.000,23.998 L24.000,11.006 L25.000,11.006 L25.000,23.435 C25.000,24.298 24.300,24.998 23.437,24.998 ZM22.659,6.625 L10.457,18.845 L5.432,21.002 L3.997,19.564 L6.150,14.532 L17.635,3.031 L17.635,3.031 L18.353,2.311 L19.788,0.874 C20.977,-0.317 22.906,-0.317 24.095,0.874 C25.284,2.065 25.284,3.996 24.095,5.187 L22.659,6.625 ZM5.432,19.564 L9.739,18.127 L6.868,15.251 L5.432,19.564 ZM18.353,3.749 L7.586,14.532 L10.457,17.408 L21.224,6.625 L18.353,3.749 ZM23.377,1.593 C22.584,0.798 21.299,0.798 20.506,1.593 L19.070,3.031 L19.070,3.031 L19.819,3.780 L19.819,3.780 L21.244,5.207 L21.941,5.906 L23.377,4.468 C24.170,3.674 24.170,2.387 23.377,1.593 Z" class="cls-1"/>
</svg>
