<svg xmlns="http://www.w3.org/2000/svg" xmlns:xlink="http://www.w3.org/1999/xlink" preserveAspectRatio="xMidYMid" width="21" height="25" viewBox="0 0 21 25">
  <defs>
    <style>
      .cls-1 {
        fill: #3c4042;
        fill-rule: evenodd;
      }
    </style>
  </defs>
  <path d="M-0.000,24.999 L-0.000,2.999 L5.000,2.999 L5.000,1.999 L7.000,1.999 L7.000,1.664 C7.000,0.744 7.671,-0.003 8.500,-0.003 L12.500,-0.003 C13.328,-0.003 14.000,0.744 14.000,1.664 L14.000,1.999 L16.000,1.999 L16.000,2.999 L21.000,2.999 L21.000,24.999 L-0.000,24.999 ZM15.000,2.999 L13.000,2.999 L13.000,1.831 C13.000,1.370 12.664,0.998 12.250,0.998 L8.750,0.998 C8.335,0.998 8.000,1.370 8.000,1.831 L8.000,2.999 L6.000,2.999 L6.000,5.999 L15.000,5.999 L15.000,2.999 ZM20.000,3.999 L16.000,3.999 L16.000,6.999 L5.000,6.999 L5.000,3.999 L1.000,3.999 L1.000,23.999 L20.000,23.999 L20.000,3.999 ZM17.000,11.998 L4.000,11.998 L4.000,10.998 L17.000,10.998 L17.000,11.998 ZM17.000,14.998 L4.000,14.998 L4.000,13.999 L17.000,13.999 L17.000,14.998 ZM12.000,17.998 L4.000,17.998 L4.000,16.998 L12.000,16.998 L12.000,17.998 Z" class="cls-1"/>
</svg>
