<svg xmlns="http://www.w3.org/2000/svg" xmlns:xlink="http://www.w3.org/1999/xlink" preserveAspectRatio="xMidYMid" width="25" height="25" viewBox="0 0 25 25">
  <defs>
    <style>
      .cls-1 {
        fill: #3c4042;
        fill-rule: evenodd;
      }
    </style>
  </defs>
  <path d="M21.875,24.998 L3.125,24.998 C1.399,24.998 -0.000,23.599 -0.000,21.872 L-0.000,3.123 C-0.000,1.396 1.399,-0.003 3.125,-0.003 L21.875,-0.003 C23.601,-0.003 25.000,1.396 25.000,3.123 L25.000,21.872 C25.000,23.599 23.601,24.998 21.875,24.998 ZM24.000,2.999 C24.000,1.895 23.104,0.999 22.000,0.999 L3.000,0.999 C1.895,0.999 1.000,1.895 1.000,2.999 L1.000,21.999 C1.000,23.104 1.895,23.999 3.000,23.999 L22.000,23.999 C23.104,23.999 24.000,23.104 24.000,21.999 L24.000,2.999 ZM18.500,16.999 L6.500,16.999 C6.224,16.999 6.000,16.775 6.000,16.499 C6.000,16.223 6.224,15.999 6.500,15.999 L18.500,15.999 C18.776,15.999 19.000,16.223 19.000,16.499 C19.000,16.775 18.776,16.999 18.500,16.999 ZM18.500,12.999 L6.500,12.999 C6.224,12.999 6.000,12.776 6.000,12.500 C6.000,12.223 6.224,11.999 6.500,11.999 L18.500,11.999 C18.776,11.999 19.000,12.223 19.000,12.500 C19.000,12.776 18.776,12.999 18.500,12.999 ZM18.500,8.999 L6.500,8.999 C6.224,8.999 6.000,8.776 6.000,8.499 C6.000,8.223 6.224,7.999 6.500,7.999 L18.500,7.999 C18.776,7.999 19.000,8.223 19.000,8.499 C19.000,8.776 18.776,8.999 18.500,8.999 Z" class="cls-1"/>
</svg>
