<svg xmlns="http://www.w3.org/2000/svg" xmlns:xlink="http://www.w3.org/1999/xlink" preserveAspectRatio="xMidYMid" width="25" height="25" viewBox="0 0 25 25">
  <defs>
    <style>
      .cls-1 {
        fill: #3c4042;
        fill-rule: evenodd;
      }
    </style>
  </defs>
  <path d="M22.692,24.999 L7.307,24.999 C7.302,24.999 7.297,24.998 7.292,24.997 L2.437,24.997 C1.091,24.997 -0.000,23.934 -0.000,22.623 L-0.000,8.372 C-0.000,7.060 1.091,5.998 2.437,5.998 L5.000,5.998 L5.000,2.344 C5.000,1.050 6.033,-0.000 7.307,-0.000 L22.692,-0.000 C23.967,-0.000 25.000,1.050 25.000,2.344 L25.000,22.655 C25.000,23.950 23.967,24.999 22.692,24.999 ZM24.000,2.344 C24.000,1.602 23.413,0.999 22.692,0.999 L7.307,0.999 C6.586,0.999 6.000,1.602 6.000,2.344 L6.000,20.999 L5.000,20.999 L5.000,6.999 L2.000,6.999 C1.448,6.999 1.000,7.447 1.000,7.999 L1.000,22.998 C1.000,23.552 1.448,23.999 2.000,23.999 L5.000,23.999 L5.421,23.999 L7.306,23.999 C7.306,23.999 7.307,23.999 7.307,23.999 L22.692,23.999 C23.413,23.999 24.000,23.396 24.000,22.655 L24.000,2.344 ZM8.000,18.994 L22.000,18.994 L22.000,19.995 L8.000,19.995 L8.000,18.994 ZM8.000,13.991 L22.000,13.991 L22.000,14.992 L8.000,14.992 L8.000,13.991 ZM20.444,11.013 L9.555,11.013 C8.696,11.013 8.000,10.341 8.000,9.513 L8.000,6.510 C8.000,5.681 8.696,5.008 9.555,5.008 L20.444,5.008 C21.303,5.008 22.000,5.681 22.000,6.510 L22.000,9.513 C22.000,10.341 21.303,11.013 20.444,11.013 ZM21.000,6.761 C21.000,6.346 20.648,6.010 20.214,6.010 L9.785,6.010 C9.351,6.010 9.000,6.346 9.000,6.761 L9.000,9.261 C9.000,9.677 9.351,10.013 9.785,10.013 L20.214,10.013 C20.648,10.013 21.000,9.677 21.000,9.261 L21.000,6.761 Z" class="cls-1"/>
</svg>
