<svg xmlns="http://www.w3.org/2000/svg" xmlns:xlink="http://www.w3.org/1999/xlink" preserveAspectRatio="xMidYMid" width="25" height="25" viewBox="0 0 25 25">
  <defs>
    <style>
      .cls-1 {
        fill: #3c4042;
        fill-rule: evenodd;
      }
    </style>
  </defs>
  <path d="M23.000,21.997 C23.000,22.002 22.999,22.005 22.999,22.008 L22.999,21.987 C22.999,21.991 23.000,21.994 23.000,21.997 ZM25.000,1.000 L25.000,19.998 L24.189,19.998 C24.189,19.998 24.189,19.998 24.188,19.998 L25.000,19.998 L25.000,24.998 L24.000,24.998 L24.000,20.998 L22.999,20.998 L22.999,20.998 L21.722,20.998 C21.722,20.998 21.722,20.998 21.722,20.998 L4.000,20.998 L4.000,20.999 L1.277,20.999 C1.105,21.294 1.000,21.633 1.000,21.998 C1.000,23.104 1.895,23.999 3.000,23.999 L20.000,23.999 C20.004,23.999 20.008,23.998 20.012,23.998 L22.204,23.998 C22.204,23.998 22.204,23.998 22.203,23.998 L24.000,23.998 L24.000,24.999 L20.000,24.999 L20.000,24.992 C19.977,24.992 19.956,24.999 19.933,24.999 L3.066,24.999 C1.373,24.999 -0.000,23.655 -0.000,21.997 L-0.000,21.997 L-0.000,21.997 L-0.000,17.998 L-0.000,17.998 L-0.000,2.998 C-0.000,1.341 1.399,-0.002 3.125,-0.002 L21.875,-0.002 C21.918,-0.002 21.957,0.008 22.000,0.010 L22.000,-0.001 L24.000,-0.001 L24.000,-0.002 L25.000,-0.002 L25.000,-0.001 L25.000,-0.001 L25.000,1.000 L25.000,1.000 ZM6.000,1.000 L6.000,12.091 L8.931,10.065 L9.500,9.671 L10.068,10.065 L13.000,12.091 L13.000,1.000 L6.000,1.000 ZM24.000,2.999 C24.000,2.998 24.000,2.997 24.000,2.995 L24.000,1.000 L22.000,1.000 L22.000,0.997 L20.999,0.997 L20.999,1.000 L14.000,1.000 L14.000,13.998 L9.500,10.887 L5.000,13.998 L5.000,1.000 L3.000,1.000 C1.895,1.000 1.000,1.895 1.000,2.999 L1.000,17.999 L1.000,19.999 L3.000,19.999 L4.000,19.999 L22.000,19.999 C22.004,19.999 22.008,19.998 22.012,19.998 L24.000,19.998 L24.000,18.002 C24.000,18.001 24.000,18.000 24.000,17.999 L24.000,2.999 Z" class="cls-1"/>
</svg>
