<svg xmlns="http://www.w3.org/2000/svg" xmlns:xlink="http://www.w3.org/1999/xlink" preserveAspectRatio="xMidYMid" width="25" height="22" viewBox="0 0 25 22">
  <defs>
    <style>
      .cls-1 {
        fill: #3c4042;
        fill-rule: evenodd;
      }
    </style>
  </defs>
  <path d="M24.500,0.999 L23.883,0.999 C23.952,1.169 24.000,1.351 24.000,1.543 L24.000,15.456 C24.000,16.310 23.264,17.001 22.357,17.001 L14.388,17.001 L16.933,21.276 C17.071,21.507 16.989,21.804 16.750,21.938 C16.511,22.073 16.205,21.993 16.067,21.760 L13.233,17.001 L11.766,17.001 L8.933,21.760 C8.795,21.993 8.489,22.073 8.250,21.938 C8.011,21.804 7.929,21.507 8.067,21.276 L10.612,17.001 L2.643,17.001 C1.735,17.001 1.000,16.310 1.000,15.456 L1.000,1.543 C1.000,1.351 1.048,1.169 1.116,0.999 L0.500,0.999 C0.224,0.999 -0.000,0.775 -0.000,0.499 C-0.000,0.223 0.224,-0.001 0.500,-0.001 L2.634,-0.001 C2.637,-0.001 2.640,-0.003 2.643,-0.003 L22.357,-0.003 C22.360,-0.003 22.362,-0.001 22.365,-0.001 L24.500,-0.001 C24.776,-0.001 25.000,0.223 25.000,0.499 C25.000,0.775 24.776,0.999 24.500,0.999 ZM23.000,0.999 L2.000,0.999 L2.000,1.783 C2.000,1.783 2.000,1.783 2.000,1.784 L2.000,15.216 C2.000,15.645 2.354,15.992 2.791,15.992 L22.208,15.992 C22.645,15.992 23.000,15.645 23.000,15.216 L23.000,2.999 L23.000,2.999 L23.000,0.999 ZM7.500,8.999 C7.776,8.999 8.000,9.222 8.000,9.499 L8.000,13.499 C8.000,13.774 7.776,14.000 7.500,14.000 C7.224,14.000 7.000,13.774 7.000,13.499 L7.000,9.499 C7.000,9.222 7.224,8.999 7.500,8.999 ZM12.498,2.999 L12.502,2.999 C12.777,3.000 13.000,3.224 13.000,3.499 L13.000,13.499 C13.000,13.774 12.776,14.000 12.500,14.000 C12.224,14.000 12.000,13.774 12.000,13.499 L12.000,3.499 C12.000,3.224 12.223,3.000 12.498,2.999 ZM17.500,5.999 C17.776,5.999 18.000,6.223 18.000,6.499 L18.000,13.499 C18.000,13.774 17.776,14.000 17.500,14.000 C17.224,14.000 17.000,13.774 17.000,13.499 L17.000,6.499 C17.000,6.223 17.224,5.999 17.500,5.999 Z" class="cls-1"/>
</svg>
