<svg xmlns="http://www.w3.org/2000/svg" xmlns:xlink="http://www.w3.org/1999/xlink" preserveAspectRatio="xMidYMid" width="25" height="17" viewBox="0 0 25 17">
  <defs>
    <style>
      .cls-1 {
        fill: #3c4042;
        fill-rule: evenodd;
      }
    </style>
  </defs>
  <path d="M24.000,9.999 L24.000,9.999 L24.000,10.004 L24.770,10.004 C24.904,10.481 25.000,10.974 25.000,11.494 C25.000,14.534 22.537,16.997 19.500,16.997 C17.369,16.997 15.542,15.773 14.629,14.000 L10.371,14.000 C9.457,15.773 7.630,16.997 5.500,16.997 C2.462,16.997 -0.000,14.534 -0.000,11.494 C-0.000,11.325 0.024,11.163 0.042,10.999 L-0.000,10.999 L0.051,10.889 C0.091,10.587 0.149,10.291 0.230,10.004 L0.461,10.004 L5.000,0.203 L5.000,-0.002 L5.095,-0.002 L5.096,-0.005 L5.103,-0.002 L9.000,-0.002 L9.000,1.007 L5.733,1.007 L2.202,8.461 C1.796,8.900 1.485,9.422 1.277,9.993 L23.997,9.993 L19.296,1.007 L16.000,1.007 L16.000,-0.002 L19.896,-0.002 L19.903,-0.005 L19.905,-0.002 L20.000,-0.002 L20.000,0.184 L25.000,9.999 L24.000,9.999 ZM19.500,15.981 C21.985,15.981 24.000,13.972 24.000,11.494 C24.000,11.325 23.972,11.165 23.952,11.002 L15.047,11.002 C15.027,11.165 15.000,11.325 15.000,11.494 C15.000,13.972 17.014,15.981 19.500,15.981 ZM14.232,12.990 C14.096,12.512 14.000,12.017 14.000,11.494 C14.000,11.326 14.023,11.165 14.041,11.002 L10.958,11.002 C10.976,11.165 11.000,11.326 11.000,11.494 C11.000,12.017 10.904,12.512 10.768,12.990 L14.232,12.990 ZM1.000,11.494 C1.000,13.972 3.015,15.981 5.500,15.981 C7.985,15.981 10.000,13.972 10.000,11.494 C10.000,11.325 9.972,11.165 9.952,11.002 L1.048,11.002 C1.029,11.166 1.000,11.325 1.000,11.494 Z" class="cls-1"/>
</svg>
