<svg xmlns="http://www.w3.org/2000/svg" xmlns:xlink="http://www.w3.org/1999/xlink" preserveAspectRatio="xMidYMid" width="23" height="23" viewBox="0 0 23 23">
  <defs>
    <style>
      .cls-1 {
        fill: #3c4042;
        fill-rule: evenodd;
      }
    </style>
  </defs>
  <path d="M18.034,16.804 L22.297,22.295 L16.807,18.032 L11.849,22.990 L11.569,20.482 L12.553,19.497 L13.249,20.193 L16.020,17.421 L16.020,17.421 L17.423,16.018 L17.423,16.018 L20.195,13.247 L19.499,12.551 L20.483,11.567 L22.992,11.847 L18.034,16.804 ZM9.043,2.095 L9.745,1.393 L20.199,11.848 L19.498,12.550 L9.043,2.095 ZM1.386,9.746 L-0.002,9.746 L9.747,-0.004 L9.746,1.386 L1.386,9.746 ZM11.850,20.198 L1.395,9.743 L7.325,3.813 L2.097,9.042 L12.552,19.495 L11.850,20.198 Z" class="cls-1"/>
</svg>
