<svg xmlns="http://www.w3.org/2000/svg" xmlns:xlink="http://www.w3.org/1999/xlink" preserveAspectRatio="xMidYMid" width="24" height="25" viewBox="0 0 24 25">
  <defs>
    <style>
      .cls-1 {
        fill: #3c4042;
        fill-rule: evenodd;
      }
    </style>
  </defs>
  <path d="M22.437,24.998 L1.562,24.998 C0.699,24.998 -0.000,24.298 -0.000,23.434 L-0.000,1.560 C-0.000,0.697 0.699,-0.003 1.562,-0.003 L4.000,-0.003 L5.000,-0.003 L22.437,-0.003 C23.300,-0.003 24.000,0.697 24.000,1.560 L24.000,23.434 C24.000,24.298 23.300,24.998 22.437,24.998 ZM4.000,19.998 L3.000,19.998 L3.000,16.998 L4.000,16.998 L4.000,13.997 L3.000,13.997 L3.000,10.997 L4.000,10.997 L4.000,7.998 L3.000,7.998 L3.000,4.997 L4.000,4.997 L4.000,0.997 L1.785,0.997 C1.352,0.997 1.000,1.349 1.000,1.782 L1.000,23.212 C1.000,23.645 1.352,23.997 1.785,23.997 L4.000,23.997 L4.000,19.998 ZM23.000,1.782 C23.000,1.349 22.648,0.997 22.214,0.997 L5.000,0.997 L5.000,4.997 L5.000,7.998 L5.000,10.997 L5.000,13.997 L5.000,16.998 L5.000,19.998 L5.000,23.997 L22.214,23.997 C22.648,23.997 23.000,23.645 23.000,23.212 L23.000,1.782 ZM20.500,19.999 L7.500,19.999 C7.224,19.999 7.000,19.775 7.000,19.499 C7.000,19.223 7.224,18.999 7.500,18.999 L20.500,18.999 C20.776,18.999 21.000,19.223 21.000,19.499 C21.000,19.775 20.776,19.999 20.500,19.999 ZM20.500,16.999 L7.500,16.999 C7.224,16.999 7.000,16.775 7.000,16.499 C7.000,16.223 7.224,15.999 7.500,15.999 L20.500,15.999 C20.776,15.999 21.000,16.223 21.000,16.499 C21.000,16.775 20.776,16.999 20.500,16.999 ZM19.444,11.997 L8.555,11.997 C7.696,11.997 7.000,11.281 7.000,10.398 L7.000,5.597 C7.000,4.713 7.696,3.997 8.555,3.997 L19.444,3.997 C20.303,3.997 21.000,4.713 21.000,5.597 L21.000,10.398 C21.000,11.281 20.303,11.997 19.444,11.997 ZM20.000,5.830 C20.000,5.370 19.648,4.996 19.214,4.996 L8.785,4.996 C8.352,4.996 8.000,5.370 8.000,5.830 L8.000,10.165 C8.000,10.624 8.352,10.998 8.785,10.998 L19.214,10.998 C19.648,10.998 20.000,10.624 20.000,10.165 L20.000,5.830 Z" class="cls-1"/>
</svg>
