<svg xmlns="http://www.w3.org/2000/svg" xmlns:xlink="http://www.w3.org/1999/xlink" preserveAspectRatio="xMidYMid" width="22" height="21.03" viewBox="0 0 22 21.03">
  <defs>
    <style>
      .cls-1 {
        fill: #3c4042;
        fill-rule: evenodd;
      }
    </style>
  </defs>
  <path d="M10.464,19.557 C8.303,21.632 3.809,21.408 1.820,19.557 C-0.581,17.323 -0.632,13.647 1.820,11.257 L11.905,1.573 C13.771,-0.218 16.788,-0.655 18.709,1.189 C20.630,3.034 20.254,6.007 18.389,7.799 L8.303,17.482 C7.057,18.642 5.212,18.664 3.981,17.482 C2.750,16.300 2.773,14.529 3.981,13.332 L13.346,4.340 L14.067,5.032 L4.701,14.024 C4.079,14.621 4.079,16.194 4.701,16.790 C5.422,17.482 6.961,17.388 7.583,16.790 C7.583,16.790 22.708,2.269 17.669,7.107 C19.109,5.724 19.043,2.893 17.977,1.870 C16.912,0.846 14.067,0.882 12.626,2.265 L2.540,11.949 C0.675,13.740 0.675,17.075 2.540,18.866 C4.405,20.656 7.879,20.657 9.744,18.866 L21.271,7.799 L21.991,8.490 L10.464,19.557 Z" class="cls-1"/>
</svg>
