<svg xmlns="http://www.w3.org/2000/svg" xmlns:xlink="http://www.w3.org/1999/xlink" preserveAspectRatio="xMidYMid" width="21" height="25" viewBox="0 0 21 25">
  <defs>
    <style>
      .cls-1 {
        fill: #3c4042;
        fill-rule: evenodd;
      }
    </style>
  </defs>
  <path d="M13.973,25.000 L0.768,25.000 C0.344,25.000 -0.000,24.649 -0.000,24.219 L-0.000,0.781 C-0.000,0.349 0.344,-0.001 0.768,-0.001 L20.230,-0.001 C20.655,-0.001 21.000,0.349 21.000,0.781 L21.000,17.970 L13.973,25.000 ZM14.001,23.556 L19.554,18.001 L14.001,18.001 L14.001,23.556 ZM20.000,0.999 L1.000,0.999 L1.000,23.999 L12.997,23.999 L12.997,18.001 L12.994,18.001 L12.994,17.001 L19.992,17.001 L19.992,17.564 L20.000,17.556 L20.000,0.999 ZM5.000,10.999 L16.000,10.999 L16.000,11.999 L5.000,11.999 L5.000,10.999 ZM5.000,6.999 L16.000,6.999 L16.000,7.999 L5.000,7.999 L5.000,6.999 Z" class="cls-1"/>
</svg>
