<svg xmlns="http://www.w3.org/2000/svg" xmlns:xlink="http://www.w3.org/1999/xlink" preserveAspectRatio="xMidYMid" width="23" height="23" viewBox="0 0 23 23">
  <defs>
    <style>
      .cls-1 {
        fill: #3c4042;
        fill-rule: evenodd;
      }
    </style>
  </defs>
  <path d="M16.770,21.466 C14.016,21.466 11.500,23.000 11.500,23.000 C11.500,23.000 8.983,21.466 6.229,21.466 C2.904,21.466 -0.000,23.000 -0.000,23.000 L-0.000,1.532 C-0.000,1.532 2.799,-0.002 6.085,-0.002 C8.894,-0.002 11.500,1.532 11.500,1.532 C11.500,1.532 14.105,-0.002 16.914,-0.002 C20.201,-0.002 23.000,1.532 23.000,1.532 L23.000,23.000 C23.000,23.000 20.096,21.466 16.770,21.466 ZM11.009,2.404 L10.993,2.395 C10.970,2.381 8.576,0.998 6.085,0.998 C3.896,0.998 1.909,1.755 1.000,2.160 L1.000,21.478 C2.243,21.013 4.150,20.465 6.229,20.465 C8.155,20.465 9.942,21.128 11.009,21.622 L11.009,2.404 ZM22.000,2.160 C21.092,1.755 19.103,0.998 16.914,0.998 C14.424,0.998 12.030,2.381 12.006,2.395 L11.990,2.404 L11.990,21.622 C13.057,21.128 14.845,20.465 16.770,20.465 C18.849,20.465 20.757,21.013 22.000,21.478 L22.000,2.160 ZM14.000,15.999 C14.000,15.999 16.117,14.999 17.836,14.999 C19.011,14.999 20.000,15.999 20.000,15.999 L20.000,17.000 C20.000,17.000 19.012,15.999 17.838,15.999 C16.118,15.999 14.000,17.000 14.000,17.000 L14.000,15.999 ZM14.000,11.999 L14.000,10.999 C14.000,10.999 16.117,9.999 17.836,9.999 C19.011,9.999 20.000,10.999 20.000,10.999 L20.000,11.999 C20.000,11.999 19.012,10.999 17.838,10.999 C16.118,10.999 14.000,11.999 14.000,11.999 ZM14.000,6.999 L14.000,5.999 C14.000,5.999 16.117,4.999 17.836,4.999 C19.011,4.999 20.000,5.999 20.000,5.999 L20.000,6.999 C20.000,6.999 19.012,5.999 17.838,5.999 C16.118,5.999 14.000,6.999 14.000,6.999 ZM3.000,17.000 L3.000,15.999 C3.000,15.999 3.989,14.999 5.164,14.999 C6.883,14.999 9.000,15.999 9.000,15.999 L9.000,17.000 C9.000,17.000 6.881,15.999 5.162,15.999 C3.988,15.999 3.000,17.000 3.000,17.000 ZM3.000,11.999 L3.000,10.999 C3.000,10.999 3.989,9.999 5.164,9.999 C6.883,9.999 9.000,10.999 9.000,10.999 L9.000,11.999 C9.000,11.999 6.881,10.999 5.162,10.999 C3.988,10.999 3.000,11.999 3.000,11.999 ZM3.000,6.999 L3.000,5.999 C3.000,5.999 3.989,4.999 5.164,4.999 C6.883,4.999 9.000,5.999 9.000,5.999 L9.000,6.999 C9.000,6.999 6.881,5.999 5.162,5.999 C3.988,5.999 3.000,6.999 3.000,6.999 Z" class="cls-1"/>
</svg>
