<svg xmlns="http://www.w3.org/2000/svg" xmlns:xlink="http://www.w3.org/1999/xlink" preserveAspectRatio="xMidYMid" width="23" height="23" viewBox="0 0 23 23">
  <defs>
    <style>
      .cls-1 {
        fill: #3c4042;
        fill-rule: evenodd;
      }
    </style>
  </defs>
  <path d="M18.034,16.804 L22.297,22.295 L16.807,18.032 L11.848,22.990 L11.750,20.250 L12.553,19.497 L13.249,20.193 L16.020,17.421 L16.020,17.421 L17.318,16.123 L20.195,13.247 L19.499,12.551 L20.250,11.749 L22.992,11.847 L18.034,16.804 ZM9.043,2.095 L9.744,1.393 L20.199,11.848 L19.498,12.550 L9.043,2.095 ZM1.386,9.746 L-0.003,9.746 L9.748,-0.004 L9.746,1.386 L1.386,9.746 ZM11.850,20.198 L1.395,9.743 L7.219,3.919 L2.097,9.042 L9.064,16.008 L16.011,9.062 L16.707,9.759 L9.761,16.705 L12.552,19.496 L11.850,20.198 Z" class="cls-1"/>
</svg>
