<svg xmlns="http://www.w3.org/2000/svg" xmlns:xlink="http://www.w3.org/1999/xlink" preserveAspectRatio="xMidYMid" width="25" height="23" viewBox="0 0 25 23">
  <defs>
    <style>
      .cls-1 {
        fill: #3c4042;
        fill-rule: evenodd;
      }
    </style>
  </defs>
  <path d="M24.945,6.717 L19.000,22.507 L19.000,22.999 L1.571,22.999 C1.308,22.999 1.071,22.919 0.854,22.808 C0.724,22.970 0.512,23.037 0.316,22.955 C0.071,22.852 -0.049,22.557 0.048,22.299 L0.133,22.075 C0.049,21.888 -0.000,21.682 -0.000,21.465 L-0.000,1.532 C-0.000,0.685 0.703,-0.002 1.571,-0.002 L20.428,-0.002 C21.296,-0.002 22.000,0.685 22.000,1.532 L22.000,5.999 L24.500,5.999 C24.776,5.999 25.000,6.223 25.000,6.499 C25.000,6.578 24.978,6.650 24.945,6.717 ZM21.000,1.770 C21.000,1.345 20.645,1.000 20.208,1.000 L1.791,1.000 C1.354,1.000 1.000,1.345 1.000,1.770 L1.000,19.772 L6.003,6.482 C6.013,6.214 6.230,5.999 6.500,5.999 L21.000,5.999 L21.000,1.770 ZM6.839,6.999 L1.268,21.795 C1.408,21.916 1.589,21.996 1.791,21.996 L18.162,21.996 L23.808,6.999 L6.839,6.999 Z" class="cls-1"/>
</svg>
