<svg xmlns="http://www.w3.org/2000/svg" xmlns:xlink="http://www.w3.org/1999/xlink" preserveAspectRatio="xMidYMid" width="21" height="25" viewBox="0 0 21 25">
  <defs>
    <style>
      .cls-1 {
        fill: #3c4042;
        fill-rule: evenodd;
      }
    </style>
  </defs>
  <path d="M-0.000,24.999 L-0.000,23.999 L21.000,23.999 L21.000,24.999 L-0.000,24.999 ZM18.107,9.831 L11.000,1.832 L11.000,19.499 C11.000,19.775 10.776,19.999 10.500,19.999 C10.224,19.999 10.000,19.775 10.000,19.499 L10.000,1.832 L2.892,9.831 C2.692,10.032 2.368,10.032 2.167,9.831 C1.967,9.631 1.967,9.306 2.167,9.107 L10.128,0.148 C10.131,0.144 10.132,0.139 10.135,0.135 C10.154,0.116 10.183,0.122 10.204,0.106 C10.269,0.058 10.344,0.026 10.428,0.014 C10.429,0.013 10.430,0.014 10.432,0.014 C10.587,-0.010 10.745,0.015 10.864,0.135 C10.869,0.140 10.871,0.148 10.876,0.153 L18.832,9.107 C19.032,9.306 19.032,9.631 18.832,9.831 C18.632,10.032 18.308,10.032 18.107,9.831 Z" class="cls-1"/>
</svg>
