<svg xmlns="http://www.w3.org/2000/svg" xmlns:xlink="http://www.w3.org/1999/xlink" preserveAspectRatio="xMidYMid" width="18" height="23" viewBox="0 0 18 23">
  <defs>
    <style>
      .cls-1 {
        fill: #3c4042;
        fill-rule: evenodd;
      }
    </style>
  </defs>
  <path d="M16.454,1.000 C16.755,1.000 17.000,1.240 17.000,1.533 L17.000,19.658 L15.651,21.403 L9.767,14.360 L9.000,13.442 L8.232,14.360 L2.348,21.403 L1.000,19.658 L1.000,1.533 C1.000,1.240 1.244,1.000 1.545,1.000 L16.454,1.000 M16.454,0.000 L1.545,0.000 C0.691,0.000 -0.000,0.685 -0.000,1.533 L-0.000,20.000 L2.318,22.999 L9.000,15.001 L15.681,22.999 L18.000,20.000 L18.000,1.533 C18.000,0.685 17.307,0.000 16.454,0.000 L16.454,0.000 Z" class="cls-1"/>
</svg>
