<svg xmlns="http://www.w3.org/2000/svg" xmlns:xlink="http://www.w3.org/1999/xlink" preserveAspectRatio="xMidYMid" width="21" height="25" viewBox="0 0 21 25">
  <defs>
    <style>
      .cls-1 {
        fill: #3c4042;
        fill-rule: evenodd;
      }
    </style>
  </defs>
  <path d="M-0.000,24.999 L-0.000,23.999 L21.000,23.999 L21.000,24.999 L-0.000,24.999 ZM10.861,19.845 C10.856,19.851 10.854,19.858 10.849,19.863 C10.729,19.983 10.571,20.008 10.416,19.984 C10.415,19.984 10.413,19.985 10.412,19.984 C10.328,19.972 10.253,19.940 10.188,19.892 C10.167,19.876 10.138,19.882 10.119,19.863 C10.115,19.859 10.115,19.854 10.111,19.850 L2.136,10.892 C1.936,10.691 1.936,10.367 2.136,10.167 C2.337,9.967 2.662,9.967 2.863,10.167 L9.983,18.166 L9.983,0.499 C9.983,0.222 10.208,-0.001 10.484,-0.001 C10.761,-0.001 10.985,0.222 10.985,0.499 L10.985,18.166 L18.106,10.167 C18.306,9.967 18.631,9.967 18.832,10.167 C19.032,10.367 19.032,10.691 18.832,10.892 L10.861,19.845 Z" class="cls-1"/>
</svg>
