<svg xmlns="http://www.w3.org/2000/svg" xmlns:xlink="http://www.w3.org/1999/xlink" preserveAspectRatio="xMidYMid" width="23" height="23" viewBox="0 0 23 23">
  <defs>
    <style>
      .cls-1 {
        fill: #3c4042;
        fill-rule: evenodd;
      }
    </style>
  </defs>
  <path d="M22.766,19.994 L11.991,22.866 L11.991,23.012 L11.009,23.012 L11.009,22.866 L0.234,19.994 L-0.000,19.994 L-0.000,19.932 L-0.000,-0.003 L0.006,-0.002 L1.001,-0.002 L1.001,0.131 L11.500,1.531 L21.998,0.131 L21.998,-0.002 L22.994,-0.002 L23.000,-0.003 L23.000,-0.002 L23.000,-0.002 L23.000,19.994 L22.766,19.994 ZM11.009,2.472 L1.001,1.135 L1.001,19.188 L11.009,21.864 L11.009,2.472 ZM21.998,1.135 L11.991,2.472 L11.991,21.867 L21.998,19.260 L21.998,1.135 Z" class="cls-1"/>
</svg>
