<svg xmlns="http://www.w3.org/2000/svg" xmlns:xlink="http://www.w3.org/1999/xlink" preserveAspectRatio="xMidYMid" width="25" height="22" viewBox="0 0 25 22">
  <defs>
    <style>
      .cls-1 {
        fill: #3c4042;
        fill-rule: evenodd;
      }
    </style>
  </defs>
  <path d="M24.500,0.999 L23.883,0.999 C23.952,1.169 24.000,1.351 24.000,1.543 L24.000,15.456 C24.000,16.310 23.264,17.001 22.357,17.001 L14.388,17.001 L16.933,21.276 C17.071,21.507 16.989,21.804 16.750,21.938 C16.511,22.073 16.205,21.993 16.067,21.760 L13.233,17.001 L11.766,17.001 L8.933,21.760 C8.795,21.993 8.489,22.073 8.250,21.938 C8.011,21.804 7.929,21.507 8.067,21.276 L10.612,17.001 L2.643,17.001 C1.735,17.001 1.000,16.310 1.000,15.456 L1.000,1.543 C1.000,1.351 1.048,1.169 1.116,0.999 L0.500,0.999 C0.224,0.999 -0.000,0.775 -0.000,0.499 C-0.000,0.223 0.224,-0.001 0.500,-0.001 L2.634,-0.001 C2.637,-0.001 2.640,-0.003 2.643,-0.003 L22.357,-0.003 C22.360,-0.003 22.362,-0.001 22.365,-0.001 L24.500,-0.001 C24.776,-0.001 25.000,0.223 25.000,0.499 C25.000,0.775 24.776,0.999 24.500,0.999 ZM23.000,0.999 L2.000,0.999 L2.000,1.782 C2.000,1.783 2.000,1.783 2.000,1.784 L2.000,15.216 C2.000,15.645 2.354,15.992 2.791,15.992 L22.208,15.992 C22.645,15.992 23.000,15.645 23.000,15.216 L23.000,2.999 L23.000,2.999 L23.000,0.999 ZM5.791,5.113 L9.518,8.840 L14.137,5.149 C14.140,5.146 14.139,5.142 14.141,5.141 C14.240,5.041 14.370,4.993 14.500,4.995 C14.630,4.993 14.760,5.041 14.859,5.141 C14.863,5.145 14.861,5.152 14.866,5.157 L19.827,11.116 C20.024,11.312 20.024,11.630 19.827,11.826 C19.631,12.023 19.313,12.023 19.117,11.826 L14.428,6.196 L9.883,9.827 C9.878,9.831 9.870,9.829 9.865,9.834 C9.859,9.840 9.862,9.850 9.856,9.855 C9.669,10.042 9.366,10.042 9.178,9.855 L5.114,5.790 C4.927,5.604 4.927,5.300 5.114,5.113 C5.301,4.926 5.604,4.926 5.791,5.113 Z" class="cls-1"/>
</svg>
