<svg xmlns="http://www.w3.org/2000/svg" xmlns:xlink="http://www.w3.org/1999/xlink" preserveAspectRatio="xMidYMid" width="23" height="23" viewBox="0 0 23 23">
  <defs>
    <style>
      .cls-1 {
        fill: #3c4042;
        fill-rule: evenodd;
      }
    </style>
  </defs>
  <path d="M21.466,22.999 L1.533,22.999 C0.686,22.999 -0.000,22.326 -0.000,21.497 L-0.000,3.499 C-0.000,2.671 0.686,1.999 1.533,1.999 L3.004,1.999 L3.004,1.535 C3.004,0.686 3.696,-0.002 4.549,-0.002 L18.451,-0.002 C19.304,-0.002 19.995,0.686 19.995,1.535 L19.995,1.999 L21.466,1.999 C22.313,1.999 23.000,2.671 23.000,3.499 L23.000,21.497 C23.000,22.326 22.313,22.999 21.466,22.999 ZM4.006,1.773 L4.006,18.219 C4.006,18.645 4.354,18.991 4.783,18.991 L11.000,18.991 L11.000,0.999 L4.783,0.999 C4.354,0.999 4.006,1.346 4.006,1.773 ZM18.993,1.773 C18.993,1.346 18.645,0.999 18.216,0.999 L12.000,0.999 L12.000,18.991 L18.216,18.991 C18.645,18.991 18.993,18.645 18.993,18.219 L18.993,1.773 ZM21.998,3.751 C21.998,3.338 21.653,3.002 21.229,3.002 L19.995,3.002 L19.995,18.455 C19.995,19.305 19.304,19.993 18.451,19.993 L12.000,19.993 L12.000,19.999 L11.000,19.999 L11.000,19.993 L4.549,19.993 C3.696,19.993 3.004,19.305 3.004,18.455 L3.004,3.002 L1.771,3.002 C1.346,3.002 1.002,3.338 1.002,3.751 L1.002,21.246 C1.002,21.659 1.346,21.995 1.771,21.995 L21.229,21.995 C21.653,21.995 21.998,21.659 21.998,21.246 L21.998,3.751 ZM13.987,14.004 L16.992,14.004 L16.992,15.006 L13.987,15.006 L13.987,14.004 ZM13.987,11.005 L16.992,11.005 L16.992,12.006 L13.987,12.006 L13.987,11.005 ZM13.987,8.005 L16.992,8.005 L16.992,9.006 L13.987,9.006 L13.987,8.005 ZM13.987,5.002 L16.992,5.002 L16.992,6.004 L13.987,6.004 L13.987,5.002 ZM5.987,15.006 L5.987,14.004 L8.992,14.004 L8.992,15.006 L5.987,15.006 ZM5.987,11.005 L8.992,11.005 L8.992,12.006 L5.987,12.006 L5.987,11.005 ZM5.987,8.005 L8.992,8.005 L8.992,9.006 L5.987,9.006 L5.987,8.005 ZM5.987,5.002 L8.992,5.002 L8.992,6.004 L5.987,6.004 L5.987,5.002 Z" class="cls-1"/>
</svg>
