<svg xmlns="http://www.w3.org/2000/svg" xmlns:xlink="http://www.w3.org/1999/xlink" preserveAspectRatio="xMidYMid" width="22" height="23" viewBox="0 0 22 23">
  <defs>
    <style>
      .cls-1 {
        fill: #3c4042;
        fill-rule: evenodd;
      }
    </style>
  </defs>
  <path d="M20.415,19.993 L19.991,19.993 L19.991,21.459 C19.991,21.460 19.991,21.460 19.991,21.461 L19.991,19.993 L4.571,19.993 C3.696,19.993 2.986,19.305 2.986,18.455 L2.986,1.535 C2.986,0.685 3.696,-0.004 4.571,-0.004 L20.415,-0.004 C21.290,-0.004 22.000,0.685 22.000,1.535 L22.000,18.455 C22.000,19.305 21.290,19.993 20.415,19.993 ZM20.991,1.772 C20.991,1.346 20.632,0.999 20.191,0.999 L4.795,0.999 C4.353,0.999 3.995,1.346 3.995,1.772 L3.995,18.219 C3.995,18.645 4.353,18.991 4.795,18.991 L20.191,18.991 C20.632,18.991 20.991,18.645 20.991,18.219 L20.991,1.772 ZM6.000,14.000 L19.000,14.000 L19.000,14.999 L6.000,14.999 L6.000,14.000 ZM6.000,9.999 L19.000,9.999 L19.000,10.999 L6.000,10.999 L6.000,9.999 ZM6.000,4.999 L14.000,4.999 L14.000,5.999 L6.000,5.999 L6.000,4.999 ZM18.453,22.998 L1.538,22.998 C0.688,22.998 -0.000,22.309 -0.000,21.459 L-0.000,4.540 C-0.000,3.878 0.422,3.326 1.009,3.109 L1.009,21.995 L19.883,21.995 C19.664,22.578 19.113,22.998 18.453,22.998 Z" class="cls-1"/>
</svg>
