<svg xmlns="http://www.w3.org/2000/svg" xmlns:xlink="http://www.w3.org/1999/xlink" preserveAspectRatio="xMidYMid" width="23" height="25" viewBox="0 0 23 25">
  <defs>
    <style>
      .cls-1 {
        fill: #3c4042;
        fill-rule: evenodd;
      }
    </style>
  </defs>
  <path d="M20.700,25.000 L2.300,25.000 C1.029,25.000 -0.000,23.949 -0.000,22.654 L-0.000,2.343 C-0.000,1.048 1.029,-0.001 2.300,-0.001 L20.700,-0.001 C21.970,-0.001 23.000,1.048 23.000,2.343 L23.000,22.654 C23.000,23.949 21.970,25.000 20.700,25.000 ZM22.000,2.343 C22.000,1.601 21.417,0.999 20.700,0.999 L2.300,0.999 C1.583,0.999 1.000,1.601 1.000,2.343 L1.000,22.654 C1.000,23.396 1.583,24.000 2.300,24.000 L20.700,24.000 C21.417,24.000 22.000,23.396 22.000,22.654 L22.000,2.343 ZM17.500,18.999 L5.500,18.999 C5.224,18.999 5.000,18.775 5.000,18.500 C5.000,18.223 5.224,17.999 5.500,17.999 L17.500,17.999 C17.776,17.999 18.000,18.223 18.000,18.500 C18.000,18.775 17.776,18.999 17.500,18.999 ZM17.500,13.999 L5.500,13.999 C5.224,13.999 5.000,13.775 5.000,13.499 C5.000,13.223 5.224,12.999 5.500,12.999 L17.500,12.999 C17.776,12.999 18.000,13.223 18.000,13.499 C18.000,13.775 17.776,13.999 17.500,13.999 ZM17.500,8.999 L5.500,8.999 C5.224,8.999 5.000,8.775 5.000,8.499 C5.000,8.223 5.224,7.999 5.500,7.999 L17.500,7.999 C17.776,7.999 18.000,8.223 18.000,8.499 C18.000,8.775 17.776,8.999 17.500,8.999 Z" class="cls-1"/>
</svg>
