<svg xmlns="http://www.w3.org/2000/svg" xmlns:xlink="http://www.w3.org/1999/xlink" preserveAspectRatio="xMidYMid" width="25" height="25" viewBox="0 0 25 25">
  <defs>
    <style>
      .cls-1 {
        fill: #3c4042;
        fill-rule: evenodd;
      }
    </style>
  </defs>
  <path d="M22.692,25.000 L10.562,25.000 L7.308,25.000 L2.437,25.000 C1.091,25.000 -0.000,23.936 -0.000,22.625 L-0.000,8.375 C-0.000,7.063 1.091,6.000 2.437,6.000 L5.000,6.000 L5.000,2.344 C5.000,1.049 6.033,-0.000 7.308,-0.000 L22.692,-0.000 C23.967,-0.000 25.000,1.049 25.000,2.344 L25.000,22.656 C25.000,23.951 23.967,25.000 22.692,25.000 ZM24.000,2.344 C24.000,1.602 23.413,1.000 22.692,1.000 L7.308,1.000 C6.587,1.000 6.000,1.602 6.000,2.344 L6.000,6.000 L6.000,7.000 L6.000,7.000 L6.000,20.997 L5.000,20.997 L5.000,7.000 L2.437,7.000 C1.645,7.000 1.000,7.616 1.000,8.375 L1.000,22.625 C1.000,23.383 1.645,24.000 2.437,24.000 L7.308,24.000 L10.562,24.000 L22.692,24.000 C23.413,24.000 24.000,23.397 24.000,22.656 L24.000,2.344 ZM8.000,15.998 L22.000,15.998 L22.000,16.998 L8.000,16.998 L8.000,15.998 ZM8.000,10.998 L22.000,10.998 L22.000,11.998 L8.000,11.998 L8.000,10.998 ZM8.000,5.998 L22.000,5.998 L22.000,6.999 L8.000,6.999 L8.000,5.998 Z" class="cls-1"/>
</svg>
