<svg xmlns="http://www.w3.org/2000/svg" xmlns:xlink="http://www.w3.org/1999/xlink" preserveAspectRatio="xMidYMid" width="19" height="25" viewBox="0 0 19 25">
  <defs>
    <style>
      .cls-1 {
        fill: #3c4042;
        fill-rule: evenodd;
      }
    </style>
  </defs>
  <path d="M17.416,24.997 L1.583,24.997 C0.709,24.997 -0.000,24.298 -0.000,23.434 L-0.000,1.560 C-0.000,0.698 0.709,-0.002 1.583,-0.002 L17.416,-0.002 C18.291,-0.002 19.000,0.698 19.000,1.560 L19.000,23.434 C19.000,24.298 18.291,24.997 17.416,24.997 ZM18.010,1.783 C18.010,1.349 17.652,0.998 17.209,0.998 L1.790,0.998 C1.348,0.998 0.989,1.349 0.989,1.783 L0.989,23.211 C0.989,23.646 1.348,23.998 1.790,23.998 L17.209,23.998 C17.652,23.998 18.010,23.646 18.010,23.211 L18.010,1.783 ZM15.500,18.999 L3.500,18.999 C3.224,18.999 3.000,18.776 3.000,18.499 C3.000,18.223 3.224,17.999 3.500,17.999 L15.500,17.999 C15.776,17.999 16.000,18.223 16.000,18.499 C16.000,18.776 15.776,18.999 15.500,18.999 ZM15.500,14.999 L3.500,14.999 C3.224,14.999 3.000,14.775 3.000,14.499 C3.000,14.223 3.224,13.999 3.500,13.999 L15.500,13.999 C15.776,13.999 16.000,14.223 16.000,14.499 C16.000,14.775 15.776,14.999 15.500,14.999 ZM15.500,10.999 L3.500,10.999 C3.224,10.999 3.000,10.775 3.000,10.499 C3.000,10.223 3.224,9.999 3.500,9.999 L15.500,9.999 C15.776,9.999 16.000,10.223 16.000,10.499 C16.000,10.775 15.776,10.999 15.500,10.999 ZM9.500,6.999 L3.500,6.999 C3.224,6.999 3.000,6.775 3.000,6.499 C3.000,6.223 3.224,5.999 3.500,5.999 L9.500,5.999 C9.776,5.999 10.000,6.223 10.000,6.499 C10.000,6.775 9.776,6.999 9.500,6.999 Z" class="cls-1"/>
</svg>
