<svg xmlns="http://www.w3.org/2000/svg" xmlns:xlink="http://www.w3.org/1999/xlink" preserveAspectRatio="xMidYMid" width="25" height="25" viewBox="0 0 25 25">
  <defs>
    <style>
      .cls-1 {
        fill: #3c4042;
        fill-rule: evenodd;
      }
    </style>
  </defs>
  <path d="M25.000,15.000 L25.000,23.426 C25.000,24.294 24.300,24.997 23.437,24.997 L1.562,24.997 C0.699,24.997 -0.000,24.294 -0.000,23.426 L-0.000,15.000 L0.001,14.998 L-0.000,14.998 L-0.000,13.998 L6.000,13.998 L6.000,13.998 L7.000,13.998 L7.000,17.997 L18.000,17.997 L18.000,13.998 L19.000,13.998 L19.000,13.998 L23.437,13.998 C23.439,13.998 23.441,13.998 23.443,13.998 L25.000,13.998 L25.000,14.998 L24.999,14.998 C24.999,14.998 25.000,15.000 25.000,15.000 ZM24.000,15.000 L23.225,15.000 C23.223,14.999 23.221,14.998 23.218,14.998 L19.000,14.998 L19.000,18.998 L6.000,18.998 L6.000,14.998 L1.781,14.998 C1.779,14.998 1.777,14.999 1.774,15.000 L1.000,15.000 L1.000,15.796 C1.000,15.796 1.000,15.797 1.000,15.797 L1.000,23.197 C1.000,23.639 1.351,23.998 1.785,23.998 L23.214,23.998 C23.648,23.998 24.000,23.639 24.000,23.197 L24.000,16.999 L24.000,16.999 L24.000,15.000 ZM21.000,0.999 L4.000,0.999 L1.000,13.998 L-0.000,13.998 L3.125,-0.002 L21.875,-0.002 L25.000,13.998 L24.000,13.998 L21.000,0.999 Z" class="cls-1"/>
</svg>
