<svg xmlns="http://www.w3.org/2000/svg" xmlns:xlink="http://www.w3.org/1999/xlink" preserveAspectRatio="xMidYMid" width="22" height="25" viewBox="0 0 22 25">
  <defs>
    <style>
      .cls-1 {
        fill: #3c4042;
        fill-rule: evenodd;
      }
    </style>
  </defs>
  <path d="M20.400,19.998 L19.013,19.998 L19.013,18.998 L20.179,18.998 C20.627,18.998 20.990,18.652 20.990,18.225 L20.990,1.770 C20.990,1.343 20.627,0.997 20.179,0.997 L7.825,0.997 C7.377,0.997 7.013,1.343 7.013,1.770 L7.013,2.998 L6.004,2.998 L6.004,1.536 C6.004,0.686 6.720,-0.002 7.604,-0.002 L20.400,-0.002 C21.283,-0.002 22.000,0.686 22.000,1.536 L22.000,18.460 C22.000,19.309 21.283,19.998 20.400,19.998 ZM17.004,6.535 L17.004,23.459 C17.004,24.309 16.312,24.998 15.458,24.998 L1.546,24.998 C0.692,24.998 -0.000,24.309 -0.000,23.459 L-0.000,6.535 C-0.000,5.686 0.692,4.997 1.546,4.997 L15.458,4.997 C16.312,4.997 17.004,5.686 17.004,6.535 ZM1.786,5.997 C1.356,5.997 1.008,6.343 1.008,6.770 L1.008,23.224 C1.008,23.652 1.356,23.997 1.786,23.997 L15.218,23.997 C15.647,23.997 15.995,23.652 15.995,23.224 L15.995,6.770 C15.995,6.343 15.647,5.997 15.218,5.997 L1.786,5.997 ZM9.000,19.000 L8.000,19.000 L8.000,15.999 L5.000,15.999 L5.000,15.000 L8.000,15.000 L8.000,11.999 L9.000,11.999 L9.000,15.000 L12.000,15.000 L12.000,15.999 L9.000,15.999 L9.000,19.000 Z" class="cls-1"/>
</svg>
