<svg xmlns="http://www.w3.org/2000/svg" xmlns:xlink="http://www.w3.org/1999/xlink" preserveAspectRatio="xMidYMid" width="25" height="25" viewBox="0 0 25 25">
  <defs>
    <style>
      .cls-1 {
        fill: #3c4042;
        fill-rule: evenodd;
      }
    </style>
  </defs>
  <path d="M25.000,14.999 C25.000,14.999 25.000,14.999 25.000,14.999 L25.000,23.434 C25.000,24.298 24.300,24.997 23.437,24.997 L1.562,24.997 C0.699,24.997 -0.000,24.298 -0.000,23.434 L-0.000,14.999 C-0.000,14.999 0.000,14.999 0.000,14.999 L-0.000,14.999 L0.000,14.998 L-0.000,14.998 L0.002,14.991 L3.125,2.999 L6.000,2.999 L6.000,3.998 L6.000,3.999 L3.881,3.999 L1.323,13.999 L7.000,13.999 L7.000,17.997 L18.000,17.997 L18.000,13.999 L23.676,13.999 L21.119,3.999 L19.000,3.999 L19.000,3.998 L19.000,2.999 L21.875,2.999 L24.739,13.998 L24.814,13.998 L25.000,14.998 L24.999,14.998 L25.000,14.999 L25.000,14.999 ZM24.000,14.999 L23.225,14.999 C23.225,14.999 23.224,14.999 23.224,14.999 L19.000,14.999 L19.000,18.998 L6.000,18.998 L6.000,14.999 L1.776,14.999 C1.775,14.999 1.775,14.999 1.774,14.999 L1.000,14.999 L1.000,15.796 C1.000,15.796 1.000,15.797 1.000,15.797 L1.000,23.197 C1.000,23.639 1.351,23.997 1.785,23.997 L23.214,23.997 C23.648,23.997 24.000,23.639 24.000,23.197 L24.000,17.000 L24.000,17.000 L24.000,14.999 ZM17.148,5.827 L13.000,1.678 L13.000,13.499 C13.000,13.775 12.776,13.999 12.500,13.999 C12.224,13.999 12.000,13.775 12.000,13.499 L12.000,1.678 L7.852,5.827 C7.655,6.023 7.337,6.023 7.141,5.827 C6.945,5.630 6.945,5.312 7.141,5.116 L12.117,0.140 C12.204,0.052 12.317,0.020 12.431,0.013 C12.454,0.009 12.475,-0.001 12.500,-0.001 C12.524,-0.001 12.545,0.009 12.569,0.013 C12.683,0.020 12.795,0.052 12.883,0.140 L17.859,5.116 C18.055,5.312 18.055,5.630 17.859,5.827 C17.662,6.023 17.344,6.023 17.148,5.827 Z" class="cls-1"/>
</svg>
