<svg xmlns="http://www.w3.org/2000/svg" xmlns:xlink="http://www.w3.org/1999/xlink" preserveAspectRatio="xMidYMid" width="23" height="25" viewBox="0 0 23 25">
  <defs>
    <style>
      .cls-1 {
        fill: #3c4042;
        fill-rule: evenodd;
      }
    </style>
  </defs>
  <path d="M19.933,24.999 L3.067,24.999 C1.373,24.999 -0.000,23.622 -0.000,21.922 L-0.000,9.749 L-0.000,8.999 L-0.000,8.077 L-0.000,7.999 L-0.000,3.249 C-0.000,1.454 1.455,-0.000 3.250,-0.000 L9.750,-0.000 C11.459,-0.000 12.845,1.323 12.975,2.999 L19.800,2.999 C21.567,2.999 23.000,4.406 23.000,6.142 L23.000,7.999 L23.000,8.077 L23.000,8.999 L23.000,10.856 L23.000,21.922 C23.000,23.622 21.627,24.999 19.933,24.999 ZM22.000,5.999 C22.000,4.895 21.104,3.999 20.000,3.999 L12.000,3.999 L12.000,2.999 C12.000,1.895 11.104,0.999 10.000,0.999 L3.000,0.999 C1.895,0.999 1.000,1.895 1.000,2.999 L1.000,4.999 L1.000,5.999 L1.000,7.999 L22.000,7.999 L22.000,5.999 ZM22.000,10.999 L22.000,8.999 L1.000,8.999 L1.000,10.999 L1.000,21.999 C1.000,23.104 1.895,23.999 3.000,23.999 L20.000,23.999 C21.104,23.999 22.000,23.104 22.000,21.999 L22.000,10.999 ZM14.830,19.829 C14.624,20.034 14.291,20.034 14.086,19.829 L11.483,17.226 L8.881,19.829 C8.675,20.034 8.343,20.034 8.137,19.829 C7.932,19.624 7.932,19.291 8.137,19.085 L10.740,16.483 L8.137,13.880 C7.932,13.675 7.932,13.342 8.137,13.137 C8.343,12.931 8.675,12.931 8.881,13.137 L11.483,15.739 L14.086,13.137 C14.291,12.931 14.624,12.931 14.830,13.137 C15.035,13.342 15.035,13.675 14.830,13.880 L12.227,16.483 L14.830,19.085 C15.035,19.291 15.035,19.624 14.830,19.829 Z" class="cls-1"/>
</svg>
