<svg xmlns="http://www.w3.org/2000/svg" xmlns:xlink="http://www.w3.org/1999/xlink" preserveAspectRatio="xMidYMid" width="25" height="25" viewBox="0 0 25 25">
  <defs>
    <style>
      .cls-1 {
        fill: #3c4042;
        fill-rule: evenodd;
      }
    </style>
  </defs>
  <path d="M19.488,22.865 L19.474,22.855 L19.369,22.993 L17.930,21.883 C16.030,23.799 13.411,24.999 10.500,24.999 C4.701,24.999 -0.000,20.299 -0.000,14.499 C-0.000,9.210 3.913,4.849 9.000,4.121 L9.000,1.545 L9.000,0.999 L9.000,0.505 C10.112,0.181 11.284,-0.001 12.500,-0.001 C19.403,-0.001 25.000,5.596 25.000,12.500 C25.000,16.815 22.813,20.619 19.488,22.865 ZM1.000,14.499 C1.000,19.746 5.253,23.999 10.500,23.999 C13.089,23.999 15.419,22.948 17.131,21.267 L9.000,15.000 L9.000,14.999 L9.000,14.999 L9.000,5.133 C4.468,5.852 1.000,9.764 1.000,14.499 ZM12.500,0.999 C11.637,0.999 10.808,1.126 10.000,1.308 L10.000,4.024 L10.000,5.025 L10.000,14.297 L17.843,20.486 L18.626,21.104 L19.365,21.687 C22.168,19.591 24.000,16.269 24.000,12.500 C24.000,6.147 18.851,0.999 12.500,0.999 Z" class="cls-1"/>
</svg>
