<svg xmlns="http://www.w3.org/2000/svg" xmlns:xlink="http://www.w3.org/1999/xlink" preserveAspectRatio="xMidYMid" width="21" height="25" viewBox="0 0 21 25">
  <defs>
    <style>
      .cls-1 {
        fill: #3c4042;
        fill-rule: evenodd;
      }
    </style>
  </defs>
  <path d="M13.972,25.000 L0.768,25.000 C0.345,25.000 -0.000,24.649 -0.000,24.219 L-0.000,0.781 C-0.000,0.349 0.345,-0.001 0.768,-0.001 L20.230,-0.001 C20.655,-0.001 21.000,0.349 21.000,0.781 L21.000,17.970 L13.972,25.000 ZM14.001,23.556 L19.558,17.998 L14.001,17.998 L14.001,23.556 ZM20.000,0.999 L1.000,0.999 L1.000,24.000 L13.559,24.000 L13.561,23.998 L12.997,23.998 L12.997,17.998 L12.994,17.998 L12.994,16.998 L19.992,16.998 L19.992,17.564 L20.000,17.556 L20.000,0.999 ZM15.003,14.302 L14.302,15.002 L10.499,11.199 L6.696,15.003 L5.995,14.302 L9.799,10.498 L5.995,6.695 L6.696,5.994 L10.499,9.798 L14.303,5.995 L15.004,6.695 L11.200,10.498 L15.003,14.302 Z" class="cls-1"/>
</svg>
