<svg xmlns="http://www.w3.org/2000/svg" xmlns:xlink="http://www.w3.org/1999/xlink" preserveAspectRatio="xMidYMid" width="25" height="25" viewBox="0 0 25 25">
  <defs>
    <style>
      .cls-1 {
        fill: #3c4042;
        fill-rule: evenodd;
      }
    </style>
  </defs>
  <path d="M23.437,24.998 L1.562,24.998 C0.699,24.998 -0.000,24.298 -0.000,23.435 L-0.000,1.560 C-0.000,0.697 0.699,-0.003 1.562,-0.003 L23.437,-0.003 C24.300,-0.003 25.000,0.697 25.000,1.560 L25.000,23.435 C25.000,24.298 24.300,24.998 23.437,24.998 ZM24.000,1.999 C24.000,1.447 23.552,0.999 23.000,0.999 L2.000,0.999 C1.447,0.999 1.000,1.447 1.000,1.999 L1.000,22.998 C1.000,23.552 1.447,23.999 2.000,23.999 L23.000,23.999 C23.552,23.999 24.000,23.552 24.000,22.998 L24.000,1.999 ZM3.000,19.999 L22.000,19.999 L22.000,20.999 L3.000,20.999 L3.000,19.999 ZM3.000,16.999 L22.000,16.999 L22.000,17.999 L3.000,17.999 L3.000,16.999 ZM3.000,13.999 L22.000,13.999 L22.000,15.000 L3.000,15.000 L3.000,13.999 ZM14.000,10.999 L22.000,10.999 L22.000,11.999 L14.000,11.999 L14.000,10.999 ZM14.000,7.999 L22.000,7.999 L22.000,8.999 L14.000,8.999 L14.000,7.999 ZM14.000,4.999 L22.000,4.999 L22.000,5.999 L14.000,5.999 L14.000,4.999 ZM10.000,11.999 L5.000,11.999 C3.895,11.999 3.000,11.103 3.000,9.999 L3.000,5.999 C3.000,4.895 3.895,3.999 5.000,3.999 L10.000,3.999 C11.104,3.999 12.000,4.895 12.000,5.999 L12.000,9.999 C12.000,11.103 11.104,11.999 10.000,11.999 ZM11.000,5.999 C11.000,5.447 10.552,4.999 10.000,4.999 L5.000,4.999 C4.448,4.999 4.000,5.447 4.000,5.999 L4.000,9.999 C4.000,10.551 4.448,10.999 5.000,10.999 L10.000,10.999 C10.552,10.999 11.000,10.551 11.000,9.999 L11.000,5.999 Z" class="cls-1"/>
</svg>
