<svg xmlns="http://www.w3.org/2000/svg" xmlns:xlink="http://www.w3.org/1999/xlink" preserveAspectRatio="xMidYMid" width="25" height="25" viewBox="0 0 25 25">
  <defs>
    <style>
      .cls-1 {
        fill: #3c4042;
        fill-rule: evenodd;
      }
    </style>
  </defs>
  <path d="M21.875,24.997 L3.125,24.997 C1.399,24.997 -0.000,23.598 -0.000,21.872 L-0.000,3.123 C-0.000,1.396 1.399,-0.002 3.125,-0.002 L21.875,-0.002 C23.601,-0.002 25.000,1.396 25.000,3.123 L25.000,21.872 C25.000,23.598 23.601,24.997 21.875,24.997 ZM24.000,2.999 C24.000,1.895 23.104,0.999 22.000,0.999 L3.000,0.999 C1.895,0.999 1.000,1.895 1.000,2.999 L1.000,4.998 L24.000,4.998 L24.000,5.998 L18.000,5.998 L18.000,23.997 L17.000,23.997 L17.000,5.998 L1.000,5.998 L1.000,21.999 C1.000,23.103 1.895,23.999 3.000,23.999 L22.000,23.999 C23.104,23.999 24.000,23.103 24.000,21.999 L24.000,2.999 ZM13.500,19.999 L4.500,19.999 C4.224,19.999 4.000,19.775 4.000,19.499 C4.000,19.223 4.224,18.999 4.500,18.999 L13.500,18.999 C13.776,18.999 14.000,19.223 14.000,19.499 C14.000,19.775 13.776,19.999 13.500,19.999 ZM13.500,15.999 L4.500,15.999 C4.224,15.999 4.000,15.775 4.000,15.499 C4.000,15.223 4.224,14.999 4.500,14.999 L13.500,14.999 C13.776,14.999 14.000,15.223 14.000,15.499 C14.000,15.775 13.776,15.999 13.500,15.999 ZM13.500,11.999 L4.500,11.999 C4.224,11.999 4.000,11.775 4.000,11.499 C4.000,11.223 4.224,10.999 4.500,10.999 L13.500,10.999 C13.776,10.999 14.000,11.223 14.000,11.499 C14.000,11.775 13.776,11.999 13.500,11.999 Z" class="cls-1"/>
</svg>
