<svg xmlns="http://www.w3.org/2000/svg" xmlns:xlink="http://www.w3.org/1999/xlink" preserveAspectRatio="xMidYMid" width="25" height="25" viewBox="0 0 25 25">
  <defs>
    <style>
      .cls-1 {
        fill: #3c4042;
        fill-rule: evenodd;
      }
    </style>
  </defs>
  <path d="M24.999,14.999 C25.000,14.999 25.000,15.000 25.000,15.000 L25.000,23.434 C25.000,24.298 24.300,24.997 23.437,24.997 L1.562,24.997 C0.699,24.997 -0.000,24.298 -0.000,23.434 L-0.000,15.000 C-0.000,15.000 0.000,14.999 0.000,14.999 L-0.000,14.999 L0.000,14.998 L-0.000,14.998 L0.002,14.991 L3.125,2.999 L6.000,2.999 L6.000,3.998 L6.000,3.999 L3.881,3.999 L1.323,13.999 L7.000,13.999 L7.000,17.997 L18.000,17.997 L18.000,13.999 L23.677,13.999 L21.119,3.999 L19.000,3.999 L19.000,3.998 L19.000,2.999 L21.875,2.999 L24.739,13.998 L24.814,13.998 L25.000,14.998 L24.999,14.998 L25.000,14.999 L24.999,14.999 ZM24.000,15.000 L23.225,15.000 C23.225,14.999 23.224,14.999 23.224,14.999 L19.000,14.999 L19.000,18.998 L6.000,18.998 L6.000,14.999 L1.776,14.999 C1.775,14.999 1.775,14.999 1.774,15.000 L1.000,15.000 L1.000,15.796 C1.000,15.796 1.000,15.797 1.000,15.797 L1.000,23.197 C1.000,23.639 1.351,23.998 1.785,23.998 L23.214,23.998 C23.648,23.998 24.000,23.639 24.000,23.197 L24.000,16.999 L24.000,16.999 L24.000,15.000 ZM12.867,13.858 C12.788,13.937 12.690,13.968 12.588,13.981 C12.559,13.986 12.531,13.999 12.500,13.999 C12.486,13.999 12.474,13.992 12.460,13.991 C12.330,13.993 12.201,13.958 12.102,13.858 L7.140,8.882 C6.945,8.686 6.945,8.368 7.140,8.172 C7.336,7.975 7.654,7.975 7.849,8.172 L12.000,12.334 L12.000,0.499 C12.000,0.223 12.224,-0.001 12.500,-0.001 C12.776,-0.001 13.000,0.223 13.000,0.499 L13.000,12.303 L17.119,8.172 C17.315,7.975 17.632,7.975 17.828,8.172 C18.024,8.368 18.024,8.686 17.828,8.882 L12.867,13.858 Z" class="cls-1"/>
</svg>
