<svg xmlns="http://www.w3.org/2000/svg" xmlns:xlink="http://www.w3.org/1999/xlink" preserveAspectRatio="xMidYMid" width="22" height="17" viewBox="0 0 22 17">
  <defs>
    <style>
      .cls-1 {
        fill: #3c4042;
        fill-rule: evenodd;
      }
    </style>
  </defs>
  <path d="M21.500,8.999 L5.500,8.999 C5.224,8.999 5.000,8.775 5.000,8.499 C5.000,8.223 5.224,7.999 5.500,7.999 L21.500,7.999 C21.776,7.999 22.000,8.223 22.000,8.499 C22.000,8.775 21.776,8.999 21.500,8.999 ZM21.500,1.999 L5.500,1.999 C5.224,1.999 5.000,1.775 5.000,1.499 C5.000,1.223 5.224,0.999 5.500,0.999 L21.500,0.999 C21.776,0.999 22.000,1.223 22.000,1.499 C22.000,1.775 21.776,1.999 21.500,1.999 ZM2.250,16.998 L0.750,16.998 C0.336,16.998 -0.000,16.662 -0.000,16.247 L-0.000,14.748 C-0.000,14.334 0.336,13.997 0.750,13.997 L2.250,13.997 C2.664,13.997 3.000,14.334 3.000,14.748 L3.000,16.247 C3.000,16.662 2.664,16.998 2.250,16.998 ZM2.250,9.998 L0.750,9.998 C0.336,9.998 -0.000,9.662 -0.000,9.248 L-0.000,7.748 C-0.000,7.334 0.336,6.997 0.750,6.997 L2.250,6.997 C2.664,6.997 3.000,7.334 3.000,7.748 L3.000,9.248 C3.000,9.662 2.664,9.998 2.250,9.998 ZM2.250,2.997 L0.750,2.997 C0.336,2.997 -0.000,2.662 -0.000,2.248 L-0.000,0.747 C-0.000,0.334 0.336,-0.002 0.750,-0.002 L2.250,-0.002 C2.664,-0.002 3.000,0.334 3.000,0.747 L3.000,2.248 C3.000,2.662 2.664,2.997 2.250,2.997 ZM5.500,15.000 L21.500,15.000 C21.776,15.000 22.000,15.223 22.000,15.499 C22.000,15.775 21.776,15.999 21.500,15.999 L5.500,15.999 C5.224,15.999 5.000,15.775 5.000,15.499 C5.000,15.223 5.224,15.000 5.500,15.000 Z" class="cls-1"/>
</svg>
