<svg xmlns="http://www.w3.org/2000/svg" xmlns:xlink="http://www.w3.org/1999/xlink" preserveAspectRatio="xMidYMid" width="25" height="23" viewBox="0 0 25 23">
  <defs>
    <style>
      .cls-1 {
        fill: #3c4042;
        fill-rule: evenodd;
      }
    </style>
  </defs>
  <path d="M23.437,9.011 L22.894,9.011 C22.953,9.167 23.000,9.330 23.000,9.507 L23.000,21.499 C23.000,22.326 22.296,22.998 21.428,22.998 L3.571,22.998 C2.703,22.998 2.000,22.326 2.000,21.499 L2.000,9.507 C2.000,9.330 2.046,9.167 2.105,9.011 L1.562,9.011 C0.699,9.011 -0.000,8.337 -0.000,7.509 L-0.000,1.500 C-0.000,0.670 0.699,-0.004 1.562,-0.004 L23.437,-0.004 C24.300,-0.004 25.000,0.670 25.000,1.500 L25.000,7.509 C25.000,8.337 24.300,9.011 23.437,9.011 ZM3.000,21.253 C3.000,21.668 3.354,22.003 3.791,22.003 L21.208,22.003 C21.645,22.003 22.000,21.668 22.000,21.253 L22.000,10.750 L22.000,10.750 L22.000,9.000 L20.750,9.000 L20.750,9.000 L16.900,9.003 C16.955,9.159 17.000,9.320 17.000,9.495 L17.000,12.488 C17.000,13.314 16.328,13.984 15.500,13.984 L9.500,13.984 C8.671,13.984 8.000,13.314 8.000,12.488 L8.000,9.495 C8.000,9.320 8.044,9.159 8.100,9.003 L3.000,9.000 L3.000,9.749 C3.000,9.750 3.000,9.751 3.000,9.752 L3.000,21.253 ZM16.000,9.000 L9.000,9.000 L9.000,9.751 L9.000,11.004 L9.000,12.249 C9.000,12.663 9.335,12.998 9.750,12.998 L15.250,12.998 C15.664,12.998 16.000,12.663 16.000,12.249 L16.000,11.004 L16.000,9.751 L16.000,9.000 ZM24.000,1.750 C24.000,1.336 23.648,1.000 23.214,1.000 L1.785,1.000 C1.351,1.000 1.000,1.336 1.000,1.750 L1.000,7.257 C1.000,7.671 1.351,8.008 1.785,8.008 L9.500,8.008 L15.500,8.008 L23.214,8.008 C23.648,8.008 24.000,7.671 24.000,7.257 L24.000,1.750 Z" class="cls-1"/>
</svg>
