<svg xmlns="http://www.w3.org/2000/svg" xmlns:xlink="http://www.w3.org/1999/xlink" preserveAspectRatio="xMidYMid" width="23" height="25" viewBox="0 0 23 25">
  <defs>
    <style>
      .cls-1 {
        fill: #3c4042;
        fill-rule: evenodd;
      }
    </style>
  </defs>
  <path d="M23.000,23.437 C23.000,23.437 23.000,23.437 23.000,23.438 L23.000,23.438 C23.000,24.301 22.313,25.000 21.467,25.000 L1.533,25.000 C0.686,25.000 -0.000,24.301 -0.000,23.438 L-0.000,23.438 C-0.000,23.438 -0.000,23.437 -0.000,23.437 L-0.000,1.561 C-0.000,0.698 0.686,-0.001 1.533,-0.001 L21.466,-0.001 C22.207,-0.001 22.826,0.534 22.969,1.246 C22.989,1.348 23.000,1.453 23.000,1.562 L23.000,1.562 L23.000,23.437 ZM1.533,24.000 L21.467,24.000 C21.658,24.000 21.826,23.893 21.920,23.733 L18.555,20.000 L4.445,20.000 L1.080,23.733 C1.174,23.893 1.342,24.000 1.533,24.000 ZM21.467,1.000 L1.533,1.000 C1.342,1.000 1.174,1.106 1.080,1.266 L4.445,5.000 L18.555,5.000 L21.920,1.266 C21.826,1.106 21.658,1.000 21.467,1.000 ZM21.998,2.674 L19.000,6.000 L11.990,6.000 L11.990,18.998 L11.009,18.998 L11.009,6.000 L4.000,6.000 L1.002,2.673 L1.002,22.326 L4.000,18.999 L19.000,18.999 L21.998,22.326 L21.998,2.674 Z" class="cls-1"/>
</svg>
