<svg xmlns="http://www.w3.org/2000/svg" xmlns:xlink="http://www.w3.org/1999/xlink" preserveAspectRatio="xMidYMid" width="25" height="25" viewBox="0 0 25 25">
  <defs>
    <style>
      .cls-1 {
        fill: #3c4042;
        fill-rule: evenodd;
      }
    </style>
  </defs>
  <path d="M-0.000,24.997 L-0.000,5.997 L25.000,5.997 L25.000,24.997 L-0.000,24.997 ZM24.000,6.997 L1.000,6.997 L1.000,23.997 L24.000,23.997 L24.000,6.997 ZM22.500,3.999 L2.500,3.999 C2.224,3.999 2.000,3.775 2.000,3.499 C2.000,3.223 2.224,2.999 2.500,2.999 L22.500,2.999 C22.776,2.999 23.000,3.223 23.000,3.499 C23.000,3.775 22.776,3.999 22.500,3.999 ZM19.500,1.000 L5.500,1.000 C5.224,1.000 5.000,0.775 5.000,0.499 C5.000,0.223 5.224,-0.001 5.500,-0.001 L19.500,-0.001 C19.776,-0.001 20.000,0.223 20.000,0.499 C20.000,0.775 19.776,1.000 19.500,1.000 Z" class="cls-1"/>
</svg>
