<svg xmlns="http://www.w3.org/2000/svg" xmlns:xlink="http://www.w3.org/1999/xlink" preserveAspectRatio="xMidYMid" width="25" height="25" viewBox="0 0 25 25">
  <defs>
    <style>
      .cls-1 {
        fill: #3c4042;
        fill-rule: evenodd;
      }
    </style>
  </defs>
  <path d="M25.010,4.229 L10.707,18.531 L5.992,19.007 L6.467,14.292 L7.390,13.369 L7.389,13.368 L8.093,12.664 L8.094,12.665 L16.546,4.213 L16.546,4.212 L17.250,3.507 L17.251,3.508 L20.770,-0.011 L25.010,4.229 ZM7.432,14.736 L7.076,17.923 L10.263,17.567 L10.925,16.904 L8.095,14.074 L7.432,14.736 ZM8.799,13.369 L11.629,16.200 L20.082,7.747 L17.251,4.917 L8.799,13.369 ZM20.786,7.044 L23.600,4.229 L20.770,1.399 L17.956,4.213 L20.786,7.044 ZM1.000,23.997 L23.000,23.997 L23.000,10.998 L24.000,10.998 L24.000,24.997 L-0.000,24.997 L-0.000,0.998 L14.000,0.998 L14.000,1.997 L1.000,1.997 L1.000,23.997 Z" class="cls-1"/>
</svg>
