<svg xmlns="http://www.w3.org/2000/svg" xmlns:xlink="http://www.w3.org/1999/xlink" preserveAspectRatio="xMidYMid" width="25" height="25" viewBox="0 0 25 25">
  <defs>
    <style>
      .cls-1 {
        fill: #3c4042;
        fill-rule: evenodd;
      }
    </style>
  </defs>
  <path d="M16.000,25.000 L14.062,24.997 L14.000,16.000 L25.000,16.000 L25.000,17.000 C25.000,17.000 24.158,23.826 16.000,25.000 ZM15.007,17.000 L15.055,23.998 L15.928,24.000 C22.632,23.001 23.829,17.897 23.988,17.000 L15.007,17.000 ZM12.000,24.997 L11.000,24.997 L11.000,24.898 C4.805,24.156 -0.000,18.892 -0.000,12.498 C-0.000,5.594 5.596,-0.003 12.500,-0.003 C19.403,-0.003 25.000,5.594 25.000,12.498 C25.000,12.667 24.981,12.831 24.974,12.998 L25.000,12.998 L25.000,13.998 L12.000,13.998 L12.000,24.997 ZM11.000,23.889 L11.000,14.732 L4.753,20.978 C6.450,22.525 8.607,23.576 11.000,23.889 ZM12.000,12.997 L12.000,12.998 L23.974,12.998 C23.982,12.831 24.000,12.667 24.000,12.498 C24.000,6.146 18.851,0.997 12.500,0.997 C6.148,0.997 1.000,6.146 1.000,12.498 C1.000,15.488 2.147,18.204 4.019,20.246 L11.000,13.000 L11.000,12.997 L12.000,12.997 Z" class="cls-1"/>
</svg>
