<svg xmlns="http://www.w3.org/2000/svg" xmlns:xlink="http://www.w3.org/1999/xlink" preserveAspectRatio="xMidYMid" width="12" height="25" viewBox="0 0 12 25">
  <defs>
    <style>
      .cls-1 {
        fill: #3c4042;
        fill-rule: evenodd;
      }
    </style>
  </defs>
  <path d="M12.000,18.999 C12.000,21.999 8.719,24.957 6.000,24.999 C2.719,25.049 0.026,22.429 -0.000,18.999 L-0.000,4.999 C-0.000,2.410 1.778,-0.001 4.444,-0.001 C7.111,-0.001 9.000,2.410 9.000,4.999 L9.000,18.999 C8.973,20.703 7.709,21.999 6.000,21.999 C4.291,21.999 3.027,20.703 3.000,18.999 L3.000,5.999 L4.000,5.999 L4.000,18.999 C4.000,19.863 5.137,20.999 6.000,20.999 C7.000,20.999 8.000,19.863 8.000,18.999 C8.000,18.999 8.000,-1.996 8.000,4.999 C8.000,2.999 5.908,0.999 4.428,0.999 C2.949,0.999 1.000,2.999 1.000,4.999 L1.000,18.999 C1.000,21.588 3.411,23.999 6.000,23.999 C8.589,23.999 11.000,21.588 11.000,18.999 L11.000,2.999 L12.000,2.999 L12.000,18.999 Z" class="cls-1"/>
</svg>
