<svg xmlns="http://www.w3.org/2000/svg" xmlns:xlink="http://www.w3.org/1999/xlink" preserveAspectRatio="xMidYMid" width="25" height="25" viewBox="0 0 25 25">
  <defs>
    <style>
      .cls-1 {
        fill: #3c4042;
        fill-rule: evenodd;
      }
    </style>
  </defs>
  <path d="M19.965,23.234 L20.010,23.279 L19.280,24.009 L17.850,22.579 C15.970,24.085 13.596,24.999 11.000,24.999 C5.262,24.999 0.556,20.604 0.050,14.999 L-0.000,14.999 L-0.000,13.999 C-0.000,8.262 4.394,3.556 10.000,3.049 L10.000,1.179 L10.000,0.169 L10.000,-0.001 L11.000,-0.001 L11.000,0.046 C11.329,0.017 11.662,-0.001 12.000,-0.001 C19.180,-0.001 25.000,5.819 25.000,12.999 C25.000,17.169 23.018,20.856 19.965,23.234 ZM11.000,23.999 C13.320,23.999 15.446,23.198 17.141,21.870 L10.270,14.999 L10.000,14.999 L1.050,14.999 C1.552,20.052 5.815,23.999 11.000,23.999 ZM1.000,13.999 L10.000,13.999 L10.000,4.050 C4.947,4.551 1.000,8.814 1.000,13.999 ZM12.000,0.999 C11.662,0.999 11.329,1.017 11.000,1.047 L11.000,2.999 L11.000,3.999 L11.000,13.999 L11.000,14.269 L19.258,22.527 C22.132,20.335 24.000,16.893 24.000,12.999 C24.000,6.372 18.627,0.999 12.000,0.999 Z" class="cls-1"/>
</svg>
