<svg xmlns="http://www.w3.org/2000/svg" xmlns:xlink="http://www.w3.org/1999/xlink" preserveAspectRatio="xMidYMid" width="25" height="25" viewBox="0 0 25 25">
  <defs>
    <style>
      .cls-1 {
        fill: #3c4042;
        fill-rule: evenodd;
      }
    </style>
  </defs>
  <path d="M23.437,21.997 L20.000,21.997 L20.000,24.200 C20.000,24.641 19.664,24.999 19.250,24.999 L5.750,24.999 C5.336,24.999 5.000,24.641 5.000,24.200 L5.000,21.997 L1.562,21.997 C0.699,21.997 -0.000,21.281 -0.000,20.397 L-0.000,15.597 C-0.000,14.714 0.699,13.997 1.562,13.997 L5.000,13.997 L5.000,1.597 C5.000,0.714 5.671,-0.002 6.500,-0.002 L18.500,-0.002 C19.328,-0.002 20.000,0.714 20.000,1.597 L20.000,13.997 L23.437,13.997 C24.300,13.997 25.000,14.714 25.000,15.597 L25.000,20.397 C25.000,21.281 24.300,21.997 23.437,21.997 ZM6.000,23.999 L19.000,23.999 L19.000,18.999 L6.000,18.999 L6.000,23.999 ZM19.000,1.809 C19.000,1.361 18.636,0.997 18.187,0.997 L6.812,0.997 C6.363,0.997 6.000,1.361 6.000,1.809 L6.000,13.997 L19.000,13.997 L19.000,1.809 ZM24.000,15.830 C24.000,15.371 23.648,14.997 23.214,14.997 L1.786,14.997 C1.352,14.997 1.000,15.371 1.000,15.830 L1.000,20.164 C1.000,20.624 1.352,20.997 1.786,20.997 L5.000,20.997 L5.000,18.799 C5.000,18.358 5.336,17.999 5.750,17.999 L19.250,17.999 C19.664,17.999 20.000,18.358 20.000,18.799 L20.000,20.997 L23.214,20.997 C23.648,20.997 24.000,20.624 24.000,20.164 L24.000,15.830 Z" class="cls-1"/>
</svg>
