<svg xmlns="http://www.w3.org/2000/svg" xmlns:xlink="http://www.w3.org/1999/xlink" preserveAspectRatio="xMidYMid" width="23" height="25" viewBox="0 0 23 25">
  <defs>
    <style>
      .cls-1 {
        fill: #3c4042;
        fill-rule: evenodd;
      }
    </style>
  </defs>
  <path d="M19.933,24.999 L3.067,24.999 C1.373,24.999 -0.000,23.622 -0.000,21.922 L-0.000,9.749 L-0.000,8.999 L-0.000,8.077 L-0.000,7.999 L-0.000,3.249 C-0.000,1.454 1.455,-0.000 3.250,-0.000 L9.750,-0.000 C11.459,-0.000 12.845,1.323 12.975,2.999 L19.800,2.999 C21.567,2.999 23.000,4.406 23.000,6.142 L23.000,7.999 L23.000,8.077 L23.000,8.999 L23.000,10.856 L23.000,21.922 C23.000,23.622 21.627,24.999 19.933,24.999 ZM22.000,5.999 C22.000,4.895 21.104,3.999 20.000,3.999 L12.000,3.999 L12.000,2.999 C12.000,1.895 11.104,0.999 10.000,0.999 L3.000,0.999 C1.895,0.999 1.000,1.895 1.000,2.999 L1.000,4.999 L1.000,5.999 L1.000,7.999 L22.000,7.999 L22.000,5.999 ZM22.000,10.999 L22.000,8.999 L1.000,8.999 L1.000,10.999 L1.000,21.999 C1.000,23.104 1.895,23.999 3.000,23.999 L20.000,23.999 C21.104,23.999 22.000,23.104 22.000,21.999 L22.000,10.999 ZM14.500,16.999 L12.000,16.999 L12.000,19.499 C12.000,19.775 11.776,19.999 11.500,19.999 C11.224,19.999 11.000,19.775 11.000,19.499 L11.000,16.999 L8.500,16.999 C8.224,16.999 8.000,16.775 8.000,16.499 C8.000,16.223 8.224,15.999 8.500,15.999 L11.000,15.999 L11.000,13.499 C11.000,13.223 11.224,13.000 11.500,13.000 C11.776,13.000 12.000,13.223 12.000,13.499 L12.000,15.999 L14.500,15.999 C14.776,15.999 15.000,16.223 15.000,16.499 C15.000,16.775 14.776,16.999 14.500,16.999 Z" class="cls-1"/>
</svg>
