<svg xmlns="http://www.w3.org/2000/svg" xmlns:xlink="http://www.w3.org/1999/xlink" preserveAspectRatio="xMidYMid" width="21" height="25" viewBox="0 0 21 25">
  <defs>
    <style>
      .cls-1 {
        fill: #3c4042;
        fill-rule: evenodd;
      }
    </style>
  </defs>
  <path d="M20.230,24.999 L0.768,24.999 C0.345,24.999 -0.000,24.649 -0.000,24.218 L-0.000,0.780 C-0.000,0.349 0.345,-0.001 0.768,-0.001 L13.972,-0.001 L21.000,7.029 L21.000,24.218 C21.000,24.649 20.655,24.999 20.230,24.999 ZM14.001,1.442 L14.001,6.998 L19.555,6.998 L14.001,1.442 ZM20.000,7.442 L19.992,7.435 L19.992,7.998 L12.994,7.998 L12.994,6.998 L12.997,6.998 L12.997,0.999 L1.000,0.999 L1.000,24.000 L20.000,24.000 L20.000,7.442 ZM6.696,9.994 L10.499,13.798 L14.303,9.995 L15.004,10.695 L11.200,14.499 L15.003,18.302 L14.302,19.002 L10.499,15.199 L6.696,19.003 L5.995,18.302 L9.799,14.499 L5.995,10.694 L6.696,9.994 Z" class="cls-1"/>
</svg>
