<svg xmlns="http://www.w3.org/2000/svg" xmlns:xlink="http://www.w3.org/1999/xlink" preserveAspectRatio="xMidYMid" width="25" height="25" viewBox="0 0 25 25">
  <defs>
    <style>
      .cls-1 {
        fill: #3c4042;
        fill-rule: evenodd;
      }
    </style>
  </defs>
  <path d="M23.437,24.998 L1.562,24.998 C0.699,24.998 -0.000,24.298 -0.000,23.435 L-0.000,1.560 C-0.000,0.697 0.699,-0.003 1.562,-0.003 L23.437,-0.003 C24.300,-0.003 25.000,0.697 25.000,1.560 L25.000,23.435 C25.000,24.298 24.300,24.998 23.437,24.998 ZM24.000,1.783 C24.000,1.349 23.648,0.998 23.214,0.998 L1.785,0.998 C1.351,0.998 1.000,1.349 1.000,1.783 L1.000,23.211 C1.000,23.647 1.351,23.997 1.785,23.997 L23.214,23.997 C23.648,23.997 24.000,23.647 24.000,23.211 L24.000,1.783 ZM20.416,18.998 L17.000,18.998 L17.000,20.330 C17.000,21.251 16.328,21.997 15.500,21.997 L9.500,21.997 C8.671,21.997 8.000,21.251 8.000,20.330 L8.000,18.998 L4.583,18.998 C3.709,18.998 3.000,18.281 3.000,17.398 L3.000,4.598 C3.000,3.715 3.709,2.997 4.583,2.997 L20.416,2.997 C21.291,2.997 22.000,3.715 22.000,4.598 L22.000,17.398 C22.000,18.281 21.291,18.998 20.416,18.998 ZM21.000,4.810 C21.000,4.361 20.641,3.997 20.200,3.997 L4.800,3.997 C4.358,3.997 4.000,4.361 4.000,4.810 L4.000,17.184 C4.000,17.634 4.358,17.998 4.800,17.998 L9.000,17.998 L9.000,19.998 L9.000,19.998 C9.000,20.550 9.335,20.997 9.750,20.997 L15.250,20.997 C15.664,20.997 15.999,20.550 16.000,19.998 L16.000,19.998 L16.000,17.998 L20.200,17.998 C20.641,17.998 21.000,17.634 21.000,17.184 L21.000,4.810 Z" class="cls-1"/>
</svg>
