<svg xmlns="http://www.w3.org/2000/svg" xmlns:xlink="http://www.w3.org/1999/xlink" preserveAspectRatio="xMidYMid" width="25" height="25" viewBox="0 0 25 25">
  <defs>
    <style>
      .cls-1 {
        fill: #3c4042;
        fill-rule: evenodd;
      }
    </style>
  </defs>
  <path d="M23.000,21.998 C23.000,22.001 22.999,22.005 22.999,22.008 L22.999,21.987 C22.999,21.991 23.000,21.994 23.000,21.998 ZM24.189,19.997 C24.189,19.998 24.189,19.998 24.189,19.998 L25.000,19.998 L25.000,24.998 L24.000,24.998 L24.000,20.998 L22.999,20.998 L22.999,20.998 L21.722,20.998 C21.722,20.998 21.722,20.998 21.721,20.998 L4.000,20.998 L4.000,20.999 L1.278,20.999 C1.105,21.294 1.000,21.633 1.000,22.000 C1.000,23.103 1.895,23.999 3.000,23.999 L20.000,23.999 C20.004,23.999 20.008,23.998 20.012,23.998 L22.204,23.998 C22.204,23.998 22.204,23.998 22.204,23.998 L24.000,23.998 L24.000,24.999 L20.000,24.999 L20.000,24.992 C19.977,24.992 19.956,24.998 19.933,24.998 L3.066,24.998 C1.373,24.998 -0.000,23.655 -0.000,21.998 L-0.000,21.998 L-0.000,17.998 L-0.000,17.998 L-0.000,2.999 C-0.000,1.341 1.399,-0.002 3.125,-0.002 L21.875,-0.002 C21.918,-0.002 21.957,0.008 22.000,0.010 L22.000,-0.002 L24.000,-0.002 L24.000,-0.002 L25.000,-0.002 L25.000,-0.002 L25.000,0.999 L25.000,19.997 L24.189,19.997 ZM24.000,2.999 C24.000,2.998 24.000,2.997 24.000,2.996 L24.000,0.999 L22.000,0.999 L22.000,0.997 L20.999,0.997 L20.999,0.999 L3.000,0.999 C1.895,0.999 1.000,1.894 1.000,2.999 L1.000,17.999 L1.000,19.999 L3.000,19.999 L4.000,19.999 L22.000,19.999 C22.003,19.999 22.005,19.998 22.008,19.998 L24.000,19.998 L24.000,18.002 C24.000,18.001 24.000,18.000 24.000,17.999 L24.000,2.999 ZM20.416,8.998 L4.583,8.998 C3.709,8.998 3.000,8.326 3.000,7.498 L3.000,4.498 C3.000,3.670 3.709,2.999 4.583,2.999 L20.416,2.999 C21.291,2.999 22.000,3.670 22.000,4.498 L22.000,7.498 C22.000,8.326 21.291,8.998 20.416,8.998 ZM21.000,4.748 C21.000,4.333 20.642,3.997 20.200,3.997 L4.800,3.997 C4.358,3.997 4.000,4.333 4.000,4.748 L4.000,7.247 C4.000,7.662 4.358,7.998 4.800,7.998 L20.200,7.998 C20.642,7.998 21.000,7.662 21.000,7.247 L21.000,4.748 Z" class="cls-1"/>
</svg>
