<svg xmlns="http://www.w3.org/2000/svg" xmlns:xlink="http://www.w3.org/1999/xlink" preserveAspectRatio="xMidYMid" width="24" height="25" viewBox="0 0 24 25">
  <defs>
    <style>
      .cls-1 {
        fill: #3c4042;
        fill-rule: evenodd;
      }
    </style>
  </defs>
  <path d="M22.437,24.998 L1.562,24.998 C0.699,24.998 -0.000,24.298 -0.000,23.434 L-0.000,1.560 C-0.000,0.697 0.699,-0.003 1.562,-0.003 L19.000,-0.003 L20.000,-0.003 L22.437,-0.003 C23.300,-0.003 24.000,0.697 24.000,1.560 L24.000,23.434 C24.000,24.298 23.300,24.998 22.437,24.998 ZM19.000,19.998 L19.000,16.997 L19.000,13.997 L19.000,10.998 L19.000,7.998 L19.000,4.997 L19.000,0.997 L1.785,0.997 C1.352,0.997 1.000,1.349 1.000,1.782 L1.000,23.212 C1.000,23.645 1.352,23.997 1.785,23.997 L19.000,23.997 L19.000,19.998 ZM23.000,1.782 C23.000,1.349 22.648,0.997 22.214,0.997 L20.000,0.997 L20.000,4.997 L21.000,4.997 L21.000,7.998 L20.000,7.998 L20.000,10.998 L21.000,10.998 L21.000,13.997 L20.000,13.997 L20.000,16.997 L21.000,16.997 L21.000,19.998 L20.000,19.998 L20.000,23.997 L22.214,23.997 C22.648,23.997 23.000,23.645 23.000,23.212 L23.000,1.782 ZM4.555,4.997 L15.444,4.997 C16.303,4.997 17.000,5.713 17.000,6.597 L17.000,11.397 C17.000,12.280 16.303,12.997 15.444,12.997 L4.555,12.997 C3.696,12.997 3.000,12.280 3.000,11.397 L3.000,6.597 C3.000,5.713 3.696,4.997 4.555,4.997 ZM4.000,11.164 C4.000,11.624 4.352,11.997 4.785,11.997 L15.214,11.997 C15.648,11.997 16.000,11.624 16.000,11.164 L16.000,6.830 C16.000,6.370 15.648,5.997 15.214,5.997 L4.785,5.997 C4.352,5.997 4.000,6.370 4.000,6.830 L4.000,11.164 ZM17.000,16.999 L3.000,16.999 L3.000,15.999 L17.000,15.999 L17.000,16.999 ZM17.000,19.999 L3.000,19.999 L3.000,18.999 L17.000,18.999 L17.000,19.999 Z" class="cls-1"/>
</svg>
