<svg xmlns="http://www.w3.org/2000/svg" xmlns:xlink="http://www.w3.org/1999/xlink" preserveAspectRatio="xMidYMid" width="25" height="25" viewBox="0 0 25 25">
  <defs>
    <style>
      .cls-1 {
        fill: #3c4042;
        fill-rule: evenodd;
      }
    </style>
  </defs>
  <path d="M23.351,21.997 L4.634,21.997 C3.727,21.997 2.991,21.293 2.991,20.427 L2.991,1.569 C2.991,0.702 3.727,-0.003 4.634,-0.003 L23.351,-0.003 C24.258,-0.003 24.994,0.702 24.994,1.569 L24.994,20.427 C24.994,21.293 24.258,21.997 23.351,21.997 ZM24.014,1.789 C24.014,1.352 23.641,0.998 23.180,0.998 L4.836,0.998 C4.376,0.998 4.003,1.352 4.003,1.789 L4.003,20.206 C4.003,20.644 4.376,20.998 4.836,20.998 L23.180,20.998 C23.641,20.998 24.014,20.644 24.014,20.206 L24.014,1.789 ZM20.203,16.997 L7.813,16.997 C7.372,16.997 7.014,16.650 7.014,16.220 L7.014,4.775 C7.014,4.345 7.372,3.997 7.813,3.997 L20.203,3.997 C20.645,3.997 21.002,4.345 21.002,4.775 L21.002,16.220 C21.002,16.650 20.645,16.997 20.203,16.997 ZM19.991,5.783 C19.991,5.350 19.628,4.998 19.179,4.998 L8.806,4.998 C8.358,4.998 7.994,5.350 7.994,5.783 L7.994,15.212 C7.994,15.645 8.358,15.997 8.806,15.997 L19.179,15.997 C19.628,15.997 19.991,15.645 19.991,15.212 L19.991,5.783 ZM20.748,23.999 C20.835,23.999 20.918,23.984 21.003,23.974 L21.003,24.975 C20.917,24.981 20.835,24.999 20.748,24.999 L3.252,24.999 C1.457,24.999 0.003,23.600 0.003,21.875 L0.003,4.997 L1.003,4.997 L1.003,21.875 C1.003,23.046 2.012,23.999 3.252,23.999 L20.748,23.999 Z" class="cls-1"/>
</svg>
