<svg xmlns="http://www.w3.org/2000/svg" xmlns:xlink="http://www.w3.org/1999/xlink" preserveAspectRatio="xMidYMid" width="25" height="20" viewBox="0 0 25 20">
  <defs>
    <style>
      .cls-1 {
        fill: #3c4042;
        fill-rule: evenodd;
      }
    </style>
  </defs>
  <path d="M20.312,19.999 L4.687,19.999 C2.099,19.999 -0.000,17.934 -0.000,15.385 L-0.000,4.615 C-0.000,2.066 2.099,0.000 4.687,0.000 L20.312,0.000 C22.901,0.000 25.000,2.066 25.000,4.615 L25.000,15.385 C25.000,17.934 22.901,19.999 20.312,19.999 ZM24.000,4.615 C24.000,2.622 22.346,1.000 20.312,1.000 L4.687,1.000 C2.654,1.000 1.000,2.622 1.000,4.615 L1.000,15.385 C1.000,17.378 2.654,18.999 4.687,18.999 L20.312,18.999 C22.346,18.999 24.000,17.378 24.000,15.385 L24.000,4.615 ZM16.000,12.999 L22.000,12.999 L22.000,13.999 L16.000,13.999 L16.000,12.999 ZM16.000,9.999 L22.000,9.999 L22.000,10.999 L16.000,10.999 L16.000,9.999 ZM16.000,6.999 L22.000,6.999 L22.000,8.000 L16.000,8.000 L16.000,6.999 ZM16.000,3.999 L22.000,3.999 L22.000,4.999 L16.000,4.999 L16.000,3.999 ZM8.500,14.986 C5.462,14.986 3.000,12.528 3.000,9.495 C3.000,6.462 5.462,4.004 8.500,4.004 C11.537,4.004 14.000,6.462 14.000,9.495 C14.000,12.528 11.537,14.986 8.500,14.986 ZM8.500,5.012 C6.020,5.012 4.010,7.027 4.010,9.512 C4.010,11.999 6.020,14.013 8.500,14.013 C10.979,14.013 12.989,11.999 12.989,9.512 C12.989,7.027 10.979,5.012 8.500,5.012 Z" class="cls-1"/>
</svg>
