<svg xmlns="http://www.w3.org/2000/svg" xmlns:xlink="http://www.w3.org/1999/xlink" preserveAspectRatio="xMidYMid" width="24" height="25" viewBox="0 0 24 25">
  <defs>
    <style>
      .cls-1 {
        fill: #3c4042;
        fill-rule: evenodd;
      }
    </style>
  </defs>
  <path d="M22.000,8.997 L22.000,10.998 L23.000,10.998 L23.000,13.997 L22.000,13.997 L22.000,16.997 L23.000,16.997 L23.000,19.998 L22.000,19.998 L22.000,23.434 C22.000,24.298 21.296,24.998 20.428,24.998 L1.571,24.998 C0.703,24.998 -0.000,24.298 -0.000,23.434 L-0.000,1.560 C-0.000,0.697 0.703,-0.003 1.571,-0.003 L20.428,-0.003 C21.296,-0.003 22.000,0.697 22.000,1.560 L22.000,2.996 L24.000,2.996 L24.000,8.997 L22.000,8.997 ZM21.000,19.998 L21.000,16.997 L21.000,13.997 L21.000,10.998 L21.000,8.997 L21.000,2.996 L21.000,1.782 C21.000,1.349 20.645,0.997 20.208,0.997 L1.791,0.997 C1.354,0.997 1.000,1.349 1.000,1.782 L1.000,23.212 C1.000,23.645 1.354,23.997 1.791,23.997 L20.208,23.997 C20.645,23.997 21.000,23.645 21.000,23.212 L21.000,19.998 ZM23.000,3.996 L22.000,3.996 L22.000,7.996 L23.000,7.996 L23.000,3.996 ZM5.000,18.999 L17.000,18.999 L17.000,19.999 L5.000,19.999 L5.000,18.999 ZM5.000,14.999 L17.000,14.999 L17.000,15.999 L5.000,15.999 L5.000,14.999 ZM15.375,11.997 L6.625,11.997 C5.727,11.997 5.000,11.281 5.000,10.398 L5.000,5.597 C5.000,4.712 5.727,3.997 6.625,3.997 L15.375,3.997 C16.272,3.997 17.000,4.712 17.000,5.597 L17.000,10.398 C17.000,11.281 16.272,11.997 15.375,11.997 ZM16.000,5.999 C16.000,5.447 15.552,4.999 15.000,4.999 L7.000,4.999 C6.448,4.999 6.000,5.447 6.000,5.999 L6.000,9.999 C6.000,10.552 6.448,10.999 7.000,10.999 L15.000,10.999 C15.552,10.999 16.000,10.552 16.000,9.999 L16.000,5.999 Z" class="cls-1"/>
</svg>
