<svg xmlns="http://www.w3.org/2000/svg" xmlns:xlink="http://www.w3.org/1999/xlink" preserveAspectRatio="xMidYMid" width="25" height="20" viewBox="0 0 25 20">
  <defs>
    <style>
      .cls-1 {
        fill: #3c4042;
        fill-rule: evenodd;
      }
    </style>
  </defs>
  <path d="M22.000,19.999 L3.000,19.999 C1.343,19.999 -0.000,18.656 -0.000,16.999 L-0.000,3.000 C-0.000,1.343 1.343,-0.000 3.000,-0.000 L22.000,-0.000 C23.657,-0.000 25.000,1.343 25.000,3.000 L25.000,16.999 C25.000,18.656 23.657,19.999 22.000,19.999 ZM24.000,3.000 C24.000,1.897 23.103,1.000 22.000,1.000 L3.000,1.000 C1.897,1.000 1.000,1.897 1.000,3.000 L1.000,16.999 C1.000,18.102 1.897,19.000 3.000,19.000 L22.000,19.000 C23.103,19.000 24.000,18.102 24.000,16.999 L24.000,3.000 ZM15.000,16.998 C14.119,16.998 13.276,16.833 12.500,16.536 C11.723,16.833 10.881,16.998 10.000,16.998 C6.134,16.998 3.000,13.863 3.000,9.998 C3.000,6.132 6.134,2.998 10.000,2.998 C10.881,2.998 11.723,3.163 12.500,3.460 C13.276,3.163 14.119,2.998 15.000,2.998 C18.866,2.998 22.000,6.132 22.000,9.998 C22.000,13.863 18.866,16.998 15.000,16.998 ZM10.000,3.997 C6.686,3.997 4.000,6.684 4.000,9.998 C4.000,13.311 6.686,15.998 10.000,15.998 C10.412,15.998 10.814,15.955 11.202,15.877 C9.276,14.629 8.000,12.463 8.000,9.998 C8.000,7.531 9.276,5.365 11.203,4.118 C10.814,4.039 10.412,3.997 10.000,3.997 ZM15.000,3.997 C11.686,3.997 9.000,6.684 9.000,9.998 C9.000,13.311 11.686,15.998 15.000,15.998 C18.313,15.998 21.000,13.311 21.000,9.998 C21.000,6.684 18.313,3.997 15.000,3.997 Z" class="cls-1"/>
</svg>
