<svg xmlns="http://www.w3.org/2000/svg" xmlns:xlink="http://www.w3.org/1999/xlink" preserveAspectRatio="xMidYMid" width="25" height="24" viewBox="0 0 25 24">
  <defs>
    <style>
      .cls-1 {
        fill: #3c4042;
        fill-rule: evenodd;
      }
    </style>
  </defs>
  <path d="M13.746,8.800 L25.000,20.873 C25.000,23.000 24.301,23.998 23.437,23.998 L1.562,23.998 C0.699,23.998 -0.000,23.000 -0.000,21.000 L7.002,13.998 L8.417,13.998 L1.012,21.403 C1.082,22.590 1.454,22.998 1.562,22.998 L23.437,22.998 C23.547,22.998 23.927,22.552 23.991,21.257 L13.000,9.467 L13.000,7.947 C14.694,7.702 16.000,6.259 16.000,4.497 C16.000,2.565 14.433,0.997 12.500,0.997 C10.567,0.997 9.000,2.565 9.000,4.497 C9.000,5.036 9.132,5.541 9.350,5.997 L8.270,5.997 C8.102,5.528 8.000,5.026 8.000,4.497 C8.000,2.012 10.014,-0.003 12.500,-0.003 C14.985,-0.003 17.000,2.012 17.000,4.497 C17.000,6.547 15.621,8.257 13.746,8.800 Z" class="cls-1"/>
</svg>
