<svg xmlns="http://www.w3.org/2000/svg" xmlns:xlink="http://www.w3.org/1999/xlink" preserveAspectRatio="xMidYMid" width="25" height="25" viewBox="0 0 25 25">
  <defs>
    <style>
      .cls-1 {
        fill: #3c4042;
        fill-rule: evenodd;
      }
    </style>
  </defs>
  <path d="M20.312,24.997 L4.687,24.997 C2.098,24.997 -0.000,22.898 -0.000,20.310 L-0.000,4.685 C-0.000,2.096 2.098,-0.002 4.687,-0.002 L20.312,-0.002 C22.901,-0.002 25.000,2.096 25.000,4.685 L25.000,20.310 C25.000,22.898 22.901,24.997 20.312,24.997 ZM24.000,4.999 C24.000,2.790 22.209,0.999 20.000,0.999 L5.000,0.999 C2.791,0.999 1.000,2.790 1.000,4.999 L1.000,19.999 C1.000,22.208 2.791,23.999 5.000,23.999 L20.000,23.999 C22.209,23.999 24.000,22.208 24.000,19.999 L24.000,4.999 ZM20.500,21.999 L5.500,21.999 C5.224,21.999 5.000,21.776 5.000,21.499 C5.000,21.223 5.224,20.999 5.500,20.999 L20.500,20.999 C20.776,20.999 21.000,21.223 21.000,21.499 C21.000,21.776 20.776,21.999 20.500,21.999 ZM12.913,18.829 C12.896,18.847 12.868,18.841 12.849,18.856 C12.759,18.944 12.636,18.999 12.500,18.999 C12.364,18.999 12.241,18.944 12.151,18.856 C12.131,18.841 12.104,18.847 12.086,18.829 L6.137,12.880 C5.932,12.674 5.932,12.342 6.137,12.136 C6.342,11.931 6.675,11.931 6.881,12.136 L12.000,17.255 L12.000,4.499 C12.000,4.222 12.224,3.999 12.500,3.999 C12.776,3.999 13.000,4.222 13.000,4.499 L13.000,17.255 L18.119,12.136 C18.324,11.931 18.657,11.931 18.862,12.136 C19.068,12.342 19.068,12.674 18.862,12.880 L12.913,18.829 Z" class="cls-1"/>
</svg>
