<svg xmlns="http://www.w3.org/2000/svg" xmlns:xlink="http://www.w3.org/1999/xlink" preserveAspectRatio="xMidYMid" width="23.97" height="24" viewBox="0 0 23.97 24">
  <defs>
    <style>
      .cls-1 {
        fill: #3c4042;
        fill-rule: evenodd;
      }
    </style>
  </defs>
  <path d="M12.346,23.519 C11.736,24.129 10.758,24.138 10.161,23.541 L0.428,13.807 C-0.170,13.210 -0.160,12.232 0.449,11.623 L12.070,0.002 L22.789,1.179 L23.967,11.899 L12.346,23.519 ZM21.892,2.076 L12.434,1.038 L1.149,12.323 C0.927,12.545 0.917,12.897 1.128,13.108 L10.861,22.841 C11.072,23.052 11.424,23.042 11.646,22.820 L22.931,11.535 L21.892,2.076 ZM13.693,10.276 C12.340,8.923 12.340,6.729 13.694,5.376 C15.046,4.024 17.239,4.024 18.592,5.377 C19.945,6.729 19.944,8.923 18.593,10.275 C17.239,11.628 15.046,11.628 13.693,10.276 ZM17.893,6.075 C16.927,5.109 15.360,5.109 14.394,6.075 C13.427,7.043 13.428,8.608 14.394,9.575 C15.360,10.541 16.927,10.542 17.893,9.575 C18.860,8.608 18.859,7.042 17.893,6.075 ZM14.043,13.424 L8.445,19.023 L7.745,18.323 L13.343,12.725 L14.043,13.424 ZM4.946,15.524 L10.544,9.926 L11.244,10.625 L5.645,16.223 L4.946,15.524 Z" class="cls-1"/>
</svg>
