<svg xmlns="http://www.w3.org/2000/svg" xmlns:xlink="http://www.w3.org/1999/xlink" preserveAspectRatio="xMidYMid" width="25" height="21.031" viewBox="0 0 25 21.031">
  <defs>
    <style>
      .cls-1 {
        fill: #3c4042;
        fill-rule: evenodd;
      }
    </style>
  </defs>
  <path d="M24.500,8.999 L0.500,8.999 C0.224,8.999 -0.000,8.776 -0.000,8.499 C-0.000,8.223 0.224,7.999 0.500,7.999 L23.275,7.999 L16.135,0.859 C15.935,0.659 15.935,0.335 16.135,0.134 C16.336,-0.065 16.660,-0.065 16.860,0.134 L24.832,8.107 C24.842,8.116 24.838,8.131 24.846,8.141 C24.940,8.232 25.000,8.358 25.000,8.499 C25.000,8.776 24.776,8.999 24.500,8.999 ZM0.500,11.999 L24.500,11.999 C24.776,11.999 25.000,12.223 25.000,12.499 C25.000,12.776 24.776,12.999 24.500,12.999 L1.725,12.999 L8.864,20.139 C9.064,20.338 9.064,20.663 8.864,20.864 C8.664,21.063 8.340,21.063 8.140,20.864 L0.167,12.892 C0.158,12.882 0.162,12.868 0.154,12.857 C0.059,12.767 -0.000,12.640 -0.000,12.499 C-0.000,12.223 0.224,11.999 0.500,11.999 Z" class="cls-1"/>
</svg>
