<svg xmlns="http://www.w3.org/2000/svg" xmlns:xlink="http://www.w3.org/1999/xlink" preserveAspectRatio="xMidYMid" width="19" height="23" viewBox="0 0 19 23">
  <defs>
    <style>
      .cls-1 {
        fill: #3c4042;
        fill-rule: evenodd;
      }
    </style>
  </defs>
  <path d="M18.000,16.221 C16.444,17.865 13.227,18.997 9.500,18.997 C5.773,18.997 2.556,17.865 1.000,16.221 L1.000,18.998 L0.997,18.998 C0.997,18.998 1.000,18.999 1.000,18.999 C1.001,20.725 5.186,21.997 9.500,21.997 C13.814,21.997 17.999,20.725 18.000,18.999 L19.000,18.999 C18.999,21.588 14.677,22.997 9.500,22.997 C4.322,22.997 -0.000,21.588 -0.000,18.999 L0.000,18.998 L-0.000,18.998 L-0.000,13.999 C-0.000,13.998 -0.000,13.998 -0.000,13.997 L-0.000,13.996 L-0.000,8.999 C-0.000,8.999 -0.000,8.998 -0.000,8.998 C-0.000,8.997 -0.000,8.997 -0.000,8.996 L-0.000,4.999 L0.062,4.999 C0.023,4.834 -0.000,4.667 -0.000,4.497 C-0.000,2.011 4.253,-0.003 9.500,-0.003 C14.746,-0.003 19.000,2.011 19.000,4.497 C19.000,4.667 18.976,4.834 18.938,4.999 L19.000,4.999 L19.000,18.998 L18.000,18.998 L18.000,16.221 ZM9.500,0.997 C4.805,0.997 1.000,2.564 1.000,4.497 C1.000,6.430 4.805,7.997 9.500,7.997 C14.194,7.997 18.000,6.430 18.000,4.497 C18.000,2.564 14.194,0.997 9.500,0.997 ZM18.000,6.498 C16.444,7.978 13.227,8.998 9.500,8.998 C5.773,8.998 2.556,7.978 1.000,6.498 L1.000,8.999 L1.000,8.999 C1.001,10.840 5.128,12.988 9.500,12.988 C13.871,12.988 17.998,10.841 18.000,9.000 L18.000,6.498 ZM18.000,11.220 C16.444,12.865 13.227,13.997 9.500,13.997 C5.773,13.997 2.556,12.865 1.000,11.221 L1.000,13.999 L1.000,13.999 C1.001,15.839 5.128,17.989 9.500,17.989 C13.871,17.989 17.998,15.840 18.000,14.000 L18.000,11.220 Z" class="cls-1"/>
</svg>
