<svg xmlns="http://www.w3.org/2000/svg" xmlns:xlink="http://www.w3.org/1999/xlink" preserveAspectRatio="xMidYMid" width="25" height="19" viewBox="0 0 25 19">
  <defs>
    <style>
      .cls-1 {
        fill: #3c4042;
        fill-rule: evenodd;
      }
    </style>
  </defs>
  <path d="M23.461,18.998 L6.538,18.998 C5.689,18.998 5.000,18.302 5.000,17.442 L5.000,15.998 L6.000,15.998 L6.000,17.141 C6.000,17.615 6.366,17.999 6.818,17.999 L23.182,17.999 C23.633,17.999 24.000,17.615 24.000,17.141 L24.000,6.855 C24.000,6.382 23.633,5.998 23.182,5.998 L22.000,5.998 L22.000,4.997 L23.461,4.997 C24.311,4.997 25.000,5.694 25.000,6.553 L25.000,17.442 C25.000,18.302 24.311,18.998 23.461,18.998 ZM18.461,13.998 L1.538,13.998 C0.688,13.998 -0.000,13.301 -0.000,12.442 L-0.000,1.553 C-0.000,0.695 0.688,-0.002 1.538,-0.002 L18.461,-0.002 C19.311,-0.002 20.000,0.695 20.000,1.553 L20.000,12.442 C20.000,13.301 19.311,13.998 18.461,13.998 ZM19.000,1.855 C19.000,1.381 18.633,0.997 18.182,0.997 L1.818,0.997 C1.366,0.997 1.000,1.381 1.000,1.855 L1.000,12.141 C1.000,12.614 1.366,12.998 1.818,12.998 L18.182,12.998 C18.633,12.998 19.000,12.614 19.000,12.141 L19.000,1.855 ZM10.000,10.998 C7.791,10.998 6.000,9.206 6.000,6.998 C6.000,4.789 7.791,2.998 10.000,2.998 C12.209,2.998 14.000,4.789 14.000,6.998 C14.000,9.206 12.209,10.998 10.000,10.998 ZM10.000,3.997 C8.343,3.997 7.000,5.341 7.000,6.998 C7.000,8.654 8.343,9.998 10.000,9.998 C11.657,9.998 13.000,8.654 13.000,6.998 C13.000,5.341 11.657,3.997 10.000,3.997 Z" class="cls-1"/>
</svg>
