<svg xmlns="http://www.w3.org/2000/svg" xmlns:xlink="http://www.w3.org/1999/xlink" preserveAspectRatio="xMidYMid" width="19" height="25" viewBox="0 0 19 25">
  <defs>
    <style>
      .cls-1 {
        fill: #3c4042;
        fill-rule: evenodd;
      }
    </style>
  </defs>
  <path d="M17.276,24.997 L1.727,24.997 C0.773,24.997 -0.000,24.298 -0.000,23.434 L-0.000,7.029 L9.502,-0.002 L19.004,7.029 L19.004,23.434 C19.004,24.298 18.230,24.997 17.276,24.997 ZM18.002,7.534 L9.500,1.243 L0.998,7.534 L0.998,23.436 C0.998,23.741 1.331,23.998 1.725,23.998 L17.274,23.998 C17.669,23.998 18.002,23.741 18.002,23.436 L18.002,7.534 ZM9.502,11.997 C7.575,11.997 6.013,10.430 6.013,8.496 C6.013,6.565 7.575,4.997 9.502,4.997 C11.428,4.997 12.990,6.565 12.990,8.496 C12.990,10.430 11.428,11.997 9.502,11.997 ZM9.503,5.995 C8.119,5.995 6.998,7.114 6.998,8.496 C6.998,9.877 8.119,10.995 9.503,10.995 C10.886,10.995 12.007,9.877 12.007,8.496 C12.007,7.114 10.886,5.995 9.503,5.995 Z" class="cls-1"/>
</svg>
