<svg xmlns="http://www.w3.org/2000/svg" xmlns:xlink="http://www.w3.org/1999/xlink" preserveAspectRatio="xMidYMid" width="25" height="23" viewBox="0 0 25 23">
  <defs>
    <style>
      .cls-1 {
        fill: #3c4042;
        fill-rule: evenodd;
      }
    </style>
  </defs>
  <path d="M25.004,6.635 L21.993,17.464 C21.994,17.476 22.000,17.486 22.000,17.499 C22.000,17.722 21.851,17.904 21.650,17.969 C21.568,18.003 21.478,18.016 21.386,17.999 L9.500,17.999 C9.495,17.999 9.490,17.996 9.485,17.996 C9.250,17.996 9.033,17.861 8.969,17.642 L5.091,0.999 L0.500,0.999 C0.224,0.999 -0.000,0.775 -0.000,0.499 C-0.000,0.223 0.224,-0.001 0.500,-0.001 L5.500,-0.001 C5.506,-0.001 5.510,0.002 5.516,0.002 C5.751,0.003 5.967,0.138 6.030,0.356 L7.352,6.029 C7.400,6.014 7.447,5.999 7.500,5.999 L9.640,5.999 L14.096,1.543 C14.863,0.776 16.106,0.776 16.873,1.543 L21.329,5.999 L24.434,5.999 C24.506,5.984 24.580,5.980 24.656,6.001 C24.919,6.076 25.075,6.359 25.004,6.635 ZM16.179,2.237 C15.795,1.853 15.174,1.853 14.790,2.237 L11.028,5.999 L19.941,5.999 L16.179,2.237 ZM7.578,6.999 L9.909,16.999 L21.096,16.999 L23.878,6.999 L7.578,6.999 ZM10.500,19.998 C11.328,19.998 12.000,20.670 12.000,21.498 C12.000,22.327 11.328,22.999 10.500,22.999 C9.671,22.999 9.000,22.327 9.000,21.498 C9.000,20.670 9.671,19.998 10.500,19.998 ZM18.500,19.998 C19.328,19.998 20.000,20.670 20.000,21.498 C20.000,22.327 19.328,22.999 18.500,22.999 C17.671,22.999 17.000,22.327 17.000,21.498 C17.000,20.670 17.671,19.998 18.500,19.998 Z" class="cls-1"/>
</svg>
