<svg xmlns="http://www.w3.org/2000/svg" xmlns:xlink="http://www.w3.org/1999/xlink" preserveAspectRatio="xMidYMid" width="23" height="25" viewBox="0 0 23 25">
  <defs>
    <style>
      .cls-1 {
        fill: #3c4042;
        fill-rule: evenodd;
      }
    </style>
  </defs>
  <path d="M21.466,24.997 L19.428,24.997 L1.571,24.997 L1.533,24.997 C0.991,24.997 0.538,24.690 0.265,24.253 C0.218,24.177 0.155,24.114 0.121,24.032 C0.113,24.013 0.116,23.992 0.109,23.974 C0.046,23.805 -0.000,23.626 -0.000,23.435 L-0.000,23.414 L-0.000,7.810 L-0.000,7.581 C-0.000,6.925 0.387,6.362 0.938,6.122 C0.974,6.050 1.000,5.999 1.000,5.999 L19.428,-0.002 C20.296,-0.002 21.000,0.697 21.000,1.560 L21.000,5.997 L21.466,5.997 C22.313,5.997 23.000,6.706 23.000,7.581 L23.000,13.998 L23.000,18.998 L23.000,23.414 C23.000,24.288 22.313,24.997 21.466,24.997 ZM20.000,1.783 C20.000,1.349 19.645,0.998 19.208,0.998 L4.871,5.997 L20.000,5.997 L20.000,1.783 ZM22.000,18.998 L16.000,18.998 L16.000,13.998 L22.000,13.998 L22.000,7.797 C22.000,7.356 21.655,6.997 21.230,6.997 L1.769,6.997 C1.344,6.997 1.000,7.356 1.000,7.797 L1.000,23.198 C1.000,23.640 1.344,23.998 1.769,23.998 L21.230,23.998 C21.655,23.998 22.000,23.640 22.000,23.198 L22.000,18.998 ZM22.000,17.996 L22.000,14.995 L17.000,14.995 L17.000,17.996 L22.000,17.996 Z" class="cls-1"/>
</svg>
