<svg xmlns="http://www.w3.org/2000/svg" xmlns:xlink="http://www.w3.org/1999/xlink" preserveAspectRatio="xMidYMid" width="19" height="25" viewBox="0 0 19 25">
  <defs>
    <style>
      .cls-1 {
        fill: #3c4042;
        fill-rule: evenodd;
      }
    </style>
  </defs>
  <path d="M18.002,7.534 L9.500,1.243 L0.998,7.534 L0.998,23.436 C0.998,23.741 1.331,23.999 1.725,23.999 L9.002,23.999 L9.002,24.998 L1.727,24.998 C0.773,24.998 -0.000,24.297 -0.000,23.434 L-0.000,7.028 L9.502,-0.003 L19.004,7.028 L19.004,13.997 L18.002,13.997 L18.002,7.534 ZM6.013,8.497 C6.013,6.565 7.575,4.997 9.502,4.997 C11.428,4.997 12.990,6.565 12.990,8.497 C12.990,10.431 11.428,11.998 9.502,11.998 C7.575,11.998 6.013,10.431 6.013,8.497 ZM9.503,10.995 C10.886,10.995 12.007,9.877 12.007,8.496 C12.007,7.114 10.886,5.996 9.503,5.996 C8.119,5.996 6.998,7.114 6.998,8.496 C6.998,9.877 8.119,10.995 9.503,10.995 ZM11.684,15.984 L15.000,19.766 L18.315,15.984 L19.013,16.685 L15.656,20.515 L18.985,24.312 L18.287,25.014 L15.000,21.263 L11.712,25.014 L11.015,24.312 L14.344,20.515 L10.986,16.685 L11.684,15.984 Z" class="cls-1"/>
</svg>
