<svg xmlns="http://www.w3.org/2000/svg" xmlns:xlink="http://www.w3.org/1999/xlink" preserveAspectRatio="xMidYMid" width="22" height="25" viewBox="0 0 22 25">
  <defs>
    <style>
      .cls-1 {
        fill: #3c4042;
        fill-rule: evenodd;
      }
    </style>
  </defs>
  <path d="M20.000,25.000 L17.000,23.000 L14.000,25.000 L11.000,23.000 L8.000,25.000 L5.000,23.000 L2.000,25.000 L-0.000,24.999 L-0.000,-0.001 L22.000,-0.001 L22.000,24.999 L20.000,25.000 ZM21.000,0.999 L1.000,0.999 L1.000,24.000 L1.697,24.000 L4.445,22.167 L5.000,21.798 L5.554,22.167 L8.000,23.798 L10.445,22.167 L11.000,21.798 L11.554,22.167 L14.000,23.798 L16.445,22.167 L17.000,21.798 L17.554,22.167 L20.303,24.000 L21.000,24.000 L21.000,0.999 ZM5.000,13.998 L17.000,13.998 L17.000,14.998 L5.000,14.998 L5.000,13.998 ZM5.000,10.997 L17.000,10.997 L17.000,11.998 L5.000,11.998 L5.000,10.997 ZM5.000,4.998 L17.000,4.998 L17.000,5.998 L5.000,5.998 L5.000,4.998 Z" class="cls-1"/>
</svg>
