<svg xmlns="http://www.w3.org/2000/svg" xmlns:xlink="http://www.w3.org/1999/xlink" preserveAspectRatio="xMidYMid" width="25" height="22" viewBox="0 0 25 22">
  <defs>
    <style>
      .cls-1 {
        fill: #3c4042;
        fill-rule: evenodd;
      }
    </style>
  </defs>
  <path d="M21.875,22.004 L3.125,22.004 C1.399,22.004 -0.000,20.547 -0.000,18.751 L-0.000,8.995 L25.000,8.995 L25.000,18.751 C25.000,20.547 23.600,22.004 21.875,22.004 ZM24.000,9.995 L1.000,9.995 L1.000,18.751 C1.000,19.994 1.953,21.004 3.125,21.004 L21.875,21.004 C23.047,21.004 24.000,19.994 24.000,18.751 L24.000,9.995 ZM11.000,15.994 L16.000,15.994 L16.000,17.001 L11.000,17.001 L11.000,15.994 ZM3.000,15.994 L9.000,15.994 L9.000,17.001 L3.000,17.001 L3.000,15.994 ZM-0.000,2.999 C-0.000,1.341 1.399,-0.003 3.125,-0.003 L21.875,-0.003 C23.600,-0.003 25.000,1.341 25.000,2.999 L25.000,6.001 L-0.000,6.001 L-0.000,2.999 ZM1.000,5.001 L24.000,5.001 L24.000,2.999 C24.000,1.895 23.047,0.997 21.875,0.997 L3.125,0.997 C1.953,0.997 1.000,1.895 1.000,2.999 L1.000,5.001 Z" class="cls-1"/>
</svg>
