<svg xmlns="http://www.w3.org/2000/svg" xmlns:xlink="http://www.w3.org/1999/xlink" preserveAspectRatio="xMidYMid" width="25" height="20" viewBox="0 0 25 20">
  <defs>
    <style>
      .cls-1 {
        fill: #3c4042;
        fill-rule: evenodd;
      }
    </style>
  </defs>
  <path d="M22.000,19.999 L3.000,19.999 C1.343,19.999 -0.000,18.656 -0.000,16.999 L-0.000,3.000 C-0.000,1.343 1.343,-0.000 3.000,-0.000 L22.000,-0.000 C23.657,-0.000 25.000,1.343 25.000,3.000 L25.000,16.999 C25.000,18.656 23.657,19.999 22.000,19.999 ZM24.000,3.000 C24.000,1.897 23.103,1.000 22.000,1.000 L3.000,1.000 C1.897,1.000 1.000,1.897 1.000,3.000 L1.000,16.999 C1.000,18.102 1.897,19.000 3.000,19.000 L15.245,19.000 L24.000,10.363 L24.000,3.000 ZM24.000,11.743 L16.644,19.000 L22.000,19.000 C23.103,19.000 24.000,18.102 24.000,16.999 L24.000,11.743 ZM8.000,9.993 C8.000,7.228 10.238,4.987 13.000,4.987 C15.761,4.987 18.000,7.228 18.000,9.993 C18.000,12.758 15.761,14.999 13.000,14.999 C10.238,14.999 8.000,12.758 8.000,9.993 ZM16.987,9.992 C16.987,7.787 15.202,5.999 13.000,5.999 C10.797,5.999 9.012,7.787 9.012,9.992 C9.012,12.197 10.797,13.984 13.000,13.984 C15.202,13.984 16.987,12.197 16.987,9.992 Z" class="cls-1"/>
</svg>
