<svg xmlns="http://www.w3.org/2000/svg" xmlns:xlink="http://www.w3.org/1999/xlink" preserveAspectRatio="xMidYMid" width="25" height="24" viewBox="0 0 25 24">
  <defs>
    <style>
      .cls-1 {
        fill: #3c4042;
        fill-rule: evenodd;
      }
    </style>
  </defs>
  <path d="M24.778,8.737 L12.860,23.744 C12.733,23.921 12.568,24.008 12.402,24.008 C12.235,24.008 12.068,23.919 11.942,23.739 L0.216,8.610 C-0.035,8.252 -0.075,7.643 0.127,7.253 L3.534,0.697 C3.737,0.308 4.254,-0.011 4.683,-0.011 L12.409,-0.011 C12.413,-0.011 12.416,-0.013 12.419,-0.013 C12.423,-0.013 12.427,-0.011 12.431,-0.011 L20.317,-0.011 C20.747,-0.011 21.263,0.309 21.462,0.699 L24.878,7.385 C25.077,7.774 25.032,8.383 24.778,8.737 ZM1.033,8.032 L11.865,22.008 L11.960,21.777 L6.321,7.993 L1.024,7.993 C1.028,8.004 1.028,8.023 1.033,8.032 ZM12.500,20.456 L17.596,7.999 L17.000,7.999 L16.996,7.993 L8.004,7.993 L8.000,7.999 L7.404,7.999 L12.500,20.456 ZM1.389,6.993 L5.912,6.993 L3.920,2.124 L1.389,6.993 ZM4.683,0.990 C4.653,0.993 4.605,1.018 4.559,1.045 L6.992,6.993 L7.631,6.993 L11.397,0.990 L4.683,0.990 ZM8.647,6.993 L16.354,6.993 L12.505,0.999 L8.647,6.993 ZM20.312,0.990 L13.492,0.990 L17.353,6.993 L18.007,6.993 L20.441,1.045 C20.395,1.018 20.346,0.994 20.312,0.990 ZM21.074,2.138 L19.088,6.993 L23.554,6.993 L21.074,2.138 ZM23.991,7.886 L23.991,7.993 L18.679,7.993 L13.040,21.777 L13.076,21.866 L23.968,8.151 C23.998,8.089 24.005,7.967 23.991,7.886 Z" class="cls-1"/>
</svg>
