<svg xmlns="http://www.w3.org/2000/svg" xmlns:xlink="http://www.w3.org/1999/xlink" preserveAspectRatio="xMidYMid" width="25" height="25" viewBox="0 0 25 25">
  <defs>
    <style>
      .cls-1 {
        fill: #3c4042;
        fill-rule: evenodd;
      }
    </style>
  </defs>
  <path d="M24.927,5.475 C24.973,5.690 25.000,5.911 25.000,6.139 L25.000,21.854 C25.000,23.590 23.601,24.996 21.875,24.996 L3.125,24.996 C1.399,24.996 -0.000,23.590 -0.000,21.854 L-0.000,6.139 C-0.000,5.911 0.027,5.690 0.073,5.475 C0.027,5.257 -0.000,5.032 -0.000,4.799 L-0.000,3.196 C-0.000,1.429 1.399,-0.003 3.125,-0.003 L21.875,-0.003 C23.601,-0.003 25.000,1.429 25.000,3.196 L25.000,4.799 C25.000,5.032 24.973,5.257 24.927,5.475 ZM24.000,2.999 C24.000,1.894 23.104,0.999 22.000,0.999 L3.000,0.999 C1.895,0.999 1.000,1.894 1.000,2.999 L1.000,4.999 C1.000,6.104 1.895,6.999 3.000,6.999 L22.000,6.999 C23.104,6.999 24.000,6.104 24.000,4.999 L24.000,2.999 ZM24.000,7.133 C23.442,7.666 22.698,7.999 21.875,7.999 L3.125,7.999 C2.301,7.999 1.558,7.666 1.000,7.133 L1.000,21.999 C1.000,23.104 1.895,23.999 3.000,23.999 L22.000,23.999 C23.104,23.999 24.000,23.104 24.000,21.999 L24.000,7.133 ZM21.500,11.999 L20.000,11.999 C20.011,12.165 20.000,12.331 20.000,12.499 C20.000,16.641 16.642,19.999 12.500,19.999 C8.358,19.999 5.000,16.641 5.000,12.499 C5.000,12.331 4.989,12.165 5.000,11.999 L3.500,11.999 C3.224,11.999 3.000,11.775 3.000,11.498 C3.000,11.223 3.224,10.999 3.500,10.999 L7.500,10.999 C7.776,10.999 8.000,11.223 8.000,11.498 C8.000,11.775 7.776,11.999 7.500,11.999 L6.000,11.999 C5.987,12.167 6.000,12.328 6.000,12.499 C6.000,16.089 8.910,18.999 12.500,18.999 C16.090,18.999 19.000,16.089 19.000,12.499 C19.000,12.328 19.013,12.167 19.000,11.999 L17.500,11.999 C17.224,11.999 17.000,11.775 17.000,11.498 C17.000,11.223 17.224,10.999 17.500,10.999 L21.500,10.999 C21.776,10.999 22.000,11.223 22.000,11.498 C22.000,11.775 21.776,11.999 21.500,11.999 Z" class="cls-1"/>
</svg>
