<svg xmlns="http://www.w3.org/2000/svg" xmlns:xlink="http://www.w3.org/1999/xlink" preserveAspectRatio="xMidYMid" width="25.03" height="25.031" viewBox="0 0 25.03 25.031">
  <defs>
    <style>
      .cls-1 {
        fill: #3c4042;
        fill-rule: evenodd;
      }
    </style>
  </defs>
  <path d="M22.013,14.648 C21.970,14.807 21.851,14.922 21.708,14.982 C21.693,14.989 21.677,14.992 21.661,14.998 C21.620,15.010 21.579,15.020 21.535,15.023 C21.523,15.024 21.512,15.030 21.500,15.030 L4.000,16.002 L4.000,18.030 L23.500,18.030 C23.776,18.030 24.000,18.254 24.000,18.530 C24.000,18.806 23.776,19.030 23.500,19.030 L17.016,19.030 C18.665,19.039 20.000,20.378 20.000,22.028 C20.000,23.685 18.657,25.028 17.000,25.028 C15.343,25.028 14.000,23.685 14.000,22.028 C14.000,20.378 15.335,19.039 16.984,19.030 L8.016,19.030 C9.665,19.039 11.000,20.378 11.000,22.028 C11.000,23.685 9.657,25.028 8.000,25.028 C6.343,25.028 5.000,23.685 5.000,22.028 C5.000,20.378 6.334,19.039 7.984,19.030 L3.500,19.030 C3.224,19.030 3.000,18.806 3.000,18.530 L3.000,1.030 L0.500,1.030 C0.224,1.030 -0.000,0.806 -0.000,0.530 C-0.000,0.254 0.224,0.030 0.500,0.030 L5.500,0.030 C5.776,0.030 6.000,0.254 6.000,0.530 C6.000,0.806 5.776,1.030 5.500,1.030 L4.000,1.030 L4.000,3.030 L9.929,3.030 L13.096,0.574 C13.863,-0.192 15.106,-0.192 15.873,0.574 L19.039,3.030 L24.500,3.030 C24.524,3.030 24.545,3.041 24.568,3.044 C24.589,3.046 24.609,3.042 24.629,3.047 C24.640,3.051 24.648,3.059 24.659,3.062 C24.692,3.073 24.720,3.089 24.750,3.107 C24.783,3.125 24.815,3.144 24.843,3.169 C24.852,3.178 24.859,3.188 24.868,3.198 C24.988,3.324 25.049,3.500 25.000,3.680 L22.013,14.648 ZM15.000,22.030 C15.000,23.135 15.895,24.030 17.000,24.030 C18.104,24.030 19.000,23.135 19.000,22.030 C19.000,20.925 18.104,20.030 17.000,20.030 C15.895,20.030 15.000,20.925 15.000,22.030 ZM6.000,22.030 C6.000,23.135 6.895,24.030 8.000,24.030 C9.104,24.030 10.000,23.135 10.000,22.030 C10.000,20.925 9.104,20.030 8.000,20.030 C6.895,20.030 6.000,20.925 6.000,22.030 ZM15.179,1.268 C14.795,0.884 14.174,0.884 13.790,1.268 L11.390,3.030 L17.579,3.030 L15.179,1.268 ZM20.329,4.030 L18.941,4.030 L10.028,4.030 L8.640,4.030 L4.000,4.030 L4.000,15.002 L21.089,14.053 L23.818,4.030 L20.329,4.030 Z" class="cls-1"/>
</svg>
