<svg xmlns="http://www.w3.org/2000/svg" xmlns:xlink="http://www.w3.org/1999/xlink" preserveAspectRatio="xMidYMid" width="25" height="23" viewBox="0 0 25 23">
  <defs>
    <style>
      .cls-1 {
        fill: #3c4042;
        fill-rule: evenodd;
      }
    </style>
  </defs>
  <path d="M25.004,6.635 L21.993,17.464 C21.994,17.476 22.000,17.486 22.000,17.499 C22.000,17.722 21.851,17.904 21.650,17.969 C21.568,18.003 21.478,18.016 21.386,17.999 L9.500,17.999 C9.495,17.999 9.490,17.996 9.485,17.996 C9.250,17.996 9.033,17.861 8.969,17.642 L5.091,0.999 L0.500,0.999 C0.224,0.999 -0.000,0.775 -0.000,0.499 C-0.000,0.223 0.224,-0.001 0.500,-0.001 L5.500,-0.001 C5.506,-0.001 5.510,0.002 5.516,0.002 C5.751,0.003 5.967,0.138 6.030,0.356 L7.352,6.029 C7.400,6.014 7.447,5.999 7.500,5.999 L13.000,5.999 L13.000,6.999 L7.578,6.999 L9.909,16.999 L21.096,16.999 L23.878,6.999 L18.000,6.999 L18.000,5.999 L24.434,5.999 C24.506,5.984 24.581,5.980 24.656,6.001 C24.919,6.076 25.075,6.359 25.004,6.635 ZM19.077,10.141 C19.293,9.926 19.642,9.926 19.858,10.141 C20.073,10.356 20.073,10.706 19.858,10.921 L15.957,14.823 C15.882,14.897 15.791,14.936 15.695,14.959 C15.635,14.985 15.569,14.999 15.500,14.999 C15.430,14.999 15.364,14.985 15.304,14.959 C15.209,14.936 15.117,14.897 15.043,14.823 L11.142,10.921 C10.926,10.706 10.926,10.356 11.142,10.141 C11.357,9.926 11.707,9.926 11.922,10.141 L15.000,13.219 L15.000,3.499 C15.000,3.223 15.224,2.999 15.500,2.999 C15.776,2.999 16.000,3.223 16.000,3.499 L16.000,13.219 L19.077,10.141 ZM10.500,19.998 C11.328,19.998 12.000,20.670 12.000,21.498 C12.000,22.327 11.328,22.999 10.500,22.999 C9.671,22.999 9.000,22.327 9.000,21.498 C9.000,20.670 9.671,19.998 10.500,19.998 ZM18.500,19.998 C19.328,19.998 20.000,20.670 20.000,21.498 C20.000,22.327 19.328,22.999 18.500,22.999 C17.671,22.999 17.000,22.327 17.000,21.498 C17.000,20.670 17.671,19.998 18.500,19.998 Z" class="cls-1"/>
</svg>
