<svg xmlns="http://www.w3.org/2000/svg" xmlns:xlink="http://www.w3.org/1999/xlink" preserveAspectRatio="xMidYMid" width="25" height="25" viewBox="0 0 25 25">
  <defs>
    <style>
      .cls-1 {
        fill: #3c4042;
        fill-rule: evenodd;
      }
    </style>
  </defs>
  <path d="M25.000,18.997 L25.000,19.997 L3.000,19.997 L3.000,13.497 L3.000,6.998 L3.000,1.497 C3.000,1.320 3.046,1.155 3.105,0.998 L-0.000,0.998 L-0.000,-0.003 L4.569,-0.003 C4.570,-0.003 4.570,-0.003 4.571,-0.003 L23.428,-0.003 C24.296,-0.003 25.000,0.669 25.000,1.497 L25.000,13.497 C25.000,14.326 24.296,14.996 23.428,14.996 L5.500,14.996 L5.500,15.000 L4.000,15.000 L4.000,18.997 L25.000,18.997 ZM24.000,13.184 L24.000,1.810 C24.000,1.361 23.626,0.997 23.166,0.997 L4.833,0.997 C4.373,0.997 4.000,1.361 4.000,1.810 L4.000,13.184 C4.000,13.185 4.000,13.186 4.000,13.187 L4.000,13.999 L5.500,13.999 L5.500,13.997 L23.166,13.997 C23.626,13.997 24.000,13.634 24.000,13.184 ZM7.500,21.996 C8.328,21.996 9.000,22.668 9.000,23.497 C9.000,24.326 8.328,24.998 7.500,24.998 C6.671,24.998 6.000,24.326 6.000,23.497 C6.000,22.668 6.671,21.996 7.500,21.996 ZM18.500,21.996 C19.328,21.996 20.000,22.668 20.000,23.497 C20.000,24.326 19.328,24.998 18.500,24.998 C17.671,24.998 17.000,24.326 17.000,23.497 C17.000,22.668 17.671,21.996 18.500,21.996 Z" class="cls-1"/>
</svg>
