<svg xmlns="http://www.w3.org/2000/svg" xmlns:xlink="http://www.w3.org/1999/xlink" preserveAspectRatio="xMidYMid" width="25" height="20" viewBox="0 0 25 20">
  <defs>
    <style>
      .cls-1 {
        fill: #3c4042;
        fill-rule: evenodd;
      }
    </style>
  </defs>
  <path d="M24.500,5.999 L23.890,5.999 L22.357,19.998 L17.000,19.998 L16.000,19.998 L9.000,19.998 L8.000,19.998 L2.643,19.998 L1.109,5.999 L0.500,5.999 C0.224,5.999 -0.000,5.776 -0.000,5.500 C-0.000,5.223 0.224,4.999 0.500,4.999 L1.000,4.999 L1.000,4.998 L6.530,4.998 L4.315,0.999 L1.000,0.999 L1.000,-0.002 L4.905,-0.002 L4.913,-0.005 L4.915,-0.002 L5.000,-0.002 L5.000,0.151 L7.684,4.998 L8.000,4.998 L9.000,4.998 L16.000,4.998 L17.000,4.998 L17.316,4.998 L20.000,0.152 L20.000,-0.002 L20.085,-0.002 L20.087,-0.005 L20.095,-0.002 L24.000,-0.002 L24.000,0.999 L20.685,0.999 L18.470,4.998 L24.000,4.998 L24.000,4.999 L24.500,4.999 C24.776,4.999 25.000,5.223 25.000,5.500 C25.000,5.776 24.776,5.999 24.500,5.999 ZM17.000,18.998 L21.250,18.998 L21.654,15.998 L17.000,15.998 L17.000,18.998 ZM17.000,14.998 L21.788,14.998 L22.327,10.998 L17.000,10.998 L17.000,14.998 ZM22.461,9.998 L23.000,5.999 L17.915,5.999 L17.913,6.004 L17.903,5.999 L17.000,5.999 L17.000,9.998 L22.461,9.998 ZM9.000,18.998 L16.000,18.998 L16.000,15.998 L9.000,15.998 L9.000,18.998 ZM9.000,14.998 L16.000,14.998 L16.000,10.998 L9.000,10.998 L9.000,14.998 ZM16.000,9.998 L16.000,5.999 L9.000,5.999 L9.000,9.998 L16.000,9.998 ZM3.750,18.998 L8.000,18.998 L8.000,15.998 L3.346,15.998 L3.750,18.998 ZM3.211,14.998 L8.000,14.998 L8.000,10.998 L2.673,10.998 L3.211,14.998 ZM2.538,9.998 L8.000,9.998 L8.000,5.999 L7.096,5.999 L7.086,6.004 L7.084,5.999 L2.000,5.999 L2.538,9.998 Z" class="cls-1"/>
</svg>
