<svg xmlns="http://www.w3.org/2000/svg" xmlns:xlink="http://www.w3.org/1999/xlink" preserveAspectRatio="xMidYMid" width="25.03" height="25" viewBox="0 0 25.03 25">
  <defs>
    <style>
      .cls-1 {
        fill: #3c4042;
        fill-rule: evenodd;
      }
    </style>
  </defs>
  <path d="M22.013,14.617 C21.970,14.776 21.851,14.891 21.708,14.951 C21.693,14.958 21.677,14.961 21.661,14.967 C21.620,14.979 21.579,14.989 21.535,14.992 C21.523,14.993 21.512,14.999 21.500,14.999 L4.000,15.971 L4.000,17.999 L23.500,17.999 C23.776,17.999 24.000,18.223 24.000,18.499 C24.000,18.775 23.776,18.999 23.500,18.999 L17.016,18.999 C18.665,19.008 20.000,20.347 20.000,21.998 C20.000,23.655 18.657,24.998 17.000,24.998 C15.343,24.998 14.000,23.655 14.000,21.998 C14.000,20.347 15.334,19.008 16.984,18.999 L8.016,18.999 C9.665,19.008 11.000,20.347 11.000,21.998 C11.000,23.655 9.657,24.998 8.000,24.998 C6.343,24.998 5.000,23.655 5.000,21.998 C5.000,20.347 6.334,19.008 7.984,18.999 L3.500,18.999 C3.224,18.999 3.000,18.775 3.000,18.499 L3.000,0.999 L0.500,0.999 C0.224,0.999 -0.000,0.775 -0.000,0.499 C-0.000,0.222 0.224,-0.001 0.500,-0.001 L5.500,-0.001 C5.776,-0.001 6.000,0.222 6.000,0.499 C6.000,0.775 5.776,0.999 5.500,0.999 L4.000,0.999 L4.000,2.999 L12.000,2.999 L12.000,3.999 L4.000,3.999 L4.000,14.971 L21.089,14.022 L23.818,3.999 L17.000,3.999 L17.000,2.999 L24.500,2.999 C24.524,2.999 24.545,3.010 24.568,3.013 C24.589,3.015 24.609,3.011 24.629,3.016 C24.640,3.020 24.648,3.028 24.659,3.031 C24.692,3.042 24.720,3.058 24.750,3.076 C24.783,3.094 24.815,3.113 24.842,3.138 C24.852,3.147 24.859,3.157 24.868,3.167 C24.988,3.293 25.049,3.470 25.000,3.648 L22.013,14.617 ZM15.000,21.999 C15.000,23.104 15.895,23.999 17.000,23.999 C18.104,23.999 19.000,23.104 19.000,21.999 C19.000,20.895 18.104,19.999 17.000,19.999 C15.895,19.999 15.000,20.895 15.000,21.999 ZM6.000,21.999 C6.000,23.104 6.895,23.999 8.000,23.999 C9.104,23.999 10.000,23.104 10.000,21.999 C10.000,20.895 9.104,19.999 8.000,19.999 C6.895,19.999 6.000,20.895 6.000,21.999 ZM18.078,7.141 C18.293,6.926 18.642,6.926 18.858,7.141 C19.073,7.356 19.073,7.705 18.858,7.921 L14.957,11.822 C14.882,11.897 14.790,11.936 14.695,11.959 C14.635,11.985 14.569,11.999 14.500,11.999 C14.430,11.999 14.364,11.985 14.304,11.959 C14.209,11.936 14.117,11.897 14.043,11.822 L10.142,7.921 C9.926,7.705 9.926,7.356 10.142,7.141 C10.357,6.926 10.707,6.926 10.922,7.141 L14.000,10.219 L14.000,0.499 C14.000,0.222 14.224,-0.001 14.500,-0.001 C14.776,-0.001 15.000,0.222 15.000,0.499 L15.000,10.219 L18.078,7.141 Z" class="cls-1"/>
</svg>
