<svg xmlns="http://www.w3.org/2000/svg" xmlns:xlink="http://www.w3.org/1999/xlink" preserveAspectRatio="xMidYMid" width="25" height="25" viewBox="0 0 25 25">
  <defs>
    <style>
      .cls-1 {
        fill: #3c4042;
        fill-rule: evenodd;
      }
    </style>
  </defs>
  <path d="M12.500,24.997 C5.596,24.997 -0.000,19.401 -0.000,12.498 C-0.000,5.594 5.596,-0.002 12.500,-0.002 C19.403,-0.002 25.000,5.594 25.000,12.498 C25.000,19.401 19.403,24.997 12.500,24.997 ZM12.500,0.998 C6.148,0.998 1.000,6.146 1.000,12.498 C1.000,18.848 6.148,23.997 12.500,23.997 C18.851,23.997 24.000,18.848 24.000,12.498 C24.000,6.146 18.851,0.998 12.500,0.998 ZM16.406,12.498 L16.406,13.280 L13.281,13.280 L13.281,14.842 L16.406,14.842 L16.406,15.623 L13.281,15.623 L13.281,18.748 L11.718,18.748 L11.718,15.623 L8.594,15.623 L8.594,14.842 L11.718,14.842 L11.718,13.280 L8.594,13.280 L8.594,12.498 L10.937,12.498 L7.802,7.032 L9.193,7.032 L11.709,11.184 C12.114,11.851 12.466,12.684 12.466,12.684 L12.501,12.684 C12.501,12.684 12.853,11.851 13.258,11.184 L15.792,7.032 L17.183,7.032 L14.062,12.498 L16.406,12.498 Z" class="cls-1"/>
</svg>
