<svg xmlns="http://www.w3.org/2000/svg" xmlns:xlink="http://www.w3.org/1999/xlink" preserveAspectRatio="xMidYMid" width="25" height="25" viewBox="0 0 25 25">
  <defs>
    <style>
      .cls-1 {
        fill: #3c4042;
        fill-rule: evenodd;
      }
    </style>
  </defs>
  <path d="M20.312,25.000 L4.687,25.000 C2.098,25.000 -0.000,22.903 -0.000,20.313 L-0.000,4.688 C-0.000,2.099 2.098,0.001 4.687,0.001 L20.312,0.001 C22.901,0.001 25.000,2.099 25.000,4.688 L25.000,20.313 C25.000,22.903 22.901,25.000 20.312,25.000 ZM24.000,4.999 C24.000,2.790 22.209,0.999 20.000,0.999 L5.000,0.999 C2.791,0.999 1.000,2.790 1.000,4.999 L1.000,19.999 C1.000,22.208 2.791,23.999 5.000,23.999 L20.000,23.999 C22.209,23.999 24.000,22.208 24.000,19.999 L24.000,4.999 ZM20.500,3.999 L5.500,3.999 C5.224,3.999 5.000,3.775 5.000,3.499 C5.000,3.222 5.224,2.999 5.500,2.999 L20.500,2.999 C20.776,2.999 21.000,3.222 21.000,3.499 C21.000,3.775 20.776,3.999 20.500,3.999 ZM12.086,6.169 C12.104,6.152 12.131,6.157 12.151,6.142 C12.241,6.054 12.364,5.999 12.500,5.999 C12.636,5.999 12.759,6.054 12.849,6.142 C12.868,6.157 12.896,6.152 12.914,6.169 L18.863,12.118 C19.068,12.324 19.068,12.657 18.863,12.862 C18.657,13.067 18.324,13.067 18.119,12.862 L13.000,7.743 L13.000,20.499 C13.000,20.775 12.776,20.999 12.500,20.999 C12.224,20.999 12.000,20.775 12.000,20.499 L12.000,7.743 L6.881,12.862 C6.675,13.067 6.342,13.067 6.137,12.862 C5.932,12.657 5.932,12.324 6.137,12.118 L12.086,6.169 Z" class="cls-1"/>
</svg>
