<svg xmlns="http://www.w3.org/2000/svg" xmlns:xlink="http://www.w3.org/1999/xlink" preserveAspectRatio="xMidYMid" width="19" height="25" viewBox="0 0 19 25">
  <defs>
    <style>
      .cls-1 {
        fill: #3c4042;
        fill-rule: evenodd;
      }
    </style>
  </defs>
  <path d="M15.833,22.999 L14.000,22.999 L14.000,24.997 L13.000,24.997 L13.000,22.999 L6.000,22.999 L6.000,24.997 L5.000,24.997 L5.000,22.999 L3.167,22.999 C1.418,22.999 -0.000,21.592 -0.000,19.857 L-0.000,5.142 C-0.000,3.406 1.418,2.000 3.167,2.000 L5.000,2.000 L5.000,2.998 L14.000,2.998 L14.000,2.000 L15.833,2.000 C17.582,2.000 19.000,3.406 19.000,5.142 L19.000,19.857 C19.000,21.592 17.582,22.999 15.833,22.999 ZM18.000,5.142 C18.000,3.960 17.028,2.999 15.833,2.999 L3.167,2.999 C1.972,2.999 1.000,3.960 1.000,5.142 L1.000,19.857 C1.000,21.039 1.972,21.999 3.167,21.999 L5.000,21.999 L5.000,21.998 L6.000,21.998 L6.000,21.999 L13.000,21.999 L13.000,21.998 L14.000,21.998 L14.000,21.999 L15.833,21.999 C17.028,21.999 18.000,21.039 18.000,19.857 L18.000,5.142 ZM5.000,15.998 L14.000,15.998 L14.000,16.998 L5.000,16.998 L5.000,15.998 ZM5.000,11.998 L14.000,11.998 L14.000,12.998 L5.000,12.998 L5.000,11.998 ZM5.000,7.998 L14.000,7.998 L14.000,8.999 L5.000,8.999 L5.000,7.998 ZM6.000,-0.002 L13.000,-0.002 L13.000,0.998 L6.000,0.998 L6.000,-0.002 Z" class="cls-1"/>
</svg>
