<svg xmlns="http://www.w3.org/2000/svg" xmlns:xlink="http://www.w3.org/1999/xlink" preserveAspectRatio="xMidYMid" width="25" height="22" viewBox="0 0 25 22">
  <defs>
    <style>
      .cls-1 {
        fill: #3c4042;
        fill-rule: evenodd;
      }
    </style>
  </defs>
  <path d="M21.875,21.999 L3.125,21.999 C1.399,21.999 -0.000,20.592 -0.000,18.856 L-0.000,10.999 L-0.000,4.714 L-0.000,3.143 C-0.000,1.407 1.399,-0.001 3.125,-0.001 L21.875,-0.001 C23.600,-0.001 25.000,1.407 25.000,3.143 L25.000,4.714 L25.000,10.999 L25.000,18.856 C25.000,20.592 23.600,21.999 21.875,21.999 ZM24.000,10.999 L24.000,4.714 L24.000,3.143 C24.000,1.960 23.047,0.999 21.875,0.999 L3.125,0.999 C1.953,0.999 1.000,1.960 1.000,3.143 L1.000,4.714 L1.000,4.999 L24.000,4.999 L24.000,5.999 L1.000,5.999 L1.000,8.999 L24.000,8.999 L24.000,9.999 L1.000,9.999 L1.000,10.999 L1.000,11.999 L1.000,18.856 L1.000,18.999 C1.000,20.104 1.895,20.999 3.000,20.999 L3.125,20.999 L21.875,20.999 L22.000,20.999 C23.104,20.999 24.000,20.104 24.000,18.999 L24.000,18.856 C24.000,18.856 24.000,18.856 24.000,18.856 L24.000,10.999 ZM11.000,15.998 L16.000,15.998 L16.000,16.999 L11.000,16.999 L11.000,15.998 ZM3.000,15.998 L9.000,15.998 L9.000,16.999 L3.000,16.999 L3.000,15.998 Z" class="cls-1"/>
</svg>
