<svg xmlns="http://www.w3.org/2000/svg" xmlns:xlink="http://www.w3.org/1999/xlink" preserveAspectRatio="xMidYMid" width="25" height="25" viewBox="0 0 25 25">
  <defs>
    <style>
      .cls-1 {
        fill: #3c4042;
        fill-rule: evenodd;
      }
    </style>
  </defs>
  <path d="M4.583,3.249 L20.416,3.249 C21.291,3.249 22.000,3.957 22.000,4.833 L22.000,20.665 C22.000,21.540 21.291,22.249 20.416,22.249 L4.583,22.249 C3.709,22.249 3.000,21.540 3.000,20.665 L3.000,4.833 C3.000,3.957 3.709,3.249 4.583,3.249 ZM4.000,20.398 C4.000,20.869 4.380,21.249 4.850,21.249 L20.150,21.249 C20.619,21.249 21.000,20.869 21.000,20.398 L21.000,5.099 C21.000,4.629 20.619,4.249 20.150,4.249 L4.850,4.249 C4.380,4.249 4.000,4.629 4.000,5.099 L4.000,20.398 ZM12.500,6.249 C16.090,6.249 19.000,9.159 19.000,12.749 C19.000,16.338 16.090,19.249 12.500,19.249 C8.910,19.249 6.000,16.338 6.000,12.749 C6.000,9.159 8.910,6.249 12.500,6.249 ZM12.500,18.249 C15.537,18.249 18.000,15.786 18.000,12.749 C18.000,9.711 15.537,7.249 12.500,7.249 C9.462,7.249 7.000,9.711 7.000,12.749 C7.000,15.786 9.462,18.249 12.500,18.249 ZM21.875,25.000 L3.125,25.000 C1.399,25.000 -0.000,23.601 -0.000,21.875 L-0.000,17.249 L1.000,17.249 L1.000,21.875 C1.000,23.046 1.953,24.000 3.125,24.000 L21.875,24.000 C23.047,24.000 24.000,23.046 24.000,21.875 L24.000,3.125 C24.000,1.953 23.047,0.999 21.875,0.999 L3.125,0.999 C1.953,0.999 1.000,1.953 1.000,3.125 L1.000,8.249 L-0.000,8.249 L-0.000,3.125 C-0.000,1.399 1.399,-0.000 3.125,-0.000 L21.875,-0.000 C23.601,-0.000 25.000,1.399 25.000,3.125 L25.000,21.875 C25.000,23.601 23.601,25.000 21.875,25.000 ZM1.000,14.249 L-0.000,14.249 L-0.000,11.249 L1.000,11.249 L1.000,14.249 Z" class="cls-1"/>
</svg>
