<svg xmlns="http://www.w3.org/2000/svg" xmlns:xlink="http://www.w3.org/1999/xlink" preserveAspectRatio="xMidYMid" width="23" height="25" viewBox="0 0 23 25">
  <defs>
    <style>
      .cls-1 {
        fill: #3c4042;
        fill-rule: evenodd;
      }
    </style>
  </defs>
  <path d="M23.000,11.998 L23.000,11.998 L22.000,11.998 L22.000,19.999 L22.000,20.998 L22.000,24.998 L1.000,24.998 L1.000,20.998 L1.000,19.999 L1.000,12.000 L-0.000,12.000 L0.000,11.998 L-0.000,11.998 L-0.000,10.998 L0.334,10.998 L3.000,3.000 L3.000,2.999 L4.000,2.999 L4.000,-0.001 L19.000,-0.001 L19.000,2.999 L19.933,2.998 L19.934,2.999 L20.000,2.999 L20.000,3.193 L22.659,10.998 L23.000,10.998 L23.000,11.998 L23.000,11.998 L23.000,11.998 ZM2.000,23.998 L21.000,23.999 L21.000,20.998 L2.000,20.998 L2.000,23.998 ZM2.000,19.999 L21.000,19.999 L21.000,11.998 L18.400,11.998 L17.049,11.999 L17.042,12.001 L17.041,11.999 L5.958,12.000 L5.958,12.001 L5.954,12.000 L2.000,12.000 L2.000,19.999 ZM12.000,3.999 L12.000,10.999 L16.691,10.999 L14.238,3.999 L12.000,3.999 ZM11.000,10.999 L11.000,3.999 L8.761,3.999 L6.309,11.000 L11.000,10.999 ZM3.721,3.999 L1.388,11.000 L5.238,11.000 L7.691,3.999 L3.721,3.999 ZM18.000,0.998 L5.000,0.998 L5.000,2.999 L8.041,2.999 L8.042,2.997 L8.046,2.999 L11.000,2.999 L12.000,2.999 L14.954,2.999 L14.958,2.997 L14.958,2.999 L15.700,2.999 L18.000,2.999 L18.000,0.998 ZM19.218,3.999 L15.309,3.999 L17.761,10.998 L21.602,10.998 L19.218,3.999 Z" class="cls-1"/>
</svg>
