<svg xmlns="http://www.w3.org/2000/svg" xmlns:xlink="http://www.w3.org/1999/xlink" preserveAspectRatio="xMidYMid" width="21" height="25" viewBox="0 0 21 25">
  <defs>
    <style>
      .cls-1 {
        fill: #3c4042;
        fill-rule: evenodd;
      }
    </style>
  </defs>
  <path d="M21.000,23.999 C21.000,24.551 20.552,24.999 20.000,24.999 L1.000,24.999 C0.447,24.999 -0.000,24.551 -0.000,23.999 L-0.000,8.999 C-0.000,8.900 0.030,8.810 0.056,8.719 C0.023,8.652 -0.000,8.579 -0.000,8.500 L4.000,0.499 C4.000,0.223 4.224,-0.001 4.500,-0.001 L9.000,-0.001 L12.062,-0.003 L12.062,-0.001 L16.500,-0.001 C16.776,-0.001 17.000,0.223 17.000,0.499 L21.000,8.500 C21.000,8.579 20.977,8.652 20.943,8.719 C20.970,8.810 21.000,8.900 21.000,8.999 L21.000,23.999 ZM4.750,0.999 L1.250,7.999 L8.000,7.999 L8.000,7.998 L8.111,7.998 L8.889,0.999 L4.750,0.999 ZM11.000,0.999 L10.000,0.999 L9.000,7.998 L12.000,7.998 L11.000,0.999 ZM12.000,8.997 L9.000,8.997 L9.000,15.997 L12.000,15.997 L12.000,8.997 ZM16.250,0.999 L12.167,0.999 L12.895,7.998 L13.000,7.998 L13.000,7.999 L19.750,7.999 L16.250,0.999 ZM20.000,8.999 L13.000,8.999 L13.000,16.998 L8.000,16.998 L8.000,8.999 L1.000,8.999 L1.000,23.999 L20.000,23.999 L20.000,8.999 Z" class="cls-1"/>
</svg>
