<svg xmlns="http://www.w3.org/2000/svg" xmlns:xlink="http://www.w3.org/1999/xlink" preserveAspectRatio="xMidYMid" width="25" height="25" viewBox="0 0 25 25">
  <defs>
    <style>
      .cls-1 {
        fill: #3c4042;
        fill-rule: evenodd;
      }
    </style>
  </defs>
  <path d="M25.000,8.998 L24.000,8.998 L24.000,24.997 L13.000,24.997 L12.000,24.997 L1.000,24.997 L1.000,8.998 L-0.000,8.998 L-0.000,4.998 L7.778,4.998 C7.300,4.466 7.000,3.770 7.000,2.998 C7.000,1.341 8.343,-0.002 10.000,-0.002 C11.045,-0.002 11.962,0.533 12.500,1.343 C13.037,0.533 13.955,-0.002 15.000,-0.002 C16.657,-0.002 18.000,1.341 18.000,2.998 C18.000,3.770 17.700,4.466 17.221,4.998 L25.000,4.998 L25.000,8.998 ZM13.000,23.997 L23.000,23.997 L23.000,16.998 L13.000,16.998 L13.000,23.997 ZM13.000,15.997 L23.000,15.997 L23.000,8.998 L13.000,8.998 L13.000,15.997 ZM2.000,23.997 L12.000,23.997 L12.000,16.998 L2.000,16.998 L2.000,15.997 L12.000,15.997 L12.000,8.998 L2.000,8.998 L2.000,23.997 ZM10.000,0.997 C8.895,0.997 8.000,1.893 8.000,2.997 C8.000,4.101 8.895,4.996 10.000,4.996 C11.104,4.996 12.000,4.101 12.000,2.997 C12.000,1.893 11.104,0.997 10.000,0.997 ZM12.507,4.639 C12.423,4.767 12.324,4.884 12.221,4.998 L12.778,4.998 C12.678,4.886 12.591,4.764 12.507,4.639 ZM15.000,0.997 C13.895,0.997 13.000,1.893 13.000,2.997 C13.000,4.101 13.895,4.996 15.000,4.996 C16.104,4.996 17.000,4.101 17.000,2.997 C17.000,1.893 16.104,0.997 15.000,0.997 ZM24.000,5.997 L15.004,5.997 C15.002,5.997 15.001,5.997 15.000,5.997 C14.998,5.997 14.997,5.997 14.996,5.997 L10.004,5.997 C10.002,5.997 10.001,5.997 10.000,5.997 C9.998,5.997 9.997,5.997 9.996,5.997 L1.000,5.997 L1.000,7.997 L24.000,7.997 L24.000,5.997 Z" class="cls-1"/>
</svg>
