<svg xmlns="http://www.w3.org/2000/svg" xmlns:xlink="http://www.w3.org/1999/xlink" preserveAspectRatio="xMidYMid" width="17" height="25" viewBox="0 0 17 25">
  <defs>
    <style>
      .cls-1 {
        fill: #3c4042;
        fill-rule: evenodd;
      }
    </style>
  </defs>
  <path d="M15.454,24.999 L1.545,24.999 C0.692,24.999 -0.000,24.294 -0.000,23.422 L-0.000,6.818 L8.500,-0.001 L17.000,6.818 L17.000,23.422 C17.000,24.294 16.307,24.999 15.454,24.999 ZM16.000,7.297 L8.500,1.282 L1.000,7.297 L1.000,23.422 C1.000,23.739 1.244,23.999 1.545,23.999 L15.454,23.999 C15.755,23.999 16.000,23.739 16.000,23.422 L16.000,7.297 ZM8.500,11.997 C6.567,11.997 5.000,10.430 5.000,8.497 C5.000,6.565 6.567,4.997 8.500,4.997 C10.433,4.997 12.000,6.565 12.000,8.497 C12.000,10.430 10.433,11.997 8.500,11.997 ZM8.500,5.996 C7.119,5.996 6.000,7.115 6.000,8.496 C6.000,9.877 7.119,10.996 8.500,10.996 C9.880,10.996 11.000,9.877 11.000,8.496 C11.000,7.115 9.880,5.996 8.500,5.996 ZM7.000,22.997 L6.000,22.997 L6.000,14.997 L7.000,14.997 L7.000,22.997 ZM11.000,22.997 L10.000,22.997 L10.000,14.997 L11.000,14.997 L11.000,22.997 Z" class="cls-1"/>
</svg>
