<svg xmlns="http://www.w3.org/2000/svg" xmlns:xlink="http://www.w3.org/1999/xlink" preserveAspectRatio="xMidYMid" width="19" height="20" viewBox="0 0 19 20">
  <defs>
    <style>
      .cls-1 {
        fill: #3c4042;
        fill-rule: evenodd;
      }
    </style>
  </defs>
  <path d="M18.563,13.498 C18.846,13.971 19.000,14.475 19.000,14.998 C19.000,17.758 14.746,19.998 9.500,19.998 C4.253,19.998 -0.000,17.758 -0.000,14.998 C-0.000,14.475 0.153,13.971 0.436,13.498 C0.153,13.025 -0.000,12.521 -0.000,11.998 C-0.000,11.412 0.201,10.853 0.552,10.331 C0.201,9.757 -0.000,9.141 -0.000,8.497 C-0.000,7.977 0.133,7.475 0.367,6.997 C0.133,6.520 -0.000,6.018 -0.000,5.497 C-0.000,2.461 4.253,-0.002 9.500,-0.002 C14.746,-0.002 19.000,2.461 19.000,5.497 C19.000,6.018 18.866,6.520 18.633,6.997 C18.866,7.475 19.000,7.977 19.000,8.497 C19.000,9.141 18.799,9.757 18.447,10.331 C18.799,10.853 19.000,11.412 19.000,11.998 C19.000,12.521 18.846,13.025 18.563,13.498 ZM9.500,18.997 C14.194,18.997 18.000,17.207 18.000,14.997 C18.000,14.777 17.952,14.563 17.879,14.352 C16.279,15.926 13.128,16.997 9.500,16.997 C5.871,16.997 2.720,15.926 1.120,14.352 C1.047,14.563 1.000,14.777 1.000,14.997 C1.000,17.207 4.805,18.997 9.500,18.997 ZM9.500,15.998 C14.194,15.998 18.000,14.206 18.000,11.998 C18.000,11.711 17.932,11.431 17.810,11.160 C16.189,12.852 13.077,13.997 9.500,13.997 C5.922,13.997 2.810,12.852 1.189,11.160 C1.067,11.431 1.000,11.711 1.000,11.998 C1.000,14.206 4.805,15.998 9.500,15.998 ZM9.500,12.998 C14.194,12.998 18.000,10.983 18.000,8.497 C18.000,8.331 17.980,8.168 17.947,8.007 C16.371,9.781 13.184,10.997 9.500,10.997 C5.816,10.997 2.628,9.781 1.052,8.007 C1.019,8.168 1.000,8.331 1.000,8.497 C1.000,10.983 4.805,12.998 9.500,12.998 ZM9.500,1.007 C4.799,1.007 0.988,3.018 0.988,5.497 C0.988,7.977 4.799,9.987 9.500,9.987 C14.200,9.987 18.011,7.977 18.011,5.497 C18.011,3.018 14.200,1.007 9.500,1.007 Z" class="cls-1"/>
</svg>
