<svg xmlns="http://www.w3.org/2000/svg" xmlns:xlink="http://www.w3.org/1999/xlink" preserveAspectRatio="xMidYMid" width="25" height="25" viewBox="0 0 25 25">
  <defs>
    <style>
      .cls-1 {
        fill: #3c4042;
        fill-rule: evenodd;
      }
    </style>
  </defs>
  <path d="M23.428,14.397 C23.428,15.281 22.725,15.997 21.857,15.997 L4.000,16.000 L4.000,18.997 L23.000,18.997 L23.000,19.997 L3.000,19.997 L3.000,6.998 L3.000,1.597 C3.000,1.385 3.044,1.183 3.118,0.998 L-0.000,0.998 L-0.000,-0.002 L4.569,-0.002 C4.570,-0.002 4.570,-0.003 4.571,-0.003 L23.428,-0.003 C24.296,-0.003 25.000,0.713 25.000,1.597 L23.428,14.397 ZM23.208,0.997 L4.791,0.997 C4.354,0.997 4.000,1.389 4.000,1.872 L4.000,15.000 L21.625,14.996 C22.062,14.996 22.416,14.605 22.416,14.122 L24.000,1.872 C24.000,1.389 23.645,0.997 23.208,0.997 ZM7.500,21.996 C8.328,21.996 9.000,22.668 9.000,23.497 C9.000,24.325 8.328,24.998 7.500,24.998 C6.671,24.998 6.000,24.325 6.000,23.497 C6.000,22.668 6.671,21.996 7.500,21.996 ZM18.499,21.996 C19.328,21.996 20.000,22.668 20.000,23.497 C20.000,24.325 19.328,24.998 18.499,24.998 C17.671,24.998 17.000,24.325 17.000,23.497 C17.000,22.668 17.671,21.996 18.499,21.996 Z" class="cls-1"/>
</svg>
