<svg xmlns="http://www.w3.org/2000/svg" xmlns:xlink="http://www.w3.org/1999/xlink" preserveAspectRatio="xMidYMid" width="25" height="25" viewBox="0 0 25 25">
  <defs>
    <style>
      .cls-1 {
        fill: #3c4042;
        fill-rule: evenodd;
      }
    </style>
  </defs>
  <path d="M12.500,24.997 C5.596,24.997 -0.000,19.401 -0.000,12.498 C-0.000,5.594 5.596,-0.002 12.500,-0.002 C19.403,-0.002 25.000,5.594 25.000,12.498 C25.000,19.401 19.403,24.997 12.500,24.997 ZM12.500,0.998 C6.148,0.998 1.000,6.146 1.000,12.498 C1.000,18.848 6.148,23.997 12.500,23.997 C18.851,23.997 24.000,18.848 24.000,12.498 C24.000,6.146 18.851,0.998 12.500,0.998 ZM13.000,16.997 C14.630,16.997 16.064,16.205 16.977,14.997 L18.167,14.997 C17.128,16.783 15.215,17.998 13.000,17.998 C10.392,17.998 8.195,16.323 7.368,13.999 L5.500,13.999 C5.224,13.999 5.000,13.776 5.000,13.499 C5.000,13.223 5.224,12.999 5.500,12.999 L7.101,12.999 C7.045,12.672 7.000,12.341 7.000,11.998 C7.000,11.656 7.045,11.326 7.100,10.999 L5.500,10.999 C5.224,10.999 5.000,10.775 5.000,10.499 C5.000,10.222 5.224,9.999 5.500,9.999 L7.367,9.999 C8.193,7.673 10.390,5.998 13.000,5.998 C14.769,5.998 16.344,6.779 17.442,7.997 L16.000,7.997 L16.000,8.020 C15.162,7.387 14.131,6.997 13.000,6.997 C10.950,6.997 9.192,8.234 8.421,9.999 L12.500,9.999 C12.776,9.999 13.000,10.222 13.000,10.499 C13.000,10.775 12.776,10.999 12.500,10.999 L8.100,10.999 C8.035,11.322 8.000,11.655 8.000,11.997 C8.000,12.340 8.035,12.676 8.101,12.999 L12.500,12.999 C12.776,12.999 13.000,13.223 13.000,13.499 C13.000,13.776 12.776,13.999 12.500,13.999 L8.423,13.999 C9.195,15.763 10.951,16.997 13.000,16.997 Z" class="cls-1"/>
</svg>
