<svg xmlns="http://www.w3.org/2000/svg" xmlns:xlink="http://www.w3.org/1999/xlink" preserveAspectRatio="xMidYMid" width="25" height="25" viewBox="0 0 25 25">
  <defs>
    <style>
      .cls-1 {
        fill: #3c4042;
        fill-rule: evenodd;
      }
    </style>
  </defs>
  <path d="M12.500,24.997 C5.596,24.997 -0.000,19.401 -0.000,12.498 C-0.000,5.594 5.596,-0.002 12.500,-0.002 C19.403,-0.002 25.000,5.594 25.000,12.498 C25.000,19.401 19.403,24.997 12.500,24.997 ZM12.500,0.998 C6.148,0.998 1.000,6.146 1.000,12.498 C1.000,18.848 6.148,23.997 12.500,23.997 C18.851,23.997 24.000,18.848 24.000,12.498 C24.000,6.146 18.851,0.998 12.500,0.998 ZM15.992,15.223 C15.992,16.641 15.128,18.301 12.504,18.473 L12.504,20.012 L11.740,20.012 L11.740,18.473 C10.063,18.387 8.800,17.661 8.003,16.658 L8.618,15.914 C9.282,16.710 10.328,17.471 11.740,17.574 L11.740,12.734 C10.046,12.233 8.352,11.679 8.352,9.640 C8.352,7.842 9.847,6.667 11.740,6.580 L11.740,5.007 L12.504,5.007 L12.504,6.580 C13.899,6.701 14.979,7.289 15.743,8.188 L15.112,8.913 C14.431,8.067 13.517,7.617 12.504,7.497 L12.504,11.852 C14.215,12.353 15.992,13.011 15.992,15.223 ZM12.504,17.574 C14.414,17.419 14.995,16.226 14.995,15.293 C14.995,13.892 13.849,13.373 12.504,12.959 L12.504,17.574 ZM11.740,7.478 C10.362,7.548 9.348,8.412 9.348,9.588 C9.348,10.798 10.445,11.247 11.740,11.628 L11.740,7.478 Z" class="cls-1"/>
</svg>
