<svg xmlns="http://www.w3.org/2000/svg" xmlns:xlink="http://www.w3.org/1999/xlink" preserveAspectRatio="xMidYMid" width="25" height="25" viewBox="0 0 25 25">
  <defs>
    <style>
      .cls-1 {
        fill: #3c4042;
        fill-rule: evenodd;
      }
    </style>
  </defs>
  <path d="M23.437,24.999 L1.562,24.999 C0.699,24.999 -0.000,24.290 -0.000,23.417 L-0.000,8.004 L-0.000,8.004 L-0.000,2.991 L0.004,2.991 L0.004,2.767 C0.004,1.237 1.133,-0.004 2.526,-0.004 L17.473,-0.004 C18.866,-0.004 19.996,1.237 19.996,2.767 L19.996,5.231 C19.996,5.237 19.995,5.242 19.995,5.248 L19.995,5.999 L23.437,5.999 C24.301,5.999 25.000,6.709 25.000,7.583 L25.000,23.417 C25.000,24.290 24.301,24.999 23.437,24.999 ZM19.000,3.987 L18.996,3.987 L18.996,2.767 C18.996,1.790 18.312,0.995 17.473,0.995 L2.526,0.995 C1.686,0.995 1.004,1.790 1.004,2.767 L1.004,3.987 L1.000,3.987 L1.000,5.987 L1.162,5.987 C1.174,6.017 1.196,6.042 1.210,6.071 C1.326,6.043 1.437,5.999 1.562,5.999 L18.830,5.999 C18.832,5.995 18.836,5.991 18.838,5.987 L19.000,5.987 L19.000,3.987 ZM24.000,7.583 C24.000,7.262 23.748,7.000 23.437,7.000 L3.000,7.000 L1.562,7.000 L1.000,7.000 L1.000,7.583 L1.000,8.999 L1.000,23.417 C1.000,23.737 1.252,23.999 1.562,23.999 L23.437,23.999 C23.748,23.999 24.000,23.737 24.000,23.417 L24.000,7.583 ZM19.487,16.985 C18.106,16.985 16.987,15.865 16.987,14.484 C16.987,13.103 18.106,11.985 19.487,11.985 C20.867,11.985 21.987,13.103 21.987,14.484 C21.987,15.865 20.867,16.985 19.487,16.985 ZM19.500,12.999 C18.671,12.999 18.000,13.671 18.000,14.499 C18.000,15.328 18.671,15.999 19.500,15.999 C20.328,15.999 21.000,15.328 21.000,14.499 C21.000,13.671 20.328,12.999 19.500,12.999 Z" class="cls-1"/>
</svg>
