<svg xmlns="http://www.w3.org/2000/svg" xmlns:xlink="http://www.w3.org/1999/xlink" preserveAspectRatio="xMidYMid" width="17" height="25" viewBox="0 0 17 25">
  <defs>
    <style>
      .cls-1 {
        fill: #3c4042;
        fill-rule: evenodd;
      }
    </style>
  </defs>
  <path d="M15.454,24.999 L1.545,24.999 C0.692,24.999 -0.000,24.294 -0.000,23.422 L-0.000,6.818 L8.500,-0.000 L17.000,6.818 L17.000,23.422 C17.000,24.294 16.308,24.999 15.454,24.999 ZM16.000,7.297 L8.500,1.281 L1.000,7.297 L1.000,18.998 L16.000,18.998 L16.000,19.997 L1.000,19.997 L1.000,23.422 C1.000,23.740 1.244,23.999 1.545,23.999 L15.454,23.999 C15.755,23.999 16.000,23.740 16.000,23.422 L16.000,7.297 ZM8.500,12.997 C6.567,12.997 5.000,11.431 5.000,9.496 C5.000,7.564 6.567,5.997 8.500,5.997 C10.433,5.997 12.000,7.564 12.000,9.496 C12.000,11.431 10.433,12.997 8.500,12.997 ZM8.500,6.995 C7.119,6.995 6.000,8.115 6.000,9.496 C6.000,10.877 7.119,11.996 8.500,11.996 C9.880,11.996 11.000,10.877 11.000,9.496 C11.000,8.115 9.880,6.995 8.500,6.995 Z" class="cls-1"/>
</svg>
