<svg xmlns="http://www.w3.org/2000/svg" xmlns:xlink="http://www.w3.org/1999/xlink" preserveAspectRatio="xMidYMid" width="19" height="25" viewBox="0 0 19 25">
  <defs>
    <style>
      .cls-1 {
        fill: #3c4042;
        fill-rule: evenodd;
      }
    </style>
  </defs>
  <path d="M19.000,19.500 C19.000,19.500 19.000,19.500 19.000,19.500 L19.000,23.426 C19.000,24.294 18.291,24.997 17.416,24.997 L1.583,24.997 C0.709,24.997 -0.000,24.294 -0.000,23.426 L-0.000,4.568 C-0.000,3.700 0.709,2.997 1.583,2.997 L5.149,2.997 C5.606,1.304 7.164,-0.001 9.000,-0.001 L10.000,-0.001 C11.835,-0.001 13.394,1.304 13.851,2.997 L17.416,2.997 C18.291,2.997 19.000,3.700 19.000,4.568 L19.000,19.499 C19.000,19.499 19.000,19.499 19.000,19.500 ZM1.840,23.998 L17.160,23.998 C17.630,23.998 18.011,23.624 18.011,23.164 L18.011,19.999 L0.989,19.999 L0.989,23.164 C0.989,23.624 1.370,23.998 1.840,23.998 ZM10.000,0.999 L9.000,0.999 C7.932,0.999 6.631,1.673 6.177,2.997 L12.822,2.997 C12.369,1.673 11.067,0.999 10.000,0.999 ZM17.160,3.996 L14.000,3.996 C14.000,3.998 14.000,3.998 14.000,3.999 L14.000,8.999 L13.000,8.999 L13.000,3.999 C13.000,3.998 13.000,3.998 13.000,3.996 L6.000,3.996 C6.000,3.998 6.000,3.998 6.000,3.999 L6.000,8.999 L5.000,8.999 L5.000,3.999 C5.000,3.998 5.000,3.998 5.000,3.996 L1.840,3.996 C1.370,3.996 0.989,4.370 0.989,4.831 L0.989,18.999 L18.011,18.999 L18.011,4.831 C18.011,4.370 17.630,3.996 17.160,3.996 Z" class="cls-1"/>
</svg>
