<svg xmlns="http://www.w3.org/2000/svg" xmlns:xlink="http://www.w3.org/1999/xlink" preserveAspectRatio="xMidYMid" width="22" height="25" viewBox="0 0 22 25">
  <defs>
    <style>
      .cls-1 {
        fill: #3c4042;
        fill-rule: evenodd;
      }
    </style>
  </defs>
  <path d="M-0.000,25.000 L-0.000,-0.001 L1.000,0.001 L4.569,3.999 L8.000,0.001 L10.979,3.999 L14.000,0.001 L17.282,3.999 L21.000,0.001 L22.000,-0.001 L22.000,25.000 L-0.000,25.000 ZM21.000,1.421 L17.992,4.704 L17.181,5.521 L16.486,4.604 L14.002,1.658 L11.777,4.603 L10.974,5.666 L10.177,4.597 L7.974,1.640 L5.352,4.622 L4.638,5.520 L3.846,4.690 L1.000,1.448 L1.000,24.000 L21.000,24.000 L21.000,1.421 ZM10.740,19.574 L10.740,14.734 C9.046,14.233 7.352,13.680 7.352,11.640 C7.352,9.842 8.847,8.666 10.740,8.580 L10.740,7.007 L11.504,7.007 L11.504,8.580 C12.899,8.701 13.979,9.289 14.743,10.187 L14.112,10.914 C13.431,10.067 12.517,9.617 11.504,9.496 L11.504,13.852 C13.215,14.354 14.992,15.011 14.992,17.223 C14.992,18.641 14.128,20.300 11.504,20.473 L11.504,22.012 L10.740,22.012 L10.740,20.473 C9.063,20.387 7.800,19.660 7.003,18.658 L7.618,17.914 C8.282,18.710 9.328,19.470 10.740,19.574 ZM10.740,9.479 C9.362,9.548 8.348,10.412 8.348,11.588 C8.348,12.798 9.445,13.247 10.740,13.628 L10.740,9.479 ZM11.504,19.574 C13.414,19.419 13.996,18.226 13.996,17.292 C13.996,15.892 12.849,15.373 11.504,14.959 L11.504,19.574 Z" class="cls-1"/>
</svg>
