<svg xmlns="http://www.w3.org/2000/svg" xmlns:xlink="http://www.w3.org/1999/xlink" preserveAspectRatio="xMidYMid" width="19" height="25" viewBox="0 0 19 25">
  <defs>
    <style>
      .cls-1 {
        fill: #3c4042;
        fill-rule: evenodd;
      }
    </style>
  </defs>
  <path d="M19.000,19.500 L19.000,19.500 L19.000,23.426 C19.000,24.294 18.291,24.997 17.416,24.997 L1.583,24.997 C0.709,24.997 -0.000,24.294 -0.000,23.426 L-0.000,6.568 C-0.000,5.700 0.709,4.998 1.583,4.998 L5.000,4.998 L5.000,3.999 C5.000,1.842 6.814,-0.001 9.000,-0.001 L10.000,-0.001 C12.186,-0.001 14.000,1.842 14.000,3.999 L14.000,4.998 L17.416,4.998 C18.291,4.998 19.000,5.700 19.000,6.568 L19.000,19.499 C19.000,19.499 19.000,19.499 19.000,19.500 ZM1.840,23.998 L17.160,23.998 C17.630,23.998 18.011,23.624 18.011,23.164 L18.011,19.999 L0.988,19.999 L0.988,23.164 C0.988,23.624 1.370,23.998 1.840,23.998 ZM13.000,3.999 C13.000,1.999 11.312,0.999 10.000,0.999 L9.000,0.999 C7.688,0.999 6.000,1.999 6.000,3.999 L6.000,4.998 L13.000,4.998 L13.000,3.999 ZM17.160,5.996 L14.000,5.996 L14.000,8.999 L13.000,8.999 L13.000,5.996 L6.000,5.996 L6.000,8.999 L5.000,8.999 L5.000,5.996 L1.840,5.996 C1.370,5.996 0.988,6.370 0.988,6.831 L0.988,18.999 L18.011,18.999 L18.011,6.831 C18.011,6.370 17.630,5.996 17.160,5.996 Z" class="cls-1"/>
</svg>
