<svg xmlns="http://www.w3.org/2000/svg" xmlns:xlink="http://www.w3.org/1999/xlink" preserveAspectRatio="xMidYMid" width="19" height="25" viewBox="0 0 19 25">
  <defs>
    <style>
      .cls-1 {
        fill: #3c4042;
        fill-rule: evenodd;
      }
    </style>
  </defs>
  <path d="M9.500,24.998 C4.253,24.998 -0.000,20.744 -0.000,15.498 C-0.000,12.396 1.493,9.651 3.792,7.917 L3.910,9.105 C2.130,10.663 1.000,12.946 1.000,15.498 C1.000,20.192 4.805,23.998 9.500,23.998 C14.194,23.998 18.000,20.192 18.000,15.498 C18.000,12.946 16.870,10.663 15.089,9.105 L15.208,7.917 C17.507,9.651 19.000,12.397 19.000,15.498 C19.000,20.744 14.746,24.998 9.500,24.998 ZM11.000,10.000 L8.000,10.000 L4.000,3.999 L4.000,0.999 L6.000,-0.001 L13.000,-0.001 L15.000,0.999 L14.969,3.905 L11.000,10.000 ZM8.535,8.999 L10.458,8.999 L13.714,3.998 L5.201,3.998 L8.535,8.999 ZM12.764,0.999 L6.236,0.999 L5.000,1.617 L5.000,2.999 L13.978,2.999 L13.993,1.614 L12.764,0.999 Z" class="cls-1"/>
</svg>
