<svg xmlns="http://www.w3.org/2000/svg" xmlns:xlink="http://www.w3.org/1999/xlink" preserveAspectRatio="xMidYMid" width="25" height="25" viewBox="0 0 25 25">
  <defs>
    <style>
      .cls-1 {
        fill: #3c4042;
        fill-rule: evenodd;
      }
    </style>
  </defs>
  <path d="M12.500,24.997 C5.596,24.997 -0.000,19.401 -0.000,12.498 C-0.000,5.594 5.596,-0.002 12.500,-0.002 C19.403,-0.002 25.000,5.594 25.000,12.498 C25.000,19.401 19.403,24.997 12.500,24.997 ZM12.500,0.998 C6.148,0.998 1.000,6.146 1.000,12.498 C1.000,18.848 6.148,23.997 12.500,23.997 C18.851,23.997 24.000,18.848 24.000,12.498 C24.000,6.146 18.851,0.998 12.500,0.998 ZM14.311,16.801 C15.015,16.801 15.623,16.452 15.831,16.166 L16.407,17.230 C15.959,17.658 15.255,17.976 14.247,17.976 C12.807,17.976 12.582,17.245 11.382,17.245 C10.838,17.245 10.166,17.531 9.494,17.881 L9.030,16.882 C10.390,16.294 11.142,15.420 11.142,14.469 C11.142,14.119 11.046,13.802 10.902,13.516 L8.598,13.516 L8.598,12.659 L10.278,12.659 C9.702,11.992 9.046,11.309 9.046,10.151 C9.046,8.390 10.694,7.024 12.631,7.024 C14.087,7.024 15.271,7.675 15.863,8.802 L14.791,9.437 C14.519,8.754 13.735,8.135 12.759,8.135 C11.542,8.135 10.486,8.897 10.486,10.167 C10.486,11.325 11.222,11.929 11.766,12.659 L14.167,12.659 L14.167,13.516 L12.215,13.516 C12.278,13.722 12.326,13.945 12.326,14.198 C12.326,15.167 11.766,15.833 11.110,16.294 C11.350,16.214 11.654,16.150 11.942,16.150 C12.967,16.150 13.415,16.801 14.311,16.801 Z" class="cls-1"/>
</svg>
