<svg xmlns="http://www.w3.org/2000/svg" xmlns:xlink="http://www.w3.org/1999/xlink" preserveAspectRatio="xMidYMid" width="23" height="21" viewBox="0 0 23 21">
  <defs>
    <style>
      .cls-1 {
        fill: #3c4042;
        fill-rule: evenodd;
      }
    </style>
  </defs>
  <path d="M22.499,15.999 L11.484,15.999 C11.208,15.999 10.983,15.775 10.983,15.499 C10.983,15.223 11.208,14.998 11.484,14.998 L22.499,14.998 C22.776,14.998 23.000,15.223 23.000,15.499 C23.000,15.775 22.776,15.999 22.499,15.999 ZM22.499,10.999 L11.484,10.999 C11.208,10.999 10.983,10.775 10.983,10.499 C10.983,10.223 11.208,10.000 11.484,10.000 L22.499,10.000 C22.776,10.000 23.000,10.223 23.000,10.499 C23.000,10.775 22.776,10.999 22.499,10.999 ZM22.499,5.999 L16.491,5.999 C16.214,5.999 15.990,5.775 15.990,5.499 C15.990,5.223 16.214,4.999 16.491,4.999 L22.499,4.999 C22.776,4.999 23.000,5.223 23.000,5.499 C23.000,5.775 22.776,5.999 22.499,5.999 ZM22.499,0.999 L12.486,0.999 C12.209,0.999 11.985,0.775 11.985,0.499 C11.985,0.223 12.209,-0.001 12.486,-0.001 L22.499,-0.001 C22.776,-0.001 23.000,0.223 23.000,0.499 C23.000,0.775 22.776,0.999 22.499,0.999 ZM12.816,6.862 C12.610,7.067 12.277,7.067 12.071,6.862 L6.978,1.776 L6.978,20.499 C6.978,20.775 6.754,20.999 6.477,20.999 C6.201,20.999 5.977,20.775 5.977,20.499 L5.977,1.776 L0.884,6.862 C0.678,7.067 0.344,7.067 0.139,6.862 C-0.067,6.656 -0.067,6.324 0.139,6.118 L6.096,0.169 C6.102,0.163 6.110,0.161 6.117,0.155 C6.208,0.060 6.335,-0.001 6.477,-0.001 C6.620,-0.001 6.747,0.060 6.838,0.155 C6.844,0.161 6.853,0.163 6.859,0.169 L12.816,6.118 C13.021,6.324 13.021,6.656 12.816,6.862 ZM11.484,19.999 L22.499,19.999 C22.776,19.999 23.000,20.223 23.000,20.499 C23.000,20.775 22.776,20.999 22.499,20.999 L11.484,20.999 C11.208,20.999 10.983,20.775 10.983,20.499 C10.983,20.223 11.208,19.999 11.484,19.999 Z" class="cls-1"/>
</svg>
