<svg xmlns="http://www.w3.org/2000/svg" xmlns:xlink="http://www.w3.org/1999/xlink" preserveAspectRatio="xMidYMid" width="22" height="19" viewBox="0 0 22 19">
  <defs>
    <style>
      .cls-1 {
        fill: #3c4042;
        fill-rule: evenodd;
      }
    </style>
  </defs>
  <path d="M21.500,0.999 L0.500,0.999 C0.224,0.999 -0.000,0.775 -0.000,0.499 C-0.000,0.223 0.224,-0.001 0.500,-0.001 L21.500,-0.001 C21.776,-0.001 22.000,0.223 22.000,0.499 C22.000,0.775 21.776,0.999 21.500,0.999 ZM0.500,5.999 L14.500,5.999 C14.776,5.999 15.000,6.223 15.000,6.499 C15.000,6.775 14.776,6.999 14.500,6.999 L0.500,6.999 C0.224,6.999 -0.000,6.775 -0.000,6.499 C-0.000,6.223 0.224,5.999 0.500,5.999 ZM0.500,11.999 L21.500,11.999 C21.776,11.999 22.000,12.223 22.000,12.499 C22.000,12.776 21.776,12.999 21.500,12.999 L0.500,12.999 C0.224,12.999 -0.000,12.776 -0.000,12.499 C-0.000,12.223 0.224,11.999 0.500,11.999 ZM0.500,18.000 L12.500,18.000 C12.776,18.000 13.000,18.223 13.000,18.499 C13.000,18.775 12.776,18.999 12.500,18.999 L0.500,18.999 C0.224,18.999 -0.000,18.775 -0.000,18.499 C-0.000,18.223 0.224,18.000 0.500,18.000 Z" class="cls-1"/>
</svg>
