<svg xmlns="http://www.w3.org/2000/svg" xmlns:xlink="http://www.w3.org/1999/xlink" preserveAspectRatio="xMidYMid" width="25" height="24" viewBox="0 0 25 24">
  <defs>
    <style>
      .cls-1 {
        fill: #3c4042;
        fill-rule: evenodd;
      }
    </style>
  </defs>
  <path d="M11.000,23.998 L11.000,22.998 L25.000,22.998 L25.000,23.998 L11.000,23.998 ZM1.565,24.012 L0.009,17.670 L0.166,17.397 L0.166,17.397 L0.667,16.526 L0.667,16.526 L7.178,5.209 L7.178,5.209 L7.679,4.338 L7.679,4.338 L10.183,-0.013 L17.991,4.510 L7.816,22.193 L1.565,24.012 ZM2.288,22.755 L7.033,21.375 L1.107,17.942 L2.288,22.755 ZM16.622,4.878 L10.549,1.359 L8.547,4.840 L14.619,8.359 L16.622,4.878 ZM8.046,5.711 L1.534,17.029 L7.607,20.547 L14.118,9.230 L8.046,5.711 Z" class="cls-1"/>
</svg>
