<svg xmlns="http://www.w3.org/2000/svg" xmlns:xlink="http://www.w3.org/1999/xlink" preserveAspectRatio="xMidYMid" width="22" height="19" viewBox="0 0 22 19">
  <defs>
    <style>
      .cls-1 {
        fill: #3c4042;
        fill-rule: evenodd;
      }
    </style>
  </defs>
  <path d="M21.500,12.999 L0.500,12.999 C0.224,12.999 -0.000,12.776 -0.000,12.499 C-0.000,12.223 0.224,11.999 0.500,11.999 L21.500,11.999 C21.776,11.999 22.000,12.223 22.000,12.499 C22.000,12.776 21.776,12.999 21.500,12.999 ZM21.500,6.999 L7.500,6.999 C7.224,6.999 7.000,6.775 7.000,6.499 C7.000,6.223 7.224,5.999 7.500,5.999 L21.500,5.999 C21.776,5.999 22.000,6.223 22.000,6.499 C22.000,6.775 21.776,6.999 21.500,6.999 ZM21.500,0.999 L0.500,0.999 C0.224,0.999 -0.000,0.775 -0.000,0.499 C-0.000,0.223 0.224,-0.001 0.500,-0.001 L21.500,-0.001 C21.776,-0.001 22.000,0.223 22.000,0.499 C22.000,0.775 21.776,0.999 21.500,0.999 ZM9.500,18.000 L21.500,18.000 C21.776,18.000 22.000,18.223 22.000,18.499 C22.000,18.775 21.776,18.999 21.500,18.999 L9.500,18.999 C9.224,18.999 9.000,18.775 9.000,18.499 C9.000,18.223 9.224,18.000 9.500,18.000 Z" class="cls-1"/>
</svg>
