<svg xmlns="http://www.w3.org/2000/svg" xmlns:xlink="http://www.w3.org/1999/xlink" preserveAspectRatio="xMidYMid" width="17" height="25" viewBox="0 0 17 25">
  <defs>
    <style>
      .cls-1 {
        fill: #3c4042;
        fill-rule: evenodd;
      }
    </style>
  </defs>
  <path d="M16.502,5.893 L9.801,17.188 L9.801,17.188 L7.285,21.427 L1.402,24.990 L-0.012,24.195 L0.227,17.463 L1.517,15.276 C1.527,15.259 1.529,15.245 1.539,15.229 L8.367,3.719 L8.367,3.719 L8.876,2.861 L8.877,2.861 L9.434,1.922 C10.532,0.070 13.006,-0.544 14.958,0.553 C16.909,1.650 17.601,4.041 16.502,5.893 ZM1.110,17.958 L1.210,23.737 L6.403,20.932 L6.912,20.073 L1.619,17.100 L1.110,17.958 ZM9.260,4.221 L3.657,13.665 L3.653,13.663 L2.125,16.239 L7.413,19.209 L8.909,16.687 L8.918,16.692 L14.553,7.195 L9.260,4.221 ZM14.453,1.415 C12.991,0.595 11.122,1.082 10.278,2.505 L9.769,3.362 L15.062,6.336 L15.572,5.478 C16.416,4.055 15.915,2.237 14.453,1.415 Z" class="cls-1"/>
</svg>
