<svg xmlns="http://www.w3.org/2000/svg" xmlns:xlink="http://www.w3.org/1999/xlink" preserveAspectRatio="xMidYMid" width="14" height="25" viewBox="0 0 14 25">
  <defs>
    <style>
      .cls-1 {
        fill: #3c4042;
        fill-rule: evenodd;
      }
    </style>
  </defs>
  <path d="M12.444,0.999 C12.751,0.999 13.000,1.251 13.000,1.562 L13.000,23.437 C13.000,23.643 12.889,23.823 12.725,23.923 L7.652,19.554 L7.000,18.993 L6.348,19.554 L1.274,23.923 C1.110,23.823 1.000,23.643 1.000,23.437 L1.000,1.562 C1.000,1.251 1.249,0.999 1.556,0.999 L12.444,0.999 M12.444,-0.001 L1.556,-0.001 C0.696,-0.001 -0.000,0.699 -0.000,1.562 L-0.000,23.437 C-0.000,24.299 0.696,24.999 1.556,24.999 L7.000,20.312 L12.444,24.999 C13.303,24.999 14.000,24.299 14.000,23.437 L14.000,1.562 C14.000,0.699 13.303,-0.001 12.444,-0.001 L12.444,-0.001 Z" class="cls-1"/>
</svg>
