<svg xmlns="http://www.w3.org/2000/svg" xmlns:xlink="http://www.w3.org/1999/xlink" preserveAspectRatio="xMidYMid" width="8" height="25" viewBox="0 0 8 25">
  <defs>
    <style>
      .cls-1 {
        fill: #3c4042;
        fill-rule: evenodd;
      }
    </style>
  </defs>
  <path d="M4.795,24.999 L3.193,24.999 L-0.000,18.999 L-0.006,16.455 C-0.007,16.437 -0.012,16.424 -0.012,16.404 L-0.012,5.998 L-0.012,4.999 L-0.012,3.904 C-0.012,1.748 1.782,-0.002 3.994,-0.002 C6.206,-0.002 8.000,1.748 8.000,3.904 L8.000,4.999 L8.000,5.998 L8.000,14.062 L8.000,18.999 L4.795,24.999 ZM7.000,3.999 C7.000,2.342 5.657,0.999 4.000,0.999 C2.343,0.999 1.000,2.342 1.000,3.999 L1.000,4.999 L7.000,4.999 L7.000,3.999 ZM7.000,5.998 L1.000,5.998 L1.000,13.998 L0.996,13.998 L0.996,16.999 L6.989,16.999 L6.989,14.062 L7.000,14.062 L7.000,5.998 ZM7.000,17.999 L1.000,17.999 L1.000,18.999 L4.000,23.999 L7.000,18.999 L7.000,17.999 Z" class="cls-1"/>
</svg>
