<svg xmlns="http://www.w3.org/2000/svg" xmlns:xlink="http://www.w3.org/1999/xlink" preserveAspectRatio="xMidYMid" width="22" height="20" viewBox="0 0 22 20">
  <defs>
    <style>
      .cls-1 {
        fill: #3c4042;
        fill-rule: evenodd;
      }
    </style>
  </defs>
  <path d="M12.000,19.998 C9.204,19.998 6.679,18.849 4.865,16.999 L6.349,16.999 C7.894,18.248 9.859,18.999 12.000,18.999 C16.970,18.999 21.000,14.970 21.000,9.999 C21.000,5.028 16.970,0.998 12.000,0.998 C8.082,0.998 4.759,3.506 3.523,7.000 L6.000,7.000 L3.000,11.999 L-0.000,7.000 L2.459,7.000 C3.733,2.943 7.522,-0.001 12.000,-0.001 C17.522,-0.001 22.000,4.476 22.000,9.999 C22.000,15.522 17.522,19.998 12.000,19.998 Z" class="cls-1"/>
</svg>
