<svg xmlns="http://www.w3.org/2000/svg" xmlns:xlink="http://www.w3.org/1999/xlink" preserveAspectRatio="xMidYMid" width="23" height="24" viewBox="0 0 23 24">
  <defs>
    <style>
      .cls-1 {
        fill: #3c4042;
        fill-rule: evenodd;
      }
    </style>
  </defs>
  <path d="M9.732,13.988 L9.011,13.266 L22.268,0.010 L22.989,0.732 L9.732,13.988 ZM1.000,5.999 L1.000,21.999 C1.000,22.551 1.448,22.999 2.000,22.999 L18.000,22.999 C18.552,22.999 19.000,22.551 19.000,21.999 L19.000,9.998 L19.992,9.998 L19.992,22.460 C19.992,23.309 19.303,23.998 18.454,23.998 L1.538,23.998 C0.688,23.998 -0.000,23.309 -0.000,22.460 L-0.000,5.536 C-0.000,4.687 0.688,3.998 1.538,3.998 L13.994,3.998 L13.994,5.000 L2.000,5.000 C1.448,5.000 1.000,5.447 1.000,5.999 Z" class="cls-1"/>
</svg>
