<svg xmlns="http://www.w3.org/2000/svg" xmlns:xlink="http://www.w3.org/1999/xlink" preserveAspectRatio="xMidYMid" width="23" height="25" viewBox="0 0 23 25">
  <defs>
    <style>
      .cls-1 {
        fill: #3c4042;
        fill-rule: evenodd;
      }
    </style>
  </defs>
  <path d="M22.500,3.999 L21.000,3.999 L21.000,22.999 C21.000,24.103 20.104,24.999 19.000,24.999 L4.000,24.999 C2.895,24.999 2.000,24.103 2.000,22.999 L2.000,3.999 L0.500,3.999 C0.224,3.999 -0.000,3.775 -0.000,3.500 C-0.000,3.223 0.224,2.999 0.500,2.999 L2.000,2.999 L8.000,2.999 L8.000,0.499 C8.000,0.223 8.224,-0.000 8.500,-0.000 L14.500,-0.000 C14.776,-0.000 15.000,0.223 15.000,0.499 L15.000,2.999 L21.000,2.999 L22.500,2.999 C22.776,2.999 23.000,3.223 23.000,3.500 C23.000,3.775 22.776,3.999 22.500,3.999 ZM14.000,0.999 L9.000,0.999 L9.000,2.999 L14.000,2.999 L14.000,0.999 ZM20.000,6.999 L20.000,4.999 L20.000,3.999 L19.000,3.999 L4.000,3.999 L3.000,3.999 L3.000,4.999 L3.000,6.999 L3.000,22.999 C3.000,23.551 3.448,23.999 4.000,23.999 L19.000,23.999 C19.552,23.999 20.000,23.551 20.000,22.999 L20.000,6.999 Z" class="cls-1"/>
</svg>
