<svg xmlns="http://www.w3.org/2000/svg" xmlns:xlink="http://www.w3.org/1999/xlink" preserveAspectRatio="xMidYMid" width="22" height="20" viewBox="0 0 22 20">
  <defs>
    <style>
      .cls-1 {
        fill: #3c4042;
        fill-rule: evenodd;
      }
    </style>
  </defs>
  <path d="M22.000,7.000 L19.000,11.999 L16.000,7.000 L18.477,7.000 C17.240,3.506 13.917,0.998 10.000,0.998 C5.029,0.998 1.000,5.028 1.000,9.999 C1.000,14.970 5.029,18.999 10.000,18.999 C12.141,18.999 14.105,18.248 15.650,16.999 L17.135,16.999 C15.320,18.849 12.796,19.998 10.000,19.998 C4.477,19.998 -0.000,15.522 -0.000,9.999 C-0.000,4.476 4.477,-0.001 10.000,-0.001 C14.478,-0.001 18.267,2.943 19.541,7.000 L22.000,7.000 Z" class="cls-1"/>
</svg>
