<svg xmlns="http://www.w3.org/2000/svg" xmlns:xlink="http://www.w3.org/1999/xlink" preserveAspectRatio="xMidYMid" width="13" height="25" viewBox="0 0 13 25">
  <defs>
    <style>
      .cls-1 {
        fill: #3c4042;
        fill-rule: evenodd;
      }
    </style>
  </defs>
  <path d="M11.667,19.998 L10.000,24.999 L7.000,24.999 L5.333,19.998 L4.000,19.998 L4.000,19.997 L4.000,18.998 L4.000,3.998 L4.000,2.998 L1.000,2.998 L1.000,10.997 L-0.000,10.997 L-0.000,2.998 L-0.000,2.998 L-0.000,1.998 L-0.000,1.998 L-0.000,1.998 L1.000,1.998 L1.000,1.998 L4.000,1.998 L4.000,-0.002 L13.000,-0.002 L13.000,2.998 L13.000,3.998 L13.000,18.998 L13.000,19.997 L13.000,19.998 L11.667,19.998 ZM7.750,23.999 L9.250,23.999 L10.600,19.998 L6.399,19.998 L7.750,23.999 ZM12.000,0.998 L4.999,0.998 L4.999,1.998 L4.999,2.998 L12.000,2.998 L12.000,0.998 ZM4.999,3.998 L4.999,18.998 L12.000,18.998 L12.000,3.998 L4.999,3.998 Z" class="cls-1"/>
</svg>
