<svg xmlns="http://www.w3.org/2000/svg" xmlns:xlink="http://www.w3.org/1999/xlink" preserveAspectRatio="xMidYMid" width="15.97" height="25" viewBox="0 0 15.97 25">
  <defs>
    <style>
      .cls-1 {
        fill: #3c4042;
        fill-rule: evenodd;
      }
    </style>
  </defs>
  <path d="M14.782,6.073 L12.724,9.667 L12.618,9.854 L12.618,9.854 L5.825,21.721 C4.526,23.992 0.472,24.998 0.472,24.998 C0.472,24.998 -0.691,20.954 0.609,18.683 L7.614,6.444 L7.903,5.939 L7.903,5.939 L8.907,4.185 L8.907,4.185 L9.409,3.308 L9.409,3.308 L9.566,3.035 C10.865,0.765 12.366,-0.815 14.527,0.443 C16.687,1.702 16.081,3.803 14.782,6.073 ZM1.207,23.712 C2.475,23.257 4.280,22.396 4.956,21.215 L11.748,9.348 L8.270,7.323 L1.478,19.190 C0.799,20.376 0.962,22.380 1.207,23.712 ZM9.776,4.691 L8.772,6.445 L12.250,8.471 L13.254,6.717 L9.776,4.691 ZM14.025,1.320 C13.145,0.808 12.143,0.557 10.435,3.541 L10.278,3.814 L13.756,5.840 L13.913,5.567 C15.621,2.582 14.904,1.832 14.025,1.320 Z" class="cls-1"/>
</svg>
