<svg xmlns="http://www.w3.org/2000/svg" xmlns:xlink="http://www.w3.org/1999/xlink" preserveAspectRatio="xMidYMid" width="6" height="25" viewBox="0 0 6 25">
  <defs>
    <style>
      .cls-1 {
        fill: #3c4042;
        fill-rule: evenodd;
      }
    </style>
  </defs>
  <path d="M3.000,24.999 C3.000,24.999 -0.000,22.119 -0.000,19.531 L-0.000,8.998 L-0.000,8.998 L-0.000,7.998 L-0.000,7.998 L-0.000,5.998 L-0.000,5.998 L-0.000,4.999 L-0.000,4.999 L-0.000,4.687 C-0.000,2.098 0.514,-0.001 3.000,-0.001 C5.485,-0.001 6.000,2.098 6.000,4.687 L6.000,19.531 C6.000,22.119 3.000,24.999 3.000,24.999 ZM1.000,19.531 C1.000,20.883 2.130,22.516 2.999,23.533 C3.868,22.513 5.000,20.877 5.000,19.531 L5.000,8.998 L1.000,8.998 L1.000,19.531 ZM5.000,4.687 C5.000,1.284 4.012,0.999 3.000,0.999 C1.988,0.999 1.000,1.284 1.000,4.687 L1.000,4.999 L5.000,4.999 L5.000,4.687 ZM1.000,5.998 L1.000,7.998 L5.000,7.998 L5.000,5.998 L1.000,5.998 Z" class="cls-1"/>
</svg>
