<svg xmlns="http://www.w3.org/2000/svg" xmlns:xlink="http://www.w3.org/1999/xlink" preserveAspectRatio="xMidYMid" width="22" height="19" viewBox="0 0 22 19">
  <defs>
    <style>
      .cls-1 {
        fill: #3c4042;
        fill-rule: evenodd;
      }
    </style>
  </defs>
  <path d="M21.500,0.999 L0.500,0.999 C0.224,0.999 -0.000,0.775 -0.000,0.499 C-0.000,0.223 0.224,-0.001 0.500,-0.001 L21.500,-0.001 C21.776,-0.001 22.000,0.223 22.000,0.499 C22.000,0.775 21.776,0.999 21.500,0.999 ZM4.500,6.999 C4.224,6.999 4.000,6.775 4.000,6.499 C4.000,6.223 4.224,5.999 4.500,5.999 L18.500,5.999 C18.776,5.999 19.000,6.223 19.000,6.499 C19.000,6.775 18.776,6.999 18.500,6.999 L4.500,6.999 ZM0.500,11.999 L21.500,11.999 C21.776,11.999 22.000,12.223 22.000,12.499 C22.000,12.776 21.776,12.999 21.500,12.999 L0.500,12.999 C0.224,12.999 -0.000,12.776 -0.000,12.499 C-0.000,12.223 0.224,11.999 0.500,11.999 ZM5.500,18.000 L17.500,18.000 C17.776,18.000 18.000,18.223 18.000,18.499 C18.000,18.775 17.776,18.999 17.500,18.999 L5.500,18.999 C5.224,18.999 5.000,18.775 5.000,18.499 C5.000,18.223 5.224,18.000 5.500,18.000 Z" class="cls-1"/>
</svg>
