<svg xmlns="http://www.w3.org/2000/svg" xmlns:xlink="http://www.w3.org/1999/xlink" preserveAspectRatio="xMidYMid" width="22.969" height="21" viewBox="0 0 22.969 21">
  <defs>
    <style>
      .cls-1 {
        fill: #3c4042;
        fill-rule: evenodd;
      }
    </style>
  </defs>
  <path d="M22.469,15.999 L16.469,15.999 C16.193,15.999 15.969,15.775 15.969,15.499 C15.969,15.223 16.193,14.999 16.469,14.999 L22.469,14.999 C22.745,14.999 22.969,15.223 22.969,15.499 C22.969,15.775 22.745,15.999 22.469,15.999 ZM22.469,10.999 L11.469,10.999 C11.193,10.999 10.969,10.775 10.969,10.499 C10.969,10.223 11.193,9.999 11.469,9.999 L22.469,9.999 C22.745,9.999 22.969,10.223 22.969,10.499 C22.969,10.775 22.745,10.999 22.469,10.999 ZM22.469,5.999 L11.469,5.999 C11.193,5.999 10.969,5.775 10.969,5.499 C10.969,5.223 11.193,4.999 11.469,4.999 L22.469,4.999 C22.745,4.999 22.969,5.223 22.969,5.499 C22.969,5.775 22.745,5.999 22.469,5.999 ZM22.469,0.999 L11.469,0.999 C11.193,0.999 10.969,0.775 10.969,0.499 C10.969,0.223 11.193,-0.001 11.469,-0.001 L22.469,-0.001 C22.745,-0.001 22.969,0.223 22.969,0.499 C22.969,0.775 22.745,0.999 22.469,0.999 ZM12.799,14.137 C13.004,14.341 13.004,14.674 12.799,14.880 L6.850,20.829 C6.844,20.835 6.835,20.837 6.829,20.843 C6.738,20.938 6.611,20.999 6.469,20.999 C6.326,20.999 6.199,20.938 6.108,20.843 C6.102,20.837 6.094,20.835 6.088,20.829 L0.139,14.880 C-0.066,14.674 -0.066,14.341 0.139,14.137 C0.344,13.931 0.677,13.931 0.883,14.137 L5.969,19.222 L5.969,0.499 C5.969,0.223 6.193,-0.001 6.469,-0.001 C6.745,-0.001 6.969,0.223 6.969,0.499 L6.969,19.222 L12.055,14.137 C12.260,13.931 12.593,13.931 12.799,14.137 ZM12.469,19.999 L22.469,19.999 C22.745,19.999 22.969,20.223 22.969,20.499 C22.969,20.775 22.745,20.999 22.469,20.999 L12.469,20.999 C12.193,20.999 11.969,20.775 11.969,20.499 C11.969,20.223 12.193,19.999 12.469,19.999 Z" class="cls-1"/>
</svg>
