<svg xmlns="http://www.w3.org/2000/svg" xmlns:xlink="http://www.w3.org/1999/xlink" preserveAspectRatio="xMidYMid" width="23" height="25" viewBox="0 0 23 25">
  <defs>
    <style>
      .cls-1 {
        fill: #3c4042;
        fill-rule: evenodd;
      }
    </style>
  </defs>
  <path d="M9.001,24.999 L9.001,23.999 L23.000,23.999 L23.000,24.999 L9.001,24.999 ZM16.331,8.271 L16.331,8.270 L8.071,22.161 L8.071,22.161 L8.070,22.162 L6.876,21.493 L2.800,24.996 L0.110,23.489 L1.198,18.310 L0.003,17.640 L0.003,17.639 L0.003,17.639 L0.101,17.474 L0.519,16.771 L0.519,16.771 L8.280,3.720 L8.779,2.880 L6.090,1.373 L1.960,8.318 L1.064,7.816 L5.194,0.870 L5.193,0.870 L5.710,0.002 L5.710,0.002 L5.710,0.002 L6.607,0.504 L6.606,0.504 L9.295,2.012 L10.328,0.275 L18.396,4.797 L16.411,8.136 L16.331,8.271 ZM2.769,23.838 L5.920,20.956 L2.154,18.845 L1.228,22.967 L2.769,23.838 ZM9.159,4.251 L1.416,17.273 L7.691,20.791 L15.434,7.769 L9.159,4.251 ZM10.708,1.645 L10.192,2.514 L10.192,2.515 L9.676,3.383 L15.951,6.900 L16.983,5.163 L10.708,1.645 Z" class="cls-1"/>
</svg>
