<svg xmlns="http://www.w3.org/2000/svg" xmlns:xlink="http://www.w3.org/1999/xlink" preserveAspectRatio="xMidYMid" width="24" height="22" viewBox="0 0 24 22">
  <defs>
    <style>
      .cls-1 {
        fill: #3c4042;
        fill-rule: evenodd;
      }
    </style>
  </defs>
  <path d="M23.548,3.936 L11.557,15.731 C11.463,15.823 11.346,15.873 11.236,15.936 C11.498,16.800 11.564,17.787 11.107,18.741 C9.249,22.621 -0.003,21.968 -0.003,21.968 C4.770,19.585 0.576,16.701 3.247,14.160 C4.898,12.588 6.547,12.403 7.779,12.606 C7.847,12.481 7.909,12.352 8.016,12.247 L10.459,9.844 L10.459,9.843 L11.129,9.184 L20.007,0.452 C20.625,-0.156 21.655,-0.129 22.306,0.512 L23.487,1.673 C24.139,2.315 24.166,3.327 23.548,3.936 ZM7.615,13.571 C6.631,13.412 5.305,13.572 3.943,14.869 C3.179,15.597 3.215,16.262 3.354,17.473 C3.470,18.497 3.616,19.767 2.775,20.989 C5.599,20.850 9.284,20.235 10.197,18.324 C10.544,17.600 10.462,16.825 10.234,16.130 C9.881,16.081 9.534,15.944 9.257,15.671 L8.076,14.510 C7.806,14.244 7.669,13.910 7.615,13.571 ZM9.386,12.293 C8.797,12.873 8.797,13.814 9.386,14.393 C9.975,14.973 10.930,14.973 11.519,14.393 L13.299,12.639 L11.166,10.540 L9.386,12.293 ZM22.181,1.791 C21.592,1.211 20.637,1.211 20.048,1.791 L11.869,9.847 L14.003,11.946 L22.181,3.891 C22.770,3.311 22.770,2.371 22.181,1.791 Z" class="cls-1"/>
</svg>
