<svg xmlns="http://www.w3.org/2000/svg" xmlns:xlink="http://www.w3.org/1999/xlink" preserveAspectRatio="xMidYMid" width="21" height="25" viewBox="0 0 21 25">
  <defs>
    <style>
      .cls-1 {
        fill: #3c4042;
        fill-rule: evenodd;
      }
    </style>
  </defs>
  <path d="M19.462,7.999 L19.000,7.999 L19.000,23.414 C19.000,24.289 18.348,24.998 17.545,24.998 L3.454,24.998 C2.651,24.998 2.000,24.289 2.000,23.414 L2.000,7.999 L1.538,7.999 C0.688,7.999 -0.000,7.252 -0.000,6.332 L-0.000,4.666 C-0.000,3.745 0.688,2.999 1.538,2.999 L6.000,2.999 L6.000,0.830 C6.000,0.370 6.358,-0.003 6.800,-0.003 L14.200,-0.003 C14.642,-0.003 15.000,0.370 15.000,0.830 L15.000,2.999 L19.462,2.999 C20.311,2.999 21.000,3.745 21.000,4.666 L21.000,6.332 C21.000,7.252 20.311,7.999 19.462,7.999 ZM3.000,8.747 L3.000,9.997 L3.000,23.248 C3.000,23.662 3.348,23.998 3.778,23.998 L17.222,23.998 C17.651,23.998 18.000,23.662 18.000,23.248 L18.000,9.997 L18.000,8.747 L18.000,7.999 L3.000,7.999 L3.000,8.747 ZM14.000,0.998 L7.000,0.998 L7.000,2.997 L14.000,2.997 L14.000,0.998 ZM20.000,4.666 C20.000,4.304 19.754,3.999 19.462,3.999 L1.538,3.999 C1.246,3.999 1.000,4.304 1.000,4.666 L1.000,6.332 C1.000,6.693 1.246,6.999 1.538,6.999 L19.462,6.999 C19.754,6.999 20.000,6.693 20.000,6.332 L20.000,4.666 ZM14.000,10.997 L15.000,10.997 L15.000,21.998 L14.000,21.998 L14.000,10.997 ZM10.000,10.997 L11.000,10.997 L11.000,21.998 L10.000,21.998 L10.000,10.997 ZM6.000,10.997 L7.000,10.997 L7.000,21.998 L6.000,21.998 L6.000,10.997 Z" class="cls-1"/>
</svg>
