<svg xmlns="http://www.w3.org/2000/svg" xmlns:xlink="http://www.w3.org/1999/xlink" preserveAspectRatio="xMidYMid" width="21" height="25" viewBox="0 0 21 25">
  <defs>
    <style>
      .cls-1 {
        fill: #3c4042;
        fill-rule: evenodd;
      }
    </style>
  </defs>
  <path d="M17.000,14.947 L17.000,14.998 L11.000,14.998 L11.000,16.999 L17.000,16.999 L15.000,24.999 L6.000,24.999 L4.000,16.999 L10.000,16.999 L10.000,14.998 L4.000,14.998 L4.000,14.947 C1.753,14.696 -0.000,12.812 -0.000,10.498 C-0.000,8.169 1.777,6.275 4.045,6.044 C4.283,2.670 7.066,-0.002 10.500,-0.002 C13.934,-0.002 16.717,2.670 16.954,6.044 C19.223,6.275 21.000,8.169 21.000,10.498 C21.000,12.812 19.247,14.696 17.000,14.947 ZM5.281,17.999 L6.781,23.999 L14.219,23.999 L15.719,17.999 L5.281,17.999 ZM16.500,6.998 C15.547,6.998 14.686,7.381 14.055,7.998 L12.781,7.998 C13.495,6.951 14.632,6.215 15.955,6.053 C15.725,3.227 13.385,0.998 10.500,0.998 C7.615,0.998 5.275,3.227 5.045,6.053 C6.367,6.215 7.505,6.951 8.218,7.998 L6.944,7.998 C6.313,7.381 5.452,6.998 4.500,6.998 C2.567,6.998 1.000,8.565 1.000,10.498 C1.000,12.260 2.306,13.703 4.000,13.947 L4.000,13.998 L7.306,13.998 C7.306,13.998 7.306,13.998 7.306,13.999 L10.000,13.999 L10.000,13.998 L11.000,13.998 L11.000,13.999 L13.694,13.999 C13.694,13.998 13.694,13.998 13.693,13.998 L17.000,13.998 L17.000,13.947 C18.694,13.703 20.000,12.260 20.000,10.498 C20.000,8.565 18.433,6.998 16.500,6.998 Z" class="cls-1"/>
</svg>
