<svg xmlns="http://www.w3.org/2000/svg" xmlns:xlink="http://www.w3.org/1999/xlink" preserveAspectRatio="xMidYMid" width="21.97" height="21" viewBox="0 0 21.97 21">
  <defs>
    <style>
      .cls-1 {
        fill: #3c4042;
        fill-rule: evenodd;
      }
    </style>
  </defs>
  <path d="M19.738,13.905 C19.892,14.413 20.000,14.940 20.000,15.498 C20.000,18.536 17.537,20.998 14.500,20.998 C13.168,20.998 11.963,20.505 11.011,19.718 C10.775,19.913 10.531,20.103 10.256,20.261 C7.626,21.780 4.262,20.878 2.743,18.249 C1.956,16.885 1.831,15.329 2.247,13.931 C1.648,13.493 1.125,12.932 0.730,12.248 C-0.789,9.618 0.113,6.253 2.743,4.735 C3.836,4.104 5.051,3.913 6.212,4.067 C6.844,1.728 8.960,-0.001 11.500,-0.001 C14.019,-0.001 16.120,1.702 16.771,4.014 C18.571,4.107 20.289,5.072 21.256,6.749 C22.671,9.199 21.965,12.266 19.738,13.905 ZM16.500,4.998 C16.313,4.998 16.135,5.031 15.955,5.053 C15.728,2.780 13.833,0.998 11.500,0.998 C9.089,0.998 7.138,2.898 7.022,5.280 C6.544,5.108 6.037,4.998 5.500,4.998 C3.014,4.998 1.000,7.013 1.000,9.498 C1.000,11.255 2.017,12.761 3.486,13.502 C3.185,14.106 3.000,14.777 3.000,15.498 C3.000,17.983 5.015,19.998 7.500,19.998 C8.922,19.998 10.175,19.325 11.000,18.294 C11.824,19.325 13.077,19.998 14.500,19.998 C16.985,19.998 19.000,17.983 19.000,15.498 C19.000,14.777 18.815,14.106 18.513,13.502 C19.982,12.761 21.000,11.255 21.000,9.498 C21.000,7.013 18.985,4.998 16.500,4.998 ZM11.000,14.998 C8.790,14.998 7.000,13.208 7.000,10.998 C7.000,8.789 8.790,6.998 11.000,6.998 C13.209,6.998 15.000,8.789 15.000,10.998 C15.000,13.208 13.209,14.998 11.000,14.998 ZM11.000,7.998 C9.343,7.998 8.000,9.341 8.000,10.998 C8.000,12.654 9.343,13.998 11.000,13.998 C12.657,13.998 14.000,12.654 14.000,10.998 C14.000,9.341 12.657,7.998 11.000,7.998 Z" class="cls-1"/>
</svg>
