<svg xmlns="http://www.w3.org/2000/svg" xmlns:xlink="http://www.w3.org/1999/xlink" preserveAspectRatio="xMidYMid" width="20" height="25" viewBox="0 0 20 25">
  <defs>
    <style>
      .cls-1 {
        fill: #3c4042;
        fill-rule: evenodd;
      }
    </style>
  </defs>
  <path d="M17.321,11.756 C18.327,12.482 18.989,13.660 18.989,14.999 C18.989,17.208 17.203,18.998 15.000,18.998 C13.120,18.998 11.554,17.690 11.132,15.934 C11.089,15.939 11.046,15.943 11.002,15.947 L11.002,24.999 L9.997,24.999 L9.997,15.947 C9.954,15.943 9.911,15.939 9.868,15.934 C9.446,17.690 7.880,18.998 6.000,18.998 C3.797,18.998 2.011,17.208 2.011,14.999 C2.011,13.766 2.579,12.677 3.453,11.943 C1.511,11.674 0.011,10.020 0.011,7.998 C0.011,5.790 1.797,3.998 4.000,3.998 C4.761,3.998 5.465,4.224 6.071,4.595 C6.041,4.399 6.011,4.203 6.011,3.999 C6.011,1.789 7.797,-0.002 10.000,-0.002 C12.203,-0.002 13.989,1.789 13.989,3.999 C13.989,4.203 13.958,4.399 13.929,4.595 C14.534,4.224 15.238,3.998 16.000,3.998 C18.203,3.998 19.989,5.790 19.989,7.998 C19.989,9.741 18.871,11.208 17.321,11.756 ZM15.015,17.999 C16.672,17.999 18.015,16.655 18.015,14.999 C18.015,13.589 17.040,12.415 15.730,12.093 C15.200,13.832 13.848,15.191 12.115,15.728 C12.443,17.030 13.612,17.999 15.015,17.999 ZM3.015,14.999 C3.015,16.655 4.358,17.999 6.015,17.999 C7.416,17.999 8.582,17.035 8.913,15.737 C7.169,15.207 5.807,13.846 5.273,12.102 C3.977,12.434 3.015,13.599 3.015,14.999 ZM4.015,4.998 C2.358,4.998 1.015,6.341 1.015,7.998 C1.015,9.655 2.358,10.998 4.015,10.998 C4.376,10.998 4.718,10.924 5.039,10.807 C5.033,10.703 5.008,10.605 5.008,10.499 C5.008,8.966 5.636,7.582 6.646,6.584 C6.139,5.644 5.158,4.998 4.015,4.998 ZM10.015,0.998 C8.358,0.998 7.015,2.341 7.015,3.999 C7.015,4.687 7.256,5.313 7.646,5.819 C8.480,5.308 9.451,4.998 10.500,4.998 C11.258,4.998 11.980,5.152 12.636,5.430 C12.870,5.003 13.015,4.520 13.015,3.999 C13.015,2.341 11.672,0.998 10.015,0.998 ZM10.500,5.990 C8.022,5.990 6.013,8.009 6.013,10.499 C6.013,12.988 8.022,15.006 10.500,15.006 C12.978,15.006 14.986,12.988 14.986,10.499 C14.986,8.009 12.978,5.990 10.500,5.990 ZM16.015,4.998 C15.096,4.998 14.283,5.421 13.733,6.072 C15.096,7.073 15.992,8.676 15.992,10.499 C15.992,10.667 15.957,10.826 15.942,10.991 C15.967,10.992 15.990,10.998 16.015,10.998 C17.672,10.998 19.015,9.655 19.015,7.998 C19.015,6.341 17.672,4.998 16.015,4.998 Z" class="cls-1"/>
</svg>
