<svg xmlns="http://www.w3.org/2000/svg" xmlns:xlink="http://www.w3.org/1999/xlink" preserveAspectRatio="xMidYMid" width="17" height="25" viewBox="0 0 17 25">
  <defs>
    <style>
      .cls-1 {
        fill: #3c4042;
        fill-rule: evenodd;
      }
    </style>
  </defs>
  <path d="M8.516,24.996 C8.510,24.996 8.506,24.999 8.500,24.999 C8.494,24.999 8.489,24.996 8.484,24.996 C5.790,24.978 -0.000,20.170 -0.000,13.279 C-0.000,6.375 5.813,-0.002 8.500,-0.002 C11.186,-0.002 17.000,6.375 17.000,13.279 C17.000,20.169 11.210,24.977 8.516,24.996 ZM8.500,0.997 C6.348,0.997 1.000,6.968 1.000,13.319 C1.000,19.225 5.621,23.375 8.000,23.929 L8.000,16.683 L4.225,14.080 C4.000,13.924 3.922,13.580 4.052,13.311 C4.182,13.042 4.471,12.949 4.696,13.105 L8.000,15.384 L8.000,8.499 C8.000,8.223 8.224,7.999 8.500,7.999 C8.776,7.999 9.000,8.223 9.000,8.499 L9.000,11.403 L12.281,9.076 C12.504,8.918 12.788,9.012 12.917,9.284 C13.045,9.558 12.969,9.908 12.746,10.065 L9.000,12.723 L9.000,16.356 C9.004,16.404 9.007,16.451 9.000,16.500 L9.000,19.403 L12.281,17.075 C12.504,16.918 12.788,17.011 12.917,17.285 C13.045,17.558 12.969,17.907 12.746,18.065 L9.000,20.723 L9.000,23.929 C11.378,23.375 16.000,19.225 16.000,13.319 C16.000,6.968 10.651,0.997 8.500,0.997 Z" class="cls-1"/>
</svg>
