<svg xmlns="http://www.w3.org/2000/svg" xmlns:xlink="http://www.w3.org/1999/xlink" preserveAspectRatio="xMidYMid" width="17" height="25" viewBox="0 0 17 25">
  <defs>
    <style>
      .cls-1 {
        fill: #3c4042;
        fill-rule: evenodd;
      }
    </style>
  </defs>
  <path d="M-0.000,24.998 L-0.000,23.998 L17.000,23.998 L17.000,24.998 L-0.000,24.998 ZM9.000,19.968 L9.000,23.998 L8.000,23.998 L8.000,19.968 C3.539,19.662 -0.000,15.322 -0.000,9.997 C-0.000,4.475 3.805,-0.002 8.500,-0.002 C13.194,-0.002 17.000,4.475 17.000,9.997 C17.000,15.322 13.460,19.662 9.000,19.968 ZM8.500,0.997 C4.358,0.997 1.000,5.028 1.000,9.997 C1.000,14.766 4.092,18.657 8.000,18.968 L8.000,13.745 L2.990,8.735 L3.736,7.989 L8.000,12.253 L8.000,4.997 L9.000,4.997 L9.000,12.253 L13.264,7.989 L14.010,8.735 L9.000,13.745 L9.000,18.968 C12.908,18.657 16.000,14.766 16.000,9.997 C16.000,5.028 12.642,0.997 8.500,0.997 Z" class="cls-1"/>
</svg>
