<svg xmlns="http://www.w3.org/2000/svg" xmlns:xlink="http://www.w3.org/1999/xlink" preserveAspectRatio="xMidYMid" width="23" height="23" viewBox="0 0 23 23">
  <defs>
    <style>
      .cls-1 {
        fill: #3c4042;
        fill-rule: evenodd;
      }
    </style>
  </defs>
  <path d="M20.444,15.130 C20.790,15.850 21.000,16.647 21.000,17.498 C21.000,20.536 18.537,22.998 15.500,22.998 C13.918,22.998 12.503,22.322 11.500,21.253 C10.496,22.322 9.081,22.998 7.500,22.998 C4.462,22.998 2.000,20.536 2.000,17.498 C2.000,16.647 2.210,15.850 2.556,15.130 C1.023,14.154 -0.000,12.450 -0.000,10.498 C-0.000,7.460 2.462,4.998 5.500,4.998 C5.686,4.998 5.863,5.035 6.045,5.053 C6.275,2.227 8.615,-0.002 11.500,-0.002 C14.385,-0.002 16.725,2.227 16.955,5.053 C17.137,5.035 17.313,4.998 17.500,4.998 C20.537,4.998 23.000,7.460 23.000,10.498 C23.000,12.450 21.976,14.154 20.444,15.130 ZM17.500,5.998 C16.941,5.998 16.412,6.113 15.919,6.299 C15.966,6.039 16.000,5.772 16.000,5.498 C16.000,3.012 13.985,0.998 11.500,0.998 C9.015,0.998 7.000,3.012 7.000,5.498 C7.000,5.772 7.033,6.039 7.081,6.299 C6.587,6.113 6.058,5.998 5.500,5.998 C3.014,5.998 1.000,8.012 1.000,10.498 C1.000,12.450 2.249,14.095 3.986,14.718 C3.378,15.486 3.000,16.443 3.000,17.498 C3.000,19.984 5.015,21.998 7.500,21.998 C9.254,21.998 10.758,20.984 11.500,19.520 C12.242,20.984 13.745,21.998 15.500,21.998 C17.985,21.998 20.000,19.984 20.000,17.498 C20.000,16.443 19.622,15.486 19.014,14.718 C20.750,14.095 22.000,12.450 22.000,10.498 C22.000,8.012 19.985,5.998 17.500,5.998 ZM11.500,16.998 C9.015,16.998 7.000,14.984 7.000,12.498 C7.000,10.013 9.015,7.998 11.500,7.998 C13.985,7.998 16.000,10.013 16.000,12.498 C16.000,14.984 13.985,16.998 11.500,16.998 ZM11.500,8.998 C9.567,8.998 8.000,10.565 8.000,12.498 C8.000,14.431 9.567,15.998 11.500,15.998 C13.433,15.998 15.000,14.431 15.000,12.498 C15.000,10.565 13.433,8.998 11.500,8.998 Z" class="cls-1"/>
</svg>
