<svg xmlns="http://www.w3.org/2000/svg" xmlns:xlink="http://www.w3.org/1999/xlink" preserveAspectRatio="xMidYMid" width="25" height="25" viewBox="0 0 25 25">
  <defs>
    <style>
      .cls-1 {
        fill: #3c4042;
        fill-rule: evenodd;
      }
    </style>
  </defs>
  <path d="M22.000,13.000 L25.000,16.999 L22.000,20.999 L16.000,20.999 L16.000,23.436 C16.000,24.298 15.283,24.998 14.400,24.998 L10.600,24.998 C9.716,24.998 9.000,24.298 9.000,23.436 L9.000,20.999 L5.000,20.999 L5.000,13.000 L9.000,13.000 L9.000,10.999 L3.000,10.999 L-0.000,6.999 L3.000,2.999 L9.000,2.999 L9.000,1.559 C9.000,0.697 9.716,-0.003 10.600,-0.003 L14.400,-0.003 C15.283,-0.003 16.000,0.697 16.000,1.559 L16.000,2.999 L20.000,2.999 L20.000,10.999 L16.000,10.999 L16.000,13.000 L22.000,13.000 ZM10.000,22.999 C10.000,23.551 10.448,23.999 11.000,23.999 L14.000,23.999 C14.552,23.999 15.000,23.551 15.000,22.999 L15.000,20.999 L10.000,20.999 L10.000,22.999 ZM15.000,1.999 C15.000,1.447 14.552,0.999 14.000,0.999 L11.000,0.999 C10.448,0.999 10.000,1.447 10.000,1.999 L10.000,2.999 L15.000,2.999 L15.000,1.999 ZM19.000,9.999 L19.000,3.999 L3.500,3.999 L1.250,6.999 L3.500,9.999 L19.000,9.999 ZM10.000,10.999 L10.000,13.000 L15.000,13.000 L15.000,10.999 L10.000,10.999 ZM6.000,13.999 L6.000,19.999 L21.500,19.999 L23.750,16.999 L21.500,13.999 L6.000,13.999 Z" class="cls-1"/>
</svg>
