<svg xmlns="http://www.w3.org/2000/svg" xmlns:xlink="http://www.w3.org/1999/xlink" preserveAspectRatio="xMidYMid" width="22" height="23" viewBox="0 0 22 23">
  <defs>
    <style>
      .cls-1 {
        fill: #3c4042;
        fill-rule: evenodd;
      }
    </style>
  </defs>
  <path d="M17.337,17.596 C15.617,19.233 13.517,19.998 11.380,19.998 C8.851,19.998 6.270,18.927 4.205,16.962 C3.976,16.744 3.761,16.519 3.555,16.290 C1.696,19.438 0.960,22.814 0.960,22.814 C0.782,23.041 0.450,23.082 0.217,22.906 C-0.016,22.728 -0.061,22.401 0.117,22.173 C0.117,22.173 0.893,18.633 2.853,15.418 C0.315,11.942 0.289,7.556 3.541,4.461 C7.918,0.295 18.392,0.001 21.272,0.001 C21.747,0.001 22.015,0.008 22.015,0.008 C22.015,0.008 21.304,13.821 17.337,17.596 ZM4.232,5.185 C2.783,6.563 2.017,8.275 2.017,10.132 C2.017,11.638 2.520,13.141 3.443,14.513 C3.587,14.308 3.735,14.105 3.889,13.907 C6.624,10.407 11.048,8.183 11.048,8.183 C11.226,7.955 11.559,7.914 11.791,8.091 C12.024,8.267 12.069,8.595 11.891,8.822 C11.891,8.822 7.456,11.061 4.714,14.570 C4.503,14.840 4.306,15.119 4.115,15.402 C4.358,15.688 4.614,15.969 4.896,16.238 C6.766,18.017 9.069,18.998 11.380,18.998 C13.363,18.998 15.184,18.263 16.647,16.873 C19.413,14.239 20.618,5.332 20.947,1.001 C14.890,1.040 7.417,2.154 4.232,5.185 Z" class="cls-1"/>
</svg>
