<svg xmlns="http://www.w3.org/2000/svg" xmlns:xlink="http://www.w3.org/1999/xlink" preserveAspectRatio="xMidYMid" width="25" height="25" viewBox="0 0 25 25">
  <defs>
    <style>
      .cls-1 {
        fill: #3c4042;
        fill-rule: evenodd;
      }
    </style>
  </defs>
  <path d="M18.500,8.998 C16.014,8.998 14.000,6.983 14.000,4.498 C14.000,2.012 16.014,-0.003 18.500,-0.003 C20.985,-0.003 23.000,2.012 23.000,4.498 C23.000,6.983 20.985,8.998 18.500,8.998 ZM18.500,0.997 C16.567,0.997 15.000,2.564 15.000,4.498 C15.000,6.430 16.567,7.998 18.500,7.998 C20.433,7.998 22.000,6.430 22.000,4.498 C22.000,2.564 20.433,0.997 18.500,0.997 ZM25.000,24.998 L-0.000,24.998 L7.000,9.000 L12.500,18.998 L18.000,12.000 L25.000,24.998 ZM13.286,19.616 L12.352,20.804 L11.624,19.480 L7.102,11.261 L1.529,23.998 L23.325,23.998 L17.843,13.818 L13.286,19.616 Z" class="cls-1"/>
</svg>
