<svg xmlns="http://www.w3.org/2000/svg" xmlns:xlink="http://www.w3.org/1999/xlink" preserveAspectRatio="xMidYMid" width="23" height="25" viewBox="0 0 23 25">
  <defs>
    <style>
      .cls-1 {
        fill: #3c4042;
        fill-rule: evenodd;
      }
    </style>
  </defs>
  <path d="M23.000,23.426 C23.000,24.294 22.313,24.997 21.466,24.997 L1.533,24.997 C0.686,24.997 -0.000,24.294 -0.000,23.426 L-0.000,5.354 C-0.000,4.487 0.686,2.998 1.533,2.998 L5.006,2.998 L5.006,1.570 C5.006,1.549 5.016,1.532 5.017,1.511 C5.016,1.464 5.030,1.419 5.042,1.373 C5.135,0.603 5.716,-0.001 6.449,-0.001 L16.551,-0.001 C17.280,-0.001 17.859,0.598 17.956,1.364 C17.970,1.412 17.983,1.461 17.983,1.512 C17.984,1.532 17.994,1.549 17.994,1.570 L17.994,2.998 L21.466,2.998 C22.313,2.998 23.000,3.703 23.000,4.570 L23.000,23.426 ZM6.006,2.716 L6.006,9.429 C6.006,9.671 6.131,9.884 6.300,9.965 L11.043,7.753 L6.006,2.716 ZM16.551,0.999 L6.449,0.999 C6.287,0.999 6.148,1.122 6.071,1.294 L11.500,6.722 L16.929,1.294 C16.851,1.122 16.712,0.999 16.551,0.999 ZM16.994,2.716 L11.959,7.751 L16.699,9.965 C16.869,9.884 16.994,9.671 16.994,9.429 L16.994,2.716 ZM22.000,5.000 C22.000,4.447 21.552,3.999 21.000,3.999 L17.994,3.999 L17.994,9.429 C17.994,10.296 17.348,10.999 16.551,10.999 L11.990,8.869 L11.990,23.998 L11.009,23.998 L11.009,8.871 L6.449,10.999 C5.652,10.999 5.006,10.296 5.006,9.429 L5.006,3.999 L2.000,3.999 C1.448,3.999 1.000,4.447 1.000,5.000 L1.000,22.999 C1.000,23.552 1.448,23.999 2.000,23.999 L21.000,23.999 C21.552,23.999 22.000,23.552 22.000,22.999 L22.000,5.000 ZM13.988,13.998 L19.996,13.998 L19.996,14.998 L13.988,14.998 L13.988,13.998 Z" class="cls-1"/>
</svg>
