<svg xmlns="http://www.w3.org/2000/svg" xmlns:xlink="http://www.w3.org/1999/xlink" preserveAspectRatio="xMidYMid" width="25" height="15" viewBox="0 0 25 15">
  <defs>
    <style>
      .cls-1 {
        fill: #3c4042;
        fill-rule: evenodd;
      }
    </style>
  </defs>
  <path d="M23.000,14.999 L16.971,10.779 C16.839,11.473 16.232,11.998 15.500,11.998 L9.500,11.998 C8.768,11.998 8.160,11.473 8.028,10.779 L2.000,14.999 C-0.000,14.999 -0.000,13.260 -0.000,11.967 L-0.000,2.592 C-0.000,1.296 -0.000,-0.001 2.000,-0.001 L8.218,3.730 C8.480,3.293 8.953,2.998 9.500,2.998 L15.500,2.998 C16.046,2.998 16.520,3.293 16.782,3.730 L23.000,-0.001 C25.000,-0.001 25.000,1.296 25.000,2.592 L25.000,11.967 C25.000,13.260 25.000,14.999 23.000,14.999 ZM8.000,7.999 L4.500,7.999 C4.224,7.999 4.000,7.775 4.000,7.499 C4.000,7.223 4.224,7.000 4.500,7.000 L8.000,7.000 L8.000,4.765 L1.732,1.004 C1.059,1.039 1.000,1.275 1.000,2.592 L1.000,11.967 C1.000,13.562 1.189,13.915 1.706,13.983 L8.000,9.579 L8.000,7.999 ZM16.000,4.872 C16.000,4.388 15.608,3.997 15.125,3.997 L9.875,3.997 C9.391,3.997 9.000,4.388 9.000,4.872 L9.000,7.498 C9.000,7.499 9.000,7.499 9.000,7.499 C9.000,7.499 9.000,7.499 9.000,7.500 L9.000,10.122 C9.000,10.606 9.391,10.997 9.875,10.997 L15.125,10.997 C15.608,10.997 16.000,10.606 16.000,10.122 L16.000,4.872 ZM24.000,2.592 C24.000,1.275 23.940,1.039 23.267,1.004 L17.000,4.766 L17.000,7.000 L20.500,7.000 C20.776,7.000 21.000,7.223 21.000,7.499 C21.000,7.775 20.776,7.999 20.500,7.999 L17.000,7.999 L17.000,9.578 L23.293,13.983 C23.810,13.915 24.000,13.562 24.000,11.967 L24.000,2.592 Z" class="cls-1"/>
</svg>
