<svg xmlns="http://www.w3.org/2000/svg" xmlns:xlink="http://www.w3.org/1999/xlink" preserveAspectRatio="xMidYMid" width="25" height="21" viewBox="0 0 25 21">
  <defs>
    <style>
      .cls-1 {
        fill: #3c4042;
        fill-rule: evenodd;
      }
    </style>
  </defs>
  <path d="M23.000,9.999 L19.000,8.999 L19.000,20.999 L6.000,20.999 L6.000,8.999 L2.000,9.999 L-0.000,3.999 L8.000,-0.001 C8.000,-0.001 8.594,4.002 12.500,4.002 C16.406,4.002 17.000,-0.001 17.000,-0.001 L25.000,3.999 L23.000,9.999 ZM12.500,5.002 C9.564,5.002 8.024,3.078 7.368,1.433 L1.223,4.505 L2.656,8.804 L5.757,8.029 L7.000,7.718 L7.000,8.999 L7.000,19.999 L18.000,19.999 L18.000,8.999 L18.000,7.718 L19.242,8.029 L22.344,8.804 L23.779,4.497 L17.659,1.364 C17.018,3.024 15.476,5.002 12.500,5.002 Z" class="cls-1"/>
</svg>
