<svg xmlns="http://www.w3.org/2000/svg" xmlns:xlink="http://www.w3.org/1999/xlink" preserveAspectRatio="xMidYMid" width="23" height="25" viewBox="0 0 23 25">
  <defs>
    <style>
      .cls-1 {
        fill: #3c4042;
        fill-rule: evenodd;
      }
    </style>
  </defs>
  <path d="M22.500,24.999 L0.500,24.999 C0.224,24.999 -0.000,24.775 -0.000,24.499 L-0.000,16.499 C-0.000,16.491 0.004,16.483 0.005,16.475 C0.006,16.459 0.011,16.443 0.014,16.427 C0.024,16.361 0.046,16.301 0.079,16.246 L2.000,11.406 L2.000,7.499 C2.000,7.482 2.008,7.468 2.010,7.451 C2.005,7.347 2.017,7.242 2.067,7.146 L4.024,3.379 C4.079,3.162 4.266,2.999 4.500,2.999 L7.294,2.999 C7.910,1.256 9.545,-0.002 11.500,-0.002 C13.455,-0.002 15.090,1.256 15.706,2.999 L18.500,2.999 C18.733,2.999 18.920,3.162 18.975,3.379 L20.933,7.146 C20.983,7.242 20.995,7.347 20.990,7.451 C20.992,7.468 21.000,7.482 21.000,7.499 L21.000,11.406 L22.921,16.246 C22.954,16.301 22.975,16.361 22.985,16.427 C22.989,16.443 22.993,16.459 22.995,16.475 C22.995,16.483 23.000,16.491 23.000,16.499 L23.000,24.499 C23.000,24.775 22.776,24.999 22.500,24.999 ZM6.000,23.999 L17.000,23.999 L17.000,19.998 L6.000,19.998 L6.000,23.999 ZM7.000,3.999 L4.857,3.999 L3.000,7.573 L3.000,10.999 L7.000,10.999 L7.000,3.999 ZM11.500,0.997 C10.107,0.997 8.923,1.819 8.364,2.999 L14.636,2.999 C14.077,1.819 12.893,0.997 11.500,0.997 ZM15.000,3.999 L8.000,3.999 L8.000,10.999 L15.000,10.999 L15.000,3.999 ZM20.000,7.573 L18.143,3.999 L16.000,3.999 L16.000,10.999 L20.000,10.999 L20.000,7.573 ZM22.000,16.592 L20.177,11.999 L16.000,11.999 L16.000,15.499 C16.000,15.775 15.776,15.999 15.500,15.999 C15.224,15.999 15.000,15.775 15.000,15.499 L15.000,11.999 L8.000,11.999 L8.000,15.499 C8.000,15.775 7.776,15.999 7.500,15.999 C7.224,15.999 7.000,15.775 7.000,15.499 L7.000,11.999 L2.823,11.999 L1.000,16.592 L1.000,23.999 L5.000,23.999 L5.000,19.998 L5.000,18.998 L5.000,18.997 L6.000,18.997 L6.000,18.998 L17.000,18.998 L17.000,18.997 L18.000,18.997 L18.000,18.998 L18.000,19.998 L18.000,23.999 L22.000,23.999 L22.000,16.592 Z" class="cls-1"/>
</svg>
