<svg xmlns="http://www.w3.org/2000/svg" xmlns:xlink="http://www.w3.org/1999/xlink" preserveAspectRatio="xMidYMid" width="22" height="17" viewBox="0 0 22 17">
  <defs>
    <style>
      .cls-1 {
        fill: #3c4042;
        fill-rule: evenodd;
      }
    </style>
  </defs>
  <path d="M21.427,15.376 L13.726,16.970 C13.657,16.987 13.588,16.996 13.520,16.996 C13.170,16.996 12.850,16.770 12.755,16.425 L11.000,12.189 L9.245,16.425 C9.150,16.770 8.830,16.996 8.480,16.996 C8.412,16.996 8.343,16.987 8.274,16.970 L0.573,15.376 C0.150,15.266 -0.101,14.845 0.012,14.433 L5.755,0.573 C5.833,0.288 6.068,0.093 6.344,0.031 C6.394,0.014 6.445,-0.001 6.500,-0.001 L15.500,-0.001 C15.555,-0.001 15.606,0.014 15.655,0.031 C15.932,0.093 16.167,0.288 16.245,0.573 L21.987,14.433 C22.101,14.845 21.850,15.266 21.427,15.376 ZM16.582,3.998 L13.000,3.998 L13.000,2.998 L16.167,2.998 L15.354,1.033 L15.000,1.107 L15.000,0.995 L7.000,0.995 L7.000,1.107 L6.646,1.033 L5.832,2.998 L9.000,2.998 L9.000,3.998 L5.418,3.998 L1.084,14.461 L8.351,15.970 L10.826,9.997 L11.908,9.997 L11.541,10.883 L13.648,15.970 L20.916,14.461 L16.582,3.998 Z" class="cls-1"/>
</svg>
