<svg xmlns="http://www.w3.org/2000/svg" xmlns:xlink="http://www.w3.org/1999/xlink" preserveAspectRatio="xMidYMid" width="21" height="25" viewBox="0 0 21 25">
  <defs>
    <style>
      .cls-1 {
        fill: #3c4042;
        fill-rule: evenodd;
      }
    </style>
  </defs>
  <path d="M19.500,21.797 C19.500,23.565 18.157,24.997 16.500,24.997 L4.500,24.997 C2.843,24.997 1.500,23.565 1.500,21.797 L-0.000,12.198 C-0.000,10.430 1.343,8.998 3.000,8.998 L3.038,8.998 C3.414,3.944 6.611,-0.002 10.500,-0.002 C14.389,-0.002 17.586,3.944 17.962,8.998 L18.000,8.998 C19.657,8.998 21.000,10.430 21.000,12.198 L19.500,21.797 ZM2.583,22.373 C2.583,23.270 3.292,23.998 4.166,23.998 L16.833,23.998 C17.708,23.998 18.416,23.270 18.416,22.373 L19.264,16.622 C17.145,18.369 14.524,19.999 10.500,19.997 C6.590,19.996 3.876,18.366 1.735,16.617 L2.583,22.373 ZM10.500,0.997 C7.154,0.997 4.402,4.499 4.042,8.998 L16.957,8.998 C16.598,4.499 13.845,0.997 10.500,0.997 ZM18.416,9.998 L2.583,9.998 C1.709,9.998 1.000,10.725 1.000,11.623 L1.470,14.813 C2.631,17.045 5.904,18.825 10.500,18.825 C15.095,18.825 18.369,17.045 19.530,14.813 L20.000,11.623 C20.000,10.725 19.291,9.998 18.416,9.998 ZM10.500,15.998 C9.671,15.998 9.000,15.326 9.000,14.498 C9.000,13.669 9.671,12.998 10.500,12.998 C11.328,12.998 12.000,13.669 12.000,14.498 C12.000,15.326 11.328,15.998 10.500,15.998 Z" class="cls-1"/>
</svg>
