<svg xmlns="http://www.w3.org/2000/svg" xmlns:xlink="http://www.w3.org/1999/xlink" preserveAspectRatio="xMidYMid" width="23" height="25" viewBox="0 0 23 25">
  <defs>
    <style>
      .cls-1 {
        fill: #3c4042;
        fill-rule: evenodd;
      }
    </style>
  </defs>
  <path d="M21.466,24.997 L1.533,24.997 C0.686,24.997 -0.000,24.301 -0.000,23.442 L-0.000,5.553 C-0.000,4.694 0.686,3.998 1.533,3.998 L4.435,3.998 C5.466,1.669 8.236,-0.002 11.500,-0.002 C14.764,-0.002 17.533,1.669 18.564,3.998 L21.466,3.998 C22.313,3.998 23.000,4.694 23.000,5.553 L23.000,23.442 C23.000,24.301 22.313,24.997 21.466,24.997 ZM11.500,0.997 C7.910,0.997 5.000,3.236 5.000,5.998 C5.000,8.759 7.910,10.997 11.500,10.997 C15.090,10.997 18.000,8.759 18.000,5.998 C18.000,3.236 15.090,0.997 11.500,0.997 ZM22.000,5.999 C22.000,5.567 21.431,4.999 21.000,4.999 L18.888,4.999 C18.956,5.325 19.000,5.657 19.000,5.998 C19.000,9.176 15.908,11.771 12.000,11.977 L12.000,23.998 L11.000,23.998 L11.000,11.977 C7.092,11.771 4.000,9.176 4.000,5.998 C4.000,5.657 4.044,5.325 4.112,4.999 L2.000,4.999 C1.568,4.999 1.000,5.567 1.000,5.999 L1.000,22.999 C1.000,23.431 1.568,23.999 2.000,23.999 L21.000,23.999 C21.431,23.999 22.000,23.431 22.000,22.999 L22.000,5.999 ZM14.000,13.997 L20.000,13.997 L20.000,14.998 L14.000,14.998 L14.000,13.997 Z" class="cls-1"/>
</svg>
