<svg xmlns="http://www.w3.org/2000/svg" xmlns:xlink="http://www.w3.org/1999/xlink" preserveAspectRatio="xMidYMid" width="25" height="14" viewBox="0 0 25 14">
  <defs>
    <style>
      .cls-1 {
        fill: #3c4042;
        fill-rule: evenodd;
      }
    </style>
  </defs>
  <path d="M23.437,13.998 L1.562,13.998 C0.699,13.998 -0.000,13.251 -0.000,12.329 L-0.000,10.661 C-0.000,9.953 0.416,9.351 1.000,9.109 L1.000,0.999 L2.000,0.999 C2.000,0.999 2.442,1.000 2.739,1.000 C2.886,1.000 2.999,0.999 3.000,0.999 C4.029,1.634 5.176,2.538 6.750,2.538 C8.106,2.538 9.499,1.676 10.857,-0.003 L20.714,4.229 C20.714,4.229 24.000,5.472 24.000,7.616 C24.000,7.954 23.893,8.486 23.757,9.029 C24.466,9.186 25.000,9.858 25.000,10.661 L25.000,12.329 C25.000,13.251 24.300,13.998 23.437,13.998 ZM20.360,5.164 L17.762,4.049 C17.756,4.054 17.753,4.061 17.746,4.066 L13.718,6.922 C13.496,7.081 13.211,6.987 13.083,6.714 C12.955,6.440 13.031,6.091 13.253,5.932 L16.608,3.554 L14.919,2.829 C14.880,2.923 14.826,3.009 14.746,3.065 L10.718,5.923 C10.496,6.081 10.211,5.987 10.083,5.713 C9.955,5.440 10.031,5.090 10.253,4.933 L13.860,2.374 L11.138,1.206 C9.725,2.754 8.251,3.537 6.750,3.537 C5.102,3.537 3.882,2.752 2.900,2.121 C2.838,2.079 2.774,2.039 2.713,2.000 L2.000,2.000 L2.000,8.993 L22.735,8.993 C22.887,8.413 23.000,7.883 23.000,7.616 C23.000,6.409 20.918,5.375 20.360,5.164 ZM23.000,9.999 L2.000,9.999 C1.568,9.999 0.999,9.999 1.000,11.527 C1.000,12.999 1.568,12.999 2.000,12.999 L23.000,12.999 C23.431,12.999 24.000,12.999 24.000,11.527 C24.000,9.999 23.431,9.999 23.000,9.999 Z" class="cls-1"/>
</svg>
