<svg xmlns="http://www.w3.org/2000/svg" xmlns:xlink="http://www.w3.org/1999/xlink" preserveAspectRatio="xMidYMid" width="25" height="25" viewBox="0 0 25 25">
  <defs>
    <style>
      .cls-1 {
        fill: #3c4042;
        fill-rule: evenodd;
      }
    </style>
  </defs>
  <path d="M24.500,21.999 L22.000,21.999 L22.000,24.499 C22.000,24.775 21.776,24.999 21.500,24.999 C21.224,24.999 21.000,24.775 21.000,24.499 L21.000,21.999 L3.500,21.999 C3.357,21.999 3.230,21.938 3.139,21.842 C3.136,21.839 3.132,21.841 3.130,21.838 C3.123,21.831 3.126,21.820 3.120,21.814 C3.058,21.739 3.019,21.648 3.009,21.546 C3.004,21.510 2.997,21.481 3.000,21.443 L3.000,3.999 L0.500,3.999 C0.224,3.999 -0.000,3.775 -0.000,3.500 C-0.000,3.223 0.224,2.999 0.500,2.999 L3.000,2.999 L3.000,0.499 C3.000,0.223 3.224,-0.001 3.500,-0.001 C3.776,-0.001 4.000,0.223 4.000,0.499 L4.000,2.999 L20.500,2.999 C20.705,2.999 20.881,3.124 20.958,3.301 L23.130,1.129 C23.326,0.933 23.643,0.933 23.838,1.129 C24.034,1.325 24.034,1.642 23.838,1.838 L22.000,3.676 L22.000,20.999 L24.500,20.999 C24.776,20.999 25.000,21.223 25.000,21.499 C25.000,21.775 24.776,21.999 24.500,21.999 ZM4.000,3.999 L4.000,20.259 L20.260,3.999 L4.000,3.999 ZM21.000,4.676 L4.677,20.999 L21.000,20.999 L21.000,4.676 Z" class="cls-1"/>
</svg>
