<svg xmlns="http://www.w3.org/2000/svg" xmlns:xlink="http://www.w3.org/1999/xlink" preserveAspectRatio="xMidYMid" width="19" height="19" viewBox="0 0 19 19">
  <defs>
    <style>
      .cls-1 {
        fill: #3c4042;
        fill-rule: evenodd;
      }
    </style>
  </defs>
  <path d="M18.262,18.261 C17.268,19.256 15.656,19.256 14.662,18.261 L8.544,12.144 L4.890,15.799 C4.469,16.220 4.034,16.263 3.747,15.976 C3.614,15.842 3.513,15.637 3.458,15.367 L0.019,1.261 C-0.067,0.834 0.031,0.481 0.256,0.255 C0.482,0.029 0.835,-0.068 1.262,0.017 L15.367,3.458 C15.638,3.512 15.843,3.613 15.977,3.747 C16.264,4.033 16.221,4.467 15.800,4.889 L12.145,8.544 L18.262,14.661 C19.257,15.656 19.257,17.268 18.262,18.261 ZM17.542,15.381 L10.704,8.544 L14.850,4.398 L1.078,1.019 C1.051,1.014 1.028,1.010 1.009,1.008 C1.011,1.024 1.013,1.042 1.017,1.062 L4.399,14.849 L8.544,10.703 L15.382,17.541 C15.978,18.138 16.946,18.138 17.542,17.541 C18.139,16.945 18.139,15.977 17.542,15.381 Z" class="cls-1"/>
</svg>
