<svg xmlns="http://www.w3.org/2000/svg" xmlns:xlink="http://www.w3.org/1999/xlink" preserveAspectRatio="xMidYMid" width="25" height="25" viewBox="0 0 25 25">
  <defs>
    <style>
      .cls-1 {
        fill: #3c4042;
        fill-rule: evenodd;
      }
    </style>
  </defs>
  <path d="M12.500,24.998 C5.596,24.998 -0.000,19.401 -0.000,12.498 C-0.000,5.594 5.596,-0.003 12.500,-0.003 C19.403,-0.003 25.000,5.594 25.000,12.498 C25.000,19.401 19.403,24.998 12.500,24.998 ZM12.500,0.997 C6.149,0.997 1.000,6.145 1.000,12.498 C1.000,18.849 6.149,23.997 12.500,23.997 C18.851,23.997 24.000,18.849 24.000,12.498 C24.000,6.145 18.851,0.997 12.500,0.997 ZM15.885,12.854 C15.868,12.871 15.842,12.866 15.823,12.880 L9.819,18.884 C9.632,19.070 9.331,19.070 9.145,18.884 C8.959,18.698 8.959,18.396 9.145,18.210 L14.856,12.499 L9.145,6.788 C8.959,6.602 8.959,6.300 9.145,6.114 C9.331,5.928 9.632,5.928 9.819,6.114 L15.823,12.118 C15.842,12.132 15.868,12.126 15.885,12.144 C15.983,12.242 16.022,12.370 16.017,12.499 C16.022,12.627 15.983,12.756 15.885,12.854 Z" class="cls-1"/>
</svg>
