<svg xmlns="http://www.w3.org/2000/svg" xmlns:xlink="http://www.w3.org/1999/xlink" preserveAspectRatio="xMidYMid" width="19" height="19" viewBox="0 0 19 19">
  <defs>
    <style>
      .cls-1 {
        fill: #3c4042;
        fill-rule: evenodd;
      }
    </style>
  </defs>
  <path d="M18.262,4.337 L12.145,10.455 L15.800,14.109 C16.221,14.530 16.264,14.964 15.977,15.252 C15.843,15.385 15.638,15.487 15.367,15.540 L1.262,18.980 C0.835,19.066 0.482,18.969 0.256,18.742 C0.031,18.518 -0.067,18.164 0.019,17.737 L3.458,3.632 C3.512,3.362 3.614,3.156 3.747,3.022 C4.034,2.736 4.469,2.778 4.890,3.199 L8.544,6.854 L14.662,0.736 C15.656,-0.257 17.268,-0.257 18.262,0.736 C19.257,1.731 19.257,3.343 18.262,4.337 ZM17.542,1.457 C16.946,0.861 15.978,0.861 15.382,1.457 L8.544,8.294 L4.399,4.149 L1.017,17.936 C1.013,17.956 1.011,17.974 1.009,17.990 C1.028,17.987 1.051,17.983 1.078,17.979 L14.850,14.600 L10.705,10.455 L17.542,3.617 C18.139,3.021 18.139,2.053 17.542,1.457 Z" class="cls-1"/>
</svg>
