<svg xmlns="http://www.w3.org/2000/svg" xmlns:xlink="http://www.w3.org/1999/xlink" preserveAspectRatio="xMidYMid" width="25" height="25" viewBox="0 0 25 25">
  <defs>
    <style>
      .cls-1 {
        fill: #3c4042;
        fill-rule: evenodd;
      }
    </style>
  </defs>
  <path d="M21.875,24.998 L3.125,24.998 C1.399,24.998 -0.000,23.599 -0.000,21.873 L-0.000,3.122 C-0.000,1.397 1.399,-0.002 3.125,-0.002 L21.875,-0.002 C23.601,-0.002 25.000,1.397 25.000,3.122 L25.000,21.873 C25.000,23.599 23.601,24.998 21.875,24.998 ZM24.000,2.999 C24.000,1.894 23.104,0.999 22.000,0.999 L3.000,0.999 C1.895,0.999 1.000,1.894 1.000,2.999 L1.000,21.999 C1.000,23.103 1.895,23.999 3.000,23.999 L22.000,23.999 C23.104,23.999 24.000,23.103 24.000,21.999 L24.000,2.999 ZM7.000,9.997 L18.000,9.997 L12.500,16.997 L7.000,9.997 Z" class="cls-1"/>
</svg>
