<svg xmlns="http://www.w3.org/2000/svg" xmlns:xlink="http://www.w3.org/1999/xlink" preserveAspectRatio="xMidYMid" width="23" height="24" viewBox="0 0 23 24">
  <defs>
    <style>
      .cls-1 {
        fill: #3c4042;
        fill-rule: evenodd;
      }
    </style>
  </defs>
  <path d="M22.500,24.000 L21.000,24.000 L21.000,24.000 L2.000,24.000 L2.000,24.000 L0.500,24.000 C0.224,24.000 -0.000,23.775 -0.000,23.499 C-0.000,23.223 0.224,22.999 0.500,22.999 L2.396,22.999 L11.500,-0.001 L20.604,22.999 L22.500,22.999 C22.776,22.999 23.000,23.223 23.000,23.499 C23.000,23.775 22.776,24.000 22.500,24.000 ZM11.500,2.716 L9.409,7.998 L13.591,7.998 L11.500,2.716 ZM13.986,8.998 L9.013,8.998 L8.222,10.998 L14.778,10.998 L13.986,8.998 ZM8.000,11.998 L8.000,11.558 L4.659,19.998 L18.340,19.998 L15.000,11.558 L15.000,11.998 L8.000,11.998 ZM18.736,20.998 L4.263,20.998 L3.471,23.000 L19.528,23.000 L18.736,20.998 ZM17.000,17.998 L6.000,17.998 L6.000,16.998 L17.000,16.998 L17.000,17.998 Z" class="cls-1"/>
</svg>
