<svg xmlns="http://www.w3.org/2000/svg" xmlns:xlink="http://www.w3.org/1999/xlink" preserveAspectRatio="xMidYMid" width="25" height="25" viewBox="0 0 25 25">
  <defs>
    <style>
      .cls-1 {
        fill: #3c4042;
        fill-rule: evenodd;
      }
    </style>
  </defs>
  <path d="M21.000,8.947 L21.000,8.998 L17.000,8.998 L17.000,15.998 L20.492,15.998 C20.495,15.998 20.497,15.997 20.500,15.997 C20.503,15.997 20.505,15.998 20.508,15.998 L21.000,15.998 L21.000,16.048 C23.247,16.299 25.000,18.183 25.000,20.496 C25.000,22.983 22.985,24.997 20.500,24.997 C18.186,24.997 16.302,23.244 16.050,20.997 L16.000,20.997 L16.000,16.998 L9.000,16.998 L9.000,20.498 C9.000,20.499 9.000,20.500 9.000,20.501 C9.000,20.502 9.000,20.503 9.000,20.504 L9.000,20.997 L8.950,20.997 C8.700,23.246 6.815,25.001 4.500,25.001 C2.015,25.001 0.000,22.986 0.000,20.501 C0.000,18.187 1.753,16.303 4.000,16.052 L4.000,15.998 L8.000,15.998 L8.000,8.998 L4.000,8.998 L4.000,8.947 C1.753,8.695 0.000,6.811 0.000,4.497 C0.000,2.012 2.015,-0.003 4.500,-0.003 C6.814,-0.003 8.698,1.751 8.950,3.997 L9.000,3.997 L9.000,4.495 C9.000,4.495 9.000,4.496 9.000,4.497 C9.000,4.498 9.000,4.499 9.000,4.500 L9.000,7.998 L16.000,7.998 L16.000,4.498 C16.000,4.497 16.000,4.497 16.000,4.497 C16.000,4.497 16.000,4.497 16.000,4.497 L16.000,3.997 L16.050,3.997 C16.302,1.751 18.186,-0.003 20.500,-0.003 C22.985,-0.003 25.000,2.012 25.000,4.497 C25.000,6.811 23.246,8.695 21.000,8.947 ZM17.000,17.701 C17.000,17.701 17.000,17.701 17.000,17.701 L17.000,20.496 C17.000,20.496 17.000,20.496 17.000,20.496 C17.000,20.497 17.000,20.497 17.000,20.498 L17.000,20.997 L17.050,20.997 C17.295,22.691 18.738,23.997 20.500,23.997 C22.433,23.997 24.000,22.431 24.000,20.496 C24.000,18.735 22.694,17.292 21.000,17.048 L21.000,16.996 L17.000,16.996 L17.000,16.998 L17.000,16.998 L17.000,17.701 ZM8.000,3.996 L7.950,3.996 C7.705,2.303 6.262,0.997 4.500,0.997 C2.567,0.997 1.000,2.564 1.000,4.497 C1.000,6.259 2.306,7.703 4.000,7.947 L4.000,7.997 L4.496,7.997 C4.497,7.997 4.499,7.997 4.500,7.997 C4.501,7.997 4.503,7.997 4.504,7.997 L7.296,7.997 C7.296,7.997 7.295,7.998 7.295,7.998 L8.000,7.998 L8.000,7.997 L8.000,7.997 L8.000,3.996 ZM8.000,17.001 L8.000,17.001 L8.000,16.998 L7.293,16.998 C7.294,16.999 7.295,17.000 7.296,17.001 L4.000,17.001 L4.000,17.051 C2.306,17.296 1.000,18.739 1.000,20.501 C1.000,22.434 2.567,24.000 4.500,24.000 C6.262,24.000 7.705,22.696 7.950,21.002 L8.000,21.002 L8.000,17.001 ZM16.000,8.998 L9.000,8.998 L9.000,15.998 L16.000,15.998 L16.000,8.998 ZM20.500,0.997 C18.738,0.997 17.295,2.303 17.050,3.996 L17.000,3.996 L17.000,7.997 L17.000,7.997 L17.000,7.998 L17.705,7.998 C17.704,7.998 17.704,7.997 17.703,7.997 L20.496,7.997 C20.497,7.997 20.498,7.997 20.500,7.997 C20.501,7.997 20.502,7.997 20.504,7.997 L21.000,7.997 L21.000,7.947 C22.694,7.703 24.000,6.259 24.000,4.497 C24.000,2.564 22.433,0.997 20.500,0.997 Z" class="cls-1"/>
</svg>
