<svg xmlns="http://www.w3.org/2000/svg" xmlns:xlink="http://www.w3.org/1999/xlink" preserveAspectRatio="xMidYMid" width="25" height="25" viewBox="0 0 25 25">
  <defs>
    <style>
      .cls-1 {
        fill: #3c4042;
        fill-rule: evenodd;
      }
    </style>
  </defs>
  <path d="M12.501,24.999 C5.598,24.999 0.001,19.402 0.001,12.499 C0.001,5.596 5.598,-0.001 12.501,-0.001 C19.405,-0.001 25.001,5.596 25.001,12.499 C25.001,19.402 19.405,24.999 12.501,24.999 ZM12.501,0.999 C6.150,0.999 1.001,6.148 1.001,12.499 C1.001,18.850 6.150,23.999 12.501,23.999 C18.852,23.999 24.002,18.850 24.002,12.499 C24.002,6.148 18.852,0.999 12.501,0.999 ZM18.119,10.830 L13.000,5.710 L13.000,20.499 C13.000,20.776 12.776,20.999 12.500,20.999 C12.224,20.999 12.000,20.776 12.000,20.499 L12.000,5.710 L6.881,10.830 C6.675,11.035 6.342,11.035 6.137,10.830 C5.932,10.624 5.932,10.290 6.137,10.085 L12.086,4.136 C12.139,4.083 12.212,4.082 12.278,4.057 C12.298,4.047 12.318,4.039 12.339,4.031 C12.396,4.017 12.441,3.994 12.499,3.999 C12.499,3.999 12.499,3.999 12.500,3.999 C12.500,3.999 12.501,3.999 12.501,3.999 C12.558,3.994 12.604,4.017 12.660,4.031 C12.682,4.039 12.702,4.047 12.722,4.057 C12.788,4.082 12.861,4.083 12.914,4.136 L18.863,10.085 C19.068,10.290 19.068,10.624 18.863,10.830 C18.657,11.035 18.324,11.035 18.119,10.830 Z" class="cls-1"/>
</svg>
