<svg xmlns="http://www.w3.org/2000/svg" xmlns:xlink="http://www.w3.org/1999/xlink" preserveAspectRatio="xMidYMid" width="17" height="25" viewBox="0 0 17 25">
  <defs>
    <style>
      .cls-1 {
        fill: #3c4042;
        fill-rule: evenodd;
      }
    </style>
  </defs>
  <path d="M16.075,14.004 L11.000,14.004 L11.000,22.499 C11.000,23.880 9.881,24.999 8.500,24.999 C7.119,24.999 6.000,23.880 6.000,22.499 L6.000,14.004 L0.925,14.004 C0.341,14.004 0.009,13.732 0.009,13.335 C0.009,13.148 0.081,12.936 0.231,12.710 L7.637,0.528 C7.874,0.173 8.187,-0.006 8.500,-0.006 C8.813,-0.006 9.126,0.173 9.364,0.528 L16.768,12.710 C16.919,12.936 16.991,13.148 16.991,13.335 C16.991,13.732 16.660,14.004 16.075,14.004 ZM8.540,1.096 C8.525,1.074 8.511,1.055 8.500,1.040 C8.490,1.052 8.479,1.066 8.468,1.083 L1.243,13.004 L7.000,13.004 L7.000,22.499 C7.000,23.327 7.671,23.999 8.500,23.999 C9.328,23.999 10.000,23.327 10.000,22.499 L10.000,13.004 L15.756,13.004 L8.540,1.096 Z" class="cls-1"/>
</svg>
