<svg xmlns="http://www.w3.org/2000/svg" xmlns:xlink="http://www.w3.org/1999/xlink" preserveAspectRatio="xMidYMid" width="24.97" height="25" viewBox="0 0 24.97 25">
  <defs>
    <style>
      .cls-1 {
        fill: #3c4042;
        fill-rule: evenodd;
      }
    </style>
  </defs>
  <path d="M24.798,12.827 C24.608,13.017 24.300,13.017 24.110,12.827 L19.970,8.686 L19.970,24.500 C19.970,24.775 19.746,24.999 19.470,24.999 L5.470,24.999 C5.194,24.999 4.970,24.775 4.970,24.500 L4.970,8.686 L0.829,12.827 C0.640,13.017 0.332,13.017 0.142,12.827 C-0.048,12.637 -0.048,12.329 0.142,12.139 L12.091,0.190 C12.103,0.176 12.098,0.155 12.112,0.141 C12.211,0.042 12.340,0.001 12.470,0.004 C12.599,0.001 12.729,0.042 12.828,0.141 C12.842,0.155 12.837,0.176 12.849,0.190 L24.798,12.139 C24.987,12.329 24.987,12.637 24.798,12.827 ZM18.970,7.686 L12.470,1.187 L5.970,7.686 L5.970,23.999 L18.970,23.999 L18.970,7.686 Z" class="cls-1"/>
</svg>
