<svg xmlns="http://www.w3.org/2000/svg" xmlns:xlink="http://www.w3.org/1999/xlink" preserveAspectRatio="xMidYMid" width="25" height="21" viewBox="0 0 25 21">
  <defs>
    <style>
      .cls-1 {
        fill: #3c4042;
        fill-rule: evenodd;
      }
    </style>
  </defs>
  <path d="M24.000,13.997 L24.000,20.998 L23.000,20.998 L23.000,13.997 L2.000,13.997 L2.000,20.998 L1.000,20.998 L1.000,13.997 L-0.000,13.997 L-0.000,8.999 L-0.000,7.998 L-0.000,-0.003 L25.000,-0.003 L25.000,7.998 L25.000,8.999 L25.000,13.997 L24.000,13.997 ZM12.000,0.997 L1.000,0.997 L1.000,7.998 L12.000,7.998 L12.000,0.997 ZM24.000,0.997 L13.000,0.997 L13.000,7.998 L24.000,7.998 L24.000,0.997 ZM24.000,8.999 L1.000,8.999 L1.000,12.998 L24.000,12.998 L24.000,8.999 ZM20.000,3.999 L17.000,3.999 L17.000,2.998 L20.000,2.998 L20.000,3.999 ZM8.000,3.999 L5.000,3.999 L5.000,2.998 L8.000,2.998 L8.000,3.999 Z" class="cls-1"/>
</svg>
