<svg xmlns="http://www.w3.org/2000/svg" xmlns:xlink="http://www.w3.org/1999/xlink" preserveAspectRatio="xMidYMid" width="25" height="25" viewBox="0 0 25 25">
  <defs>
    <style>
      .cls-1 {
        fill: #3c4042;
        fill-rule: evenodd;
      }
    </style>
  </defs>
  <path d="M13.870,16.822 C13.862,16.832 13.865,16.846 13.856,16.855 C13.669,17.042 13.366,17.042 13.178,16.855 L13.168,16.845 C13.159,16.837 13.144,16.840 13.136,16.831 C13.126,16.822 13.130,16.809 13.122,16.799 L8.114,11.790 C7.927,11.604 7.927,11.300 8.114,11.113 C8.301,10.926 8.604,10.926 8.791,11.113 L13.460,15.782 L24.107,5.135 C24.307,4.935 24.632,4.935 24.832,5.135 C25.032,5.335 25.032,5.659 24.832,5.860 L13.870,16.822 ZM12.490,0.997 C6.142,0.997 0.995,6.146 0.995,12.498 C0.995,18.849 6.142,23.997 12.490,23.997 C18.839,23.997 23.985,18.849 23.985,12.498 C23.985,12.080 23.960,11.668 23.917,11.261 L24.821,10.382 C24.939,11.071 25.013,11.775 25.013,12.498 C25.013,19.402 19.414,24.997 12.507,24.997 C5.599,24.997 -0.000,19.402 -0.000,12.498 C-0.000,5.594 5.599,-0.002 12.507,-0.002 C15.670,-0.002 18.550,1.181 20.753,3.116 L20.024,3.825 C18.006,2.068 15.376,0.997 12.490,0.997 Z" class="cls-1"/>
</svg>
