<svg xmlns="http://www.w3.org/2000/svg" xmlns:xlink="http://www.w3.org/1999/xlink" preserveAspectRatio="xMidYMid" width="25" height="25" viewBox="0 0 25 25">
  <defs>
    <style>
      .cls-1 {
        fill: #3c4042;
        fill-rule: evenodd;
      }
    </style>
  </defs>
  <path d="M21.875,24.997 L3.125,24.997 C1.399,24.997 -0.000,23.599 -0.000,21.872 L-0.000,3.123 C-0.000,1.397 1.399,-0.002 3.125,-0.002 L21.875,-0.002 C23.601,-0.002 25.000,1.397 25.000,3.123 L25.000,21.872 C25.000,23.599 23.601,24.997 21.875,24.997 ZM24.000,2.999 C24.000,1.895 23.104,0.999 22.000,0.999 L3.000,0.999 C1.895,0.999 1.000,1.895 1.000,2.999 L1.000,21.999 C1.000,23.104 1.895,23.999 3.000,23.999 L22.000,23.999 C23.104,23.999 24.000,23.104 24.000,21.999 L24.000,2.999 ZM21.500,10.999 C21.224,10.999 21.000,10.775 21.000,10.499 L21.000,3.999 L14.500,3.999 C14.224,3.999 14.000,3.775 14.000,3.499 C14.000,3.223 14.224,2.999 14.500,2.999 L21.500,2.999 C21.776,2.999 22.000,3.223 22.000,3.499 L22.000,10.499 C22.000,10.775 21.776,10.999 21.500,10.999 ZM10.500,21.999 L3.500,21.999 C3.224,21.999 3.000,21.775 3.000,21.499 L3.000,14.499 C3.000,14.223 3.224,13.999 3.500,13.999 C3.776,13.999 4.000,14.223 4.000,14.499 L4.000,20.999 L10.500,20.999 C10.776,20.999 11.000,21.223 11.000,21.499 C11.000,21.775 10.776,21.999 10.500,21.999 Z" class="cls-1"/>
</svg>
