<svg xmlns="http://www.w3.org/2000/svg" xmlns:xlink="http://www.w3.org/1999/xlink" preserveAspectRatio="xMidYMid" width="25" height="25" viewBox="0 0 25 25">
  <defs>
    <style>
      .cls-1 {
        fill: #3c4042;
        fill-rule: evenodd;
      }
    </style>
  </defs>
  <path d="M24.500,24.999 C24.224,24.999 24.000,24.775 24.000,24.499 L24.000,17.322 C22.110,21.823 17.688,24.997 12.500,24.997 C6.105,24.997 0.840,20.193 0.098,13.997 L1.109,13.997 C1.845,19.639 6.658,23.998 12.500,23.998 C17.247,23.998 21.288,21.104 23.044,16.999 L16.500,16.999 C16.224,16.999 16.000,16.775 16.000,16.500 C16.000,16.223 16.224,15.999 16.500,15.999 L23.453,15.999 C23.453,15.999 23.453,15.998 23.453,15.998 L24.494,15.998 C24.493,15.998 24.493,15.999 24.493,15.999 L24.500,15.999 C24.776,15.999 25.000,16.223 25.000,16.500 L25.000,24.499 C25.000,24.775 24.776,24.999 24.500,24.999 ZM12.500,0.998 C7.752,0.998 3.709,3.893 1.955,7.999 L8.500,7.999 C8.776,7.999 9.000,8.223 9.000,8.499 C9.000,8.775 8.776,8.999 8.500,8.999 L0.500,8.999 C0.224,8.999 -0.000,8.775 -0.000,8.499 L-0.000,0.499 C-0.000,0.223 0.224,-0.001 0.500,-0.001 C0.776,-0.001 1.000,0.223 1.000,0.499 L1.000,7.674 C2.890,3.172 7.312,-0.002 12.500,-0.002 C18.895,-0.002 24.159,4.802 24.901,10.997 L23.891,10.997 C23.154,5.357 18.341,0.998 12.500,0.998 Z" class="cls-1"/>
</svg>
