<svg xmlns="http://www.w3.org/2000/svg" xmlns:xlink="http://www.w3.org/1999/xlink" preserveAspectRatio="xMidYMid" width="25" height="22" viewBox="0 0 25 22">
  <defs>
    <style>
      .cls-1 {
        fill: #3c4042;
        fill-rule: evenodd;
      }
    </style>
  </defs>
  <path d="M21.875,21.998 L16.994,21.998 L16.994,20.999 L22.000,20.999 C23.104,20.999 24.000,20.103 24.000,18.999 L24.000,15.993 L25.000,15.993 L25.000,18.855 C25.000,20.591 23.601,21.998 21.875,21.998 ZM24.000,2.999 C24.000,1.895 23.104,1.000 22.000,1.000 L16.994,1.000 L16.994,-0.002 L21.875,-0.002 C23.601,-0.002 25.000,1.405 25.000,3.141 L25.000,6.003 L24.000,6.003 L24.000,2.999 ZM1.000,2.999 L1.000,6.003 L-0.000,6.003 L-0.000,3.141 C-0.000,1.405 1.399,-0.002 3.125,-0.002 L8.003,-0.002 L8.003,1.000 L3.000,1.000 C1.895,1.000 1.000,1.895 1.000,2.999 ZM1.000,18.999 C1.000,20.103 1.895,20.999 3.000,20.999 L8.003,20.999 L8.003,21.998 L3.125,21.998 C1.399,21.998 -0.000,20.591 -0.000,18.855 L-0.000,15.993 L1.000,15.993 L1.000,18.999 Z" class="cls-1"/>
</svg>
