<svg xmlns="http://www.w3.org/2000/svg" xmlns:xlink="http://www.w3.org/1999/xlink" preserveAspectRatio="xMidYMid" width="25" height="25" viewBox="0 0 25 25">
  <defs>
    <style>
      .cls-1 {
        fill: #3c4042;
        fill-rule: evenodd;
      }
    </style>
  </defs>
  <path d="M12.500,24.998 C5.596,24.998 -0.000,19.402 -0.000,12.498 C-0.000,5.594 5.596,-0.003 12.500,-0.003 C19.403,-0.003 25.000,5.594 25.000,12.498 C25.000,19.402 19.403,24.998 12.500,24.998 ZM12.500,0.997 C6.149,0.997 1.000,6.147 1.000,12.498 C1.000,18.849 6.149,23.998 12.500,23.998 C18.851,23.998 24.000,18.849 24.000,12.498 C24.000,6.147 18.851,0.997 12.500,0.997 ZM18.500,12.999 L11.500,12.999 C11.224,12.999 11.000,12.775 11.000,12.499 L11.000,4.499 C11.000,4.223 11.224,3.999 11.500,3.999 C11.776,3.999 12.000,4.223 12.000,4.499 L12.000,11.999 L18.500,11.999 C18.776,11.999 19.000,12.223 19.000,12.499 C19.000,12.775 18.776,12.999 18.500,12.999 Z" class="cls-1"/>
</svg>
