<svg xmlns="http://www.w3.org/2000/svg" xmlns:xlink="http://www.w3.org/1999/xlink" preserveAspectRatio="xMidYMid" width="25.03" height="25" viewBox="0 0 25.03 25">
  <defs>
    <style>
      .cls-1 {
        fill: #3c4042;
        fill-rule: evenodd;
      }
    </style>
  </defs>
  <path d="M24.885,13.788 L18.881,19.792 C18.867,19.811 18.872,19.837 18.855,19.854 C18.757,19.952 18.628,19.992 18.500,19.986 C18.371,19.992 18.243,19.952 18.145,19.854 C18.128,19.837 18.133,19.811 18.119,19.792 L12.115,13.788 C11.929,13.602 11.929,13.301 12.115,13.114 C12.301,12.928 12.603,12.928 12.789,13.114 L18.000,18.325 L18.000,1.999 C18.000,1.446 17.552,0.999 17.000,0.999 L2.000,0.999 C1.448,0.999 1.000,1.446 1.000,1.999 L1.000,22.999 C1.000,23.551 1.448,23.999 2.000,23.999 L14.001,23.999 L14.001,24.997 L1.642,24.997 C0.735,24.997 -0.000,24.298 -0.000,23.435 L-0.000,1.560 C-0.000,0.696 0.735,-0.003 1.642,-0.003 L17.365,-0.003 C18.272,-0.003 19.008,0.696 19.008,1.560 L19.008,18.317 L24.211,13.114 C24.397,12.928 24.699,12.928 24.885,13.114 C25.071,13.301 25.071,13.602 24.885,13.788 Z" class="cls-1"/>
</svg>
