<svg xmlns="http://www.w3.org/2000/svg" xmlns:xlink="http://www.w3.org/1999/xlink" preserveAspectRatio="xMidYMid" width="25" height="20" viewBox="0 0 25 20">
  <defs>
    <style>
      .cls-1 {
        fill: #3c4042;
        fill-rule: evenodd;
      }
    </style>
  </defs>
  <path d="M24.895,19.360 C24.838,19.724 24.557,19.992 24.172,19.992 C24.163,19.992 24.154,19.992 24.145,19.992 C23.750,19.978 23.501,19.687 23.467,19.313 C23.440,19.037 22.925,11.999 12.000,11.999 L12.006,16.280 C12.006,16.560 11.823,16.818 11.535,16.938 C11.424,16.986 11.305,17.008 11.185,17.008 C10.998,17.008 10.812,16.952 10.662,16.841 L0.285,9.232 C0.104,9.089 -0.001,8.879 -0.001,8.656 C0.000,8.432 0.106,8.222 0.287,8.081 L10.665,0.171 C10.814,0.063 10.997,0.007 11.183,0.007 C11.303,0.007 11.424,0.030 11.536,0.078 C11.823,0.200 12.006,0.458 12.006,0.740 L12.000,4.999 C16.540,5.136 19.773,6.446 22.052,8.984 C25.762,13.111 24.934,19.110 24.895,19.360 ZM21.309,9.651 C19.185,7.288 16.218,6.127 11.970,5.999 L10.999,5.969 L11.000,4.998 L11.005,1.168 L1.187,8.653 L11.005,15.853 L11.000,10.999 L11.998,10.999 L12.002,10.999 C20.279,11.000 23.066,14.893 24.000,17.348 C23.968,15.347 23.526,12.119 21.309,9.651 Z" class="cls-1"/>
</svg>
