<svg xmlns="http://www.w3.org/2000/svg" xmlns:xlink="http://www.w3.org/1999/xlink" preserveAspectRatio="xMidYMid" width="23.969" height="19.97" viewBox="0 0 23.969 19.97">
  <defs>
    <style>
      .cls-1 {
        fill: #3c4042;
        fill-rule: evenodd;
      }
    </style>
  </defs>
  <path d="M23.830,4.868 L8.842,19.828 C8.737,19.932 8.600,19.978 8.463,19.973 C8.327,19.976 8.191,19.926 8.087,19.822 L0.144,11.879 C0.035,11.770 -0.005,11.628 0.002,11.486 C-0.014,11.326 0.019,11.164 0.142,11.042 L4.043,7.141 C4.169,7.015 4.339,6.971 4.503,6.993 C4.639,6.990 4.776,7.039 4.880,7.143 L8.482,10.746 L19.109,0.148 C19.166,0.091 19.234,0.055 19.305,0.031 C19.487,-0.043 19.704,-0.008 19.852,0.140 L23.827,4.116 C23.929,4.217 23.973,4.350 23.970,4.483 C23.977,4.622 23.937,4.762 23.830,4.868 ZM19.494,1.204 L8.842,11.828 C8.737,11.932 8.600,11.978 8.463,11.973 C8.327,11.976 8.191,11.926 8.087,11.822 L4.505,8.240 L1.241,11.504 L8.482,18.746 L22.773,4.483 L19.494,1.204 Z" class="cls-1"/>
</svg>
