<svg xmlns="http://www.w3.org/2000/svg" xmlns:xlink="http://www.w3.org/1999/xlink" preserveAspectRatio="xMidYMid" width="25" height="25" viewBox="0 0 25 25">
  <defs>
    <style>
      .cls-1 {
        fill: #3c4042;
        fill-rule: evenodd;
      }
    </style>
  </defs>
  <path d="M24.828,24.827 C24.635,25.020 24.322,25.020 24.130,24.827 L17.557,18.255 C15.692,19.953 13.221,20.997 10.500,20.997 C4.701,20.997 -0.000,16.297 -0.000,10.497 C-0.000,4.698 4.701,-0.002 10.500,-0.002 C16.299,-0.002 21.000,4.698 21.000,10.497 C21.000,13.219 19.955,15.691 18.256,17.557 L24.828,24.129 C25.021,24.322 25.021,24.635 24.828,24.827 ZM20.000,10.497 C20.000,5.251 15.747,0.998 10.500,0.998 C5.253,0.998 1.000,5.251 1.000,10.497 C1.000,15.745 5.253,19.998 10.500,19.998 C15.747,19.998 20.000,15.745 20.000,10.497 ZM8.839,13.827 C8.742,13.925 8.615,13.972 8.488,13.971 C8.362,13.972 8.236,13.926 8.139,13.829 L5.139,10.829 C4.948,10.638 4.948,10.329 5.139,10.138 C5.330,9.947 5.639,9.947 5.830,10.138 L8.480,12.789 L15.130,6.140 C15.322,5.947 15.635,5.947 15.828,6.140 C16.021,6.333 16.021,6.646 15.828,6.839 L8.839,13.827 Z" class="cls-1"/>
</svg>
