<svg xmlns="http://www.w3.org/2000/svg" xmlns:xlink="http://www.w3.org/1999/xlink" preserveAspectRatio="xMidYMid" width="25" height="25" viewBox="0 0 25 25">
  <defs>
    <style>
      .cls-1 {
        fill: #3c4042;
        fill-rule: evenodd;
      }
    </style>
  </defs>
  <path d="M23.416,18.996 L7.583,18.996 C6.709,18.996 6.000,18.288 6.000,17.414 L6.000,1.580 C6.000,0.706 6.709,-0.002 7.583,-0.002 L23.416,-0.002 C24.291,-0.002 25.000,0.706 25.000,1.580 L25.000,17.414 C25.000,18.288 24.291,18.996 23.416,18.996 ZM24.000,1.999 C24.000,1.447 23.552,0.999 23.000,0.999 L8.000,0.999 C7.447,0.999 7.000,1.447 7.000,1.999 L7.000,16.999 C7.000,17.551 7.447,17.999 8.000,17.999 L23.000,17.999 C23.552,17.999 24.000,17.551 24.000,16.999 L24.000,1.999 ZM1.000,7.999 L1.000,22.999 C1.000,23.551 1.448,23.999 2.000,23.999 L17.000,23.999 C17.552,23.999 18.000,23.551 18.000,22.999 L18.000,19.998 L19.000,19.998 L19.000,23.413 C19.000,24.288 18.291,24.997 17.416,24.997 L1.583,24.997 C0.709,24.997 -0.000,24.288 -0.000,23.413 L-0.000,7.581 C-0.000,6.706 0.709,5.998 1.583,5.998 L5.000,5.998 L5.000,6.999 L2.000,6.999 C1.448,6.999 1.000,7.447 1.000,7.999 Z" class="cls-1"/>
</svg>
