<svg xmlns="http://www.w3.org/2000/svg" xmlns:xlink="http://www.w3.org/1999/xlink" preserveAspectRatio="xMidYMid" width="25" height="11.03" viewBox="0 0 25 11.03">
  <defs>
    <style>
      .cls-1 {
        fill: #3c4042;
        fill-rule: evenodd;
      }
    </style>
  </defs>
  <path d="M24.834,5.865 C24.830,5.870 24.832,5.878 24.827,5.882 L19.852,10.858 C19.655,11.055 19.337,11.055 19.141,10.858 C18.945,10.662 18.945,10.343 19.141,10.147 L23.289,5.999 L1.727,5.999 L5.859,10.119 C6.055,10.315 6.055,10.631 5.859,10.827 C5.662,11.023 5.344,11.023 5.148,10.827 L0.186,5.879 C0.075,5.788 -0.000,5.654 -0.000,5.499 C-0.000,5.357 0.061,5.229 0.157,5.138 C0.166,5.128 0.162,5.111 0.172,5.101 L5.148,0.140 C5.344,-0.056 5.662,-0.056 5.859,0.140 C6.055,0.336 6.055,0.653 5.859,0.848 L1.696,4.999 L23.289,4.999 L19.141,0.851 C18.945,0.655 18.945,0.336 19.141,0.140 C19.337,-0.056 19.655,-0.056 19.852,0.140 L24.827,5.116 C24.832,5.121 24.830,5.128 24.834,5.133 C24.935,5.224 25.000,5.352 25.000,5.499 C25.000,5.645 24.935,5.774 24.834,5.865 Z" class="cls-1"/>
</svg>
