<svg xmlns="http://www.w3.org/2000/svg" xmlns:xlink="http://www.w3.org/1999/xlink" preserveAspectRatio="xMidYMid" width="25" height="25" viewBox="0 0 25 25">
  <defs>
    <style>
      .cls-1 {
        fill: #3c4042;
        fill-rule: evenodd;
      }
    </style>
  </defs>
  <path d="M24.500,10.999 C24.224,10.999 24.000,10.775 24.000,10.500 L24.000,1.661 L1.661,23.999 L10.500,23.999 C10.776,23.999 11.000,24.223 11.000,24.499 C11.000,24.775 10.776,24.999 10.500,24.999 L0.500,24.999 C0.224,24.999 -0.000,24.775 -0.000,24.499 L-0.000,24.495 C-0.000,24.487 -0.000,24.480 -0.000,24.472 L-0.000,14.500 C-0.000,14.222 0.224,13.999 0.500,13.999 C0.776,13.999 1.000,14.222 1.000,14.500 L1.000,23.276 L23.277,0.999 L14.500,0.999 C14.224,0.999 14.000,0.775 14.000,0.499 C14.000,0.223 14.224,-0.001 14.500,-0.001 L24.473,-0.001 C24.481,-0.001 24.488,-0.001 24.496,-0.001 L24.500,-0.001 C24.776,-0.001 25.000,0.223 25.000,0.499 L25.000,10.500 C25.000,10.775 24.776,10.999 24.500,10.999 Z" class="cls-1"/>
</svg>
