<svg xmlns="http://www.w3.org/2000/svg" xmlns:xlink="http://www.w3.org/1999/xlink" preserveAspectRatio="xMidYMid" width="19" height="11" viewBox="0 0 19 11">
  <defs>
    <style>
      .cls-1 {
        fill: #3c4042;
        fill-rule: evenodd;
      }
    </style>
  </defs>
  <path d="M18.733,10.937 C18.478,11.073 18.152,10.993 18.005,10.758 L9.500,1.211 L0.995,10.758 C0.848,10.993 0.522,11.073 0.267,10.937 C0.011,10.802 -0.076,10.502 0.071,10.268 L9.005,0.240 C9.100,0.088 9.272,0.009 9.450,0.004 C9.467,0.001 9.483,0.002 9.500,0.001 C9.517,0.002 9.533,0.001 9.550,0.004 C9.728,0.009 9.899,0.088 9.995,0.240 L18.928,10.268 C19.076,10.502 18.988,10.802 18.733,10.937 Z" class="cls-1"/>
</svg>
