<svg xmlns="http://www.w3.org/2000/svg" xmlns:xlink="http://www.w3.org/1999/xlink" preserveAspectRatio="xMidYMid" width="23" height="23" viewBox="0 0 23 23">
  <defs>
    <style>
      .cls-1 {
        fill: #3c4042;
        fill-rule: evenodd;
      }
    </style>
  </defs>
  <path d="M11.500,22.998 C5.148,22.998 -0.000,17.850 -0.000,11.498 C-0.000,5.146 5.148,-0.002 11.500,-0.002 C17.851,-0.002 23.000,5.146 23.000,11.498 C23.000,17.850 17.851,22.998 11.500,22.998 ZM11.500,0.999 C5.702,0.999 1.002,5.700 1.002,11.498 C1.002,17.296 5.702,21.995 11.500,21.995 C17.298,21.995 21.998,17.296 21.998,11.498 C21.998,5.700 17.298,0.999 11.500,0.999 ZM16.500,11.999 L6.500,11.999 C6.224,11.999 6.000,11.775 6.000,11.499 C6.000,11.223 6.224,10.999 6.500,10.999 L16.500,10.999 C16.776,10.999 17.000,11.223 17.000,11.499 C17.000,11.775 16.776,11.999 16.500,11.999 Z" class="cls-1"/>
</svg>
