<svg xmlns="http://www.w3.org/2000/svg" xmlns:xlink="http://www.w3.org/1999/xlink" preserveAspectRatio="xMidYMid" width="25" height="25" viewBox="0 0 25 25">
  <defs>
    <style>
      .cls-1 {
        fill: #3c4042;
        fill-rule: evenodd;
      }
    </style>
  </defs>
  <path d="M16.000,13.999 L16.000,17.999 L15.000,17.999 L15.000,13.999 L13.000,13.999 L13.000,23.999 L17.000,23.999 L17.000,24.999 L8.000,24.999 L8.000,23.999 L12.000,23.999 L12.000,13.999 L-0.000,13.999 L-0.000,12.999 L25.000,12.999 L25.000,13.999 L16.000,13.999 ZM23.987,12.998 C23.994,12.832 24.000,12.666 24.000,12.498 C24.000,11.990 23.963,11.490 23.899,10.998 L1.100,10.998 C1.036,11.490 1.000,11.990 1.000,12.498 C1.000,12.666 1.005,12.832 1.012,12.998 L0.012,12.998 C0.006,12.832 -0.000,12.666 -0.000,12.498 C-0.000,5.595 5.596,-0.002 12.500,-0.002 C19.403,-0.002 25.000,5.595 25.000,12.498 C25.000,12.666 24.994,12.832 24.987,12.998 L23.987,12.998 ZM12.500,0.999 C7.007,0.999 2.417,4.850 1.275,9.999 L23.724,9.999 C22.582,4.850 17.992,0.999 12.500,0.999 Z" class="cls-1"/>
</svg>
