<svg xmlns="http://www.w3.org/2000/svg" xmlns:xlink="http://www.w3.org/1999/xlink" preserveAspectRatio="xMidYMid" width="25" height="25" viewBox="0 0 25 25">
  <defs>
    <style>
      .cls-1 {
        fill: #3c4042;
        fill-rule: evenodd;
      }
    </style>
  </defs>
  <path d="M12.500,24.998 C5.596,24.998 -0.000,19.401 -0.000,12.497 C-0.000,5.595 5.596,-0.003 12.500,-0.003 C19.403,-0.003 25.000,5.595 25.000,12.497 C25.000,19.401 19.403,24.998 12.500,24.998 ZM15.000,23.717 C19.341,22.754 22.750,19.338 23.716,14.999 L18.483,14.999 C17.823,16.573 16.575,17.839 15.000,18.496 L15.000,23.717 ZM18.000,12.497 C18.000,9.460 15.537,6.998 12.500,6.998 C9.462,6.998 7.000,9.460 7.000,12.497 C7.000,15.535 9.462,17.997 12.500,17.997 C15.537,17.997 18.000,15.535 18.000,12.497 ZM11.000,23.889 C11.492,23.953 11.990,23.998 12.500,23.998 C13.009,23.998 13.508,23.953 14.000,23.889 L14.000,18.806 C13.516,18.921 13.018,18.998 12.500,18.998 C11.981,18.998 11.483,18.921 11.000,18.806 L11.000,23.889 ZM10.000,23.717 L10.000,18.496 C8.424,17.839 7.177,16.573 6.517,14.999 L1.284,14.999 C2.249,19.338 5.659,22.754 10.000,23.717 ZM1.000,12.497 C1.000,13.008 1.044,13.507 1.108,13.999 L6.193,13.999 C6.078,13.515 6.000,13.017 6.000,12.497 C6.000,11.979 6.077,11.482 6.192,10.999 L1.108,10.999 C1.043,11.491 1.000,11.989 1.000,12.497 ZM10.000,1.278 C5.657,2.242 2.247,5.659 1.283,10.000 L6.515,10.000 C7.175,8.424 8.423,7.157 10.000,6.499 L10.000,1.278 ZM14.000,1.107 C13.508,1.042 13.009,0.997 12.500,0.997 C11.990,0.997 11.492,1.042 11.000,1.107 L11.000,6.188 C11.483,6.074 11.981,5.997 12.500,5.997 C13.018,5.997 13.516,6.074 14.000,6.188 L14.000,1.107 ZM15.000,1.278 L15.000,6.499 C16.576,7.157 17.824,8.424 18.484,10.000 L23.716,10.000 C22.752,5.659 19.342,2.242 15.000,1.278 ZM18.807,10.999 C18.922,11.482 19.000,11.979 19.000,12.497 C19.000,13.017 18.922,13.515 18.806,13.999 L23.891,13.999 C23.956,13.507 24.000,13.008 24.000,12.497 C24.000,11.989 23.956,11.491 23.892,10.999 L18.807,10.999 Z" class="cls-1"/>
</svg>
