<svg xmlns="http://www.w3.org/2000/svg" xmlns:xlink="http://www.w3.org/1999/xlink" preserveAspectRatio="xMidYMid" width="25" height="20" viewBox="0 0 25 20">
  <defs>
    <style>
      .cls-1 {
        fill: #3c4042;
        fill-rule: evenodd;
      }
    </style>
  </defs>
  <path d="M24.714,9.232 L14.337,16.841 C14.188,16.952 14.002,17.008 13.815,17.008 C13.695,17.008 13.576,16.986 13.464,16.938 C13.176,16.818 12.994,16.560 12.994,16.280 L12.999,11.999 C2.074,11.999 1.560,19.037 1.533,19.313 C1.499,19.687 1.250,19.978 0.855,19.992 C0.846,19.992 0.837,19.992 0.828,19.992 C0.442,19.992 0.162,19.724 0.104,19.360 C0.066,19.110 -0.763,13.111 2.947,8.984 C5.227,6.446 8.459,5.136 12.999,4.999 L12.994,0.740 C12.994,0.458 13.176,0.200 13.464,0.078 C13.576,0.030 13.697,0.007 13.817,0.007 C14.002,0.007 14.186,0.063 14.335,0.171 L24.712,8.081 C24.894,8.222 24.999,8.432 25.000,8.656 C25.000,8.879 24.896,9.089 24.714,9.232 ZM13.995,1.168 L14.000,4.998 L14.001,5.969 L13.030,5.999 C8.782,6.127 5.815,7.288 3.691,9.651 C1.474,12.119 1.031,15.347 1.000,17.348 C1.934,14.893 4.721,11.000 12.998,10.999 L13.002,10.999 L14.000,10.999 L13.995,15.853 L23.813,8.653 L13.995,1.168 Z" class="cls-1"/>
</svg>
