<svg xmlns="http://www.w3.org/2000/svg" xmlns:xlink="http://www.w3.org/1999/xlink" preserveAspectRatio="xMidYMid" width="23" height="23" viewBox="0 0 23 23">
  <defs>
    <style>
      .cls-1 {
        fill: #3c4042;
        fill-rule: evenodd;
      }
    </style>
  </defs>
  <path d="M22.500,11.999 L12.000,11.999 L12.000,22.499 C12.000,22.776 11.776,22.999 11.500,22.999 C11.224,22.999 11.000,22.776 11.000,22.499 L11.000,11.999 L0.500,11.999 C0.224,11.999 -0.000,11.775 -0.000,11.499 C-0.000,11.222 0.224,10.999 0.500,10.999 L11.000,10.999 L11.000,0.499 C11.000,0.223 11.224,-0.001 11.500,-0.001 C11.776,-0.001 12.000,0.223 12.000,0.499 L12.000,10.999 L22.500,10.999 C22.776,10.999 23.000,11.222 23.000,11.499 C23.000,11.775 22.776,11.999 22.500,11.999 Z" class="cls-1"/>
</svg>
