<svg xmlns="http://www.w3.org/2000/svg" xmlns:xlink="http://www.w3.org/1999/xlink" preserveAspectRatio="xMidYMid" width="23" height="23" viewBox="0 0 23 23">
  <defs>
    <style>
      .cls-1 {
        fill: #3c4042;
        fill-rule: evenodd;
      }
    </style>
  </defs>
  <path d="M19.933,22.997 L3.066,22.997 C1.373,22.997 -0.000,21.624 -0.000,19.930 L-0.000,3.064 C-0.000,1.371 1.373,-0.003 3.066,-0.003 L19.933,-0.003 C21.627,-0.003 23.000,1.371 23.000,3.064 L23.000,19.930 C23.000,21.624 21.627,22.997 19.933,22.997 ZM22.000,2.999 C22.000,1.894 21.104,0.999 20.000,0.999 L3.000,0.999 C1.895,0.999 1.000,1.894 1.000,2.999 L1.000,19.999 C1.000,21.103 1.895,21.999 3.000,21.999 L20.000,21.999 C21.104,21.999 22.000,21.103 22.000,19.999 L22.000,2.999 ZM16.500,11.999 L6.500,11.999 C6.224,11.999 6.000,11.776 6.000,11.499 C6.000,11.222 6.224,10.999 6.500,10.999 L16.500,10.999 C16.776,10.999 17.000,11.222 17.000,11.499 C17.000,11.776 16.776,11.999 16.500,11.999 Z" class="cls-1"/>
</svg>
