<svg xmlns="http://www.w3.org/2000/svg" xmlns:xlink="http://www.w3.org/1999/xlink" preserveAspectRatio="xMidYMid" width="15" height="22" viewBox="0 0 15 22">
  <defs>
    <style>
      .cls-1 {
        fill: #3c4042;
        fill-rule: evenodd;
      }
    </style>
  </defs>
  <path d="M14.853,8.852 C14.667,9.039 14.367,9.039 14.182,8.852 L7.983,1.762 L7.983,21.499 C7.983,21.775 7.760,21.999 7.484,21.999 C7.209,21.999 6.985,21.775 6.985,21.499 L6.985,1.762 L0.787,8.852 C0.602,9.039 0.301,9.039 0.116,8.852 C-0.069,8.668 -0.069,8.367 0.116,8.181 L7.026,0.276 C7.049,0.217 7.084,0.163 7.131,0.115 C7.163,0.084 7.209,0.089 7.246,0.068 C7.277,0.051 7.309,0.038 7.344,0.028 C7.358,0.023 7.372,0.028 7.386,0.025 C7.545,-0.019 7.713,-0.010 7.837,0.115 C7.885,0.163 7.919,0.217 7.942,0.276 L14.853,8.181 C15.038,8.367 15.038,8.668 14.853,8.852 Z" class="cls-1"/>
</svg>
