<svg xmlns="http://www.w3.org/2000/svg" xmlns:xlink="http://www.w3.org/1999/xlink" preserveAspectRatio="xMidYMid" width="25" height="25" viewBox="0 0 25 25">
  <defs>
    <style>
      .cls-1 {
        fill: #3c4042;
        fill-rule: evenodd;
      }
    </style>
  </defs>
  <path d="M12.500,24.998 C5.596,24.998 -0.000,19.401 -0.000,12.498 C-0.000,5.594 5.596,-0.003 12.500,-0.003 C19.403,-0.003 25.000,5.594 25.000,12.498 C25.000,19.401 19.403,24.998 12.500,24.998 ZM12.500,0.997 C6.149,0.997 1.000,6.146 1.000,12.497 C1.000,18.849 6.149,23.998 12.500,23.998 C18.851,23.998 24.000,18.849 24.000,12.497 C24.000,6.146 18.851,0.997 12.500,0.997 ZM20.967,12.660 C20.960,12.681 20.952,12.701 20.942,12.721 C20.917,12.787 20.916,12.860 20.863,12.913 L14.914,18.862 C14.708,19.067 14.375,19.067 14.170,18.862 C13.965,18.656 13.965,18.323 14.170,18.118 L19.289,12.999 L4.500,12.999 C4.224,12.999 4.000,12.775 4.000,12.499 C4.000,12.223 4.224,11.999 4.500,11.999 L19.289,11.999 L14.170,6.880 C13.965,6.674 13.965,6.341 14.170,6.137 C14.375,5.931 14.708,5.931 14.914,6.137 L20.863,12.086 C20.915,12.138 20.916,12.211 20.942,12.276 C20.952,12.296 20.960,12.317 20.967,12.339 C20.981,12.395 21.004,12.440 21.000,12.498 C21.000,12.498 21.000,12.499 21.000,12.499 C21.000,12.499 21.000,12.500 21.000,12.500 C21.004,12.558 20.981,12.604 20.967,12.660 Z" class="cls-1"/>
</svg>
