<svg xmlns="http://www.w3.org/2000/svg" xmlns:xlink="http://www.w3.org/1999/xlink" preserveAspectRatio="xMidYMid" width="11" height="25" viewBox="0 0 11 25">
  <defs>
    <style>
      .cls-1 {
        fill: #3c4042;
        fill-rule: evenodd;
      }
    </style>
  </defs>
  <path d="M10.830,5.858 C10.634,6.054 10.318,6.054 10.123,5.858 L5.984,1.696 L5.984,23.288 L10.120,19.140 C10.316,18.944 10.633,18.944 10.829,19.140 C11.025,19.337 11.025,19.654 10.829,19.851 L5.868,24.826 C5.863,24.831 5.856,24.829 5.851,24.833 C5.760,24.934 5.631,24.999 5.485,24.999 C5.339,24.999 5.211,24.934 5.120,24.833 C5.115,24.829 5.108,24.831 5.103,24.826 L0.142,19.851 C-0.054,19.654 -0.054,19.337 0.142,19.140 C0.337,18.944 0.655,18.944 0.850,19.140 L4.987,23.288 L4.987,1.727 L0.879,5.858 C0.684,6.054 0.368,6.054 0.172,5.858 C-0.023,5.662 -0.023,5.343 0.172,5.147 L5.107,0.185 C5.198,0.074 5.331,-0.001 5.485,-0.001 C5.628,-0.001 5.754,0.060 5.845,0.156 C5.856,0.165 5.872,0.161 5.882,0.171 L10.830,5.147 C11.025,5.343 11.025,5.662 10.830,5.858 Z" class="cls-1"/>
</svg>
