<svg xmlns="http://www.w3.org/2000/svg" xmlns:xlink="http://www.w3.org/1999/xlink" preserveAspectRatio="xMidYMid" width="22" height="22" viewBox="0 0 22 22">
  <defs>
    <style>
      .cls-1 {
        fill: #3c4042;
        fill-rule: evenodd;
      }
    </style>
  </defs>
  <path d="M20.000,21.999 L14.000,21.999 C12.895,21.999 12.000,21.104 12.000,19.999 L12.000,13.999 C12.000,12.894 12.895,11.999 14.000,11.999 L20.000,11.999 C21.104,11.999 22.000,12.894 22.000,13.999 L22.000,19.999 C22.000,21.104 21.104,21.999 20.000,21.999 ZM21.000,13.999 C21.000,13.447 20.552,12.999 20.000,12.999 L14.000,12.999 C13.448,12.999 13.000,13.447 13.000,13.999 L13.000,19.999 C13.000,20.551 13.448,20.999 14.000,20.999 L20.000,20.999 C20.552,20.999 21.000,20.551 21.000,19.999 L21.000,13.999 ZM20.000,9.999 L14.000,9.999 C12.895,9.999 12.000,9.104 12.000,7.999 L12.000,1.999 C12.000,0.895 12.895,-0.001 14.000,-0.001 L20.000,-0.001 C21.104,-0.001 22.000,0.895 22.000,1.999 L22.000,7.999 C22.000,9.104 21.104,9.999 20.000,9.999 ZM21.000,1.999 C21.000,1.447 20.552,0.999 20.000,0.999 L14.000,0.999 C13.448,0.999 13.000,1.447 13.000,1.999 L13.000,7.999 C13.000,8.551 13.448,8.999 14.000,8.999 L20.000,8.999 C20.552,8.999 21.000,8.551 21.000,7.999 L21.000,1.999 ZM8.000,21.999 L2.000,21.999 C0.895,21.999 -0.000,21.104 -0.000,19.999 L-0.000,13.999 C-0.000,12.894 0.895,11.999 2.000,11.999 L8.000,11.999 C9.104,11.999 10.000,12.894 10.000,13.999 L10.000,19.999 C10.000,21.104 9.104,21.999 8.000,21.999 ZM9.000,13.999 C9.000,13.447 8.552,12.999 8.000,12.999 L2.000,12.999 C1.448,12.999 1.000,13.447 1.000,13.999 L1.000,19.999 C1.000,20.551 1.448,20.999 2.000,20.999 L8.000,20.999 C8.552,20.999 9.000,20.551 9.000,19.999 L9.000,13.999 ZM8.000,9.999 L2.000,9.999 C0.895,9.999 -0.000,9.104 -0.000,7.999 L-0.000,1.999 C-0.000,0.895 0.895,-0.001 2.000,-0.001 L8.000,-0.001 C9.104,-0.001 10.000,0.895 10.000,1.999 L10.000,7.999 C10.000,9.104 9.104,9.999 8.000,9.999 ZM9.000,1.999 C9.000,1.447 8.552,0.999 8.000,0.999 L2.000,0.999 C1.448,0.999 1.000,1.447 1.000,1.999 L1.000,7.999 C1.000,8.551 1.448,8.999 2.000,8.999 L8.000,8.999 C8.552,8.999 9.000,8.551 9.000,7.999 L9.000,1.999 Z" class="cls-1"/>
</svg>
