<svg xmlns="http://www.w3.org/2000/svg" xmlns:xlink="http://www.w3.org/1999/xlink" preserveAspectRatio="xMidYMid" width="25" height="25" viewBox="0 0 25 25">
  <defs>
    <style>
      .cls-1 {
        fill: #3c4042;
        fill-rule: evenodd;
      }
    </style>
  </defs>
  <path d="M25.000,15.999 L25.000,20.310 C25.000,22.899 22.901,24.998 20.312,24.998 L16.000,24.998 L15.000,24.998 L15.000,23.999 L15.000,19.999 L15.000,18.999 L18.000,18.999 C18.552,18.999 19.000,18.551 19.000,17.999 L19.000,14.999 L20.000,14.999 L24.000,14.999 L25.000,14.999 L25.000,14.999 L25.000,15.999 L25.000,15.999 ZM24.000,15.999 L20.000,15.999 L20.000,17.999 C20.000,19.104 19.104,19.999 18.000,19.999 L16.000,19.999 L16.000,23.999 L20.000,23.999 C22.209,23.999 24.000,22.208 24.000,19.999 L24.000,15.999 ZM25.000,9.998 L24.000,9.998 L24.000,9.998 L20.000,9.998 L20.000,9.998 L19.000,9.998 L19.000,6.999 C19.000,6.446 18.552,5.999 18.000,5.999 L15.000,5.999 L15.000,4.999 L15.000,0.999 L15.000,-0.003 L16.000,-0.003 L20.312,-0.003 C22.901,-0.003 25.000,2.097 25.000,4.686 L25.000,8.998 L25.000,8.998 L25.000,9.998 L25.000,9.998 L25.000,9.998 ZM24.000,4.999 C24.000,2.790 22.209,0.999 20.000,0.999 L16.000,0.999 L16.000,4.999 L18.000,4.999 C19.104,4.999 20.000,5.894 20.000,6.999 L20.000,8.998 L24.000,8.998 L24.000,4.999 ZM10.000,4.999 L10.000,5.999 L7.000,5.999 C6.447,5.999 6.000,6.446 6.000,6.999 L6.000,9.998 L5.000,9.998 L5.000,9.998 L1.000,9.998 L1.000,9.998 L-0.000,9.998 L-0.000,9.998 L-0.000,8.998 L-0.000,4.686 C-0.000,2.097 2.098,-0.003 4.687,-0.003 L9.000,-0.003 L10.000,-0.003 L10.000,0.999 L10.000,4.999 ZM9.000,0.999 L5.000,0.999 C2.791,0.999 1.000,2.790 1.000,4.999 L1.000,8.998 L5.000,8.998 L5.000,6.999 C5.000,5.894 5.895,4.999 7.000,4.999 L9.000,4.999 L9.000,0.999 ZM5.000,14.999 L6.000,14.999 L6.000,17.999 C6.000,18.551 6.447,18.999 7.000,18.999 L10.000,18.999 L10.000,19.999 L10.000,23.999 L10.000,24.998 L9.000,24.998 L4.687,24.998 C2.098,24.998 -0.000,22.899 -0.000,20.310 L-0.000,15.999 L-0.000,14.999 L1.000,14.999 L5.000,14.999 ZM1.000,19.999 C1.000,22.208 2.791,23.999 5.000,23.999 L9.000,23.999 L9.000,19.999 L7.000,19.999 C5.895,19.999 5.000,19.104 5.000,17.999 L5.000,15.999 L1.000,15.999 L1.000,19.999 Z" class="cls-1"/>
</svg>
