<svg xmlns="http://www.w3.org/2000/svg" xmlns:xlink="http://www.w3.org/1999/xlink" preserveAspectRatio="xMidYMid" width="25" height="25" viewBox="0 0 25 25">
  <defs>
    <style>
      .cls-1 {
        fill: #3c4042;
        fill-rule: evenodd;
      }
    </style>
  </defs>
  <path d="M21.873,24.999 L3.123,24.999 C1.397,24.999 -0.001,23.600 -0.001,21.874 L-0.001,3.124 C-0.001,1.398 1.397,-0.001 3.123,-0.001 L21.873,-0.001 C23.600,-0.001 24.998,1.398 24.998,3.124 L24.998,21.874 C24.998,23.600 23.600,24.999 21.873,24.999 ZM24.000,2.999 C24.000,1.895 23.104,0.999 22.000,0.999 L3.000,0.999 C1.895,0.999 1.000,1.895 1.000,2.999 L1.000,21.999 C1.000,23.104 1.895,23.999 3.000,23.999 L22.000,23.999 C23.104,23.999 24.000,23.104 24.000,21.999 L24.000,2.999 ZM19.211,14.854 L12.500,9.093 L5.789,14.854 C5.603,15.040 5.301,15.040 5.115,14.854 C4.929,14.668 4.929,14.367 5.115,14.180 L12.125,8.163 C12.136,8.148 12.131,8.128 12.145,8.115 C12.243,8.016 12.371,7.977 12.500,7.982 C12.628,7.977 12.757,8.016 12.855,8.115 C12.868,8.128 12.864,8.148 12.875,8.163 L19.885,14.180 C20.071,14.367 20.071,14.668 19.885,14.854 C19.699,15.040 19.397,15.040 19.211,14.854 Z" class="cls-1"/>
</svg>
