<svg xmlns="http://www.w3.org/2000/svg" xmlns:xlink="http://www.w3.org/1999/xlink" preserveAspectRatio="xMidYMid" width="25" height="25" viewBox="0 0 25 25">
  <defs>
    <style>
      .cls-1 {
        fill: #3c4042;
        fill-rule: evenodd;
      }
    </style>
  </defs>
  <path d="M24.869,0.130 C24.896,0.158 24.890,0.197 24.910,0.229 C24.943,0.280 24.966,0.335 24.979,0.397 C24.987,0.440 25.003,0.474 25.000,0.517 L25.000,8.499 C25.000,8.775 24.776,8.999 24.500,8.999 C24.224,8.999 24.000,8.775 24.000,8.499 L24.000,1.703 L13.204,12.499 L24.000,23.295 L24.000,16.499 C24.000,16.223 24.224,15.999 24.500,15.999 C24.776,15.999 25.000,16.223 25.000,16.499 L25.000,24.499 C25.000,24.775 24.776,24.999 24.500,24.999 L16.500,24.999 C16.224,24.999 16.000,24.775 16.000,24.499 C16.000,24.223 16.224,23.999 16.500,23.999 L23.296,23.999 L12.500,13.203 L1.704,23.999 L8.500,23.999 C8.776,23.999 9.000,24.223 9.000,24.499 C9.000,24.775 8.776,24.999 8.500,24.999 L0.500,24.999 C0.224,24.999 -0.000,24.775 -0.000,24.499 L-0.000,16.499 C-0.000,16.223 0.224,15.999 0.500,15.999 C0.776,15.999 1.000,16.223 1.000,16.499 L1.000,23.295 L11.796,12.499 L1.000,1.703 L1.000,8.499 C1.000,8.775 0.776,8.999 0.500,8.999 C0.224,8.999 -0.000,8.775 -0.000,8.499 L-0.000,0.517 C-0.003,0.474 0.012,0.440 0.020,0.397 C0.034,0.335 0.056,0.280 0.090,0.229 C0.110,0.197 0.104,0.158 0.131,0.130 C0.158,0.103 0.198,0.109 0.230,0.089 C0.281,0.056 0.336,0.033 0.398,0.020 C0.441,0.012 0.475,-0.004 0.518,-0.001 L8.500,-0.001 C8.776,-0.001 9.000,0.223 9.000,0.499 C9.000,0.775 8.776,0.999 8.500,0.999 L1.703,0.999 L12.500,11.795 L23.296,0.999 L16.500,0.999 C16.224,0.999 16.000,0.775 16.000,0.499 C16.000,0.223 16.224,-0.001 16.500,-0.001 L24.482,-0.001 C24.525,-0.004 24.559,0.012 24.602,0.020 C24.663,0.033 24.719,0.056 24.770,0.089 C24.801,0.109 24.841,0.103 24.869,0.130 Z" class="cls-1"/>
</svg>
