<svg xmlns="http://www.w3.org/2000/svg" xmlns:xlink="http://www.w3.org/1999/xlink" preserveAspectRatio="xMidYMid" width="25" height="22" viewBox="0 0 25 22">
  <defs>
    <style>
      .cls-1 {
        fill: #3c4042;
        fill-rule: evenodd;
      }
    </style>
  </defs>
  <path d="M20.312,21.997 L15.000,21.997 L15.000,21.997 L14.000,21.997 L14.000,15.993 L15.000,15.993 L15.000,15.999 L18.000,15.999 C18.552,15.999 19.000,15.551 19.000,14.999 L19.000,13.990 L19.000,13.990 L19.000,13.004 L25.000,13.004 L25.000,13.985 L25.000,13.990 L25.000,17.283 C25.000,19.887 22.901,21.997 20.312,21.997 ZM24.000,13.990 L20.000,13.990 L20.000,14.999 C20.000,16.103 19.104,16.999 18.000,16.999 L15.000,16.999 L15.000,20.999 L20.000,20.999 C22.209,20.999 24.000,19.208 24.000,16.999 L24.000,13.990 ZM19.000,8.007 L19.000,8.007 L19.000,7.000 C19.000,6.446 18.552,5.999 18.000,5.999 L15.000,5.999 L15.000,6.002 L14.000,6.002 L14.000,-0.002 L15.000,-0.002 L15.000,-0.002 L20.312,-0.002 C22.901,-0.002 25.000,2.109 25.000,4.712 L25.000,8.007 L25.000,8.011 L25.000,8.993 L19.000,8.993 L19.000,8.007 ZM20.000,7.000 L20.000,8.007 L24.000,8.007 L24.000,4.999 C24.000,2.790 22.209,0.999 20.000,0.999 L15.000,0.999 L15.000,4.999 L18.000,4.999 C19.104,4.999 20.000,5.894 20.000,7.000 ZM4.687,21.997 C2.098,21.997 -0.000,19.887 -0.000,17.283 L-0.000,13.990 L-0.000,13.985 L-0.000,13.004 L6.000,13.004 L6.000,13.985 L6.000,13.985 L6.000,14.999 C6.000,15.551 6.448,15.999 7.000,15.999 L10.000,15.999 L10.000,15.993 L11.000,15.993 L11.000,21.997 L10.000,21.997 L4.687,21.997 ZM10.000,16.999 L7.000,16.999 C5.895,16.999 5.000,16.103 5.000,14.999 L5.000,13.990 L1.000,13.990 L1.000,16.999 C1.000,19.208 2.791,20.999 5.000,20.999 L10.000,20.999 L10.000,16.999 ZM10.000,5.999 L7.000,5.999 C6.448,5.999 6.000,6.446 6.000,7.000 L6.000,8.011 L6.000,8.011 L6.000,8.993 L-0.000,8.993 L-0.000,8.011 L-0.000,8.007 L-0.000,4.712 C-0.000,2.109 2.098,-0.002 4.687,-0.002 L10.000,-0.002 L11.000,-0.002 L11.000,6.002 L10.000,6.002 L10.000,5.999 ZM10.000,0.999 L5.000,0.999 C2.791,0.999 1.000,2.790 1.000,4.999 L1.000,8.007 L5.000,8.007 L5.000,7.000 C5.000,5.894 5.895,4.999 7.000,4.999 L10.000,4.999 L10.000,0.999 Z" class="cls-1"/>
</svg>
