<svg xmlns="http://www.w3.org/2000/svg" xmlns:xlink="http://www.w3.org/1999/xlink" preserveAspectRatio="xMidYMid" width="25" height="25" viewBox="0 0 25 25">
  <defs>
    <style>
      .cls-1 {
        fill: #3c4042;
        fill-rule: evenodd;
      }
    </style>
  </defs>
  <path d="M12.500,24.998 C5.596,24.998 -0.000,19.401 -0.000,12.497 C-0.000,5.594 5.596,-0.003 12.500,-0.003 C19.403,-0.003 25.000,5.594 25.000,12.497 C25.000,19.401 19.403,24.998 12.500,24.998 ZM12.500,0.997 C6.148,0.997 1.000,6.146 1.000,12.497 C1.000,18.849 6.148,23.998 12.500,23.998 C18.851,23.998 24.000,18.849 24.000,12.497 C24.000,6.146 18.851,0.997 12.500,0.997 ZM21.500,12.999 L19.500,12.999 C19.224,12.999 19.000,12.775 19.000,12.499 C19.000,12.223 19.224,11.999 19.500,11.999 L21.500,11.999 C21.776,11.999 22.000,12.223 22.000,12.499 C22.000,12.775 21.776,12.999 21.500,12.999 ZM17.803,7.903 C17.608,8.098 17.291,8.098 17.096,7.903 C16.901,7.708 16.901,7.391 17.096,7.196 L18.510,5.781 C18.705,5.586 19.022,5.586 19.217,5.781 C19.413,5.976 19.413,6.294 19.217,6.489 L17.803,7.903 ZM12.500,21.999 C12.224,21.999 12.000,21.775 12.000,21.499 L12.000,19.499 C12.000,19.223 12.224,18.999 12.500,18.999 C12.776,18.999 13.000,19.223 13.000,19.499 L13.000,21.499 C13.000,21.775 12.776,21.999 12.500,21.999 ZM12.500,5.999 C12.224,5.999 12.000,5.775 12.000,5.500 L12.000,3.499 C12.000,3.222 12.224,2.999 12.500,2.999 C12.776,2.999 13.000,3.222 13.000,3.499 L13.000,5.500 C13.000,5.775 12.776,5.999 12.500,5.999 ZM6.489,19.216 C6.294,19.412 5.978,19.412 5.782,19.216 C5.587,19.021 5.587,18.705 5.782,18.510 L7.197,17.096 C7.392,16.900 7.708,16.900 7.904,17.096 C8.099,17.291 8.099,17.607 7.904,17.802 L6.489,19.216 ZM7.197,7.903 L5.782,6.489 C5.587,6.294 5.587,5.976 5.782,5.781 C5.978,5.586 6.294,5.586 6.489,5.781 L7.904,7.196 C8.099,7.391 8.099,7.708 7.904,7.903 C7.708,8.098 7.392,8.098 7.197,7.903 ZM6.000,12.499 C6.000,12.775 5.776,12.999 5.500,12.999 L3.500,12.999 C3.224,12.999 3.000,12.775 3.000,12.499 C3.000,12.223 3.224,11.999 3.500,11.999 L5.500,11.999 C5.776,11.999 6.000,12.223 6.000,12.499 ZM17.803,17.096 L19.217,18.510 C19.413,18.705 19.413,19.021 19.217,19.216 C19.022,19.412 18.705,19.412 18.510,19.216 L17.096,17.802 C16.901,17.607 16.901,17.291 17.096,17.096 C17.291,16.900 17.608,16.900 17.803,17.096 Z" class="cls-1"/>
</svg>
