<svg xmlns="http://www.w3.org/2000/svg" xmlns:xlink="http://www.w3.org/1999/xlink" preserveAspectRatio="xMidYMid" width="22" height="25" viewBox="0 0 22 25">
  <defs>
    <style>
      .cls-1 {
        fill: #3c4042;
        fill-rule: evenodd;
      }
    </style>
  </defs>
  <path d="M21.233,24.997 L0.766,24.997 C0.343,24.997 -0.000,24.647 -0.000,24.216 L-0.000,0.779 C-0.000,0.348 0.343,-0.002 0.766,-0.002 L21.233,-0.002 C21.657,-0.002 22.000,0.348 22.000,0.779 L22.000,24.216 C22.000,24.647 21.657,24.997 21.233,24.997 ZM20.998,0.997 L1.002,0.997 L1.002,4.997 L20.998,4.997 L20.998,0.997 ZM20.998,5.998 L1.002,5.998 L1.002,23.997 L20.998,23.997 L20.998,5.998 ZM7.000,12.999 L5.000,12.999 L5.000,10.999 L7.000,10.999 L7.000,12.999 ZM7.000,17.999 L5.000,17.999 L5.000,15.999 L7.000,15.999 L7.000,17.999 ZM12.000,12.999 L10.000,12.999 L10.000,10.999 L12.000,10.999 L12.000,12.999 ZM12.000,17.999 L10.000,17.999 L10.000,15.999 L12.000,15.999 L12.000,17.999 ZM17.000,12.999 L15.000,12.999 L15.000,10.999 L17.000,10.999 L17.000,12.999 ZM17.000,17.999 L15.000,17.999 L15.000,15.999 L17.000,15.999 L17.000,17.999 Z" class="cls-1"/>
</svg>
