<svg xmlns="http://www.w3.org/2000/svg" xmlns:xlink="http://www.w3.org/1999/xlink" preserveAspectRatio="xMidYMid" width="25" height="25" viewBox="0 0 25 25">
  <defs>
    <style>
      .cls-1 {
        fill: #3c4042;
        fill-rule: evenodd;
      }
    </style>
  </defs>
  <path d="M12.500,24.998 C5.596,24.998 -0.000,19.402 -0.000,12.498 C-0.000,5.594 5.596,-0.002 12.500,-0.002 C19.403,-0.002 25.000,5.594 25.000,12.498 C25.000,19.402 19.403,24.998 12.500,24.998 ZM24.000,12.498 C24.000,9.760 23.040,7.250 21.443,5.275 L5.277,21.441 C7.252,23.038 9.763,23.998 12.500,23.998 C18.851,23.998 24.000,18.849 24.000,12.498 ZM12.500,0.997 C6.148,0.997 1.000,6.146 1.000,12.498 C1.000,15.745 2.351,18.673 4.516,20.764 L20.766,4.514 C18.675,2.349 15.747,0.997 12.500,0.997 Z" class="cls-1"/>
</svg>
