<svg xmlns="http://www.w3.org/2000/svg" xmlns:xlink="http://www.w3.org/1999/xlink" preserveAspectRatio="xMidYMid" width="25" height="25" viewBox="0 0 25 25">
  <defs>
    <style>
      .cls-1 {
        fill: #3c4042;
        fill-rule: evenodd;
      }
    </style>
  </defs>
  <path d="M25.000,17.998 L25.000,24.998 L19.000,24.998 L19.000,23.999 L24.000,23.999 L24.000,0.998 L17.000,0.998 L17.000,-0.001 L8.000,-0.001 L8.000,0.998 L1.000,0.998 L1.000,6.999 L-0.000,6.999 L-0.000,-0.002 L25.000,-0.002 L25.000,6.999 L24.000,6.999 L24.000,17.998 L25.000,17.998 ZM3.000,2.999 L22.000,2.999 L22.000,21.999 L3.000,21.999 L3.000,2.999 ZM4.000,20.999 L21.000,20.999 L21.000,3.998 L4.000,3.998 L4.000,20.999 ZM1.000,23.999 L8.000,23.999 L8.000,24.998 L-0.000,24.998 L-0.000,17.998 L1.000,17.998 L1.000,23.999 Z" class="cls-1"/>
</svg>
