<svg xmlns="http://www.w3.org/2000/svg" xmlns:xlink="http://www.w3.org/1999/xlink" preserveAspectRatio="xMidYMid" width="25" height="23" viewBox="0 0 25 23">
  <defs>
    <style>
      .cls-1 {
        fill: #3c4042;
        fill-rule: evenodd;
      }
    </style>
  </defs>
  <path d="M25.000,18.000 C25.000,19.104 24.104,19.999 23.000,19.999 L23.000,19.999 L23.000,22.998 L22.000,22.998 L22.000,19.999 L3.000,19.999 L3.000,22.998 L2.000,22.998 L2.000,19.999 C0.895,19.999 -0.000,19.104 -0.000,18.000 L-0.000,15.999 C-0.000,15.677 0.078,15.374 0.213,15.105 C0.077,14.762 -0.000,14.390 -0.000,13.999 C-0.000,12.692 0.835,11.585 2.000,11.173 L2.000,4.248 L2.021,4.248 C2.235,1.867 4.253,-0.000 6.714,-0.000 L8.286,-0.000 C10.134,-0.000 11.730,1.055 12.502,2.588 C13.274,1.055 14.866,-0.000 16.714,-0.000 L18.286,-0.000 C20.747,-0.000 22.765,1.867 22.979,4.248 L23.000,4.248 L23.000,4.663 C23.000,4.664 23.000,4.665 23.000,4.666 L23.000,7.777 C23.000,7.779 23.000,7.781 23.000,7.783 L23.000,11.173 C24.164,11.585 25.000,12.692 25.000,13.999 C25.000,14.390 24.923,14.762 24.787,15.104 C24.922,15.374 25.000,15.677 25.000,15.999 L25.000,18.000 ZM1.000,18.000 C1.000,18.552 1.447,18.999 2.000,18.999 L12.000,18.999 L12.000,14.999 L5.825,14.999 C5.413,16.163 4.305,16.998 3.000,16.998 C2.230,16.998 1.531,16.706 1.000,16.230 L1.000,18.000 ZM1.000,13.999 C1.000,15.102 1.895,15.998 3.000,15.998 C4.104,15.998 5.000,15.102 5.000,13.999 C5.000,12.894 4.104,11.998 3.000,11.998 C1.895,11.998 1.000,12.894 1.000,13.999 ZM12.012,7.998 L11.989,7.998 C11.993,7.925 12.000,7.851 12.000,7.780 L12.000,4.663 C11.998,2.643 10.333,0.999 8.286,0.999 L6.714,0.999 C4.666,0.999 3.000,2.644 3.000,4.666 L3.000,7.777 C3.000,7.849 3.007,7.924 3.011,7.998 L3.000,7.998 L3.000,10.998 C4.657,10.998 6.000,12.341 6.000,13.999 C6.000,13.999 6.000,13.999 6.000,13.999 L6.705,13.999 C6.700,13.999 6.695,13.999 6.690,13.999 L8.310,13.999 C8.305,13.999 8.300,13.999 8.295,13.999 L12.000,13.999 L12.000,13.999 L12.012,13.999 L12.012,7.998 ZM22.000,7.998 L21.989,7.998 C21.993,7.925 22.000,7.851 22.000,7.780 L22.000,4.663 C21.998,2.643 20.333,0.999 18.286,0.999 L16.714,0.999 C14.666,0.999 13.000,2.644 13.000,4.666 L13.000,7.777 C13.000,7.849 13.007,7.924 13.011,7.998 L12.988,7.998 L12.988,13.999 L13.000,13.999 L13.000,13.999 L16.705,13.999 C16.700,13.999 16.695,13.999 16.690,13.999 L18.310,13.999 C18.305,13.999 18.300,13.999 18.295,13.999 L19.000,13.999 C19.000,13.999 19.000,13.999 19.000,13.999 C19.000,12.341 20.343,10.998 22.000,10.998 L22.000,7.998 ZM22.000,11.998 C20.895,11.998 20.000,12.894 20.000,13.999 C20.000,15.102 20.895,15.998 22.000,15.998 C23.104,15.998 24.000,15.102 24.000,13.999 C24.000,12.894 23.104,11.998 22.000,11.998 ZM24.000,16.230 C23.469,16.706 22.769,16.998 22.000,16.998 C20.694,16.998 19.587,16.163 19.174,14.999 L13.000,14.999 L13.000,18.999 L23.000,18.999 C23.552,18.999 24.000,18.552 24.000,18.000 L24.000,16.230 ZM17.000,6.999 L18.000,6.999 L18.000,7.998 L17.000,7.998 L17.000,6.999 ZM7.000,6.999 L8.000,6.999 L8.000,7.998 L7.000,7.998 L7.000,6.999 Z" class="cls-1"/>
</svg>
