<svg xmlns="http://www.w3.org/2000/svg" xmlns:xlink="http://www.w3.org/1999/xlink" preserveAspectRatio="xMidYMid" width="25" height="25" viewBox="0 0 25 25">
  <defs>
    <style>
      .cls-1 {
        fill: #3c4042;
        fill-rule: evenodd;
      }
    </style>
  </defs>
  <path d="M24.500,0.999 L17.328,0.999 C21.827,2.890 25.000,7.311 25.000,12.498 C25.000,19.401 19.403,24.998 12.500,24.998 C5.596,24.998 -0.000,19.401 -0.000,12.498 C-0.000,6.102 4.805,0.838 11.000,0.096 L11.000,1.106 C5.359,1.843 1.000,6.657 1.000,12.498 C1.000,18.849 6.148,23.998 12.500,23.998 C18.851,23.998 24.000,18.849 24.000,12.498 C24.000,7.751 21.106,3.708 17.000,1.953 L17.000,8.499 C17.000,8.775 16.776,8.999 16.500,8.999 C16.224,8.999 16.000,8.775 16.000,8.499 L16.000,1.544 L16.000,1.544 L16.000,0.504 L16.000,0.504 L16.000,0.499 C16.000,0.223 16.224,-0.001 16.500,-0.001 L24.500,-0.001 C24.776,-0.001 25.000,0.223 25.000,0.499 C25.000,0.775 24.776,0.999 24.500,0.999 ZM12.500,-0.003 C12.502,-0.003 12.505,-0.002 12.508,-0.002 L12.492,-0.002 C12.494,-0.002 12.497,-0.003 12.500,-0.003 Z" class="cls-1"/>
</svg>
