<svg xmlns="http://www.w3.org/2000/svg" xmlns:xlink="http://www.w3.org/1999/xlink" preserveAspectRatio="xMidYMid" width="25" height="25" viewBox="0 0 25 25">
  <defs>
    <style>
      .cls-1 {
        fill: #3c4042;
        fill-rule: evenodd;
      }
    </style>
  </defs>
  <path d="M25.000,17.998 L25.000,24.998 L18.000,24.998 L18.000,21.999 L7.000,21.999 L7.000,24.998 L-0.000,24.998 L-0.000,17.998 L3.000,17.998 L3.000,6.998 L-0.000,6.998 L-0.000,-0.003 L7.000,-0.003 L7.000,2.999 L18.000,2.999 L18.000,-0.003 L25.000,-0.003 L25.000,6.998 L22.000,6.998 L22.000,17.998 L25.000,17.998 ZM1.000,18.997 L1.000,23.997 L6.000,23.997 L6.000,18.997 L1.000,18.997 ZM6.000,0.997 L1.000,0.997 L1.000,5.997 L6.000,5.997 L6.000,0.997 ZM18.000,3.999 L7.000,3.999 L7.000,6.998 L4.000,6.998 L4.000,17.998 L7.000,17.998 L7.000,20.998 L18.000,20.998 L18.000,17.998 L21.000,17.998 L21.000,6.998 L18.000,6.998 L18.000,3.999 ZM24.000,5.997 L24.000,0.997 L19.000,0.997 L19.000,5.997 L24.000,5.997 ZM19.000,18.997 L19.000,23.997 L24.000,23.997 L24.000,18.997 L19.000,18.997 Z" class="cls-1"/>
</svg>
