<svg xmlns="http://www.w3.org/2000/svg" xmlns:xlink="http://www.w3.org/1999/xlink" preserveAspectRatio="xMidYMid" width="25" height="17" viewBox="0 0 25 17">
  <defs>
    <style>
      .cls-1 {
        fill: #3c4042;
        fill-rule: evenodd;
      }
    </style>
  </defs>
  <path d="M22.500,10.998 L14.005,10.998 L14.005,16.074 C14.005,16.658 13.733,16.990 13.335,16.990 C13.149,16.990 12.936,16.918 12.711,16.768 L0.529,9.363 C0.173,9.125 -0.005,8.812 -0.005,8.499 C-0.005,8.186 0.173,7.872 0.529,7.635 L12.711,0.230 C12.936,0.080 13.149,0.008 13.335,0.008 C13.733,0.008 14.005,0.339 14.005,0.923 L14.005,5.999 L22.500,5.999 C23.880,5.999 25.000,7.119 25.000,8.499 C25.000,9.880 23.880,10.998 22.500,10.998 ZM22.500,6.999 L13.005,6.999 L13.005,1.243 L1.096,8.458 C1.074,8.474 1.055,8.488 1.041,8.499 C1.053,8.509 1.067,8.520 1.084,8.531 L13.005,15.756 L13.005,9.999 L22.500,9.999 C23.328,9.999 24.000,9.328 24.000,8.499 C24.000,7.671 23.328,6.999 22.500,6.999 Z" class="cls-1"/>
</svg>
