<svg xmlns="http://www.w3.org/2000/svg" xmlns:xlink="http://www.w3.org/1999/xlink" preserveAspectRatio="xMidYMid" width="15" height="22" viewBox="0 0 15 22">
  <defs>
    <style>
      .cls-1 {
        fill: #3c4042;
        fill-rule: evenodd;
      }
    </style>
  </defs>
  <path d="M14.852,13.817 L7.942,21.722 C7.919,21.781 7.884,21.835 7.837,21.883 C7.712,22.008 7.544,22.017 7.385,21.974 C7.371,21.970 7.358,21.975 7.343,21.971 C7.309,21.960 7.277,21.947 7.247,21.931 C7.209,21.910 7.163,21.915 7.131,21.883 C7.084,21.835 7.049,21.781 7.026,21.722 L0.116,13.817 C-0.069,13.631 -0.069,13.331 0.116,13.145 C0.301,12.960 0.601,12.960 0.787,13.145 L6.985,20.236 L6.985,0.499 C6.985,0.223 7.209,-0.001 7.484,-0.001 C7.760,-0.001 7.983,0.223 7.983,0.499 L7.983,20.236 L14.182,13.145 C14.367,12.960 14.667,12.960 14.852,13.145 C15.037,13.331 15.037,13.631 14.852,13.817 Z" class="cls-1"/>
</svg>
