<svg xmlns="http://www.w3.org/2000/svg" xmlns:xlink="http://www.w3.org/1999/xlink" preserveAspectRatio="xMidYMid" width="25" height="19" viewBox="0 0 25 19">
  <defs>
    <style>
      .cls-1 {
        fill: #3c4042;
        fill-rule: evenodd;
      }
    </style>
  </defs>
  <path d="M25.000,5.992 L25.000,5.992 L25.000,8.998 L23.000,8.998 L23.000,18.998 L22.000,18.998 L22.000,8.998 L3.000,8.998 L3.000,18.998 L2.000,18.998 L2.000,8.998 L-0.000,8.998 L-0.000,-0.003 L25.000,-0.003 L25.000,4.999 L25.000,4.999 L25.000,5.992 ZM2.000,8.009 L2.000,8.008 L3.000,8.008 L3.000,8.009 L22.000,8.009 L22.000,8.008 L23.000,8.008 L23.000,8.009 L24.000,8.009 L24.000,5.992 L1.000,5.992 L1.000,8.009 L2.000,8.009 ZM24.000,0.986 L1.000,0.986 L1.000,4.999 L24.000,4.999 L24.000,0.986 Z" class="cls-1"/>
</svg>
