<svg xmlns="http://www.w3.org/2000/svg" xmlns:xlink="http://www.w3.org/1999/xlink" preserveAspectRatio="xMidYMid" width="25" height="24" viewBox="0 0 25 24">
  <defs>
    <style>
      .cls-1 {
        fill: #3c4042;
        fill-rule: evenodd;
      }
    </style>
  </defs>
  <path d="M20.000,18.778 L20.000,17.780 C22.303,17.123 24.000,15.026 24.000,12.512 C24.000,9.630 21.776,7.292 18.956,7.057 C18.730,3.669 15.942,0.983 12.500,0.983 C9.060,0.983 6.272,3.666 6.044,7.052 C3.223,7.287 1.000,9.620 1.000,12.497 C1.000,15.358 3.200,17.681 6.000,17.937 L6.000,20.002 L6.000,20.002 L6.000,18.952 C2.648,18.692 -0.000,15.917 -0.000,12.495 C-0.000,9.372 2.199,6.769 5.130,6.138 C5.773,2.645 8.825,-0.003 12.500,-0.003 C16.177,-0.003 19.230,2.648 19.870,6.145 C22.801,6.775 25.000,9.377 25.000,12.499 C25.000,15.568 22.861,18.100 20.000,18.778 ZM8.821,18.113 L12.000,22.074 L12.000,9.499 C12.000,9.224 12.224,8.999 12.500,8.999 C12.776,8.999 13.000,9.224 13.000,9.499 L13.000,22.074 L16.178,18.113 C16.366,17.926 16.669,17.926 16.856,18.113 C17.043,18.300 17.043,18.604 16.856,18.790 L12.987,23.611 C12.968,23.698 12.953,23.788 12.886,23.855 C12.863,23.878 12.830,23.872 12.804,23.889 C12.791,23.900 12.772,23.899 12.758,23.908 C12.683,23.947 12.613,23.992 12.530,23.989 C12.519,23.989 12.511,23.999 12.500,23.999 C12.486,23.999 12.475,23.992 12.462,23.991 C12.448,23.992 12.438,23.984 12.424,23.984 C12.343,23.971 12.271,23.941 12.208,23.895 C12.178,23.876 12.140,23.881 12.114,23.855 C12.077,23.819 12.081,23.767 12.059,23.723 C12.048,23.702 12.040,23.681 12.032,23.658 C12.029,23.648 12.030,23.639 12.027,23.630 L8.144,18.790 C7.957,18.604 7.957,18.300 8.144,18.113 C8.331,17.926 8.634,17.926 8.821,18.113 Z" class="cls-1"/>
</svg>
