<svg xmlns="http://www.w3.org/2000/svg" xmlns:xlink="http://www.w3.org/1999/xlink" preserveAspectRatio="xMidYMid" width="25" height="25" viewBox="0 0 25 25">
  <defs>
    <style>
      .cls-1 {
        fill: #3c4042;
        fill-rule: evenodd;
      }
    </style>
  </defs>
  <path d="M24.828,24.827 C24.635,25.020 24.322,25.020 24.130,24.827 L17.557,18.255 C15.692,19.953 13.221,20.997 10.500,20.997 C4.701,20.997 -0.000,16.297 -0.000,10.497 C-0.000,4.698 4.701,-0.002 10.500,-0.002 C16.299,-0.002 21.000,4.698 21.000,10.497 C21.000,13.219 19.955,15.691 18.256,17.557 L24.828,24.129 C25.021,24.322 25.021,24.635 24.828,24.827 ZM20.000,10.497 C20.000,5.251 15.746,0.998 10.500,0.998 C5.253,0.998 1.000,5.251 1.000,10.497 C1.000,15.745 5.253,19.998 10.500,19.998 C15.746,19.998 20.000,15.745 20.000,10.497 ZM14.389,14.388 C14.194,14.583 13.877,14.583 13.682,14.388 L10.500,11.206 L7.318,14.388 C7.123,14.583 6.806,14.583 6.611,14.388 C6.416,14.192 6.416,13.876 6.611,13.681 L9.793,10.499 L6.611,7.317 C6.416,7.122 6.416,6.805 6.611,6.611 C6.806,6.415 7.123,6.415 7.318,6.611 L10.500,9.792 L13.682,6.611 C13.877,6.415 14.194,6.415 14.389,6.611 C14.584,6.805 14.584,7.122 14.389,7.317 L11.207,10.499 L14.389,13.681 C14.584,13.876 14.584,14.192 14.389,14.388 Z" class="cls-1"/>
</svg>
