<svg xmlns="http://www.w3.org/2000/svg" xmlns:xlink="http://www.w3.org/1999/xlink" preserveAspectRatio="xMidYMid" width="25" height="25" viewBox="0 0 25 25">
  <defs>
    <style>
      .cls-1 {
        fill: #3c4042;
        fill-rule: evenodd;
      }
    </style>
  </defs>
  <path d="M24.839,0.860 L15.700,9.999 L22.500,9.999 C22.776,9.999 23.000,10.223 23.000,10.499 C23.000,10.775 22.776,10.999 22.500,10.999 L14.500,10.999 C14.357,10.999 14.231,10.938 14.139,10.843 C14.136,10.839 14.132,10.841 14.129,10.838 C14.120,10.830 14.124,10.817 14.116,10.808 C14.058,10.737 14.022,10.650 14.011,10.554 C14.002,10.505 13.994,10.466 14.000,10.417 L14.000,2.499 C14.000,2.223 14.224,1.999 14.500,1.999 C14.776,1.999 15.000,2.223 15.000,2.499 L15.000,9.235 L24.107,0.128 C24.309,-0.074 24.637,-0.074 24.839,0.128 C25.041,0.330 25.041,0.658 24.839,0.860 ZM10.500,22.999 C10.224,22.999 10.000,22.775 10.000,22.499 L10.000,15.699 L0.860,24.838 C0.658,25.040 0.331,25.040 0.129,24.838 C-0.074,24.636 -0.074,24.308 0.129,24.106 L9.235,15.000 L2.500,15.000 C2.224,15.000 2.000,14.776 2.000,14.499 C2.000,14.223 2.224,13.999 2.500,13.999 L10.418,13.999 C10.467,13.994 10.505,14.002 10.553,14.010 C10.650,14.021 10.737,14.057 10.809,14.116 C10.818,14.123 10.831,14.120 10.839,14.128 C10.842,14.131 10.840,14.135 10.843,14.138 C10.939,14.229 11.000,14.357 11.000,14.499 L11.000,22.499 C11.000,22.775 10.776,22.999 10.500,22.999 Z" class="cls-1"/>
</svg>
