<svg xmlns="http://www.w3.org/2000/svg" xmlns:xlink="http://www.w3.org/1999/xlink" preserveAspectRatio="xMidYMid" width="15" height="13" viewBox="0 0 15 13">
  <defs>
    <style>
      .cls-1 {
        fill: #3c4042;
        fill-rule: evenodd;
      }
    </style>
  </defs>
  <path d="M14.500,6.999 L0.500,6.999 C0.224,6.999 -0.000,6.775 -0.000,6.499 C-0.000,6.223 0.224,5.999 0.500,5.999 L14.500,5.999 C14.776,5.999 15.000,6.223 15.000,6.499 C15.000,6.775 14.776,6.999 14.500,6.999 ZM14.500,0.999 L0.500,0.999 C0.224,0.999 -0.000,0.776 -0.000,0.499 C-0.000,0.222 0.224,-0.001 0.500,-0.001 L14.500,-0.001 C14.776,-0.001 15.000,0.222 15.000,0.499 C15.000,0.776 14.776,0.999 14.500,0.999 ZM0.500,11.999 L14.500,11.999 C14.776,11.999 15.000,12.223 15.000,12.499 C15.000,12.776 14.776,12.999 14.500,12.999 L0.500,12.999 C0.224,12.999 -0.000,12.776 -0.000,12.499 C-0.000,12.223 0.224,11.999 0.500,11.999 Z" class="cls-1"/>
</svg>
