<svg xmlns="http://www.w3.org/2000/svg" xmlns:xlink="http://www.w3.org/1999/xlink" preserveAspectRatio="xMidYMid" width="25" height="19" viewBox="0 0 25 19">
  <defs>
    <style>
      .cls-1 {
        fill: #3c4042;
        fill-rule: evenodd;
      }
    </style>
  </defs>
  <path d="M12.500,18.999 C5.596,18.999 -0.000,9.498 -0.000,9.498 C-0.000,9.498 5.596,-0.001 12.500,-0.001 C19.403,-0.001 25.000,9.498 25.000,9.498 C25.000,9.498 19.403,18.999 12.500,18.999 ZM12.500,0.999 C7.117,0.999 2.424,7.593 1.182,9.498 C2.426,11.401 7.127,17.999 12.500,17.999 C17.872,17.999 22.573,11.403 23.817,9.498 C22.573,7.595 17.872,0.999 12.500,0.999 ZM12.500,14.997 C9.462,14.997 7.000,12.535 7.000,9.498 C7.000,6.460 9.462,3.998 12.500,3.998 C15.537,3.998 18.000,6.460 18.000,9.498 C18.000,12.535 15.537,14.997 12.500,14.997 ZM12.500,4.998 C10.014,4.998 8.000,7.013 8.000,9.498 C8.000,11.983 10.014,13.998 12.500,13.998 C14.985,13.998 17.000,11.983 17.000,9.498 C17.000,7.013 14.985,4.998 12.500,4.998 Z" class="cls-1"/>
</svg>
