<svg xmlns="http://www.w3.org/2000/svg" xmlns:xlink="http://www.w3.org/1999/xlink" preserveAspectRatio="xMidYMid" width="25" height="24" viewBox="0 0 25 24">
  <defs>
    <style>
      .cls-1 {
        fill: #3c4042;
        fill-rule: evenodd;
      }
    </style>
  </defs>
  <path d="M20.000,18.778 L20.000,17.780 C22.303,17.123 24.000,15.026 24.000,12.512 C24.000,9.630 21.776,7.292 18.956,7.057 C18.730,3.669 15.942,0.984 12.500,0.984 C9.060,0.984 6.273,3.666 6.044,7.052 C3.223,7.287 1.000,9.620 1.000,12.497 C1.000,15.358 3.200,17.681 6.000,17.937 L6.000,20.003 L6.000,20.003 L6.000,18.952 C2.648,18.692 -0.000,15.917 -0.000,12.495 C-0.000,9.372 2.199,6.769 5.130,6.138 C5.773,2.645 8.825,-0.003 12.500,-0.003 C16.177,-0.003 19.230,2.648 19.871,6.145 C22.801,6.775 25.000,9.377 25.000,12.499 C25.000,15.568 22.861,18.100 20.000,18.778 ZM11.990,9.394 C11.998,9.302 12.024,9.215 12.097,9.143 C12.135,9.105 12.189,9.108 12.235,9.086 C12.283,9.055 12.335,9.033 12.393,9.021 C12.414,9.019 12.430,9.008 12.451,9.009 C12.468,9.007 12.483,8.999 12.500,8.999 C12.508,8.999 12.513,9.006 12.521,9.007 C12.587,9.005 12.642,9.048 12.704,9.074 C12.740,9.092 12.784,9.093 12.814,9.119 C12.831,9.132 12.856,9.127 12.872,9.143 C12.937,9.208 12.950,9.295 12.970,9.379 C12.971,9.385 12.977,9.388 12.979,9.394 L16.855,14.208 C17.043,14.395 17.043,14.698 16.855,14.885 C16.668,15.073 16.363,15.073 16.176,14.885 L13.000,10.942 L13.000,23.499 C13.000,23.775 12.776,23.999 12.500,23.999 C12.224,23.999 12.000,23.775 12.000,23.499 L12.000,10.903 L8.793,14.885 C8.605,15.073 8.300,15.073 8.113,14.885 C7.925,14.698 7.925,14.395 8.113,14.208 L11.990,9.394 Z" class="cls-1"/>
</svg>
