<svg xmlns="http://www.w3.org/2000/svg" xmlns:xlink="http://www.w3.org/1999/xlink" preserveAspectRatio="xMidYMid" width="17" height="25" viewBox="0 0 17 25">
  <defs>
    <style>
      .cls-1 {
        fill: #3c4042;
        fill-rule: evenodd;
      }
    </style>
  </defs>
  <path d="M16.899,15.997 L17.000,15.997 L17.000,24.998 L8.994,24.998 L8.005,24.998 L-0.000,24.998 L-0.000,15.997 L0.100,15.997 C0.046,15.671 -0.000,15.341 -0.000,14.999 L-0.000,5.999 C-0.000,2.685 2.686,-0.001 6.000,-0.001 L11.000,-0.001 C14.314,-0.001 17.000,2.685 17.000,5.999 L17.000,14.999 C17.000,15.341 16.954,15.671 16.899,15.997 ZM8.994,23.998 L15.984,23.998 L15.984,16.997 L8.994,16.997 L8.994,23.998 ZM1.015,23.998 L8.005,23.998 L8.005,16.997 L1.015,16.997 L1.015,23.998 ZM16.000,5.999 C16.000,3.238 13.761,1.000 11.000,1.000 L6.000,1.000 C3.238,1.000 1.000,3.238 1.000,5.999 L1.000,14.999 C1.000,15.341 1.035,15.675 1.101,15.997 L8.005,15.997 L8.994,15.997 L15.899,15.997 C15.965,15.675 16.000,15.341 16.000,14.999 L16.000,5.999 ZM2.997,12.998 L14.003,12.998 L14.003,13.998 L2.997,13.998 L2.997,12.998 ZM2.997,18.998 L5.994,18.998 L5.994,19.998 L2.997,19.998 L2.997,18.998 ZM11.005,18.998 L14.003,18.998 L14.003,19.998 L11.005,19.998 L11.005,18.998 Z" class="cls-1"/>
</svg>
