<svg xmlns="http://www.w3.org/2000/svg" xmlns:xlink="http://www.w3.org/1999/xlink" preserveAspectRatio="xMidYMid" width="25" height="25" viewBox="0 0 25 25">
  <defs>
    <style>
      .cls-1 {
        fill: #3c4042;
        fill-rule: evenodd;
      }
    </style>
  </defs>
  <path d="M24.500,8.999 C24.224,8.999 24.000,8.775 24.000,8.499 L24.000,1.699 L14.861,10.838 C14.658,11.040 14.331,11.040 14.128,10.838 C13.926,10.636 13.926,10.308 14.128,10.106 L23.236,0.999 L16.500,0.999 C16.224,0.999 16.000,0.775 16.000,0.499 C16.000,0.223 16.224,-0.001 16.500,-0.001 L24.417,-0.001 C24.467,-0.006 24.506,0.002 24.555,0.010 C24.651,0.021 24.737,0.058 24.808,0.115 C24.817,0.123 24.830,0.120 24.839,0.128 C24.842,0.131 24.840,0.136 24.843,0.139 C24.939,0.230 25.000,0.356 25.000,0.499 L25.000,8.499 C25.000,8.775 24.776,8.999 24.500,8.999 ZM1.699,23.999 L8.500,23.999 C8.776,23.999 9.000,24.223 9.000,24.499 C9.000,24.775 8.776,24.999 8.500,24.999 L0.500,24.999 C0.357,24.999 0.231,24.938 0.139,24.843 C0.136,24.840 0.132,24.841 0.129,24.838 C0.120,24.830 0.124,24.817 0.116,24.808 C0.058,24.736 0.022,24.650 0.011,24.554 C0.002,24.505 -0.006,24.466 -0.000,24.417 L-0.000,16.499 C-0.000,16.223 0.224,15.999 0.500,15.999 C0.776,15.999 1.000,16.223 1.000,16.499 L1.000,23.235 L10.107,14.128 C10.309,13.926 10.637,13.926 10.839,14.128 C11.041,14.330 11.041,14.657 10.839,14.860 L1.699,23.999 Z" class="cls-1"/>
</svg>
