<svg xmlns="http://www.w3.org/2000/svg" xmlns:xlink="http://www.w3.org/1999/xlink" preserveAspectRatio="xMidYMid" width="25" height="25" viewBox="0 0 25 25">
  <defs>
    <style>
      .cls-1 {
        fill: #3c4042;
        fill-rule: evenodd;
      }
    </style>
  </defs>
  <path d="M12.501,24.999 C5.598,24.999 0.001,19.402 0.001,12.500 C0.001,5.596 5.598,-0.001 12.501,-0.001 C19.405,-0.001 25.001,5.596 25.001,12.500 C25.001,19.402 19.405,24.999 12.501,24.999 ZM12.501,0.999 C6.150,0.999 1.002,6.148 1.002,12.500 C1.002,18.851 6.150,23.999 12.501,23.999 C18.853,23.999 24.002,18.851 24.002,12.500 C24.002,6.148 18.853,0.999 12.501,0.999 ZM12.881,15.822 C12.867,15.841 12.872,15.867 12.855,15.884 C12.757,15.982 12.628,16.022 12.500,16.016 C12.371,16.022 12.243,15.982 12.145,15.884 C12.128,15.867 12.133,15.841 12.119,15.822 L6.115,9.818 C5.929,9.632 5.929,9.330 6.115,9.144 C6.301,8.958 6.603,8.958 6.789,9.144 L12.500,14.855 L18.211,9.144 C18.397,8.958 18.699,8.958 18.885,9.144 C19.071,9.330 19.071,9.632 18.885,9.818 L12.881,15.822 Z" class="cls-1"/>
</svg>
