<svg xmlns="http://www.w3.org/2000/svg" xmlns:xlink="http://www.w3.org/1999/xlink" preserveAspectRatio="xMidYMid" width="25" height="25" viewBox="0 0 25 25">
  <defs>
    <style>
      .cls-1 {
        fill: #3c4042;
        fill-rule: evenodd;
      }
    </style>
  </defs>
  <path d="M21.875,24.997 L3.125,24.997 C1.399,24.997 -0.000,23.599 -0.000,21.872 L-0.000,3.122 C-0.000,1.397 1.399,-0.002 3.125,-0.002 L21.875,-0.002 C23.601,-0.002 25.000,1.397 25.000,3.122 L25.000,21.872 C25.000,23.599 23.601,24.997 21.875,24.997 ZM24.000,2.999 C24.000,1.895 23.104,0.999 22.000,0.999 L3.000,0.999 C1.895,0.999 1.000,1.895 1.000,2.999 L1.000,21.999 C1.000,23.104 1.895,23.999 3.000,23.999 L22.000,23.999 C23.104,23.999 24.000,23.104 24.000,21.999 L24.000,2.999 ZM16.885,12.854 C16.871,12.868 16.851,12.863 16.836,12.874 L10.819,19.884 C10.633,20.070 10.331,20.070 10.145,19.884 C9.959,19.698 9.959,19.396 10.145,19.210 L15.906,12.499 L10.145,5.789 C9.959,5.602 9.959,5.300 10.145,5.114 C10.331,4.928 10.633,4.928 10.819,5.114 L16.836,12.124 C16.851,12.135 16.871,12.130 16.885,12.144 C16.983,12.242 17.022,12.371 17.017,12.499 C17.022,12.628 16.983,12.756 16.885,12.854 Z" class="cls-1"/>
</svg>
