<svg xmlns="http://www.w3.org/2000/svg" xmlns:xlink="http://www.w3.org/1999/xlink" preserveAspectRatio="xMidYMid" width="25" height="25" viewBox="0 0 25 25">
  <defs>
    <style>
      .cls-1 {
        fill: #3c4042;
        fill-rule: evenodd;
      }
    </style>
  </defs>
  <path d="M21.000,14.026 L21.000,24.999 L15.000,24.999 L15.000,23.999 L15.000,21.999 L15.000,18.999 C15.000,18.447 14.552,17.999 14.000,17.999 L11.000,17.999 C10.447,17.999 10.000,18.447 10.000,18.999 L10.000,22.997 L10.000,22.997 L10.000,24.997 L10.000,24.997 L10.000,24.999 L4.000,24.999 L4.000,14.026 L-0.000,14.026 L12.500,-0.002 L25.000,14.026 L21.000,14.026 ZM2.226,13.029 L5.000,13.029 L5.000,24.002 L9.133,24.002 C9.050,23.815 9.000,23.612 9.000,23.397 L9.000,18.598 C9.000,17.714 9.783,16.997 10.750,16.997 L14.250,16.997 C15.216,16.997 16.000,17.714 16.000,18.598 L16.000,23.397 C16.000,23.612 15.950,23.815 15.866,24.002 L20.000,24.002 L20.000,13.029 L22.773,13.029 L12.500,1.501 L2.226,13.029 Z" class="cls-1"/>
</svg>
