<svg xmlns="http://www.w3.org/2000/svg" xmlns:xlink="http://www.w3.org/1999/xlink" preserveAspectRatio="xMidYMid" width="25" height="25" viewBox="0 0 25 25">
  <defs>
    <style>
      .cls-1 {
        fill: #3c4042;
        fill-rule: evenodd;
      }
    </style>
  </defs>
  <path d="M13.000,5.499 L13.000,12.999 L19.500,12.999 C19.776,12.999 20.000,13.223 20.000,13.499 C20.000,13.775 19.776,13.999 19.500,13.999 L12.500,13.999 C12.224,13.999 12.000,13.775 12.000,13.499 L12.000,5.499 C12.000,5.223 12.224,4.999 12.500,4.999 C12.776,4.999 13.000,5.223 13.000,5.499 ZM12.500,24.997 C7.980,24.997 4.033,22.591 1.837,18.997 L3.016,18.997 C5.088,22.015 8.561,23.998 12.500,23.998 C18.851,23.998 24.000,18.849 24.000,12.497 C24.000,6.146 18.851,0.998 12.500,0.998 C7.752,0.998 3.709,3.893 1.955,7.999 L8.500,7.999 C8.776,7.999 9.000,8.223 9.000,8.499 C9.000,8.775 8.776,8.999 8.500,8.999 L0.500,8.999 C0.224,8.999 -0.000,8.775 -0.000,8.499 L-0.000,0.499 C-0.000,0.223 0.224,-0.001 0.500,-0.001 C0.776,-0.001 1.000,0.223 1.000,0.499 L1.000,7.674 C2.890,3.172 7.312,-0.002 12.500,-0.002 C19.403,-0.002 25.000,5.594 25.000,12.497 C25.000,19.401 19.403,24.997 12.500,24.997 Z" class="cls-1"/>
</svg>
