<svg xmlns="http://www.w3.org/2000/svg" xmlns:xlink="http://www.w3.org/1999/xlink" preserveAspectRatio="xMidYMid" width="25" height="25" viewBox="0 0 25 25">
  <defs>
    <style>
      .cls-1 {
        fill: #3c4042;
        fill-rule: evenodd;
      }
    </style>
  </defs>
  <path d="M24.233,24.997 L0.766,24.997 C0.343,24.997 -0.000,24.647 -0.000,24.217 L-0.000,19.998 L-0.000,18.998 L-0.000,0.779 C-0.000,0.347 0.343,-0.002 0.766,-0.002 L12.000,-0.002 L13.000,-0.002 L24.233,-0.002 C24.657,-0.002 25.000,0.347 25.000,0.779 L25.000,18.998 L25.000,19.998 L25.000,24.217 C25.000,24.647 24.657,24.997 24.233,24.997 ZM12.000,0.999 L2.000,0.999 C1.448,0.999 1.000,1.447 1.000,1.999 L1.000,18.998 L12.000,18.998 L12.000,0.999 ZM24.000,1.999 C24.000,1.447 23.552,0.999 23.000,0.999 L13.000,0.999 L13.000,18.998 L24.000,18.998 L24.000,1.999 ZM24.000,19.998 L1.000,19.998 L1.000,22.999 C1.000,23.551 1.448,23.999 2.000,23.999 L23.000,23.999 C23.552,23.999 24.000,23.551 24.000,22.999 L24.000,19.998 ZM17.000,12.998 L16.000,12.998 L16.000,8.998 L17.000,8.998 L17.000,12.998 ZM9.000,12.998 L8.000,12.998 L8.000,8.998 L9.000,8.998 L9.000,12.998 Z" class="cls-1"/>
</svg>
