<svg xmlns="http://www.w3.org/2000/svg" xmlns:xlink="http://www.w3.org/1999/xlink" preserveAspectRatio="xMidYMid" width="25" height="23" viewBox="0 0 25 23">
  <defs>
    <style>
      .cls-1 {
        fill: #3c4042;
        fill-rule: evenodd;
      }
    </style>
  </defs>
  <path d="M25.000,11.499 C25.000,11.578 24.978,11.650 24.946,11.715 C24.925,11.787 24.888,11.855 24.830,11.913 L18.881,17.862 C18.675,18.067 18.342,18.067 18.137,17.862 C17.932,17.656 17.932,17.324 18.137,17.118 L23.256,12.000 L4.500,12.000 C4.224,12.000 4.000,11.776 4.000,11.499 C4.000,11.223 4.224,11.000 4.500,11.000 L23.256,11.000 L18.137,5.880 C17.932,5.674 17.932,5.341 18.137,5.136 C18.342,4.931 18.675,4.931 18.881,5.136 L24.830,11.086 C24.888,11.144 24.925,11.211 24.946,11.283 C24.978,11.349 25.000,11.421 25.000,11.499 ZM13.000,1.999 C13.000,1.447 12.552,0.999 12.000,0.999 L2.000,0.999 C1.448,0.999 1.000,1.447 1.000,1.999 L1.000,20.999 C1.000,21.552 1.448,21.999 2.000,21.999 L12.000,21.999 C12.552,21.999 13.000,21.552 13.000,20.999 L13.000,17.997 L14.004,17.997 L14.004,21.464 C14.004,22.312 13.307,22.998 12.448,22.998 L1.556,22.998 C0.696,22.998 -0.000,22.312 -0.000,21.464 L-0.000,1.530 C-0.000,0.684 0.696,-0.003 1.556,-0.003 L12.448,-0.003 C13.307,-0.003 14.004,0.684 14.004,1.530 L14.004,4.998 L13.000,4.998 L13.000,1.999 Z" class="cls-1"/>
</svg>
