<svg xmlns="http://www.w3.org/2000/svg" xmlns:xlink="http://www.w3.org/1999/xlink" preserveAspectRatio="xMidYMid" width="23" height="23" viewBox="0 0 23 23">
  <defs>
    <style>
      .cls-1 {
        fill: #3c4042;
        fill-rule: evenodd;
      }
    </style>
  </defs>
  <path d="M11.500,22.998 C5.148,22.998 -0.000,17.850 -0.000,11.498 C-0.000,5.146 5.148,-0.002 11.500,-0.002 C17.851,-0.002 23.000,5.146 23.000,11.498 C23.000,17.850 17.851,22.998 11.500,22.998 ZM11.500,0.999 C5.702,0.999 1.002,5.700 1.002,11.498 C1.002,17.296 5.702,21.995 11.500,21.995 C17.297,21.995 21.998,17.296 21.998,11.498 C21.998,5.700 17.297,0.999 11.500,0.999 ZM15.389,15.388 C15.194,15.583 14.877,15.583 14.682,15.388 L11.500,12.206 L8.318,15.388 C8.123,15.583 7.806,15.583 7.611,15.388 C7.415,15.193 7.415,14.877 7.611,14.681 L10.793,11.499 L7.611,8.317 C7.415,8.122 7.415,7.805 7.611,7.610 C7.806,7.414 8.123,7.414 8.318,7.610 L11.500,10.792 L14.682,7.610 C14.877,7.414 15.194,7.414 15.389,7.610 C15.584,7.805 15.584,8.122 15.389,8.317 L12.207,11.499 L15.389,14.681 C15.584,14.877 15.584,15.193 15.389,15.388 Z" class="cls-1"/>
</svg>
