<svg xmlns="http://www.w3.org/2000/svg" xmlns:xlink="http://www.w3.org/1999/xlink" preserveAspectRatio="xMidYMid" width="25" height="25" viewBox="0 0 25 25">
  <defs>
    <style>
      .cls-1 {
        fill: #3c4042;
        fill-rule: evenodd;
      }
    </style>
  </defs>
  <path d="M12.501,24.999 C5.598,24.999 0.001,19.402 0.001,12.499 C0.001,5.596 5.598,-0.001 12.501,-0.001 C19.405,-0.001 25.001,5.596 25.001,12.499 C25.001,19.402 19.405,24.999 12.501,24.999 ZM12.501,0.999 C6.150,0.999 1.001,6.148 1.001,12.499 C1.001,18.851 6.150,23.999 12.501,23.999 C18.853,23.999 24.002,18.851 24.002,12.499 C24.002,6.148 18.853,0.999 12.501,0.999 ZM12.914,20.862 C12.861,20.914 12.788,20.915 12.723,20.941 C12.702,20.951 12.682,20.959 12.660,20.967 C12.604,20.981 12.558,21.004 12.501,20.999 C12.501,20.999 12.500,20.999 12.500,20.999 C12.499,20.999 12.499,20.999 12.499,20.999 C12.441,21.004 12.396,20.981 12.340,20.967 C12.318,20.959 12.297,20.951 12.277,20.941 C12.212,20.915 12.139,20.914 12.086,20.862 L6.137,14.913 C5.932,14.708 5.932,14.374 6.137,14.170 C6.342,13.964 6.675,13.964 6.881,14.170 L12.000,19.288 L12.000,4.499 C12.000,4.223 12.224,3.999 12.500,3.999 C12.776,3.999 13.000,4.223 13.000,4.499 L13.000,19.288 L18.119,14.170 C18.324,13.964 18.657,13.964 18.863,14.170 C19.068,14.374 19.068,14.708 18.863,14.913 L12.914,20.862 Z" class="cls-1"/>
</svg>
