<svg xmlns="http://www.w3.org/2000/svg" xmlns:xlink="http://www.w3.org/1999/xlink" preserveAspectRatio="xMidYMid" width="19" height="19" viewBox="0 0 19 19">
  <defs>
    <style>
      .cls-1 {
        fill: #3c4042;
        fill-rule: evenodd;
      }
    </style>
  </defs>
  <path d="M18.744,18.742 C18.518,18.969 18.164,19.066 17.737,18.980 L3.633,15.540 C3.362,15.487 3.156,15.385 3.023,15.252 C2.736,14.964 2.779,14.530 3.200,14.109 L6.855,10.455 L0.737,4.337 C-0.257,3.343 -0.257,1.731 0.737,0.736 C1.732,-0.257 3.344,-0.257 4.338,0.736 L10.455,6.854 L14.110,3.199 C14.531,2.778 14.965,2.736 15.252,3.022 C15.386,3.156 15.487,3.362 15.541,3.632 L18.981,17.737 C19.066,18.164 18.969,18.518 18.744,18.742 ZM17.982,17.936 L14.601,4.149 L10.455,8.294 L3.618,1.457 C3.021,0.861 2.054,0.861 1.457,1.457 C0.861,2.053 0.861,3.021 1.457,3.617 L8.295,10.455 L4.150,14.600 L17.921,17.979 C17.948,17.983 17.972,17.987 17.991,17.990 C17.989,17.974 17.986,17.956 17.982,17.936 Z" class="cls-1"/>
</svg>
