<svg xmlns="http://www.w3.org/2000/svg" xmlns:xlink="http://www.w3.org/1999/xlink" preserveAspectRatio="xMidYMid" width="11" height="19" viewBox="0 0 11 19">
  <defs>
    <style>
      .cls-1 {
        fill: #3c4042;
        fill-rule: evenodd;
      }
    </style>
  </defs>
  <path d="M10.759,0.994 L1.211,9.499 L10.759,18.004 C10.993,18.151 11.074,18.477 10.938,18.732 C10.803,18.988 10.503,19.075 10.269,18.927 L0.241,9.994 C0.089,9.899 0.010,9.727 0.005,9.549 C0.002,9.532 0.002,9.516 0.001,9.499 C0.002,9.482 0.002,9.466 0.005,9.450 C0.010,9.271 0.089,9.099 0.241,9.004 L10.269,0.071 C10.503,-0.076 10.803,0.010 10.938,0.266 C11.074,0.521 10.993,0.847 10.759,0.994 Z" class="cls-1"/>
</svg>
