<svg xmlns="http://www.w3.org/2000/svg" xmlns:xlink="http://www.w3.org/1999/xlink" preserveAspectRatio="xMidYMid" width="25" height="25" viewBox="0 0 25 25">
  <defs>
    <style>
      .cls-1 {
        fill: #3c4042;
        fill-rule: evenodd;
      }
    </style>
  </defs>
  <path d="M12.500,24.998 C5.596,24.998 -0.000,19.401 -0.000,12.498 C-0.000,5.594 5.596,-0.003 12.500,-0.003 C19.403,-0.003 25.000,5.594 25.000,12.498 C25.000,19.401 19.403,24.998 12.500,24.998 ZM12.500,23.998 C15.230,23.998 17.735,23.042 19.707,21.452 L16.138,17.884 C15.100,18.586 13.848,18.997 12.500,18.997 C11.152,18.997 9.900,18.586 8.861,17.884 L5.293,21.452 C7.265,23.042 9.769,23.998 12.500,23.998 ZM18.000,12.498 C18.000,9.460 15.537,6.997 12.500,6.997 C9.462,6.997 7.000,9.460 7.000,12.498 C7.000,15.535 9.462,17.997 12.500,17.997 C15.537,17.997 18.000,15.535 18.000,12.498 ZM1.000,12.498 C1.000,15.738 2.345,18.661 4.502,20.751 L8.044,17.209 C6.791,16.024 6.000,14.358 6.000,12.498 C6.000,10.638 6.790,8.972 8.042,7.787 L4.500,4.245 C2.344,6.336 1.000,9.257 1.000,12.498 ZM12.500,0.997 C9.769,0.997 7.263,1.954 5.291,3.544 L8.859,7.113 C9.898,6.409 11.151,5.998 12.500,5.998 C13.849,5.998 15.102,6.409 16.140,7.113 L19.709,3.544 C17.736,1.954 15.231,0.997 12.500,0.997 ZM20.499,4.245 L16.958,7.787 C18.209,8.972 19.000,10.638 19.000,12.498 C19.000,14.358 18.208,16.024 16.956,17.209 L20.498,20.751 C22.654,18.660 24.000,15.738 24.000,12.498 C24.000,9.257 22.655,6.336 20.499,4.245 Z" class="cls-1"/>
</svg>
