<svg xmlns="http://www.w3.org/2000/svg" xmlns:xlink="http://www.w3.org/1999/xlink" preserveAspectRatio="xMidYMid" width="25" height="25" viewBox="0 0 25 25">
  <defs>
    <style>
      .cls-1 {
        fill: #3c4042;
        fill-rule: evenodd;
      }
    </style>
  </defs>
  <path d="M12.500,24.998 C5.596,24.998 -0.000,19.401 -0.000,12.498 C-0.000,5.594 5.596,-0.003 12.500,-0.003 C19.403,-0.003 25.000,5.594 25.000,12.498 C25.000,19.401 19.403,24.998 12.500,24.998 ZM12.500,0.997 C6.149,0.997 1.000,6.145 1.000,12.498 C1.000,18.849 6.149,23.997 12.500,23.997 C18.851,23.997 24.000,18.849 24.000,12.498 C24.000,6.145 18.851,0.997 12.500,0.997 ZM15.855,18.884 C15.669,19.070 15.367,19.070 15.181,18.884 L9.177,12.880 C9.158,12.866 9.132,12.871 9.115,12.854 C9.017,12.756 8.978,12.627 8.983,12.499 C8.978,12.370 9.017,12.242 9.115,12.144 C9.132,12.126 9.158,12.132 9.177,12.118 L15.181,6.114 C15.367,5.928 15.669,5.928 15.855,6.114 C16.041,6.300 16.041,6.602 15.855,6.788 L10.144,12.499 L15.855,18.210 C16.041,18.396 16.041,18.698 15.855,18.884 Z" class="cls-1"/>
</svg>
