<svg xmlns="http://www.w3.org/2000/svg" xmlns:xlink="http://www.w3.org/1999/xlink" preserveAspectRatio="xMidYMid" width="25" height="23" viewBox="0 0 25 23">
  <defs>
    <style>
      .cls-1 {
        fill: #3c4042;
        fill-rule: evenodd;
      }
    </style>
  </defs>
  <path d="M23.428,22.998 L4.571,22.998 C3.703,22.998 3.000,22.312 3.000,21.464 L3.000,16.989 L4.000,16.989 L4.000,20.999 C4.000,21.552 4.447,21.999 5.000,21.999 L23.000,21.999 C23.552,21.999 24.000,21.552 24.000,20.999 L24.000,1.999 C24.000,1.447 23.552,0.999 23.000,0.999 L5.000,0.999 C4.447,0.999 4.000,1.447 4.000,1.999 L4.000,6.007 L3.000,6.007 L3.000,1.530 C3.000,0.684 3.703,-0.003 4.571,-0.003 L23.428,-0.003 C24.296,-0.003 25.000,0.684 25.000,1.530 L25.000,21.464 C25.000,22.312 24.296,22.998 23.428,22.998 ZM14.137,5.880 C13.932,5.674 13.932,5.341 14.137,5.136 C14.342,4.931 14.675,4.931 14.881,5.136 L20.830,11.086 C20.888,11.144 20.925,11.211 20.946,11.283 C20.978,11.349 21.000,11.421 21.000,11.499 C21.000,11.578 20.978,11.649 20.946,11.715 C20.925,11.787 20.888,11.855 20.830,11.913 L14.881,17.862 C14.675,18.067 14.342,18.067 14.137,17.862 C13.932,17.656 13.932,17.324 14.137,17.118 L19.256,12.000 L0.500,12.000 C0.224,12.000 -0.000,11.776 -0.000,11.499 C-0.000,11.223 0.224,11.000 0.500,11.000 L19.256,11.000 L14.137,5.880 Z" class="cls-1"/>
</svg>
