<svg xmlns="http://www.w3.org/2000/svg" xmlns:xlink="http://www.w3.org/1999/xlink" preserveAspectRatio="xMidYMid" width="25" height="25" viewBox="0 0 25 25">
  <defs>
    <style>
      .cls-1 {
        fill: #3c4042;
        fill-rule: evenodd;
      }
    </style>
  </defs>
  <path d="M24.000,0.999 L24.000,19.933 C24.000,21.580 22.669,22.919 21.000,22.993 L21.000,24.998 L20.000,24.998 L20.000,23.000 L5.000,23.000 L5.000,24.998 L4.000,24.998 L4.000,22.993 C2.331,22.920 1.000,21.580 1.000,19.933 L1.000,16.998 L1.000,16.998 L1.000,0.999 L-0.000,0.999 L-0.000,-0.001 L1.000,-0.001 L1.000,-0.002 L24.000,-0.002 L24.000,-0.001 L25.000,-0.001 L25.000,0.999 L24.000,0.999 ZM2.000,16.998 L2.000,19.933 C2.000,21.065 2.949,21.986 4.119,21.998 L5.000,21.998 L5.000,22.000 L20.000,22.000 L20.000,21.998 L20.880,21.998 C22.051,21.986 23.000,21.065 23.000,19.933 L23.000,16.998 L23.000,16.998 L23.000,14.999 L2.000,14.999 L2.000,16.998 L2.000,16.998 ZM23.000,0.999 L2.000,0.999 L2.000,6.998 L23.000,6.998 L23.000,0.999 ZM2.000,7.999 L2.000,13.999 L23.000,13.999 L23.000,7.999 L2.000,7.999 ZM9.000,10.998 L16.000,10.998 L16.000,11.999 L9.000,11.999 L9.000,10.998 ZM16.000,4.998 L9.000,4.998 L9.000,3.998 L16.000,3.998 L16.000,4.998 ZM16.000,18.999 L9.000,18.999 L9.000,17.999 L16.000,17.999 L16.000,18.999 Z" class="cls-1"/>
</svg>
