<svg xmlns="http://www.w3.org/2000/svg" xmlns:xlink="http://www.w3.org/1999/xlink" preserveAspectRatio="xMidYMid" width="24" height="6" viewBox="0 0 24 6">
  <defs>
    <style>
      .cls-1 {
        fill: #3c4042;
        fill-rule: evenodd;
      }
    </style>
  </defs>
  <path d="M21.000,5.998 C19.343,5.998 18.000,4.654 18.000,2.997 C18.000,1.340 19.343,-0.003 21.000,-0.003 C22.656,-0.003 24.000,1.340 24.000,2.997 C24.000,4.654 22.656,5.998 21.000,5.998 ZM21.000,0.997 C19.895,0.997 19.000,1.892 19.000,2.997 C19.000,4.102 19.895,4.997 21.000,4.997 C22.104,4.997 23.000,4.102 23.000,2.997 C23.000,1.892 22.104,0.997 21.000,0.997 ZM12.000,5.998 C10.343,5.998 9.000,4.654 9.000,2.997 C9.000,1.340 10.343,-0.003 12.000,-0.003 C13.657,-0.003 15.000,1.340 15.000,2.997 C15.000,4.654 13.657,5.998 12.000,5.998 ZM12.000,0.997 C10.895,0.997 10.000,1.892 10.000,2.997 C10.000,4.102 10.895,4.997 12.000,4.997 C13.104,4.997 14.000,4.102 14.000,2.997 C14.000,1.892 13.104,0.997 12.000,0.997 ZM3.000,5.998 C1.343,5.998 -0.000,4.654 -0.000,2.997 C-0.000,1.340 1.343,-0.003 3.000,-0.003 C4.656,-0.003 6.000,1.340 6.000,2.997 C6.000,4.654 4.656,5.998 3.000,5.998 ZM3.000,0.997 C1.895,0.997 1.000,1.892 1.000,2.997 C1.000,4.102 1.895,4.997 3.000,4.997 C4.104,4.997 5.000,4.102 5.000,2.997 C5.000,1.892 4.104,0.997 3.000,0.997 Z" class="cls-1"/>
</svg>
