<svg xmlns="http://www.w3.org/2000/svg" xmlns:xlink="http://www.w3.org/1999/xlink" preserveAspectRatio="xMidYMid" width="25" height="25" viewBox="0 0 25 25">
  <defs>
    <style>
      .cls-1 {
        fill: #3c4042;
        fill-rule: evenodd;
      }
    </style>
  </defs>
  <path d="M21.500,16.003 C19.567,16.003 18.000,14.434 18.000,12.501 C18.000,10.566 19.567,8.997 21.500,8.997 C23.433,8.997 25.000,10.566 25.000,12.501 C25.000,14.434 23.433,16.003 21.500,16.003 ZM21.500,9.999 C20.119,9.999 19.000,11.119 19.000,12.499 C19.000,13.880 20.119,14.999 21.500,14.999 C22.881,14.999 24.000,13.880 24.000,12.499 C24.000,11.119 22.881,9.999 21.500,9.999 ZM21.500,7.002 C19.567,7.002 18.000,5.434 18.000,3.500 C18.000,1.566 19.567,-0.003 21.500,-0.003 C23.433,-0.003 25.000,1.566 25.000,3.500 C25.000,5.434 23.433,7.002 21.500,7.002 ZM21.500,0.999 C20.119,0.999 19.000,2.118 19.000,3.499 C19.000,4.880 20.119,5.999 21.500,5.999 C22.881,5.999 24.000,4.880 24.000,3.499 C24.000,2.118 22.881,0.999 21.500,0.999 ZM12.500,25.002 C10.567,25.002 9.000,23.434 9.000,21.500 C9.000,19.565 10.567,17.997 12.500,17.997 C14.433,17.997 16.000,19.565 16.000,21.500 C16.000,23.434 14.433,25.002 12.500,25.002 ZM12.500,18.999 C11.119,18.999 10.000,20.119 10.000,21.499 C10.000,22.880 11.119,24.000 12.500,24.000 C13.881,24.000 15.000,22.880 15.000,21.499 C15.000,20.119 13.881,18.999 12.500,18.999 ZM12.500,16.003 C10.567,16.003 9.000,14.434 9.000,12.501 C9.000,10.566 10.567,8.997 12.500,8.997 C14.433,8.997 16.000,10.566 16.000,12.501 C16.000,14.434 14.433,16.003 12.500,16.003 ZM12.500,9.999 C11.119,9.999 10.000,11.119 10.000,12.499 C10.000,13.880 11.119,14.999 12.500,14.999 C13.881,14.999 15.000,13.880 15.000,12.499 C15.000,11.119 13.881,9.999 12.500,9.999 ZM12.500,7.002 C10.567,7.002 9.000,5.434 9.000,3.500 C9.000,1.566 10.567,-0.003 12.500,-0.003 C14.433,-0.003 16.000,1.566 16.000,3.500 C16.000,5.434 14.433,7.002 12.500,7.002 ZM12.500,0.999 C11.119,0.999 10.000,2.118 10.000,3.499 C10.000,4.880 11.119,5.999 12.500,5.999 C13.881,5.999 15.000,4.880 15.000,3.499 C15.000,2.118 13.881,0.999 12.500,0.999 ZM3.500,25.002 C1.567,25.002 -0.000,23.434 -0.000,21.500 C-0.000,19.565 1.567,17.997 3.500,17.997 C5.433,17.997 7.000,19.565 7.000,21.500 C7.000,23.434 5.433,25.002 3.500,25.002 ZM3.500,18.999 C2.119,18.999 1.000,20.119 1.000,21.499 C1.000,22.880 2.119,24.000 3.500,24.000 C4.880,24.000 6.000,22.880 6.000,21.499 C6.000,20.119 4.880,18.999 3.500,18.999 ZM3.500,16.003 C1.567,16.003 -0.000,14.434 -0.000,12.501 C-0.000,10.566 1.567,8.997 3.500,8.997 C5.433,8.997 7.000,10.566 7.000,12.501 C7.000,14.434 5.433,16.003 3.500,16.003 ZM3.500,9.999 C2.119,9.999 1.000,11.119 1.000,12.499 C1.000,13.880 2.119,14.999 3.500,14.999 C4.880,14.999 6.000,13.880 6.000,12.499 C6.000,11.119 4.880,9.999 3.500,9.999 ZM3.500,7.002 C1.567,7.002 -0.000,5.434 -0.000,3.500 C-0.000,1.566 1.567,-0.003 3.500,-0.003 C5.433,-0.003 7.000,1.566 7.000,3.500 C7.000,5.434 5.433,7.002 3.500,7.002 ZM3.500,0.999 C2.119,0.999 1.000,2.118 1.000,3.499 C1.000,4.880 2.119,5.999 3.500,5.999 C4.880,5.999 6.000,4.880 6.000,3.499 C6.000,2.118 4.880,0.999 3.500,0.999 ZM21.500,17.997 C23.433,17.997 25.000,19.565 25.000,21.500 C25.000,23.434 23.433,25.002 21.500,25.002 C19.567,25.002 18.000,23.434 18.000,21.500 C18.000,19.565 19.567,17.997 21.500,17.997 ZM21.500,24.000 C22.881,24.000 24.000,22.880 24.000,21.499 C24.000,20.119 22.881,18.999 21.500,18.999 C20.119,18.999 19.000,20.119 19.000,21.499 C19.000,22.880 20.119,24.000 21.500,24.000 Z" class="cls-1"/>
</svg>
