<svg xmlns="http://www.w3.org/2000/svg" xmlns:xlink="http://www.w3.org/1999/xlink" preserveAspectRatio="xMidYMid" width="21" height="25" viewBox="0 0 21 25">
  <defs>
    <style>
      .cls-1 {
        fill: #3c4042;
        fill-rule: evenodd;
      }
    </style>
  </defs>
  <path d="M19.461,24.998 L1.538,24.998 C0.689,24.998 -0.000,24.289 -0.000,23.414 L-0.000,7.581 C-0.000,6.706 0.689,5.997 1.538,5.997 L5.002,5.997 L5.002,6.999 L2.000,6.999 C1.447,6.999 1.000,7.447 1.000,7.999 L1.000,22.999 C1.000,23.552 1.447,23.999 2.000,23.999 L19.000,23.999 C19.552,23.999 20.000,23.552 20.000,22.999 L20.000,7.999 C20.000,7.447 19.552,6.999 19.000,6.999 L15.998,6.999 L15.998,5.997 L19.461,5.997 C20.311,5.997 21.000,6.706 21.000,7.581 L21.000,23.414 C21.000,24.289 20.311,24.998 19.461,24.998 ZM10.908,18.857 C10.864,18.900 10.802,18.897 10.750,18.923 C10.711,18.945 10.670,18.962 10.626,18.974 C10.598,18.979 10.573,18.976 10.548,18.979 C10.374,19.012 10.195,18.991 10.060,18.857 L6.145,14.956 C5.929,14.741 5.929,14.391 6.145,14.175 C6.362,13.960 6.712,13.960 6.928,14.175 L10.000,17.236 L10.000,0.499 C10.000,0.223 10.224,-0.001 10.500,-0.001 C10.776,-0.001 11.000,0.223 11.000,0.499 L11.000,17.205 L14.040,14.175 C14.256,13.960 14.607,13.960 14.823,14.175 C15.039,14.391 15.039,14.741 14.823,14.956 L10.908,18.857 Z" class="cls-1"/>
</svg>
