<svg xmlns="http://www.w3.org/2000/svg" xmlns:xlink="http://www.w3.org/1999/xlink" preserveAspectRatio="xMidYMid" width="23" height="23" viewBox="0 0 23 23">
  <defs>
    <style>
      .cls-1 {
        fill: #3c4042;
        fill-rule: evenodd;
      }
    </style>
  </defs>
  <path d="M19.933,22.997 L3.066,22.997 C1.373,22.997 -0.000,21.624 -0.000,19.930 L-0.000,3.064 C-0.000,1.371 1.373,-0.003 3.066,-0.003 L19.933,-0.003 C21.627,-0.003 23.000,1.371 23.000,3.064 L23.000,19.930 C23.000,21.624 21.627,22.997 19.933,22.997 ZM22.000,2.999 C22.000,1.895 21.104,0.999 20.000,0.999 L3.000,0.999 C1.895,0.999 1.000,1.895 1.000,2.999 L1.000,19.999 C1.000,21.103 1.895,21.999 3.000,21.999 L20.000,21.999 C21.104,21.999 22.000,21.103 22.000,19.999 L22.000,2.999 ZM16.833,16.832 C16.636,17.029 16.317,17.029 16.120,16.832 L11.484,12.196 L6.849,16.832 C6.652,17.029 6.332,17.029 6.135,16.832 C5.938,16.636 5.938,16.315 6.135,16.119 L10.771,11.483 L6.135,6.848 C5.938,6.650 5.938,6.331 6.135,6.134 C6.332,5.937 6.652,5.937 6.849,6.134 L11.484,10.770 L16.120,6.134 C16.317,5.937 16.636,5.937 16.833,6.134 C17.030,6.331 17.030,6.650 16.833,6.848 L12.197,11.483 L16.833,16.119 C17.030,16.315 17.030,16.636 16.833,16.832 Z" class="cls-1"/>
</svg>
