<svg xmlns="http://www.w3.org/2000/svg" xmlns:xlink="http://www.w3.org/1999/xlink" preserveAspectRatio="xMidYMid" width="25" height="25" viewBox="0 0 25 25">
  <defs>
    <style>
      .cls-1 {
        fill: #3c4042;
        fill-rule: evenodd;
      }
    </style>
  </defs>
  <path d="M17.968,0.996 C22.140,0.996 24.000,2.945 24.000,7.315 C24.000,11.698 16.249,20.035 12.499,23.630 C8.748,20.046 1.000,11.729 1.000,7.315 C1.000,2.945 2.860,0.996 7.031,0.996 C9.768,0.996 11.608,4.231 11.625,4.261 L12.521,5.878 L13.385,4.243 C13.402,4.211 15.136,0.996 17.968,0.996 M17.968,-0.004 C14.475,-0.004 12.500,3.778 12.500,3.778 C12.500,3.778 10.410,-0.004 7.031,-0.004 C2.285,-0.004 -0.000,2.382 -0.000,7.315 C-0.000,13.484 12.500,25.003 12.500,25.003 C12.500,25.003 25.000,13.446 25.000,7.315 C25.000,2.382 22.715,-0.004 17.968,-0.004 L17.968,-0.004 Z" class="cls-1"/>
</svg>
