<svg xmlns="http://www.w3.org/2000/svg" xmlns:xlink="http://www.w3.org/1999/xlink" preserveAspectRatio="xMidYMid" width="15.97" height="15.97" viewBox="0 0 15.97 15.97">
  <defs>
    <style>
      .cls-1 {
        fill: #3c4042;
        fill-rule: evenodd;
      }
    </style>
  </defs>
  <path d="M15.970,12.499 C15.970,12.776 15.746,12.999 15.470,12.999 C15.194,12.999 14.970,12.776 14.970,12.499 L14.970,1.683 L0.827,15.825 C0.638,16.015 0.332,16.015 0.143,15.825 C-0.046,15.637 -0.046,15.330 0.143,15.142 L14.286,0.999 L3.470,0.999 C3.194,0.999 2.970,0.775 2.970,0.499 C2.970,0.223 3.194,-0.001 3.470,-0.001 L15.470,-0.001 C15.474,-0.001 15.478,0.001 15.482,0.001 C15.486,0.001 15.489,0.004 15.493,0.004 C15.613,0.009 15.721,0.057 15.804,0.133 C15.811,0.139 15.821,0.136 15.827,0.142 C15.833,0.148 15.830,0.158 15.836,0.165 C15.912,0.248 15.959,0.355 15.965,0.475 C15.965,0.480 15.967,0.483 15.967,0.487 C15.967,0.491 15.970,0.495 15.970,0.499 L15.970,12.499 Z" class="cls-1"/>
</svg>
