<svg xmlns="http://www.w3.org/2000/svg" xmlns:xlink="http://www.w3.org/1999/xlink" preserveAspectRatio="xMidYMid" width="25" height="25" viewBox="0 0 25 25">
  <defs>
    <style>
      .cls-1 {
        fill: #3c4042;
        fill-rule: evenodd;
      }
    </style>
  </defs>
  <path d="M24.500,21.999 C24.224,21.999 24.000,21.775 24.000,21.499 L24.000,0.999 L3.500,0.999 C3.224,0.999 3.000,0.775 3.000,0.499 C3.000,0.223 3.224,-0.001 3.500,-0.001 L24.500,-0.001 C24.776,-0.001 25.000,0.223 25.000,0.499 L25.000,21.499 C25.000,21.775 24.776,21.999 24.500,21.999 ZM22.000,4.999 L22.000,23.000 C22.000,24.104 21.104,24.999 20.000,24.999 L2.000,24.999 C0.895,24.999 -0.000,24.104 -0.000,23.000 L-0.000,4.999 C-0.000,3.895 0.895,2.999 2.000,2.999 L20.000,2.999 C21.104,2.999 22.000,3.895 22.000,4.999 ZM1.000,4.999 L1.000,23.000 C1.000,23.551 1.448,23.999 2.000,23.999 L20.000,23.999 C20.552,23.999 21.000,23.551 21.000,23.000 L21.000,4.999 C21.000,4.447 20.552,3.999 20.000,3.999 L2.000,3.999 C1.448,3.999 1.000,4.447 1.000,4.999 Z" class="cls-1"/>
</svg>
