<svg xmlns="http://www.w3.org/2000/svg" xmlns:xlink="http://www.w3.org/1999/xlink" preserveAspectRatio="xMidYMid" width="25" height="25" viewBox="0 0 25 25">
  <defs>
    <style>
      .cls-1 {
        fill: #3c4042;
        fill-rule: evenodd;
      }
    </style>
  </defs>
  <path d="M21.875,24.997 L3.125,24.997 C1.399,24.997 -0.000,23.599 -0.000,21.872 L-0.000,3.123 C-0.000,1.397 1.399,-0.002 3.125,-0.002 L21.875,-0.002 C23.601,-0.002 25.000,1.397 25.000,3.123 L25.000,21.872 C25.000,23.599 23.601,24.997 21.875,24.997 ZM24.000,2.999 C24.000,1.895 23.104,0.999 22.000,0.999 L3.000,0.999 C1.895,0.999 1.000,1.895 1.000,2.999 L1.000,21.999 C1.000,23.104 1.895,23.999 3.000,23.999 L22.000,23.999 C23.104,23.999 24.000,23.104 24.000,21.999 L24.000,2.999 ZM15.711,9.999 L20.500,9.999 C20.776,9.999 21.000,10.223 21.000,10.499 C21.000,10.775 20.776,10.999 20.500,10.999 L14.500,10.999 C14.224,10.999 14.000,10.775 14.000,10.499 L14.000,10.498 C13.997,10.468 13.997,10.446 14.000,10.417 L14.000,4.499 C14.000,4.223 14.224,3.999 14.500,3.999 C14.776,3.999 15.000,4.223 15.000,4.499 L15.000,9.223 L21.086,3.136 C21.291,2.931 21.624,2.931 21.830,3.136 C22.035,3.341 22.035,3.674 21.830,3.880 L15.711,9.999 ZM11.000,14.581 L11.000,20.499 C11.000,20.775 10.776,20.999 10.500,20.999 C10.224,20.999 10.000,20.775 10.000,20.499 L10.000,15.776 L3.914,21.862 C3.708,22.067 3.375,22.067 3.170,21.862 C2.964,21.657 2.964,21.324 3.170,21.118 L9.289,14.999 L4.500,14.999 C4.224,14.999 4.000,14.775 4.000,14.499 C4.000,14.223 4.224,13.999 4.500,13.999 L10.500,13.999 C10.776,13.999 11.000,14.223 11.000,14.499 L11.000,14.501 C11.002,14.530 11.002,14.552 11.000,14.581 Z" class="cls-1"/>
</svg>
