<svg xmlns="http://www.w3.org/2000/svg" xmlns:xlink="http://www.w3.org/1999/xlink" preserveAspectRatio="xMidYMid" width="25" height="25" viewBox="0 0 25 25">
  <defs>
    <style>
      .cls-1 {
        fill: #3c4042;
        fill-rule: evenodd;
      }
    </style>
  </defs>
  <path d="M22.933,15.688 C22.975,15.832 23.000,15.984 23.000,16.142 L23.000,21.428 C23.000,22.296 22.328,22.999 21.500,22.999 L21.000,22.999 L21.000,24.998 L20.000,24.998 L20.000,22.999 L5.000,22.999 L5.000,24.998 L4.000,24.998 L4.000,22.999 L3.500,22.999 C2.671,22.999 2.000,22.296 2.000,21.428 L2.000,16.142 C2.000,15.984 2.025,15.832 2.066,15.689 C0.849,15.141 -0.000,13.920 -0.000,12.498 C-0.000,10.736 1.304,9.281 3.000,9.038 L3.000,7.665 C3.000,3.431 6.544,-0.002 10.916,-0.002 L14.083,-0.002 C18.455,-0.002 22.000,3.431 22.000,7.665 L22.000,9.038 C23.695,9.281 25.000,10.736 25.000,12.498 C25.000,13.920 24.151,15.141 22.933,15.688 ZM3.000,21.428 C3.000,21.744 3.224,22.000 3.500,22.000 L21.500,22.000 C21.775,22.000 22.000,21.744 22.000,21.428 L22.000,16.142 C22.000,16.079 21.989,16.019 21.972,15.963 C21.817,15.984 21.660,15.998 21.500,15.998 C20.484,15.998 19.573,15.563 18.933,14.872 C17.268,14.459 14.880,13.999 12.500,13.999 C10.137,13.999 7.736,14.463 6.061,14.877 C5.422,15.565 4.513,15.998 3.500,15.998 C3.339,15.998 3.182,15.984 3.028,15.963 C3.011,16.019 3.000,16.079 3.000,16.142 L3.000,21.428 ZM1.000,12.498 C1.000,13.879 2.119,14.998 3.500,14.998 C4.880,14.998 6.000,13.879 6.000,12.498 C6.000,11.117 4.880,9.998 3.500,9.998 C2.119,9.998 1.000,11.117 1.000,12.498 ZM21.000,7.999 C21.000,4.133 17.866,0.999 14.000,0.999 L11.000,0.999 C7.134,0.999 4.000,4.133 4.000,7.999 L4.000,9.038 C5.695,9.281 7.000,10.736 7.000,12.498 C7.000,12.913 6.924,13.310 6.791,13.680 C8.417,13.325 10.464,12.999 12.500,12.999 C14.552,12.999 16.590,13.322 18.207,13.674 C18.075,13.306 18.000,12.911 18.000,12.498 C18.000,10.736 19.304,9.281 21.000,9.038 L21.000,7.999 ZM21.500,9.998 C20.119,9.998 19.000,11.117 19.000,12.498 C19.000,13.879 20.119,14.998 21.500,14.998 C22.880,14.998 24.000,13.879 24.000,12.498 C24.000,11.117 22.880,9.998 21.500,9.998 Z" class="cls-1"/>
</svg>
