<svg xmlns="http://www.w3.org/2000/svg" xmlns:xlink="http://www.w3.org/1999/xlink" preserveAspectRatio="xMidYMid" width="21" height="24" viewBox="0 0 21 24">
  <defs>
    <style>
      .cls-1 {
        fill: #3c4042;
        fill-rule: evenodd;
      }
    </style>
  </defs>
  <path d="M20.734,9.312 C20.689,9.476 20.609,9.619 20.554,9.777 L20.603,9.789 C20.603,9.789 19.811,12.691 19.041,15.512 C18.399,17.865 20.394,22.001 20.394,22.001 L14.991,20.580 C14.947,22.475 13.405,23.998 11.500,23.998 C9.567,23.998 8.000,22.431 8.000,20.498 C8.000,19.899 8.165,19.346 8.430,18.854 L-0.012,16.634 C-0.012,16.634 3.818,14.048 4.465,11.679 C4.465,11.679 4.466,11.678 4.466,11.678 L4.465,11.678 L4.726,10.724 L4.726,10.725 C4.907,10.060 5.084,9.414 5.247,8.817 L5.247,8.816 L5.507,7.863 L5.507,7.863 C5.815,6.736 6.028,5.956 6.028,5.956 L6.052,5.963 C6.085,5.801 6.114,5.640 6.158,5.479 C7.237,1.528 11.374,-0.817 15.399,0.242 C19.423,1.301 21.812,5.361 20.734,9.312 ZM11.500,22.998 C12.880,22.998 14.000,21.879 14.000,20.498 C14.000,20.434 13.978,20.376 13.973,20.313 L9.437,19.119 C9.168,19.515 9.000,19.982 9.000,20.498 C9.000,21.879 10.119,22.998 11.500,22.998 ZM2.192,16.192 L18.711,20.536 C18.711,20.536 17.427,17.609 18.069,15.257 C18.069,15.256 18.070,15.256 18.070,15.256 L5.437,11.934 L5.437,11.934 C4.790,14.304 2.192,16.192 2.192,16.192 ZM5.698,10.980 L18.330,14.302 C18.511,13.637 18.688,12.991 18.851,12.395 L6.218,9.072 C6.055,9.669 5.879,10.315 5.698,10.980 ZM15.138,1.196 C11.650,0.279 8.064,2.310 7.130,5.734 C7.085,5.898 7.079,6.061 7.048,6.225 L6.999,6.211 C6.999,6.211 6.787,6.991 6.479,8.118 L19.111,11.441 C19.419,10.312 19.632,9.534 19.632,9.534 L19.582,9.521 C19.639,9.364 19.717,9.220 19.762,9.056 C20.696,5.632 18.627,2.113 15.138,1.196 Z" class="cls-1"/>
</svg>
