<svg xmlns="http://www.w3.org/2000/svg" xmlns:xlink="http://www.w3.org/1999/xlink" preserveAspectRatio="xMidYMid" width="25" height="25" viewBox="0 0 25 25">
  <defs>
    <style>
      .cls-1 {
        fill: #3c4042;
        fill-rule: evenodd;
      }
    </style>
  </defs>
  <path d="M24.000,0.999 L24.000,3.065 L24.000,16.998 L24.000,19.932 C24.000,21.578 22.668,22.909 21.000,22.984 L21.000,24.998 L20.000,24.998 L20.000,22.998 L5.000,22.998 L5.000,24.998 L4.000,24.998 L4.000,22.984 C2.332,22.909 1.000,21.578 1.000,19.932 L1.000,16.998 L1.000,3.065 L1.000,0.999 L-0.000,0.999 L-0.000,-0.002 L1.000,-0.002 L1.000,-0.002 L4.143,-0.002 L20.857,-0.002 L24.000,-0.002 L24.000,-0.002 L25.000,-0.002 L25.000,0.999 L24.000,0.999 ZM23.000,17.998 L23.000,16.998 L23.000,0.999 L2.000,0.999 L2.000,16.998 L2.000,17.998 L2.000,20.460 C2.000,21.310 2.709,21.998 3.583,21.998 L4.000,21.998 L5.000,21.998 L20.000,21.998 L21.000,21.998 L21.416,21.998 C22.291,21.998 23.000,21.310 23.000,20.460 L23.000,17.998 ZM5.000,11.998 L20.000,11.998 L20.000,18.998 L5.000,18.998 L5.000,11.998 ZM6.000,17.998 L19.000,17.998 L19.000,12.998 L6.000,12.998 L6.000,17.998 ZM11.000,14.999 L14.000,14.999 L14.000,15.999 L11.000,15.999 L11.000,14.999 ZM5.000,2.998 L20.000,2.998 L20.000,9.998 L5.000,9.998 L5.000,2.998 ZM6.000,8.998 L19.000,8.998 L19.000,3.998 L6.000,3.998 L6.000,8.998 ZM11.000,5.998 L14.000,5.998 L14.000,6.998 L11.000,6.998 L11.000,5.998 Z" class="cls-1"/>
</svg>
