<svg xmlns="http://www.w3.org/2000/svg" xmlns:xlink="http://www.w3.org/1999/xlink" preserveAspectRatio="xMidYMid" width="23" height="23" viewBox="0 0 23 23">
  <defs>
    <style>
      .cls-1 {
        fill: #3c4042;
        fill-rule: evenodd;
      }
    </style>
  </defs>
  <path d="M11.500,22.998 C5.148,22.998 -0.000,17.850 -0.000,11.498 C-0.000,5.146 5.148,-0.002 11.500,-0.002 C17.851,-0.002 23.000,5.146 23.000,11.498 C23.000,17.850 17.851,22.998 11.500,22.998 ZM11.500,0.999 C5.702,0.999 1.002,5.700 1.002,11.498 C1.002,17.296 5.702,21.995 11.500,21.995 C17.297,21.995 21.998,17.296 21.998,11.498 C21.998,5.700 17.297,0.999 11.500,0.999 ZM9.870,16.822 C9.862,16.832 9.865,16.846 9.856,16.855 C9.669,17.042 9.366,17.042 9.179,16.855 L9.168,16.845 C9.159,16.837 9.145,16.840 9.135,16.832 C9.127,16.822 9.130,16.808 9.122,16.799 L5.114,12.790 C4.927,12.603 4.927,12.300 5.114,12.113 C5.301,11.926 5.604,11.926 5.791,12.113 L9.460,15.781 L17.107,8.135 C17.307,7.935 17.632,7.935 17.832,8.135 C18.032,8.335 18.032,8.659 17.832,8.860 L9.870,16.822 Z" class="cls-1"/>
</svg>
