<svg xmlns="http://www.w3.org/2000/svg" xmlns:xlink="http://www.w3.org/1999/xlink" preserveAspectRatio="xMidYMid" width="11" height="19" viewBox="0 0 11 19">
  <defs>
    <style>
      .cls-1 {
        fill: #3c4042;
        fill-rule: evenodd;
      }
    </style>
  </defs>
  <path d="M10.998,9.499 C10.997,9.516 10.998,9.532 10.995,9.549 C10.990,9.727 10.911,9.899 10.759,9.994 L0.730,18.927 C0.496,19.075 0.197,18.988 0.061,18.732 C-0.074,18.477 0.006,18.151 0.241,18.004 L9.788,9.499 L0.241,0.994 C0.006,0.847 -0.074,0.521 0.061,0.266 C0.197,0.010 0.496,-0.076 0.730,0.071 L10.759,9.004 C10.911,9.099 10.990,9.271 10.995,9.450 C10.998,9.466 10.997,9.482 10.998,9.499 Z" class="cls-1"/>
</svg>
