<svg xmlns="http://www.w3.org/2000/svg" xmlns:xlink="http://www.w3.org/1999/xlink" preserveAspectRatio="xMidYMid" width="25" height="25" viewBox="0 0 25 25">
  <defs>
    <style>
      .cls-1 {
        fill: #3c4042;
        fill-rule: evenodd;
      }
    </style>
  </defs>
  <path d="M25.000,17.999 L25.000,22.998 L23.000,22.998 L23.000,24.997 L22.000,24.997 L22.000,22.998 L3.000,22.998 L3.000,24.997 L2.000,24.997 L2.000,22.998 L-0.000,22.998 L-0.000,16.999 L0.308,16.999 L4.000,4.999 C4.000,4.999 4.000,4.875 4.000,4.498 L4.000,1.498 C4.000,0.669 4.709,-0.002 5.583,-0.002 L19.416,-0.002 C20.291,-0.002 21.000,0.669 21.000,1.498 L21.000,4.498 C21.000,4.875 21.000,4.999 21.000,4.999 L24.692,16.999 L25.000,16.999 L25.000,17.999 L25.000,17.999 L25.000,17.999 ZM20.000,1.999 C20.000,1.447 19.552,0.999 19.000,0.999 L6.000,0.999 C5.448,0.999 5.000,1.447 5.000,1.999 L5.000,3.999 L5.000,5.000 L8.000,4.999 L8.000,3.831 C8.000,3.371 8.335,2.998 8.750,2.998 L16.250,2.998 C16.664,2.998 17.000,3.371 17.000,3.831 L17.000,4.999 L19.000,4.999 L20.000,5.000 L20.000,1.999 ZM9.000,3.998 L9.000,6.997 L16.000,6.997 L16.000,3.998 L9.000,3.998 ZM20.000,5.999 L17.000,5.999 L17.000,7.165 C17.000,7.625 16.664,7.998 16.250,7.998 L8.750,7.998 C8.335,7.998 8.000,7.625 8.000,7.165 L8.000,5.999 L5.000,5.999 L3.333,10.999 L21.666,10.999 L20.000,5.999 ZM22.000,11.999 L3.000,11.999 L1.333,16.999 L23.666,16.999 L22.000,11.999 ZM24.000,17.997 L1.000,17.997 L1.000,21.998 L24.000,21.998 L24.000,17.997 Z" class="cls-1"/>
</svg>
