<svg xmlns="http://www.w3.org/2000/svg" xmlns:xlink="http://www.w3.org/1999/xlink" preserveAspectRatio="xMidYMid" width="25" height="25" viewBox="0 0 25 25">
  <defs>
    <style>
      .cls-1 {
        fill: #3c4042;
        fill-rule: evenodd;
      }
    </style>
  </defs>
  <path d="M23.000,14.999 L15.000,14.999 L15.000,22.999 C15.000,24.104 14.104,24.999 13.000,24.999 L12.000,24.999 C10.895,24.999 10.000,24.104 10.000,22.999 L10.000,14.999 L2.000,14.999 C0.895,14.999 -0.000,14.104 -0.000,12.999 L-0.000,11.999 C-0.000,10.895 0.895,9.999 2.000,9.999 L10.000,9.999 L10.000,1.999 C10.000,0.894 10.895,-0.001 12.000,-0.001 L13.000,-0.001 C14.104,-0.001 15.000,0.894 15.000,1.999 L15.000,9.999 L23.000,9.999 C24.104,9.999 25.000,10.895 25.000,11.999 L25.000,12.999 C25.000,14.104 24.104,14.999 23.000,14.999 ZM24.000,11.999 C24.000,11.447 23.552,10.999 23.000,10.999 L14.000,10.999 L14.000,1.999 C14.000,1.447 13.552,0.999 13.000,0.999 L12.000,0.999 C11.447,0.999 11.000,1.447 11.000,1.999 L11.000,10.999 L2.000,10.999 C1.448,10.999 1.000,11.447 1.000,11.999 L1.000,12.999 C1.000,13.551 1.448,13.999 2.000,13.999 L11.000,13.999 L11.000,22.999 C11.000,23.552 11.447,23.999 12.000,23.999 L13.000,23.999 C13.552,23.999 14.000,23.552 14.000,22.999 L14.000,13.999 L23.000,13.999 C23.552,13.999 24.000,13.551 24.000,12.999 L24.000,11.999 Z" class="cls-1"/>
</svg>
