<svg xmlns="http://www.w3.org/2000/svg" xmlns:xlink="http://www.w3.org/1999/xlink" preserveAspectRatio="xMidYMid" width="25" height="25" viewBox="0 0 25 25">
  <defs>
    <style>
      .cls-1 {
        fill: #3c4042;
        fill-rule: evenodd;
      }
    </style>
  </defs>
  <path d="M12.500,24.998 C5.596,24.998 -0.000,19.401 -0.000,12.498 C-0.000,5.594 5.596,-0.003 12.500,-0.003 C19.403,-0.003 25.000,5.594 25.000,12.498 C25.000,19.401 19.403,24.998 12.500,24.998 ZM12.500,0.997 C6.149,0.997 1.000,6.146 1.000,12.497 C1.000,18.849 6.149,23.998 12.500,23.998 C18.851,23.998 24.000,18.849 24.000,12.497 C24.000,6.146 18.851,0.997 12.500,0.997 ZM20.500,12.999 L5.711,12.999 L10.830,18.118 C11.035,18.323 11.035,18.656 10.830,18.862 C10.624,19.067 10.291,19.067 10.086,18.862 L4.137,12.913 C4.084,12.860 4.083,12.787 4.058,12.721 C4.048,12.701 4.040,12.681 4.032,12.660 C4.018,12.604 3.995,12.558 4.000,12.500 C4.000,12.500 4.000,12.499 4.000,12.499 C4.000,12.499 4.000,12.498 4.000,12.498 C3.995,12.440 4.018,12.395 4.032,12.339 C4.040,12.317 4.048,12.296 4.058,12.276 C4.084,12.211 4.084,12.138 4.137,12.086 L10.086,6.137 C10.291,5.931 10.624,5.931 10.830,6.137 C11.035,6.341 11.035,6.674 10.830,6.880 L5.711,11.999 L20.500,11.999 C20.776,11.999 21.000,12.223 21.000,12.499 C21.000,12.775 20.776,12.999 20.500,12.999 Z" class="cls-1"/>
</svg>
