<svg xmlns="http://www.w3.org/2000/svg" xmlns:xlink="http://www.w3.org/1999/xlink" preserveAspectRatio="xMidYMid" width="25" height="25" viewBox="0 0 25 25">
  <defs>
    <style>
      .cls-1 {
        fill: #3c4042;
        fill-rule: evenodd;
      }
    </style>
  </defs>
  <path d="M21.874,24.999 L3.123,24.999 C1.398,24.999 -0.001,23.600 -0.001,21.874 L-0.001,3.125 C-0.001,1.398 1.398,-0.001 3.123,-0.001 L21.874,-0.001 C23.600,-0.001 24.999,1.398 24.999,3.125 L24.999,21.874 C24.999,23.600 23.600,24.999 21.874,24.999 ZM24.000,2.999 C24.000,1.894 23.104,0.999 22.000,0.999 L3.000,0.999 C1.895,0.999 1.000,1.894 1.000,2.999 L1.000,21.999 C1.000,23.104 1.895,23.999 3.000,23.999 L22.000,23.999 C23.104,23.999 24.000,23.104 24.000,21.999 L24.000,2.999 ZM10.000,7.000 L17.000,12.499 L10.000,18.000 L10.000,7.000 ZM11.000,15.942 L15.381,12.499 L11.000,9.057 L11.000,15.942 Z" class="cls-1"/>
</svg>
