<svg xmlns="http://www.w3.org/2000/svg" xmlns:xlink="http://www.w3.org/1999/xlink" preserveAspectRatio="xMidYMid" width="23" height="23" viewBox="0 0 23 23">
  <defs>
    <style>
      .cls-1 {
        fill: #3c4042;
        fill-rule: evenodd;
      }
    </style>
  </defs>
  <path d="M22.983,11.573 C22.977,11.706 22.928,11.837 22.827,11.938 L18.931,15.854 C18.716,16.069 18.367,16.069 18.152,15.854 C17.936,15.637 17.936,15.287 18.152,15.070 L21.208,11.999 L12.000,11.999 L12.000,21.205 L15.040,18.175 C15.256,17.960 15.606,17.960 15.823,18.175 C16.039,18.391 16.039,18.740 15.823,18.956 L11.908,22.857 C11.791,22.973 11.636,23.022 11.484,23.012 C11.332,23.022 11.177,22.973 11.060,22.857 L7.146,18.956 C6.929,18.740 6.929,18.391 7.146,18.175 C7.362,17.960 7.712,17.960 7.929,18.175 L11.000,21.236 L11.000,11.999 L1.777,11.999 L4.817,15.042 C5.032,15.258 5.032,15.607 4.817,15.822 C4.602,16.038 4.253,16.038 4.038,15.822 L0.142,11.921 C0.026,11.805 -0.022,11.651 -0.013,11.499 C-0.022,11.347 0.026,11.193 0.142,11.077 L4.038,7.176 C4.253,6.961 4.602,6.961 4.817,7.176 C5.032,7.391 5.032,7.740 4.817,7.956 L1.777,10.999 L11.000,10.999 L11.000,1.779 L7.957,4.823 C7.741,5.038 7.392,5.038 7.176,4.823 C6.961,4.607 6.961,4.258 7.176,4.042 L11.078,0.141 C11.194,0.025 11.348,-0.023 11.500,-0.014 C11.652,-0.023 11.806,0.025 11.922,0.141 L15.823,4.042 C16.039,4.258 16.039,4.607 15.823,4.823 C15.608,5.038 15.259,5.038 15.043,4.823 L12.000,1.779 L12.000,10.999 L21.177,10.999 L18.152,7.960 C17.936,7.743 17.936,7.393 18.152,7.176 C18.367,6.960 18.716,6.960 18.931,7.176 L22.827,11.091 C22.885,11.149 22.924,11.218 22.951,11.290 C22.981,11.354 23.000,11.423 23.000,11.499 C23.000,11.526 22.987,11.548 22.983,11.573 Z" class="cls-1"/>
</svg>
