<svg xmlns="http://www.w3.org/2000/svg" xmlns:xlink="http://www.w3.org/1999/xlink" preserveAspectRatio="xMidYMid" width="23" height="23" viewBox="0 0 23 23">
  <defs>
    <style>
      .cls-1 {
        fill: #3c4042;
        fill-rule: evenodd;
      }
    </style>
  </defs>
  <path d="M23.000,11.499 C23.000,11.500 23.000,11.500 23.000,11.500 C22.998,17.849 17.853,22.995 11.505,22.998 C11.503,22.998 11.502,22.999 11.500,22.999 C11.498,22.999 11.496,22.998 11.495,22.998 C5.146,22.995 0.001,17.849 -0.000,11.499 L-0.000,11.499 C-0.000,11.499 -0.000,11.499 -0.000,11.499 C-0.000,11.498 -0.000,11.498 -0.000,11.497 C-0.000,5.146 5.148,-0.002 11.500,-0.002 C17.851,-0.002 23.000,5.146 23.000,11.497 C23.000,11.498 23.000,11.498 23.000,11.498 C23.000,11.498 23.000,11.499 23.000,11.499 ZM12.000,1.023 L12.000,6.499 C12.000,6.775 11.776,6.999 11.500,6.999 C11.224,6.999 11.000,6.775 11.000,6.499 L11.000,1.023 C5.601,1.278 1.279,5.601 1.024,10.999 L6.500,10.999 C6.776,10.999 7.000,11.222 7.000,11.499 C7.000,11.775 6.776,11.999 6.500,11.999 L1.024,11.999 C1.280,17.396 5.602,21.718 11.000,21.973 L11.000,16.499 C11.000,16.223 11.224,15.999 11.500,15.999 C11.776,15.999 12.000,16.223 12.000,16.499 L12.000,21.973 C17.398,21.718 21.720,17.396 21.975,11.999 L16.500,11.999 C16.224,11.999 16.000,11.775 16.000,11.499 C16.000,11.222 16.224,10.999 16.500,10.999 L21.975,10.999 C21.721,5.601 17.399,1.278 12.000,1.023 Z" class="cls-1"/>
</svg>
