<svg xmlns="http://www.w3.org/2000/svg" xmlns:xlink="http://www.w3.org/1999/xlink" preserveAspectRatio="xMidYMid" width="25" height="25" viewBox="0 0 25 25">
  <defs>
    <style>
      .cls-1 {
        fill: #3c4042;
        fill-rule: evenodd;
      }
    </style>
  </defs>
  <path d="M18.506,15.911 L20.251,24.999 L12.472,20.253 L4.687,24.999 L6.486,15.916 L-0.000,9.374 L8.594,8.593 L12.500,-0.000 L16.406,8.593 L25.000,9.374 L18.506,15.911 ZM16.315,9.590 L15.736,9.536 L15.496,9.006 L12.500,2.416 L9.504,9.006 L9.263,9.536 L8.684,9.590 L2.205,10.178 L7.196,15.212 L7.570,15.589 L7.467,16.110 L6.110,22.961 L11.952,19.400 L12.472,19.083 L12.994,19.400 L18.843,22.968 L17.523,16.098 L17.424,15.580 L17.797,15.205 L22.792,10.178 L16.315,9.590 Z" class="cls-1"/>
</svg>
