<svg xmlns="http://www.w3.org/2000/svg" xmlns:xlink="http://www.w3.org/1999/xlink" preserveAspectRatio="xMidYMid" width="19.53" height="19.53" viewBox="0 0 19.53 19.53">
  <defs>
    <style>
      .cls-1 {
        fill: #3c4042;
        fill-rule: evenodd;
      }
    </style>
  </defs>
  <path d="M13.285,9.749 L18.942,15.406 C19.723,16.187 19.723,17.453 18.942,18.234 L18.235,18.941 C17.454,19.722 16.188,19.722 15.407,18.941 L9.750,13.285 L4.093,18.941 C3.312,19.722 2.046,19.722 1.265,18.941 L0.557,18.234 C-0.224,17.453 -0.224,16.187 0.557,15.406 L6.214,9.749 L0.557,4.092 C-0.224,3.311 -0.224,2.045 0.557,1.264 L1.265,0.557 C2.046,-0.224 3.312,-0.224 4.093,0.557 L9.750,6.213 L15.407,0.557 C16.188,-0.224 17.454,-0.224 18.235,0.557 L18.942,1.264 C19.723,2.045 19.723,3.311 18.942,4.092 L13.285,9.749 ZM18.235,1.971 L17.528,1.264 C17.137,0.874 16.504,0.874 16.114,1.264 L9.750,7.628 L3.386,1.264 C2.995,0.874 2.362,0.874 1.972,1.264 L1.265,1.971 C0.874,2.361 0.874,2.995 1.265,3.386 L7.629,9.749 L1.265,16.113 C0.874,16.504 0.874,17.137 1.265,17.527 L1.972,18.234 C2.362,18.625 2.995,18.625 3.386,18.234 L9.750,11.870 L16.114,18.234 C16.504,18.625 17.137,18.625 17.528,18.234 L18.235,17.527 C18.626,17.137 18.626,16.504 18.235,16.113 L11.871,9.749 L18.235,3.386 C18.626,2.995 18.626,2.361 18.235,1.971 Z" class="cls-1"/>
</svg>
