<svg xmlns="http://www.w3.org/2000/svg" xmlns:xlink="http://www.w3.org/1999/xlink" preserveAspectRatio="xMidYMid" width="25" height="16" viewBox="0 0 25 16">
  <defs>
    <style>
      .cls-1 {
        fill: #3c4042;
        fill-rule: evenodd;
      }
    </style>
  </defs>
  <path d="M24.219,15.999 L6.250,15.999 C6.250,15.999 -0.000,9.555 -0.000,7.999 C-0.000,6.443 6.250,-0.002 6.250,-0.002 L24.219,-0.002 C24.650,-0.002 25.000,0.347 25.000,0.777 L25.000,15.222 C25.000,15.652 24.650,15.999 24.219,15.999 ZM24.000,0.998 L6.626,0.998 C4.024,3.296 1.239,7.164 1.004,8.016 C1.208,8.805 4.010,12.690 6.626,14.999 L24.000,14.999 L24.000,0.998 ZM13.256,7.966 L10.170,4.880 C9.965,4.674 9.965,4.342 10.170,4.136 C10.375,3.931 10.708,3.931 10.914,4.136 L14.000,7.223 L17.086,4.136 C17.291,3.931 17.624,3.931 17.830,4.136 C18.035,4.342 18.035,4.674 17.830,4.880 L14.743,7.966 L17.863,11.085 C18.068,11.290 18.068,11.624 17.863,11.828 C17.657,12.034 17.324,12.034 17.119,11.828 L14.000,8.710 L10.881,11.828 C10.675,12.034 10.342,12.034 10.137,11.828 C9.932,11.624 9.932,11.290 10.137,11.085 L13.256,7.966 Z" class="cls-1"/>
</svg>
