<svg xmlns="http://www.w3.org/2000/svg" xmlns:xlink="http://www.w3.org/1999/xlink" preserveAspectRatio="xMidYMid" width="21" height="24.97" viewBox="0 0 21 24.97">
  <defs>
    <style>
      .cls-1 {
        fill: #3c4042;
        fill-rule: evenodd;
      }
    </style>
  </defs>
  <path d="M19.461,24.967 L1.538,24.967 C0.689,24.967 -0.000,24.259 -0.000,23.384 L-0.000,7.551 C-0.000,6.676 0.689,5.967 1.538,5.967 L5.002,5.967 L5.002,6.969 L2.000,6.969 C1.447,6.969 1.000,7.417 1.000,7.969 L1.000,22.969 C1.000,23.522 1.447,23.969 2.000,23.969 L19.000,23.969 C19.552,23.969 20.000,23.522 20.000,22.969 L20.000,7.969 C20.000,7.417 19.552,6.969 19.000,6.969 L15.998,6.969 L15.998,5.967 L19.461,5.967 C20.311,5.967 21.000,6.676 21.000,7.551 L21.000,23.384 C21.000,24.259 20.311,24.967 19.461,24.967 ZM14.043,4.793 L11.000,1.749 L11.000,18.470 C11.000,18.745 10.776,18.969 10.500,18.969 C10.224,18.969 10.000,18.745 10.000,18.470 L10.000,1.749 L6.957,4.793 C6.741,5.008 6.392,5.008 6.176,4.793 C5.961,4.577 5.961,4.227 6.176,4.013 L10.078,0.111 C10.211,-0.022 10.387,-0.044 10.560,-0.013 C10.590,-0.007 10.621,-0.008 10.655,0.000 C10.680,0.009 10.703,0.018 10.726,0.030 C10.793,0.057 10.868,0.057 10.922,0.111 L14.823,4.013 C15.039,4.227 15.039,4.577 14.823,4.793 C14.608,5.008 14.259,5.008 14.043,4.793 Z" class="cls-1"/>
</svg>
