<svg xmlns="http://www.w3.org/2000/svg" xmlns:xlink="http://www.w3.org/1999/xlink" preserveAspectRatio="xMidYMid" width="21.031" height="21.03" viewBox="0 0 21.031 21.03">
  <defs>
    <style>
      .cls-1 {
        fill: #3c4042;
        fill-rule: evenodd;
      }
    </style>
  </defs>
  <path d="M11.242,10.513 L20.877,20.148 C21.078,20.349 21.078,20.674 20.877,20.876 C20.676,21.076 20.351,21.076 20.150,20.876 L10.515,11.240 L0.880,20.876 C0.679,21.076 0.353,21.076 0.152,20.876 C-0.048,20.674 -0.048,20.349 0.152,20.148 L9.788,10.513 L0.152,0.878 C-0.048,0.677 -0.048,0.352 0.152,0.150 C0.353,-0.050 0.679,-0.050 0.880,0.150 L10.515,9.786 L20.150,0.150 C20.351,-0.050 20.676,-0.050 20.877,0.150 C21.078,0.352 21.078,0.677 20.877,0.878 L11.242,10.513 Z" class="cls-1"/>
</svg>
