<svg xmlns="http://www.w3.org/2000/svg" xmlns:xlink="http://www.w3.org/1999/xlink" preserveAspectRatio="xMidYMid" width="25" height="24.97" viewBox="0 0 25 24.97">
  <defs>
    <style>
      .cls-1 {
        fill: #3c4042;
        fill-rule: evenodd;
      }
    </style>
  </defs>
  <path d="M24.991,9.511 C24.991,9.599 24.976,9.687 24.928,9.769 L19.114,15.581 L21.928,24.169 C22.076,24.418 21.988,24.737 21.731,24.880 C21.473,25.025 21.144,24.939 20.995,24.690 L12.500,19.053 L4.005,24.690 C3.856,24.939 3.527,25.025 3.269,24.880 C3.012,24.737 2.923,24.418 3.072,24.169 L5.886,15.581 L0.072,9.769 C0.023,9.687 0.008,9.599 0.008,9.511 C0.007,9.496 -0.000,9.484 -0.000,9.469 C-0.000,9.438 0.012,9.411 0.018,9.381 C0.019,9.378 0.019,9.374 0.020,9.371 C0.067,9.143 0.259,8.969 0.500,8.969 L7.182,8.969 L11.995,0.249 C12.094,0.083 12.273,-0.002 12.457,-0.003 C12.472,-0.005 12.485,-0.005 12.500,-0.006 C12.514,-0.005 12.528,-0.005 12.543,-0.003 C12.727,-0.002 12.906,0.083 13.005,0.249 L17.817,8.969 L24.500,8.969 C24.741,8.969 24.933,9.143 24.980,9.371 C24.981,9.374 24.981,9.378 24.982,9.381 C24.988,9.411 25.000,9.438 25.000,9.469 C25.000,9.484 24.993,9.496 24.991,9.511 ZM17.500,9.968 C17.420,9.968 17.348,9.946 17.281,9.913 C17.165,9.873 17.061,9.800 16.995,9.690 L12.500,1.544 L8.005,9.690 C7.939,9.800 7.834,9.873 7.719,9.913 C7.652,9.946 7.580,9.968 7.500,9.968 L1.725,9.968 L6.928,15.169 C6.984,15.264 6.997,15.368 6.988,15.469 C6.997,15.570 6.984,15.674 6.928,15.769 L4.482,23.234 L11.995,18.249 C12.094,18.083 12.273,17.998 12.457,17.997 C12.472,17.994 12.485,17.995 12.500,17.994 C12.514,17.995 12.528,17.994 12.542,17.997 C12.727,17.998 12.906,18.083 13.005,18.249 L20.518,23.234 L18.072,15.769 C18.015,15.674 18.003,15.570 18.011,15.469 C18.003,15.368 18.015,15.264 18.072,15.169 L23.274,9.968 L17.500,9.968 Z" class="cls-1"/>
</svg>
