<svg xmlns="http://www.w3.org/2000/svg" xmlns:xlink="http://www.w3.org/1999/xlink" preserveAspectRatio="xMidYMid" width="23" height="25" viewBox="0 0 23 25">
  <defs>
    <style>
      .cls-1 {
        fill: #3c4042;
        fill-rule: evenodd;
      }
    </style>
  </defs>
  <path d="M11.500,24.998 C5.149,24.998 -0.000,19.849 -0.000,13.499 C-0.000,8.744 2.885,4.664 7.000,2.912 L7.000,4.021 C3.456,5.708 1.000,9.312 1.000,13.498 C1.000,19.297 5.701,23.997 11.500,23.997 C17.299,23.997 22.000,19.297 22.000,13.498 C22.000,9.312 19.544,5.708 16.000,4.021 L16.000,2.912 C20.114,4.664 23.000,8.744 23.000,13.499 C23.000,19.849 17.851,24.998 11.500,24.998 ZM11.500,10.999 C11.224,10.999 11.000,10.776 11.000,10.499 L11.000,0.499 C11.000,0.223 11.224,-0.001 11.500,-0.001 C11.776,-0.001 12.000,0.223 12.000,0.499 L12.000,10.499 C12.000,10.776 11.776,10.999 11.500,10.999 Z" class="cls-1"/>
</svg>
