<svg xmlns="http://www.w3.org/2000/svg" xmlns:xlink="http://www.w3.org/1999/xlink" preserveAspectRatio="xMidYMid" width="23" height="23" viewBox="0 0 23 23">
  <defs>
    <style>
      .cls-1 {
        fill: #3c4042;
        fill-rule: evenodd;
      }
    </style>
  </defs>
  <path d="M22.500,8.999 C22.224,8.999 22.000,8.775 22.000,8.499 L22.000,1.668 L8.836,14.832 C8.643,15.025 8.330,15.025 8.136,14.832 C7.943,14.638 7.943,14.326 8.136,14.132 L21.269,0.999 L14.500,0.999 C14.224,0.999 14.000,0.776 14.000,0.499 C14.000,0.223 14.224,-0.001 14.500,-0.001 L22.462,-0.001 C22.478,-0.001 22.490,-0.001 22.506,0.000 C22.779,0.003 23.000,0.225 23.000,0.499 L23.000,8.499 C23.000,8.775 22.776,8.999 22.500,8.999 ZM1.001,3.751 L1.001,21.246 C1.001,21.660 1.337,21.996 1.751,21.996 L19.261,21.996 C19.676,21.996 20.012,21.660 20.012,21.246 L20.012,11.012 L21.013,11.012 L21.013,21.499 C21.013,22.326 20.341,22.998 19.512,22.998 L1.501,22.998 C0.672,22.998 -0.000,22.326 -0.000,21.499 L-0.000,3.499 C-0.000,2.672 0.672,1.999 1.501,1.999 L12.007,1.999 L12.007,3.002 L1.751,3.002 C1.337,3.002 1.001,3.337 1.001,3.751 Z" class="cls-1"/>
</svg>
