<svg xmlns="http://www.w3.org/2000/svg" xmlns:xlink="http://www.w3.org/1999/xlink" preserveAspectRatio="xMidYMid" width="23" height="23" viewBox="0 0 23 23">
  <defs>
    <style>
      .cls-1 {
        fill: #3c4042;
        fill-rule: evenodd;
      }
    </style>
  </defs>
  <path d="M22.832,0.835 L9.669,13.999 L16.500,13.999 C16.776,13.999 17.000,14.223 17.000,14.499 C17.000,14.775 16.776,14.999 16.500,14.999 L8.500,14.999 C8.226,14.999 8.005,14.778 8.001,14.506 C8.000,14.490 7.999,14.477 8.000,14.461 L8.000,6.499 C8.000,6.223 8.224,5.999 8.500,5.999 C8.776,5.999 9.000,6.223 9.000,6.499 L9.000,13.269 L22.133,0.136 C22.326,-0.058 22.639,-0.058 22.832,0.136 C23.026,0.328 23.026,0.642 22.832,0.835 ZM1.001,3.751 L1.001,21.246 C1.001,21.660 1.337,21.996 1.751,21.996 L19.261,21.996 C19.676,21.996 20.012,21.660 20.012,21.246 L20.012,11.012 L21.013,11.012 L21.013,21.499 C21.013,22.326 20.341,22.998 19.512,22.998 L1.501,22.998 C0.672,22.998 -0.000,22.326 -0.000,21.499 L-0.000,3.499 C-0.000,2.672 0.672,1.999 1.501,1.999 L12.007,1.999 L12.007,3.002 L1.751,3.002 C1.337,3.002 1.001,3.337 1.001,3.751 Z" class="cls-1"/>
</svg>
