<svg xmlns="http://www.w3.org/2000/svg" xmlns:xlink="http://www.w3.org/1999/xlink" preserveAspectRatio="xMidYMid" width="25" height="24" viewBox="0 0 25 24">
  <defs>
    <style>
      .cls-1 {
        fill: #3c4042;
        fill-rule: evenodd;
      }
    </style>
  </defs>
  <path d="M19.500,20.999 C19.500,20.999 18.771,19.911 17.847,18.382 C18.033,18.049 18.218,17.712 18.404,17.366 C18.774,17.992 19.144,18.603 19.500,19.165 C21.505,15.997 24.000,11.462 24.000,9.665 C24.000,7.905 23.044,6.389 21.654,5.594 C21.519,5.138 21.344,4.701 21.139,4.284 C23.370,5.006 25.000,7.128 25.000,9.665 C25.000,12.796 19.500,20.999 19.500,20.999 ZM5.000,7.999 C5.000,3.581 8.358,-0.001 12.500,-0.001 C16.641,-0.001 20.000,3.581 20.000,7.999 C20.000,12.417 12.500,24.000 12.500,24.000 C12.500,24.000 5.000,12.417 5.000,7.999 ZM12.500,0.999 C8.916,0.999 6.000,4.138 6.000,7.999 C6.000,10.982 10.127,18.284 12.500,22.126 C14.872,18.284 19.000,10.982 19.000,7.999 C19.000,4.138 16.084,0.999 12.500,0.999 ZM1.000,9.665 C1.000,11.462 3.495,15.997 5.500,19.165 C5.855,18.603 6.226,17.992 6.596,17.366 C6.782,17.712 6.967,18.049 7.152,18.382 C6.228,19.911 5.500,20.999 5.500,20.999 C5.500,20.999 -0.000,12.796 -0.000,9.665 C-0.000,7.128 1.630,5.006 3.861,4.284 C3.655,4.701 3.481,5.138 3.346,5.594 C1.955,6.389 1.000,7.905 1.000,9.665 Z" class="cls-1"/>
</svg>
