<svg xmlns="http://www.w3.org/2000/svg" xmlns:xlink="http://www.w3.org/1999/xlink" preserveAspectRatio="xMidYMid" width="25" height="17" viewBox="0 0 25 17">
  <defs>
    <style>
      .cls-1 {
        fill: #3c4042;
        fill-rule: evenodd;
      }
    </style>
  </defs>
  <path d="M24.471,9.363 L12.289,16.768 C12.063,16.918 11.850,16.990 11.665,16.990 C11.266,16.990 10.995,16.658 10.995,16.074 L10.995,10.998 L2.500,10.998 C1.119,10.998 -0.000,9.880 -0.000,8.499 C-0.000,7.119 1.119,5.999 2.500,5.999 L10.995,5.999 L10.995,0.923 C10.995,0.339 11.266,0.008 11.665,0.008 C11.850,0.008 12.063,0.080 12.289,0.230 L24.471,7.635 C24.826,7.872 25.005,8.186 25.005,8.499 C25.005,8.812 24.826,9.125 24.471,9.363 ZM23.903,8.458 L11.995,1.243 L11.995,6.999 L2.500,6.999 C1.671,6.999 1.000,7.671 1.000,8.499 C1.000,9.328 1.671,9.999 2.500,9.999 L11.995,9.999 L11.995,15.756 L23.916,8.531 C23.932,8.520 23.947,8.509 23.959,8.499 C23.944,8.488 23.926,8.474 23.903,8.458 Z" class="cls-1"/>
</svg>
