<svg xmlns="http://www.w3.org/2000/svg" xmlns:xlink="http://www.w3.org/1999/xlink" preserveAspectRatio="xMidYMid" width="16" height="15.97" viewBox="0 0 16 15.97">
  <defs>
    <style>
      .cls-1 {
        fill: #3c4042;
        fill-rule: evenodd;
      }
    </style>
  </defs>
  <path d="M15.997,15.481 C15.997,15.485 15.995,15.489 15.995,15.493 C15.989,15.613 15.942,15.720 15.866,15.803 C15.860,15.810 15.863,15.820 15.857,15.826 C15.850,15.833 15.840,15.830 15.833,15.836 C15.750,15.911 15.643,15.958 15.524,15.964 C15.519,15.964 15.515,15.967 15.510,15.967 C15.506,15.967 15.503,15.969 15.499,15.969 L3.475,15.969 C3.199,15.969 2.974,15.746 2.974,15.470 C2.974,15.193 3.199,14.969 3.475,14.969 L14.312,14.969 L0.142,0.827 C-0.047,0.638 -0.047,0.331 0.142,0.141 C0.331,-0.047 0.638,-0.047 0.827,0.141 L14.998,14.285 L14.998,3.469 C14.998,3.193 15.222,2.969 15.499,2.969 C15.775,2.969 16.000,3.193 16.000,3.469 L16.000,15.470 C16.000,15.474 15.997,15.477 15.997,15.481 Z" class="cls-1"/>
</svg>
