<svg xmlns="http://www.w3.org/2000/svg" xmlns:xlink="http://www.w3.org/1999/xlink" preserveAspectRatio="xMidYMid" width="25" height="25" viewBox="0 0 25 25">
  <defs>
    <style>
      .cls-1 {
        fill: #3c4042;
        fill-rule: evenodd;
      }
    </style>
  </defs>
  <path d="M21.875,24.997 L3.125,24.997 C1.399,24.997 -0.000,23.599 -0.000,21.872 L-0.000,3.122 C-0.000,1.397 1.399,-0.002 3.125,-0.002 L21.875,-0.002 C23.601,-0.002 25.000,1.397 25.000,3.122 L25.000,21.872 C25.000,23.599 23.601,24.997 21.875,24.997 ZM24.000,2.999 C24.000,1.895 23.104,0.999 22.000,0.999 L3.000,0.999 C1.895,0.999 1.000,1.895 1.000,2.999 L1.000,21.999 C1.000,23.104 1.895,23.999 3.000,23.999 L22.000,23.999 C23.104,23.999 24.000,23.104 24.000,21.999 L24.000,2.999 ZM14.855,19.884 C14.669,20.070 14.367,20.070 14.181,19.884 L8.163,12.874 C8.149,12.863 8.128,12.868 8.115,12.854 C8.017,12.756 7.978,12.628 7.983,12.499 C7.978,12.371 8.017,12.242 8.115,12.144 C8.128,12.130 8.149,12.135 8.163,12.124 L14.181,5.114 C14.367,4.928 14.669,4.928 14.855,5.114 C15.041,5.300 15.041,5.602 14.855,5.789 L9.094,12.499 L14.855,19.210 C15.041,19.396 15.041,19.698 14.855,19.884 Z" class="cls-1"/>
</svg>
