<svg xmlns="http://www.w3.org/2000/svg" xmlns:xlink="http://www.w3.org/1999/xlink" preserveAspectRatio="xMidYMid" width="17" height="25" viewBox="0 0 17 25">
  <defs>
    <style>
      .cls-1 {
        fill: #3c4042;
        fill-rule: evenodd;
      }
    </style>
  </defs>
  <path d="M16.768,12.288 L9.364,24.470 C9.126,24.825 8.813,25.004 8.500,25.004 C8.187,25.004 7.874,24.825 7.637,24.470 L0.231,12.288 C0.081,12.062 0.009,11.850 0.009,11.664 C0.009,11.265 0.341,10.994 0.925,10.994 L6.000,10.994 L6.000,2.499 C6.000,1.119 7.119,-0.001 8.500,-0.001 C9.880,-0.001 11.000,1.119 11.000,2.499 L11.000,10.994 L16.075,10.994 C16.660,10.994 16.991,11.265 16.991,11.664 C16.991,11.850 16.919,12.062 16.768,12.288 ZM10.000,11.994 L10.000,2.499 C10.000,1.671 9.328,0.999 8.500,0.999 C7.671,0.999 7.000,1.671 7.000,2.499 L7.000,11.994 L1.243,11.994 L8.468,23.915 C8.479,23.931 8.490,23.946 8.500,23.958 C8.512,23.944 8.525,23.925 8.540,23.902 L15.756,11.994 L10.000,11.994 Z" class="cls-1"/>
</svg>
