<svg xmlns="http://www.w3.org/2000/svg" xmlns:xlink="http://www.w3.org/1999/xlink" preserveAspectRatio="xMidYMid" width="25" height="25" viewBox="0 0 25 25">
  <defs>
    <style>
      .cls-1 {
        fill: #3c4042;
        fill-rule: evenodd;
      }
    </style>
  </defs>
  <path d="M12.501,24.999 C5.598,24.999 0.001,19.402 0.001,12.499 C0.001,5.596 5.598,-0.001 12.501,-0.001 C19.405,-0.001 25.001,5.596 25.001,12.499 C25.001,19.402 19.405,24.999 12.501,24.999 ZM12.501,0.999 C6.150,0.999 1.002,6.148 1.002,12.499 C1.002,18.850 6.150,23.999 12.501,23.999 C18.853,23.999 24.002,18.850 24.002,12.499 C24.002,6.148 18.853,0.999 12.501,0.999 ZM18.211,15.854 L12.500,10.143 L6.789,15.854 C6.603,16.040 6.301,16.040 6.115,15.854 C5.929,15.668 5.929,15.367 6.115,15.180 L12.119,9.176 C12.133,9.157 12.128,9.131 12.145,9.114 C12.243,9.016 12.371,8.977 12.500,8.982 C12.628,8.977 12.757,9.016 12.855,9.114 C12.872,9.131 12.867,9.157 12.881,9.176 L18.885,15.180 C19.071,15.367 19.071,15.668 18.885,15.854 C18.699,16.040 18.397,16.040 18.211,15.854 Z" class="cls-1"/>
</svg>
