<svg xmlns="http://www.w3.org/2000/svg" xmlns:xlink="http://www.w3.org/1999/xlink" preserveAspectRatio="xMidYMid" width="16" height="15.97" viewBox="0 0 16 15.97">
  <defs>
    <style>
      .cls-1 {
        fill: #3c4042;
        fill-rule: evenodd;
      }
    </style>
  </defs>
  <path d="M15.827,0.827 L1.684,14.970 L12.500,14.970 C12.776,14.970 13.000,15.193 13.000,15.470 C13.000,15.746 12.776,15.969 12.500,15.969 L0.500,15.969 C0.496,15.969 0.492,15.967 0.488,15.967 C0.483,15.967 0.480,15.964 0.475,15.964 C0.356,15.958 0.249,15.911 0.166,15.836 C0.160,15.830 0.149,15.833 0.143,15.826 C0.136,15.820 0.139,15.810 0.133,15.803 C0.057,15.720 0.010,15.613 0.005,15.493 C0.005,15.489 0.002,15.485 0.002,15.481 C0.002,15.477 -0.000,15.474 -0.000,15.470 L-0.000,3.469 C-0.000,3.193 0.224,2.969 0.500,2.969 C0.776,2.969 1.000,3.193 1.000,3.469 L1.000,14.285 L15.142,0.142 C15.331,-0.047 15.638,-0.047 15.827,0.142 C16.016,0.331 16.016,0.638 15.827,0.827 Z" class="cls-1"/>
</svg>
