<svg xmlns="http://www.w3.org/2000/svg" xmlns:xlink="http://www.w3.org/1999/xlink" preserveAspectRatio="xMidYMid" width="25" height="25" viewBox="0 0 25 25">
  <defs>
    <style>
      .cls-1 {
        fill: #3c4042;
        fill-rule: evenodd;
      }
    </style>
  </defs>
  <path d="M12.500,24.997 C5.596,24.997 -0.000,19.402 -0.000,12.498 C-0.000,5.594 5.596,-0.002 12.500,-0.002 C19.403,-0.002 25.000,5.594 25.000,12.498 C25.000,19.402 19.403,24.997 12.500,24.997 ZM12.500,0.998 C6.148,0.998 1.000,6.147 1.000,12.498 C1.000,18.849 6.148,23.997 12.500,23.997 C18.851,23.997 24.000,18.849 24.000,12.498 C24.000,6.147 18.851,0.998 12.500,0.998 ZM19.949,11.998 C19.688,8.093 16.471,4.998 12.500,4.998 C8.529,4.998 5.312,8.093 5.050,11.998 L4.025,11.998 C4.285,7.537 7.974,3.998 12.500,3.998 C17.025,3.998 20.714,7.537 20.974,11.998 L19.949,11.998 ZM12.500,15.997 C12.658,15.997 12.812,16.016 12.963,16.044 L14.906,9.352 C14.998,9.074 15.319,8.911 15.622,8.986 C15.925,9.063 16.096,9.349 16.003,9.627 L14.004,16.512 C14.605,16.968 15.000,17.684 15.000,18.497 C15.000,19.878 13.880,20.997 12.500,20.997 C11.119,20.997 10.000,19.878 10.000,18.497 C10.000,17.117 11.119,15.997 12.500,15.997 ZM12.500,19.999 C13.328,19.999 14.000,19.327 14.000,18.499 C14.000,17.670 13.328,16.999 12.500,16.999 C11.671,16.999 11.000,17.670 11.000,18.499 C11.000,19.327 11.671,19.999 12.500,19.999 Z" class="cls-1"/>
</svg>
