<svg xmlns="http://www.w3.org/2000/svg" xmlns:xlink="http://www.w3.org/1999/xlink" preserveAspectRatio="xMidYMid" width="25" height="23" viewBox="0 0 25 23">
  <defs>
    <style>
      .cls-1 {
        fill: #3c4042;
        fill-rule: evenodd;
      }
    </style>
  </defs>
  <path d="M25.000,18.498 C25.000,19.326 24.313,19.997 23.466,19.997 L22.000,19.997 L22.000,22.998 L21.000,22.998 L21.000,19.997 L13.000,19.997 L12.000,19.997 L4.000,19.997 L4.000,22.998 L3.000,22.998 L3.000,19.997 L1.533,19.997 C0.686,19.997 -0.000,19.326 -0.000,18.498 L-0.000,15.498 C-0.000,15.275 0.056,15.067 0.146,14.877 C0.060,14.597 -0.000,14.306 -0.000,13.999 C-0.000,12.694 0.837,11.595 2.000,11.182 L2.000,3.998 L2.067,3.998 C2.116,3.651 2.194,3.316 2.310,2.998 L2.000,2.998 L2.000,2.998 L2.310,2.998 C2.949,1.244 4.527,-0.002 6.384,-0.002 L12.000,-0.002 L12.000,-0.002 L13.000,-0.002 L13.000,-0.002 L18.615,-0.002 C20.472,-0.002 22.051,1.244 22.690,2.998 L23.000,2.998 L23.000,2.998 L22.690,2.998 C22.806,3.316 22.883,3.651 22.933,3.998 L23.000,3.998 L23.000,4.712 C23.000,4.712 23.000,4.712 23.000,4.713 L23.000,6.284 C23.000,6.285 23.000,6.285 23.000,6.285 L23.000,11.182 C24.162,11.595 25.000,12.693 25.000,13.999 C25.000,14.306 24.940,14.597 24.854,14.877 C24.943,15.067 25.000,15.275 25.000,15.498 L25.000,18.498 ZM1.000,18.000 C1.000,18.551 1.448,18.999 2.000,18.999 L12.000,18.999 L12.000,14.999 L5.816,14.999 C5.402,16.161 4.304,16.998 3.000,16.998 C2.228,16.998 1.531,16.698 1.000,16.220 L1.000,18.000 ZM1.000,13.999 C1.000,15.102 1.895,15.997 3.000,15.997 C4.104,15.997 5.000,15.102 5.000,13.999 C5.000,12.893 4.104,11.998 3.000,11.998 C1.895,11.998 1.000,12.893 1.000,13.999 ZM22.000,6.000 L21.949,6.000 C21.968,5.833 22.000,5.670 22.000,5.499 C22.000,3.013 20.985,0.999 18.500,0.999 L13.000,0.999 L13.000,8.998 L12.000,8.998 L12.000,0.999 L6.500,0.999 C4.015,0.999 3.000,3.013 3.000,5.499 C3.000,5.670 3.032,5.833 3.050,6.000 L3.000,6.000 L3.000,10.998 C4.657,10.998 6.000,12.341 6.000,13.999 L6.000,13.999 L19.000,13.999 L19.000,13.999 C19.000,12.341 20.343,10.998 22.000,10.998 L22.000,10.998 L22.000,6.000 ZM22.000,11.998 C20.895,11.998 20.000,12.893 20.000,13.999 C20.000,15.102 20.895,15.997 22.000,15.997 C23.104,15.997 24.000,15.102 24.000,13.999 C24.000,12.893 23.104,11.998 22.000,11.998 ZM24.000,16.219 C23.468,16.698 22.772,16.998 22.000,16.998 C20.696,16.998 19.597,16.161 19.184,14.999 L13.000,14.999 L13.000,18.999 L23.000,18.999 C23.552,18.999 24.000,18.551 24.000,18.000 L24.000,16.219 Z" class="cls-1"/>
</svg>
