<svg xmlns="http://www.w3.org/2000/svg" xmlns:xlink="http://www.w3.org/1999/xlink" preserveAspectRatio="xMidYMid" width="25" height="25" viewBox="0 0 25 25">
  <defs>
    <style>
      .cls-1 {
        fill: #3c4042;
        fill-rule: evenodd;
      }
    </style>
  </defs>
  <path d="M12.500,24.997 C5.596,24.997 -0.000,19.401 -0.000,12.498 C-0.000,5.594 5.596,-0.002 12.500,-0.002 C19.403,-0.002 25.000,5.594 25.000,12.498 C25.000,19.401 19.403,24.997 12.500,24.997 ZM12.500,0.997 C6.148,0.997 1.000,6.147 1.000,12.498 C1.000,18.849 6.148,23.998 12.500,23.998 C18.851,23.998 24.000,18.849 24.000,12.498 C24.000,6.147 18.851,0.997 12.500,0.997 ZM17.116,17.827 L12.141,12.851 C12.136,12.846 12.138,12.839 12.134,12.834 C12.057,12.751 12.010,12.642 12.004,12.521 C12.003,12.507 11.999,12.495 12.000,12.481 L12.000,5.500 C12.000,5.223 12.224,4.999 12.500,4.999 C12.776,4.999 13.000,5.223 13.000,5.500 L13.000,12.289 L17.827,17.116 C18.024,17.312 18.024,17.630 17.827,17.827 C17.631,18.023 17.313,18.023 17.116,17.827 Z" class="cls-1"/>
</svg>
