<svg xmlns="http://www.w3.org/2000/svg" xmlns:xlink="http://www.w3.org/1999/xlink" preserveAspectRatio="xMidYMid" width="19" height="11" viewBox="0 0 19 11">
  <defs>
    <style>
      .cls-1 {
        fill: #3c4042;
        fill-rule: evenodd;
      }
    </style>
  </defs>
  <path d="M18.928,0.730 L9.995,10.758 C9.900,10.910 9.728,10.989 9.550,10.994 C9.533,10.997 9.517,10.996 9.500,10.997 C9.483,10.996 9.467,10.997 9.450,10.994 C9.272,10.989 9.100,10.910 9.005,10.758 L0.071,0.730 C-0.076,0.496 0.011,0.195 0.266,0.061 C0.522,-0.075 0.848,0.006 0.995,0.240 L9.500,9.787 L18.005,0.240 C18.152,0.006 18.478,-0.075 18.733,0.061 C18.988,0.195 19.076,0.496 18.928,0.730 Z" class="cls-1"/>
</svg>
