<svg xmlns="http://www.w3.org/2000/svg" xmlns:xlink="http://www.w3.org/1999/xlink" preserveAspectRatio="xMidYMid" width="21" height="24" viewBox="0 0 21 24">
  <defs>
    <style>
      .cls-1 {
        fill: #3c4042;
        fill-rule: evenodd;
      }
    </style>
  </defs>
  <path d="M13.940,19.999 C13.966,20.163 14.000,20.326 14.000,20.498 C14.000,22.431 12.433,23.998 10.500,23.998 C8.567,23.998 7.000,22.431 7.000,20.498 C7.000,20.326 7.034,20.163 7.059,19.999 L-0.000,19.999 C-0.000,19.999 3.000,16.484 3.000,13.999 C3.000,13.999 3.000,13.999 3.000,13.998 L3.000,13.998 L3.000,12.999 L3.000,12.999 C3.000,12.302 3.000,11.625 3.000,10.999 L3.000,10.999 L3.000,9.998 L3.000,9.998 C3.000,8.817 3.000,7.999 3.000,7.999 L3.025,7.999 C3.014,7.833 3.000,7.667 3.000,7.498 C3.000,3.356 6.358,-0.002 10.500,-0.002 C14.642,-0.002 18.000,3.356 18.000,7.498 C18.000,7.667 17.985,7.833 17.974,7.999 L18.000,7.999 C18.000,7.999 18.000,11.043 18.000,13.999 C18.000,16.465 21.000,19.999 21.000,19.999 L13.940,19.999 ZM10.500,22.997 C11.880,22.997 13.000,21.879 13.000,20.498 C13.000,20.323 12.950,20.163 12.915,19.999 L8.085,19.999 C8.049,20.163 8.000,20.323 8.000,20.498 C8.000,21.879 9.119,22.997 10.500,22.997 ZM17.000,10.999 L4.000,10.999 C4.000,11.625 4.000,12.302 4.000,12.999 L17.000,12.999 C17.000,12.301 17.000,11.624 17.000,10.999 ZM17.000,7.498 C17.000,3.909 14.090,0.998 10.500,0.998 C6.910,0.998 4.000,3.909 4.000,7.498 C4.000,7.669 4.037,7.831 4.050,7.999 L4.000,7.999 C4.000,7.999 4.000,8.817 4.000,9.998 L17.000,9.998 C17.000,8.816 17.000,7.999 17.000,7.999 L16.949,7.999 C16.962,7.831 17.000,7.669 17.000,7.498 ZM17.000,13.999 C17.000,13.999 17.000,13.999 17.000,13.998 L4.000,13.998 C4.000,13.999 4.000,13.999 4.000,13.999 C4.000,16.484 2.000,18.999 2.000,18.999 L19.000,18.999 C19.000,18.999 17.000,16.465 17.000,13.999 Z" class="cls-1"/>
</svg>
