<svg xmlns="http://www.w3.org/2000/svg" xmlns:xlink="http://www.w3.org/1999/xlink" preserveAspectRatio="xMidYMid" width="25" height="25" viewBox="0 0 25 25">
  <defs>
    <style>
      .cls-1 {
        fill: #3c4042;
        fill-rule: evenodd;
      }
    </style>
  </defs>
  <path d="M21.873,24.999 L3.123,24.999 C1.397,24.999 -0.002,23.600 -0.002,21.875 L-0.002,3.124 C-0.002,1.398 1.397,-0.000 3.123,-0.000 L21.873,-0.000 C23.600,-0.000 24.998,1.398 24.998,3.124 L24.998,21.875 C24.998,23.600 23.600,24.999 21.873,24.999 ZM24.000,2.999 C24.000,1.895 23.104,0.999 22.000,0.999 L3.000,0.999 C1.895,0.999 1.000,1.895 1.000,2.999 L1.000,21.999 C1.000,23.104 1.895,23.999 3.000,23.999 L22.000,23.999 C23.104,23.999 24.000,23.104 24.000,21.999 L24.000,2.999 ZM12.875,16.835 C12.864,16.850 12.868,16.871 12.855,16.884 C12.757,16.982 12.628,17.021 12.500,17.016 C12.371,17.021 12.243,16.982 12.145,16.884 C12.131,16.871 12.136,16.850 12.125,16.836 L5.115,10.818 C4.929,10.632 4.929,10.330 5.115,10.145 C5.301,9.958 5.603,9.958 5.789,10.145 L12.500,15.905 L19.211,10.145 C19.397,9.958 19.699,9.958 19.885,10.145 C20.071,10.330 20.071,10.632 19.885,10.818 L12.875,16.835 Z" class="cls-1"/>
</svg>
