<svg xmlns="http://www.w3.org/2000/svg" xmlns:xlink="http://www.w3.org/1999/xlink" preserveAspectRatio="xMidYMid" width="25" height="22" viewBox="0 0 25 22">
  <defs>
    <style>
      .cls-1 {
        fill: #3c4042;
        fill-rule: evenodd;
      }
    </style>
  </defs>
  <path d="M23.000,21.999 L2.000,21.999 C0.895,21.999 -0.000,21.103 -0.000,19.999 L-0.000,17.999 C-0.000,16.895 0.895,15.999 2.000,15.999 L23.000,15.999 C24.105,15.999 25.000,16.895 25.000,17.999 L25.000,19.999 C25.000,21.103 24.105,21.999 23.000,21.999 ZM24.000,17.999 C24.000,17.447 23.552,16.999 23.000,16.999 L2.000,16.999 C1.448,16.999 1.000,17.447 1.000,17.999 L1.000,19.999 C1.000,20.551 1.448,20.999 2.000,20.999 L23.000,20.999 C23.552,20.999 24.000,20.551 24.000,19.999 L24.000,17.999 ZM23.000,13.999 L2.000,13.999 C0.895,13.999 -0.000,13.103 -0.000,12.000 L-0.000,9.999 C-0.000,8.895 0.895,7.999 2.000,7.999 L23.000,7.999 C24.105,7.999 25.000,8.895 25.000,9.999 L25.000,12.000 C25.000,13.103 24.105,13.999 23.000,13.999 ZM24.000,9.999 C24.000,9.447 23.552,8.999 23.000,8.999 L2.000,8.999 C1.448,8.999 1.000,9.447 1.000,9.999 L1.000,12.000 C1.000,12.551 1.448,12.999 2.000,12.999 L23.000,12.999 C23.552,12.999 24.000,12.551 24.000,12.000 L24.000,9.999 ZM23.000,5.999 L2.000,5.999 C0.895,5.999 -0.000,5.103 -0.000,3.999 L-0.000,1.999 C-0.000,0.895 0.895,-0.001 2.000,-0.001 L23.000,-0.001 C24.105,-0.001 25.000,0.895 25.000,1.999 L25.000,3.999 C25.000,5.103 24.105,5.999 23.000,5.999 ZM24.000,1.999 C24.000,1.447 23.552,1.000 23.000,1.000 L2.000,1.000 C1.448,1.000 1.000,1.447 1.000,1.999 L1.000,3.999 C1.000,4.552 1.448,4.999 2.000,4.999 L23.000,4.999 C23.552,4.999 24.000,4.552 24.000,3.999 L24.000,1.999 Z" class="cls-1"/>
</svg>
