<svg xmlns="http://www.w3.org/2000/svg" xmlns:xlink="http://www.w3.org/1999/xlink" preserveAspectRatio="xMidYMid" width="25" height="5" viewBox="0 0 25 5">
  <defs>
    <style>
      .cls-1 {
        fill: #3c4042;
        fill-rule: evenodd;
      }
    </style>
  </defs>
  <path d="M23.000,4.999 L2.000,4.999 C0.895,4.999 -0.000,4.104 -0.000,2.999 L-0.000,1.999 C-0.000,0.895 0.895,-0.001 2.000,-0.001 L23.000,-0.001 C24.104,-0.001 25.000,0.895 25.000,1.999 L25.000,2.999 C25.000,4.104 24.104,4.999 23.000,4.999 ZM24.000,1.999 C24.000,1.447 23.552,0.999 23.000,0.999 L2.000,0.999 C1.448,0.999 1.000,1.447 1.000,1.999 L1.000,2.999 C1.000,3.551 1.448,4.000 2.000,4.000 L23.000,4.000 C23.552,4.000 24.000,3.551 24.000,2.999 L24.000,1.999 Z" class="cls-1"/>
</svg>
