<svg xmlns="http://www.w3.org/2000/svg" xmlns:xlink="http://www.w3.org/1999/xlink" preserveAspectRatio="xMidYMid" width="19" height="19" viewBox="0 0 19 19">
  <defs>
    <style>
      .cls-1 {
        fill: #3c4042;
        fill-rule: evenodd;
      }
    </style>
  </defs>
  <path d="M15.541,15.367 C15.487,15.637 15.386,15.842 15.252,15.976 C14.965,16.263 14.531,16.220 14.110,15.799 L10.455,12.144 L4.338,18.261 C3.344,19.256 1.732,19.256 0.737,18.261 C-0.257,17.268 -0.257,15.656 0.737,14.661 L6.855,8.544 L3.200,4.889 C2.779,4.467 2.736,4.033 3.023,3.747 C3.157,3.613 3.361,3.512 3.633,3.458 L17.737,0.017 C18.164,-0.068 18.518,0.029 18.744,0.255 C18.969,0.481 19.066,0.834 18.981,1.261 L15.541,15.367 ZM17.921,1.019 L4.150,4.398 L8.295,8.544 L1.457,15.381 C0.861,15.977 0.861,16.945 1.457,17.541 C2.054,18.138 3.021,18.138 3.618,17.541 L10.455,10.703 L14.601,14.849 L17.982,1.062 C17.986,1.042 17.989,1.024 17.991,1.008 C17.972,1.010 17.948,1.014 17.921,1.019 Z" class="cls-1"/>
</svg>
