<svg xmlns="http://www.w3.org/2000/svg" xmlns:xlink="http://www.w3.org/1999/xlink" preserveAspectRatio="xMidYMid" width="19" height="22" viewBox="0 0 19 22">
  <defs>
    <style>
      .cls-1 {
        fill: #3c4042;
        fill-rule: evenodd;
      }
    </style>
  </defs>
  <path d="M14.000,17.866 L14.000,17.999 L14.000,21.998 L5.000,21.998 L5.000,17.999 L5.000,17.866 C2.023,16.261 -0.000,13.117 -0.000,9.498 C-0.000,4.252 4.253,-0.001 9.500,-0.001 C14.747,-0.001 19.000,4.252 19.000,9.498 C19.000,13.117 16.976,16.261 14.000,17.866 ZM6.000,20.998 L13.000,20.998 L13.000,17.999 L6.000,17.999 L6.000,20.998 ZM9.500,0.999 C4.805,0.999 1.000,4.804 1.000,9.498 C1.000,12.746 2.824,15.568 5.502,16.999 L6.000,16.999 L6.000,16.999 L13.000,16.999 L13.000,16.999 L13.497,16.999 C16.176,15.568 18.000,12.746 18.000,9.498 C18.000,4.804 14.194,0.999 9.500,0.999 Z" class="cls-1"/>
</svg>
