<svg xmlns="http://www.w3.org/2000/svg" xmlns:xlink="http://www.w3.org/1999/xlink" preserveAspectRatio="xMidYMid" width="22" height="15.03" viewBox="0 0 22 15.03">
  <defs>
    <style>
      .cls-1 {
        fill: #3c4042;
        fill-rule: evenodd;
      }
    </style>
  </defs>
  <path d="M21.500,7.999 L1.763,7.999 L8.854,14.210 C9.039,14.396 9.039,14.697 8.854,14.883 C8.668,15.068 8.367,15.068 8.182,14.883 L0.277,7.958 C0.218,7.935 0.164,7.900 0.116,7.853 C0.084,7.821 0.089,7.775 0.068,7.736 C0.051,7.706 0.039,7.675 0.028,7.641 C0.024,7.626 0.029,7.613 0.026,7.598 C-0.018,7.439 -0.009,7.271 0.116,7.145 C0.164,7.098 0.218,7.063 0.277,7.040 L8.182,0.116 C8.367,-0.070 8.668,-0.070 8.854,0.116 C9.039,0.301 9.039,0.602 8.854,0.788 L1.763,6.999 L21.500,6.999 C21.776,6.999 22.000,7.223 22.000,7.499 C22.000,7.775 21.776,7.999 21.500,7.999 Z" class="cls-1"/>
</svg>
