<svg xmlns="http://www.w3.org/2000/svg" xmlns:xlink="http://www.w3.org/1999/xlink" preserveAspectRatio="xMidYMid" width="25" height="25" viewBox="0 0 25 25">
  <defs>
    <style>
      .cls-1 {
        fill: #3c4042;
        fill-rule: evenodd;
      }
    </style>
  </defs>
  <path d="M24.996,0.513 C24.996,0.541 24.995,0.568 24.990,0.596 C24.983,0.648 24.966,0.696 24.944,0.743 C24.942,0.746 24.942,0.749 24.941,0.752 L14.943,24.768 C14.898,24.847 14.830,24.901 14.755,24.942 C14.753,24.943 14.752,24.945 14.750,24.946 C14.744,24.950 14.737,24.950 14.731,24.953 C14.691,24.972 14.651,24.989 14.607,24.997 C14.399,25.045 14.179,24.958 14.067,24.756 L14.064,24.720 C14.000,24.597 13.987,24.457 14.034,24.325 L13.079,11.922 L0.646,10.961 C0.428,11.040 0.182,10.959 0.062,10.740 C-0.074,10.493 0.007,10.177 0.242,10.033 L24.162,0.111 C24.283,0.006 24.447,-0.029 24.608,0.015 C24.638,0.021 24.664,0.032 24.692,0.044 C24.708,0.051 24.726,0.052 24.741,0.062 C24.750,0.067 24.754,0.075 24.762,0.080 C24.800,0.104 24.833,0.135 24.864,0.170 C24.879,0.187 24.894,0.202 24.906,0.220 C24.916,0.234 24.929,0.242 24.938,0.257 C24.949,0.279 24.951,0.302 24.959,0.324 C24.971,0.353 24.980,0.380 24.987,0.410 C24.994,0.445 24.996,0.478 24.996,0.513 ZM13.303,11.033 C13.533,10.929 13.804,11.010 13.933,11.242 L13.938,11.310 C13.980,11.408 13.989,11.513 13.962,11.619 L14.797,22.472 L23.541,1.469 L2.498,10.198 L13.303,11.033 Z" class="cls-1"/>
</svg>
