<svg xmlns="http://www.w3.org/2000/svg" xmlns:xlink="http://www.w3.org/1999/xlink" preserveAspectRatio="xMidYMid" width="25" height="25" viewBox="0 0 25 25">
  <defs>
    <style>
      .cls-1 {
        fill: #3c4042;
        fill-rule: evenodd;
      }
    </style>
  </defs>
  <path d="M24.828,24.827 C24.635,25.020 24.323,25.020 24.129,24.827 L17.557,18.256 C15.692,19.953 13.221,20.997 10.500,20.997 C4.701,20.997 -0.000,16.297 -0.000,10.497 C-0.000,4.698 4.701,-0.002 10.500,-0.002 C16.299,-0.002 21.000,4.698 21.000,10.497 C21.000,13.219 19.955,15.691 18.256,17.557 L24.828,24.129 C25.021,24.322 25.021,24.635 24.828,24.827 ZM20.000,10.497 C20.000,5.251 15.746,0.998 10.500,0.998 C5.253,0.998 1.000,5.251 1.000,10.497 C1.000,15.745 5.253,19.998 10.500,19.998 C15.746,19.998 20.000,15.745 20.000,10.497 ZM15.500,10.999 L11.000,10.999 L11.000,15.499 C11.000,15.775 10.776,16.000 10.500,16.000 C10.224,16.000 10.000,15.775 10.000,15.499 L10.000,10.999 L5.500,10.999 C5.224,10.999 5.000,10.776 5.000,10.499 C5.000,10.223 5.224,9.999 5.500,9.999 L10.000,9.999 L10.000,5.498 C10.000,5.223 10.224,4.999 10.500,4.999 C10.776,4.999 11.000,5.223 11.000,5.498 L11.000,9.999 L15.500,9.999 C15.776,9.999 16.000,10.223 16.000,10.499 C16.000,10.776 15.776,10.999 15.500,10.999 Z" class="cls-1"/>
</svg>
