<svg xmlns="http://www.w3.org/2000/svg" xmlns:xlink="http://www.w3.org/1999/xlink" preserveAspectRatio="xMidYMid" width="25" height="25" viewBox="0 0 25 25">
  <defs>
    <style>
      .cls-1 {
        fill: #3c4042;
        fill-rule: evenodd;
      }
    </style>
  </defs>
  <path d="M21.875,24.998 L3.125,24.998 C1.399,24.998 -0.000,23.599 -0.000,21.872 L-0.000,3.123 C-0.000,1.397 1.399,-0.003 3.125,-0.003 L21.875,-0.003 C23.601,-0.003 25.000,1.397 25.000,3.123 L25.000,21.872 C25.000,23.599 23.601,24.998 21.875,24.998 ZM24.000,2.999 C24.000,1.895 23.104,0.999 22.000,0.999 L3.000,0.999 C1.895,0.999 1.000,1.895 1.000,2.999 L1.000,22.000 C1.000,23.104 1.895,23.999 3.000,23.999 L22.000,23.999 C23.104,23.999 24.000,23.104 24.000,22.000 L24.000,2.999 ZM16.500,18.999 C16.224,18.999 16.000,18.776 16.000,18.499 L16.000,6.499 C16.000,6.223 16.224,5.999 16.500,5.999 C16.776,5.999 17.000,6.223 17.000,6.499 L17.000,18.499 C17.000,18.776 16.776,18.999 16.500,18.999 ZM11.500,16.999 C11.224,16.999 11.000,16.775 11.000,16.499 L11.000,8.499 C11.000,8.223 11.224,7.999 11.500,7.999 C11.776,7.999 12.000,8.223 12.000,8.499 L12.000,16.499 C12.000,16.775 11.776,16.999 11.500,16.999 ZM6.500,14.999 C6.224,14.999 6.000,14.775 6.000,14.500 L6.000,10.499 C6.000,10.223 6.224,9.999 6.500,9.999 C6.776,9.999 7.000,10.223 7.000,10.499 L7.000,14.500 C7.000,14.775 6.776,14.999 6.500,14.999 Z" class="cls-1"/>
</svg>
