<svg xmlns="http://www.w3.org/2000/svg" xmlns:xlink="http://www.w3.org/1999/xlink" preserveAspectRatio="xMidYMid" width="25" height="25" viewBox="0 0 25 25">
  <defs>
    <style>
      .cls-1 {
        fill: #3c4042;
        fill-rule: evenodd;
      }
    </style>
  </defs>
  <path d="M12.500,24.998 C5.596,24.998 -0.000,19.401 -0.000,12.498 C-0.000,5.594 5.596,-0.003 12.500,-0.003 C19.403,-0.003 25.000,5.594 25.000,12.498 C25.000,19.401 19.403,24.998 12.500,24.998 ZM12.500,0.997 C6.148,0.997 1.000,6.147 1.000,12.498 C1.000,18.849 6.148,23.997 12.500,23.997 C18.851,23.997 24.000,18.849 24.000,12.498 C24.000,6.147 18.851,0.997 12.500,0.997 ZM12.500,19.997 C8.358,19.997 5.000,16.639 5.000,12.498 C5.000,8.356 8.358,4.998 12.500,4.998 C16.642,4.998 20.000,8.356 20.000,12.498 C20.000,16.639 16.642,19.997 12.500,19.997 ZM12.500,5.997 C8.910,5.997 6.000,8.907 6.000,12.498 C6.000,16.087 8.910,18.997 12.500,18.997 C16.089,18.997 19.000,16.087 19.000,12.498 C19.000,8.907 16.089,5.997 12.500,5.997 ZM12.500,15.998 C10.567,15.998 9.000,14.430 9.000,12.497 C9.000,10.564 10.567,8.998 12.500,8.998 C14.433,8.998 16.000,10.564 16.000,12.497 C16.000,14.430 14.433,15.998 12.500,15.998 ZM12.500,9.997 C11.119,9.997 10.000,11.116 10.000,12.497 C10.000,13.877 11.119,14.997 12.500,14.997 C13.880,14.997 15.000,13.877 15.000,12.497 C15.000,11.116 13.880,9.997 12.500,9.997 Z" class="cls-1"/>
</svg>
