<svg xmlns="http://www.w3.org/2000/svg" xmlns:xlink="http://www.w3.org/1999/xlink" preserveAspectRatio="xMidYMid" width="25" height="25" viewBox="0 0 25 25">
  <defs>
    <style>
      .cls-1 {
        fill: #3c4042;
        fill-rule: evenodd;
      }
    </style>
  </defs>
  <path d="M23.438,24.999 L1.563,24.999 C0.700,24.999 -0.000,24.299 -0.000,23.437 L-0.000,1.562 C-0.000,0.700 0.700,0.000 1.563,0.000 L23.438,0.000 C24.301,0.000 25.000,0.700 25.000,1.562 L25.000,23.437 C25.000,24.299 24.301,24.999 23.438,24.999 ZM24.000,1.562 C24.000,1.252 23.748,1.000 23.438,1.000 L1.563,1.000 C1.252,1.000 1.000,1.252 1.000,1.562 L1.000,23.437 C1.000,23.747 1.252,23.999 1.563,23.999 L23.438,23.999 C23.748,23.999 24.000,23.747 24.000,23.437 L24.000,1.562 ZM14.000,11.999 L22.000,11.999 L22.000,21.998 L14.000,21.998 L14.000,11.999 ZM15.000,20.998 L21.000,20.998 L21.000,12.998 L15.000,12.998 L15.000,20.998 ZM3.000,2.998 L22.000,2.998 L22.000,8.998 L3.000,8.998 L3.000,2.998 ZM4.000,7.998 L21.000,7.998 L21.000,3.998 L4.000,3.998 L4.000,7.998 ZM11.000,21.998 L3.000,21.998 L3.000,11.999 L11.000,11.999 L11.000,21.998 ZM10.000,12.998 L4.000,12.998 L4.000,20.998 L10.000,20.998 L10.000,12.998 Z" class="cls-1"/>
</svg>
