<svg xmlns="http://www.w3.org/2000/svg" xmlns:xlink="http://www.w3.org/1999/xlink" preserveAspectRatio="xMidYMid" width="25" height="25" viewBox="0 0 25 25">
  <defs>
    <style>
      .cls-1 {
        fill: #3c4042;
        fill-rule: evenodd;
      }
    </style>
  </defs>
  <path d="M21.875,24.998 L19.000,24.998 L18.000,24.998 L3.125,24.998 C1.399,24.998 -0.000,23.599 -0.000,21.872 L-0.000,3.123 C-0.000,1.397 1.399,-0.003 3.125,-0.003 L21.875,-0.003 C23.601,-0.003 25.000,1.397 25.000,3.123 L25.000,21.872 C25.000,23.599 23.601,24.998 21.875,24.998 ZM24.000,2.999 C24.000,1.894 23.104,1.000 22.000,1.000 L3.000,1.000 C1.895,1.000 1.000,1.894 1.000,2.999 L1.000,21.999 C1.000,23.103 1.895,23.999 3.000,23.999 L18.000,23.999 L18.000,15.999 L1.000,15.999 L1.000,14.998 L18.000,14.998 L18.000,6.999 L1.000,6.999 L1.000,5.998 L24.000,5.998 L24.000,2.999 ZM24.000,6.999 L19.000,6.999 L19.000,23.999 L22.000,23.999 C23.104,23.999 24.000,23.103 24.000,21.999 L24.000,6.999 Z" class="cls-1"/>
</svg>
