<svg xmlns="http://www.w3.org/2000/svg" xmlns:xlink="http://www.w3.org/1999/xlink" preserveAspectRatio="xMidYMid" width="25" height="25" viewBox="0 0 25 25">
  <defs>
    <style>
      .cls-1 {
        fill: #3c4042;
        fill-rule: evenodd;
      }
    </style>
  </defs>
  <path d="M23.437,24.998 L1.562,24.998 C0.699,24.998 -0.000,24.298 -0.000,23.436 L-0.000,1.561 C-0.000,0.698 0.699,-0.001 1.562,-0.001 L23.437,-0.001 C24.300,-0.001 25.000,0.698 25.000,1.561 L25.000,23.436 C25.000,24.298 24.300,24.998 23.437,24.998 ZM24.000,2.999 C24.000,1.894 23.104,0.999 22.000,0.999 L3.000,0.999 C1.895,0.999 1.000,1.894 1.000,2.999 L1.000,21.999 C1.000,23.104 1.895,23.999 3.000,23.999 L22.000,23.999 C23.104,23.999 24.000,23.104 24.000,21.999 L24.000,2.999 ZM14.000,12.998 L22.000,12.998 L22.000,21.999 L14.000,21.999 L14.000,12.998 ZM15.000,20.998 L21.000,20.998 L21.000,13.997 L15.000,13.997 L15.000,20.998 ZM3.000,2.998 L22.000,2.998 L22.000,10.999 L3.000,10.999 L3.000,2.998 ZM4.000,9.998 L21.000,9.998 L21.000,3.998 L4.000,3.998 L4.000,9.998 ZM11.000,21.999 L3.000,21.999 L3.000,12.998 L11.000,12.998 L11.000,21.999 ZM10.000,13.997 L4.000,13.997 L4.000,20.998 L10.000,20.998 L10.000,13.997 Z" class="cls-1"/>
</svg>
