<svg xmlns="http://www.w3.org/2000/svg" xmlns:xlink="http://www.w3.org/1999/xlink" preserveAspectRatio="xMidYMid" width="25" height="25" viewBox="0 0 25 25">
  <defs>
    <style>
      .cls-1 {
        fill: #3c4042;
        fill-rule: evenodd;
      }
    </style>
  </defs>
  <path d="M21.875,25.000 L3.126,25.000 C1.400,25.000 0.000,23.601 0.000,21.875 L0.000,3.125 C0.000,1.399 1.400,0.001 3.126,0.001 L21.875,0.001 C23.601,0.001 25.000,1.399 25.000,3.125 L25.000,21.875 C25.000,23.601 23.601,25.000 21.875,25.000 ZM22.000,0.999 L3.000,0.999 C1.895,0.999 1.000,1.895 1.000,2.999 L1.000,21.999 C1.000,23.104 1.895,23.999 3.000,23.999 L22.000,23.999 C23.104,23.999 24.000,23.104 24.000,21.999 L24.000,18.999 L1.000,18.999 L1.000,18.000 L24.000,18.000 L24.000,2.999 C24.000,1.895 23.104,0.999 22.000,0.999 Z" class="cls-1"/>
</svg>
