<svg xmlns="http://www.w3.org/2000/svg" xmlns:xlink="http://www.w3.org/1999/xlink" preserveAspectRatio="xMidYMid" width="25" height="25" viewBox="0 0 25 25">
  <defs>
    <style>
      .cls-1 {
        fill: #3c4042;
        fill-rule: evenodd;
      }
    </style>
  </defs>
  <path d="M21.875,24.997 L3.125,24.997 C1.399,24.997 -0.000,23.599 -0.000,21.872 L-0.000,3.123 C-0.000,1.397 1.399,-0.002 3.125,-0.002 L21.875,-0.002 C23.601,-0.002 25.000,1.397 25.000,3.123 L25.000,21.872 C25.000,23.599 23.601,24.997 21.875,24.997 ZM24.000,2.999 C24.000,1.895 23.104,0.999 22.000,0.999 L3.000,0.999 C1.895,0.999 1.000,1.895 1.000,2.999 L1.000,21.999 C1.000,23.104 1.895,23.999 3.000,23.999 L22.000,23.999 C23.104,23.999 24.000,23.104 24.000,21.999 L24.000,2.999 ZM21.500,21.968 L21.498,21.968 C21.469,21.971 21.447,21.971 21.418,21.968 L15.500,21.968 C15.224,21.968 15.000,21.745 15.000,21.469 C15.000,21.193 15.224,20.970 15.500,20.970 L20.223,20.970 L14.137,14.893 C13.932,14.688 13.932,14.356 14.137,14.151 C14.342,13.946 14.675,13.946 14.881,14.151 L21.000,20.260 L21.000,15.479 C21.000,15.203 21.224,14.980 21.500,14.980 C21.776,14.980 22.000,15.203 22.000,15.479 L22.000,21.469 C22.000,21.745 21.776,21.968 21.500,21.968 ZM21.500,9.999 C21.224,9.999 21.000,9.776 21.000,9.499 L21.000,4.710 L14.881,10.829 C14.675,11.034 14.342,11.034 14.137,10.829 C13.932,10.624 13.932,10.291 14.137,10.086 L20.224,3.999 L15.500,3.999 C15.224,3.999 15.000,3.775 15.000,3.499 C15.000,3.223 15.224,2.999 15.500,2.999 L21.500,2.999 C21.776,2.999 22.000,3.223 22.000,3.499 L22.000,9.499 C22.000,9.776 21.776,9.999 21.500,9.999 ZM4.776,20.999 L9.500,20.999 C9.776,20.999 10.000,21.223 10.000,21.499 C10.000,21.775 9.776,21.999 9.500,21.999 L3.582,21.999 C3.553,22.002 3.530,22.002 3.501,21.999 L3.500,21.999 C3.224,21.999 3.000,21.775 3.000,21.499 L3.000,15.499 C3.000,15.223 3.224,14.999 3.500,14.999 C3.776,14.999 4.000,15.223 4.000,15.499 L4.000,20.288 L10.119,14.170 C10.324,13.963 10.657,13.963 10.863,14.170 C11.068,14.375 11.068,14.708 10.863,14.913 L4.776,20.999 ZM10.119,10.829 L4.000,4.710 L4.000,9.489 C4.000,9.764 3.776,9.988 3.500,9.988 C3.224,9.988 3.000,9.764 3.000,9.489 L3.000,3.498 C3.000,3.223 3.224,2.999 3.500,2.999 L3.501,2.999 C3.530,2.997 3.553,2.997 3.583,2.999 L9.500,2.999 C9.776,2.999 10.000,3.223 10.000,3.498 C10.000,3.774 9.776,3.997 9.500,3.997 L4.775,3.997 L10.863,10.086 C11.068,10.291 11.068,10.624 10.863,10.829 C10.657,11.034 10.324,11.034 10.119,10.829 Z" class="cls-1"/>
</svg>
