<svg xmlns="http://www.w3.org/2000/svg" xmlns:xlink="http://www.w3.org/1999/xlink" preserveAspectRatio="xMidYMid" width="25" height="25" viewBox="0 0 25 25">
  <defs>
    <style>
      .cls-1 {
        fill: #3c4042;
        fill-rule: evenodd;
      }
    </style>
  </defs>
  <path d="M18.000,24.999 L18.000,17.999 L25.000,17.999 L25.000,24.999 L18.000,24.999 ZM24.000,18.998 L19.000,18.998 L19.000,23.998 L24.000,23.998 L24.000,18.998 ZM18.000,8.998 L25.000,8.998 L25.000,15.999 L18.000,15.999 L18.000,8.998 ZM19.000,14.998 L24.000,14.998 L24.000,9.998 L19.000,9.998 L19.000,14.998 ZM18.000,-0.002 L25.000,-0.002 L25.000,6.999 L18.000,6.999 L18.000,-0.002 ZM19.000,5.999 L24.000,5.999 L24.000,0.998 L19.000,0.998 L19.000,5.999 ZM9.000,17.999 L16.000,17.999 L16.000,24.999 L9.000,24.999 L9.000,17.999 ZM10.000,23.998 L15.000,23.998 L15.000,18.998 L10.000,18.998 L10.000,23.998 ZM9.000,8.998 L16.000,8.998 L16.000,15.999 L9.000,15.999 L9.000,8.998 ZM10.000,14.998 L15.000,14.998 L15.000,9.998 L10.000,9.998 L10.000,14.998 ZM9.000,-0.002 L16.000,-0.002 L16.000,6.999 L9.000,6.999 L9.000,-0.002 ZM10.000,5.999 L15.000,5.999 L15.000,0.998 L10.000,0.998 L10.000,5.999 ZM-0.000,17.999 L7.000,17.999 L7.000,24.999 L-0.000,24.999 L-0.000,17.999 ZM1.000,23.998 L6.000,23.998 L6.000,18.998 L1.000,18.998 L1.000,23.998 ZM-0.000,8.998 L7.000,8.998 L7.000,15.999 L-0.000,15.999 L-0.000,8.998 ZM1.000,14.998 L6.000,14.998 L6.000,9.998 L1.000,9.998 L1.000,14.998 ZM-0.000,-0.002 L7.000,-0.002 L7.000,6.999 L-0.000,6.999 L-0.000,-0.002 ZM1.000,5.999 L6.000,5.999 L6.000,0.998 L1.000,0.998 L1.000,5.999 Z" class="cls-1"/>
</svg>
