<svg xmlns="http://www.w3.org/2000/svg" xmlns:xlink="http://www.w3.org/1999/xlink" preserveAspectRatio="xMidYMid" width="25" height="16" viewBox="0 0 25 16">
  <defs>
    <style>
      .cls-1 {
        fill: #3c4042;
        fill-rule: evenodd;
      }
    </style>
  </defs>
  <path d="M24.200,13.994 L19.000,10.949 L19.000,12.797 C19.000,14.565 17.582,15.998 15.833,15.998 L3.166,15.998 C1.418,15.998 -0.000,14.565 -0.000,12.797 L-0.000,3.198 C-0.000,1.430 1.418,-0.002 3.166,-0.002 L15.833,-0.002 C17.582,-0.002 19.000,1.430 19.000,3.198 L19.000,5.048 L24.200,2.005 C24.641,2.005 25.000,2.340 25.000,2.755 L25.000,13.244 C25.000,13.658 24.641,13.994 24.200,13.994 ZM18.000,2.999 C18.000,1.894 17.104,0.999 16.000,0.999 L3.000,0.999 C1.895,0.999 1.000,1.894 1.000,2.999 L1.000,12.999 C1.000,14.104 1.895,14.999 3.000,14.999 L16.000,14.999 C17.104,14.999 18.000,14.104 18.000,12.999 L18.000,2.999 ZM24.000,3.280 L19.000,6.206 L19.000,9.791 L24.000,12.717 L24.000,3.280 Z" class="cls-1"/>
</svg>
