<svg xmlns="http://www.w3.org/2000/svg" xmlns:xlink="http://www.w3.org/1999/xlink" preserveAspectRatio="xMidYMid" width="25" height="24" viewBox="0 0 25 24">
  <defs>
    <style>
      .cls-1 {
        fill: #3c4042;
        fill-rule: evenodd;
      }
    </style>
  </defs>
  <path d="M23.437,23.998 L20.000,23.998 L19.000,23.998 L6.000,23.998 L5.000,23.998 L1.562,23.998 C0.699,23.998 -0.000,23.298 -0.000,22.435 L-0.000,19.999 L-0.000,18.999 L-0.000,14.998 L-0.000,13.998 L-0.000,9.998 L-0.000,8.998 L-0.000,4.998 L-0.000,3.998 L-0.000,1.560 C-0.000,0.697 0.699,-0.002 1.562,-0.002 L5.000,-0.002 L6.000,-0.002 L19.000,-0.002 L20.000,-0.002 L23.437,-0.002 C24.300,-0.002 25.000,0.697 25.000,1.560 L25.000,3.998 L25.000,4.998 L25.000,8.998 L25.000,9.998 L25.000,13.998 L25.000,14.998 L25.000,18.999 L25.000,19.999 L25.000,22.435 C25.000,23.298 24.300,23.998 23.437,23.998 ZM1.000,22.212 C1.000,22.646 1.351,22.998 1.785,22.998 L5.000,22.998 L5.000,19.999 L1.000,19.999 L1.000,22.212 ZM5.000,0.998 L1.785,0.998 C1.351,0.998 1.000,1.350 1.000,1.784 L1.000,3.998 L5.000,3.998 L5.000,0.998 ZM5.000,4.998 L1.000,4.998 L1.000,8.998 L5.000,8.998 L5.000,4.998 ZM5.000,11.998 L5.000,10.998 L5.000,9.998 L1.000,9.998 L1.000,13.998 L5.000,13.998 L5.000,11.998 ZM1.000,14.998 L1.000,18.999 L5.000,18.999 L5.000,14.998 L1.000,14.998 ZM19.000,9.998 L19.000,8.998 L19.000,4.998 L19.000,3.998 L19.000,0.998 L6.000,0.998 L6.000,3.998 L6.000,4.998 L6.000,8.998 L6.000,9.998 L6.000,10.998 L19.000,10.998 L19.000,9.998 ZM19.000,19.999 L19.000,18.999 L19.000,14.998 L19.000,13.998 L19.000,11.998 L6.000,11.998 L6.000,13.998 L6.000,14.998 L6.000,18.999 L6.000,19.999 L6.000,22.998 L19.000,22.998 L19.000,19.999 ZM24.000,1.784 C24.000,1.350 23.648,0.998 23.214,0.998 L20.000,0.998 L20.000,3.998 L24.000,3.998 L24.000,1.784 ZM24.000,4.998 L20.000,4.998 L20.000,8.998 L24.000,8.998 L24.000,4.998 ZM24.000,9.998 L20.000,9.998 L20.000,10.998 L20.000,11.998 L20.000,13.998 L24.000,13.998 L24.000,9.998 ZM24.000,14.998 L20.000,14.998 L20.000,18.999 L24.000,18.999 L24.000,14.998 ZM24.000,19.999 L20.000,19.999 L20.000,22.998 L23.214,22.998 C23.648,22.998 24.000,22.646 24.000,22.212 L24.000,19.999 Z" class="cls-1"/>
</svg>
