<svg xmlns="http://www.w3.org/2000/svg" xmlns:xlink="http://www.w3.org/1999/xlink" preserveAspectRatio="xMidYMid" width="25" height="23" viewBox="0 0 25 23">
  <defs>
    <style>
      .cls-1 {
        fill: #3c4042;
        fill-rule: evenodd;
      }
    </style>
  </defs>
  <path d="M23.000,18.004 L21.000,18.004 L21.000,17.002 L23.000,17.002 L23.000,18.004 ZM21.000,5.002 L23.000,5.002 L23.000,6.003 L21.000,6.003 L21.000,5.002 ZM19.000,18.004 L17.000,18.004 L17.000,17.002 L19.000,17.002 L19.000,18.004 ZM17.000,5.002 L19.000,5.002 L19.000,6.003 L17.000,6.003 L17.000,5.002 ZM23.444,20.997 L16.000,20.997 L16.000,19.997 L23.214,19.997 C23.648,19.997 24.000,19.652 24.000,19.224 L24.000,2.771 C24.000,2.344 23.648,1.997 23.214,1.997 L12.785,1.997 C12.352,1.997 12.000,2.344 12.000,2.771 L12.000,17.997 L12.000,19.224 L12.000,20.886 C11.994,20.884 11.987,20.885 11.981,20.883 C11.888,22.064 10.930,22.997 9.750,22.997 L2.250,22.997 C1.007,22.997 -0.000,21.967 -0.000,20.697 L-0.000,2.297 C-0.000,1.027 1.007,-0.002 2.250,-0.002 L9.750,-0.002 C10.623,-0.002 11.372,0.512 11.745,1.255 C11.984,1.106 12.251,0.997 12.555,0.997 L23.444,0.997 C24.303,0.997 25.000,1.686 25.000,2.536 L25.000,19.460 C25.000,20.309 24.303,20.997 23.444,20.997 ZM11.000,19.460 L11.000,2.536 L11.000,1.766 C11.000,1.342 10.664,0.997 10.250,0.997 L1.750,0.997 C1.336,0.997 1.000,1.342 1.000,1.766 L1.000,21.228 C1.000,21.653 1.336,21.997 1.750,21.997 L10.250,21.997 C10.664,21.997 11.000,21.653 11.000,21.228 L11.000,19.460 ZM15.000,6.003 L13.000,6.003 L13.000,5.002 L15.000,5.002 L15.000,6.003 ZM15.000,18.004 L13.000,18.004 L13.000,17.002 L15.000,17.002 L15.000,18.004 Z" class="cls-1"/>
</svg>
