<svg xmlns="http://www.w3.org/2000/svg" xmlns:xlink="http://www.w3.org/1999/xlink" preserveAspectRatio="xMidYMid" width="25" height="25" viewBox="0 0 25 25">
  <defs>
    <style>
      .cls-1 {
        fill: #3c4042;
        fill-rule: evenodd;
      }
    </style>
  </defs>
  <path d="M23.437,24.997 L1.562,24.997 C0.699,24.997 -0.000,24.297 -0.000,23.434 L-0.000,19.497 C-0.003,19.468 -0.003,19.446 -0.000,19.417 L-0.000,1.560 C-0.000,0.697 0.699,-0.003 1.562,-0.003 L23.437,-0.003 C24.300,-0.003 25.000,0.697 25.000,1.560 L25.000,23.434 C25.000,24.297 24.300,24.997 23.437,24.997 ZM1.785,23.997 L17.403,23.997 L8.455,14.160 L1.000,19.740 L1.000,23.212 C1.000,23.645 1.351,23.997 1.785,23.997 ZM24.000,1.782 C24.000,1.348 23.648,0.997 23.214,0.997 L1.785,0.997 C1.351,0.997 1.000,1.348 1.000,1.782 L1.000,18.440 L8.086,13.137 C8.093,13.129 8.105,13.132 8.112,13.125 C8.115,13.123 8.114,13.118 8.116,13.116 C8.302,12.930 8.603,12.930 8.788,13.116 L8.794,13.121 C8.804,13.130 8.820,13.126 8.830,13.137 C8.842,13.149 8.837,13.168 8.849,13.182 L11.371,15.955 L19.135,9.154 C19.139,9.150 19.137,9.144 19.141,9.140 C19.146,9.135 19.154,9.138 19.160,9.133 L19.181,9.114 C19.367,8.928 19.669,8.928 19.855,9.114 C19.869,9.128 19.864,9.149 19.876,9.164 L24.000,13.288 L24.000,1.782 ZM24.000,14.709 L19.441,10.151 L12.012,16.659 L18.687,23.997 L23.214,23.997 C23.648,23.997 24.000,23.645 24.000,23.212 L24.000,14.709 ZM6.000,8.997 C4.343,8.997 2.999,7.653 2.999,5.997 C2.999,4.339 4.343,2.996 6.000,2.996 C7.656,2.996 8.999,4.339 8.999,5.997 C8.999,7.653 7.656,8.997 6.000,8.997 ZM6.000,3.998 C4.895,3.998 4.000,4.894 4.000,5.999 C4.000,7.103 4.895,7.999 6.000,7.999 C7.104,7.999 8.000,7.103 8.000,5.999 C8.000,4.894 7.104,3.998 6.000,3.998 Z" class="cls-1"/>
</svg>
