<svg xmlns="http://www.w3.org/2000/svg" xmlns:xlink="http://www.w3.org/1999/xlink" preserveAspectRatio="xMidYMid" width="25" height="25" viewBox="0 0 25 25">
  <defs>
    <style>
      .cls-1 {
        fill: #3c4042;
        fill-rule: evenodd;
      }
    </style>
  </defs>
  <path d="M25.000,19.998 L25.000,23.435 C25.000,24.298 24.300,24.998 23.437,24.998 L1.562,24.998 C0.699,24.998 -0.000,24.298 -0.000,23.435 L-0.000,1.559 C-0.000,0.697 0.699,-0.002 1.562,-0.002 L23.437,-0.002 C24.300,-0.002 25.000,0.697 25.000,1.559 L25.000,18.998 L25.000,18.998 L25.000,19.998 L25.000,19.998 ZM16.933,16.751 C16.916,16.780 16.891,16.799 16.869,16.823 C16.861,16.832 16.865,16.846 16.856,16.855 C16.849,16.862 16.839,16.859 16.832,16.865 C16.748,16.940 16.645,16.981 16.534,16.988 C16.524,16.989 16.516,16.991 16.505,16.990 C16.418,16.992 16.330,16.978 16.250,16.932 C16.183,16.894 16.132,16.841 16.091,16.782 L10.577,12.177 L4.656,18.998 L24.000,18.998 L24.000,5.260 L16.933,16.751 ZM1.000,23.212 C1.000,23.645 1.351,23.997 1.785,23.997 L23.214,23.997 C23.648,23.997 24.000,23.645 24.000,23.212 L24.000,19.998 L1.000,19.998 L1.000,23.212 ZM23.214,0.997 L1.785,0.997 C1.351,0.997 1.000,1.349 1.000,1.783 L1.000,18.998 L3.268,18.998 L9.982,11.264 C10.014,11.212 10.059,11.170 10.105,11.133 C10.111,11.127 10.108,11.118 10.114,11.113 C10.140,11.087 10.179,11.093 10.209,11.074 C10.247,11.055 10.284,11.035 10.326,11.025 C10.432,10.994 10.526,11.002 10.629,11.046 C10.662,11.057 10.696,11.060 10.727,11.077 C10.737,11.082 10.742,11.091 10.751,11.096 C10.763,11.106 10.780,11.102 10.791,11.113 L16.366,15.769 L24.000,3.356 L24.000,1.783 C24.000,1.349 23.648,0.997 23.214,0.997 ZM7.500,8.996 C6.119,8.996 4.999,7.878 4.999,6.497 C4.999,5.116 6.119,3.997 7.500,3.997 C8.880,3.997 10.000,5.116 10.000,6.497 C10.000,7.878 8.880,8.996 7.500,8.996 ZM7.500,4.999 C6.671,4.999 6.000,5.671 6.000,6.499 C6.000,7.327 6.671,7.999 7.500,7.999 C8.328,7.999 9.000,7.327 9.000,6.499 C9.000,5.671 8.328,4.999 7.500,4.999 Z" class="cls-1"/>
</svg>
