<svg xmlns="http://www.w3.org/2000/svg" xmlns:xlink="http://www.w3.org/1999/xlink" preserveAspectRatio="xMidYMid" width="25" height="23" viewBox="0 0 25 23">
  <defs>
    <style>
      .cls-1 {
        fill: #3c4042;
        fill-rule: evenodd;
      }
    </style>
  </defs>
  <path d="M23.000,18.004 L21.000,18.004 L21.000,17.002 L23.000,17.002 L23.000,18.004 ZM21.000,5.002 L23.000,5.002 L23.000,6.003 L21.000,6.003 L21.000,5.002 ZM19.000,18.004 L17.000,18.004 L17.000,17.002 L19.000,17.002 L19.000,18.004 ZM17.000,5.002 L19.000,5.002 L19.000,6.003 L17.000,6.003 L17.000,5.002 ZM15.000,18.004 L13.000,18.004 L13.000,17.002 L15.000,17.002 L15.000,18.004 ZM13.000,5.002 L15.000,5.002 L15.000,6.003 L13.000,6.003 L13.000,5.002 ZM23.444,20.995 L12.555,20.995 C12.555,20.995 12.554,20.995 12.553,20.995 L16.000,20.995 L16.000,19.993 L23.214,19.993 C23.648,19.993 24.000,19.648 24.000,19.220 L24.000,3.774 C24.000,3.347 23.648,3.001 23.214,3.001 L12.786,3.001 C12.352,3.001 12.000,3.347 12.000,3.774 L12.000,3.999 L12.000,3.999 L12.000,17.991 L12.000,17.991 L12.000,19.000 L12.000,19.000 L12.000,19.999 L12.000,19.999 L12.000,20.890 C11.994,20.888 11.987,20.889 11.981,20.887 C11.885,22.066 10.929,22.997 9.750,22.997 L2.250,22.997 C1.007,22.997 -0.000,21.967 -0.000,20.697 L-0.000,2.297 C-0.000,1.027 1.007,-0.002 2.250,-0.002 L9.750,-0.002 C10.929,-0.002 11.886,0.928 11.981,2.108 C12.159,2.041 12.352,1.999 12.555,1.999 L23.444,1.999 C24.303,1.999 25.000,2.654 25.000,3.460 L25.000,19.534 C25.000,20.341 24.303,20.995 23.444,20.995 ZM2.000,21.999 L10.000,21.999 C10.552,21.999 11.000,21.551 11.000,20.999 L11.000,19.999 L1.000,19.999 L1.000,20.999 C1.000,21.551 1.448,21.999 2.000,21.999 ZM11.000,1.999 C11.000,1.447 10.552,0.999 10.000,0.999 L2.000,0.999 C1.448,0.999 1.000,1.447 1.000,1.999 L1.000,2.999 L11.000,2.999 L11.000,1.999 ZM1.000,3.999 L1.000,19.000 L11.000,19.000 L11.000,3.999 L1.000,3.999 Z" class="cls-1"/>
</svg>
