<svg xmlns="http://www.w3.org/2000/svg" xmlns:xlink="http://www.w3.org/1999/xlink" preserveAspectRatio="xMidYMid" width="25" height="21" viewBox="0 0 25 21">
  <defs>
    <style>
      .cls-1 {
        fill: #3c4042;
        fill-rule: evenodd;
      }
    </style>
  </defs>
  <path d="M15.000,16.499 C15.000,16.776 14.776,16.999 14.500,16.999 L5.500,16.999 C5.224,16.999 5.000,16.776 5.000,16.499 C5.000,16.223 5.224,16.000 5.500,16.000 L14.500,16.000 C14.776,16.000 15.000,16.223 15.000,16.499 ZM24.200,19.999 L20.000,17.334 L20.000,19.497 C20.000,20.327 19.311,20.998 18.461,20.998 L1.538,20.998 C0.689,20.998 -0.000,20.327 -0.000,19.497 L-0.000,7.498 C-0.000,6.669 0.689,5.998 1.538,5.998 L8.000,5.998 L8.000,6.998 L1.772,6.998 C1.346,6.998 1.000,7.361 1.000,7.811 L1.000,19.186 C1.000,19.635 1.346,19.998 1.772,19.998 L18.227,19.998 C18.654,19.998 19.000,19.635 19.000,19.186 L19.000,7.811 C19.000,7.361 18.654,6.998 18.227,6.998 L15.805,6.998 L14.834,5.998 L15.255,5.998 L10.256,0.999 L2.500,0.999 C2.224,0.999 2.000,0.775 2.000,0.499 C2.000,0.223 2.224,-0.001 2.500,-0.001 L10.424,-0.001 C10.585,-0.028 10.756,0.011 10.881,0.136 L16.743,5.998 L18.461,5.998 C19.311,5.998 20.000,6.669 20.000,7.498 L20.000,9.666 L24.200,6.999 C24.641,6.999 25.000,7.362 25.000,7.812 L25.000,19.188 C25.000,19.637 24.641,19.999 24.200,19.999 ZM24.000,8.311 L20.000,10.851 L20.000,16.149 L24.000,18.687 L24.000,8.311 Z" class="cls-1"/>
</svg>
