<svg xmlns="http://www.w3.org/2000/svg" xmlns:xlink="http://www.w3.org/1999/xlink" preserveAspectRatio="xMidYMid" width="25" height="25" viewBox="0 0 25 25">
  <defs>
    <style>
      .cls-1 {
        fill: #3c4042;
        fill-rule: evenodd;
      }
    </style>
  </defs>
  <path d="M24.500,22.000 C24.224,22.000 24.000,21.775 24.000,21.499 L24.000,0.999 L3.500,0.999 C3.224,0.999 3.000,0.775 3.000,0.499 C3.000,0.223 3.224,-0.002 3.500,-0.002 L24.500,-0.002 C24.776,-0.002 25.000,0.223 25.000,0.499 L25.000,21.499 C25.000,21.775 24.776,22.000 24.500,22.000 ZM22.000,4.568 L22.000,23.425 C22.000,24.293 21.296,24.998 20.428,24.998 L1.571,24.998 C0.703,24.998 -0.000,24.293 -0.000,23.425 L-0.000,4.568 C-0.000,3.701 0.703,2.997 1.571,2.997 L20.428,2.997 C21.296,2.997 22.000,3.701 22.000,4.568 ZM2.000,3.999 C1.447,3.999 1.000,4.446 1.000,4.999 L1.000,22.999 C1.000,23.552 1.447,23.999 2.000,23.999 L20.000,23.999 C20.552,23.999 21.000,23.552 21.000,22.999 L21.000,4.999 C21.000,4.446 20.552,3.999 20.000,3.999 L2.000,3.999 ZM13.839,18.828 C13.741,18.926 13.612,18.971 13.483,18.969 C13.350,18.972 13.218,18.928 13.117,18.826 L7.673,16.116 L3.881,21.829 C3.675,22.035 3.342,22.035 3.137,21.829 C2.932,21.624 2.932,21.291 3.137,21.085 L7.086,15.136 C7.197,15.025 7.344,14.986 7.490,14.996 C7.621,14.994 7.752,15.040 7.852,15.140 L13.327,17.867 L18.129,11.140 C18.322,10.947 18.635,10.947 18.828,11.140 C19.021,11.333 19.021,11.646 18.828,11.838 L13.839,18.828 ZM5.500,10.997 C4.119,10.997 3.000,9.878 3.000,8.497 C3.000,7.116 4.119,5.997 5.500,5.997 C6.880,5.997 8.000,7.116 8.000,8.497 C8.000,9.878 6.880,10.997 5.500,10.997 ZM5.500,6.999 C4.671,6.999 4.000,7.671 4.000,8.499 C4.000,9.327 4.671,9.999 5.500,9.999 C6.328,9.999 7.000,9.327 7.000,8.499 C7.000,7.671 6.328,6.999 5.500,6.999 Z" class="cls-1"/>
</svg>
