<svg xmlns="http://www.w3.org/2000/svg" xmlns:xlink="http://www.w3.org/1999/xlink" preserveAspectRatio="xMidYMid" width="23" height="25" viewBox="0 0 23 25">
  <defs>
    <style>
      .cls-1 {
        fill: #3c4042;
        fill-rule: evenodd;
      }
    </style>
  </defs>
  <path d="M21.466,24.998 L1.533,24.998 C0.686,24.998 -0.000,24.297 -0.000,23.435 L-0.000,1.559 C-0.000,0.696 0.686,-0.003 1.533,-0.003 L21.466,-0.003 C22.313,-0.003 23.000,0.696 23.000,1.559 L23.000,23.435 C23.000,24.297 22.313,24.998 21.466,24.998 ZM21.998,1.782 C21.998,1.349 21.653,0.997 21.228,0.997 L1.771,0.997 C1.346,0.997 1.002,1.349 1.002,1.782 L1.002,23.211 C1.002,23.645 1.346,23.997 1.771,23.997 L21.228,23.997 C21.653,23.997 21.998,23.645 21.998,23.211 L21.998,1.782 ZM18.451,19.997 L4.549,19.997 C3.695,19.997 3.004,19.305 3.004,18.452 L3.004,4.542 C3.004,3.689 3.695,2.997 4.549,2.997 L18.451,2.997 C19.304,2.997 19.995,3.689 19.995,4.542 L19.995,18.452 C19.995,19.305 19.304,19.997 18.451,19.997 ZM4.006,18.219 C4.006,18.649 4.354,18.998 4.783,18.998 L18.216,18.998 C18.645,18.998 18.993,18.649 18.993,18.219 L18.993,14.760 L15.545,10.428 L12.037,16.752 C11.923,16.926 11.709,16.979 11.496,16.958 C11.433,16.966 11.383,16.952 11.320,16.937 C11.306,16.931 11.291,16.939 11.278,16.932 C11.264,16.925 11.257,16.913 11.244,16.906 C11.175,16.879 11.098,16.878 11.043,16.823 L8.435,13.315 L4.791,17.855 C4.604,18.042 4.301,18.042 4.114,17.855 C4.042,17.783 4.023,17.688 4.006,17.595 L4.006,18.219 ZM18.216,3.996 L4.783,3.996 C4.354,3.996 4.006,4.345 4.006,4.775 L4.006,17.438 C4.023,17.345 4.042,17.250 4.114,17.178 L8.074,12.244 C8.095,12.209 8.112,12.172 8.142,12.141 C8.148,12.135 8.157,12.138 8.163,12.132 L8.179,12.113 C8.366,11.926 8.669,11.926 8.856,12.113 C8.856,12.113 8.856,12.114 8.856,12.114 C8.876,12.129 8.904,12.123 8.922,12.141 L11.462,15.557 L14.963,9.247 C15.060,9.097 15.232,9.039 15.412,9.029 C15.592,8.986 15.781,9.000 15.922,9.141 L18.993,13.000 L18.993,4.775 C18.993,4.345 18.645,3.996 18.216,3.996 Z" class="cls-1"/>
</svg>
