<svg xmlns="http://www.w3.org/2000/svg" xmlns:xlink="http://www.w3.org/1999/xlink" preserveAspectRatio="xMidYMid" width="25" height="25" viewBox="0 0 25 25">
  <defs>
    <style>
      .cls-1 {
        fill: #3c4042;
        fill-rule: evenodd;
      }
    </style>
  </defs>
  <path d="M23.437,24.997 L1.562,24.997 C0.699,24.997 -0.000,24.297 -0.000,23.434 L-0.000,1.559 C-0.000,0.696 0.699,-0.002 1.562,-0.002 L23.437,-0.002 C24.300,-0.002 25.000,0.696 25.000,1.559 L25.000,23.434 C25.000,24.297 24.300,24.997 23.437,24.997 ZM24.000,1.783 C24.000,1.349 23.648,0.997 23.214,0.997 L1.785,0.997 C1.351,0.997 1.000,1.349 1.000,1.783 L1.000,23.211 C1.000,23.645 1.351,23.997 1.785,23.997 L23.214,23.997 C23.648,23.997 24.000,23.645 24.000,23.211 L24.000,1.783 ZM14.839,17.828 C14.741,17.926 14.612,17.971 14.483,17.969 C14.350,17.972 14.218,17.928 14.117,17.826 L8.622,14.171 L3.881,20.829 C3.675,21.034 3.342,21.034 3.137,20.829 C2.932,20.623 2.932,20.290 3.137,20.085 L8.086,13.136 C8.198,13.025 8.344,12.986 8.490,12.996 C8.621,12.994 8.752,13.041 8.852,13.140 L14.400,16.832 L21.130,9.139 C21.323,8.946 21.635,8.946 21.828,9.139 C22.021,9.333 22.021,9.646 21.828,9.839 L14.839,17.828 ZM6.500,9.997 C5.119,9.997 4.000,8.878 4.000,7.497 C4.000,6.116 5.119,4.997 6.500,4.997 C7.880,4.997 9.000,6.116 9.000,7.497 C9.000,8.878 7.880,9.997 6.500,9.997 ZM6.500,5.999 C5.671,5.999 5.000,6.671 5.000,7.499 C5.000,8.327 5.671,8.999 6.500,8.999 C7.328,8.999 8.000,8.327 8.000,7.499 C8.000,6.671 7.328,5.999 6.500,5.999 Z" class="cls-1"/>
</svg>
