<svg xmlns="http://www.w3.org/2000/svg" xmlns:xlink="http://www.w3.org/1999/xlink" preserveAspectRatio="xMidYMid" width="24" height="19" viewBox="0 0 24 19">
  <defs>
    <style>
      .cls-1 {
        fill: #3c4042;
        fill-rule: evenodd;
      }
    </style>
  </defs>
  <path d="M23.214,18.998 L19.000,18.998 L18.000,18.998 L2.785,18.998 C2.351,18.998 2.000,18.640 2.000,18.198 L2.000,11.798 C2.000,11.356 2.351,10.998 2.785,10.998 L18.000,10.998 L19.000,10.998 L23.214,10.998 C23.648,10.998 24.000,11.356 24.000,11.798 L24.000,18.198 C24.000,18.640 23.648,18.998 23.214,18.998 ZM3.000,11.997 L3.000,17.998 L18.000,17.998 L18.000,11.997 L3.000,11.997 ZM23.000,11.997 L19.000,11.997 L19.000,17.998 L23.000,17.998 L23.000,11.997 ZM4.000,-0.002 L5.000,-0.002 L5.000,7.998 L4.000,7.998 L4.000,-0.002 ZM1.000,3.998 L2.000,3.998 L2.000,7.998 L1.000,7.998 L1.000,3.998 ZM1.000,18.998 L-0.000,18.998 L-0.000,10.998 L1.000,10.998 L1.000,18.998 Z" class="cls-1"/>
</svg>
