<svg xmlns="http://www.w3.org/2000/svg" xmlns:xlink="http://www.w3.org/1999/xlink" preserveAspectRatio="xMidYMid" width="24" height="23" viewBox="0 0 24 23">
  <defs>
    <style>
      .cls-1 {
        fill: #3c4042;
        fill-rule: evenodd;
      }
    </style>
  </defs>
  <path d="M23.214,18.998 L19.000,18.998 L18.000,18.998 L12.302,18.998 L12.885,17.998 L18.000,17.998 L18.000,11.998 L16.385,11.998 L16.968,10.998 L18.000,10.998 L19.000,10.998 L23.214,10.998 C23.648,10.998 24.000,11.357 24.000,11.798 L24.000,18.198 C24.000,18.640 23.648,18.998 23.214,18.998 ZM23.000,11.998 L19.000,11.998 L19.000,17.998 L23.000,17.998 L23.000,11.998 ZM6.747,22.503 L16.375,5.994 L17.253,6.495 L7.624,23.004 L6.747,22.503 ZM3.000,11.998 L3.000,17.998 L7.033,17.998 L6.450,18.998 L2.785,18.998 C2.352,18.998 2.000,18.640 2.000,18.198 L2.000,11.798 C2.000,11.357 2.352,10.998 2.785,10.998 L11.116,10.998 L10.533,11.998 L3.000,11.998 ZM4.000,-0.002 L5.000,-0.002 L5.000,7.998 L4.000,7.998 L4.000,-0.002 ZM1.000,3.999 L2.000,3.999 L2.000,7.998 L1.000,7.998 L1.000,3.999 ZM1.000,18.998 L-0.000,18.998 L-0.000,10.998 L1.000,10.998 L1.000,18.998 Z" class="cls-1"/>
</svg>
